<svg width="958" height="256" viewBox="0 0 958 256" fill="none" xmlns="http://www.w3.org/2000/svg">
<path d="M-20 4C-20 1.79086 -18.2091 0 -16 0H953.443C955.652 0 957.443 1.79086 957.443 4V252C957.443 254.209 955.652 256 953.443 256H-16C-18.2091 256 -20 254.209 -20 252V4Z" fill="#F2F5FB"/>
<g clip-path="url(#clip0_1_1948)">
<path d="M585.722 58H351.722V198H585.722V58Z" fill="white"/>
<path d="M362.625 188V187.233L365.506 184.08C365.844 183.71 366.122 183.389 366.341 183.116C366.56 182.841 366.722 182.582 366.827 182.341C366.935 182.097 366.989 181.841 366.989 181.574C366.989 181.267 366.915 181.001 366.767 180.777C366.622 180.553 366.423 180.379 366.171 180.257C365.918 180.135 365.634 180.074 365.318 180.074C364.983 180.074 364.69 180.143 364.44 180.283C364.193 180.419 364.002 180.611 363.865 180.858C363.732 181.105 363.665 181.395 363.665 181.727H362.659C362.659 181.216 362.777 180.767 363.013 180.381C363.249 179.994 363.57 179.693 363.976 179.477C364.385 179.261 364.844 179.153 365.352 179.153C365.864 179.153 366.317 179.261 366.712 179.477C367.107 179.693 367.416 179.984 367.641 180.351C367.865 180.717 367.977 181.125 367.977 181.574C367.977 181.895 367.919 182.209 367.803 182.516C367.689 182.82 367.49 183.159 367.206 183.534C366.925 183.906 366.534 184.361 366.034 184.898L364.074 186.994V187.062H368.131V188H362.625Z" fill="black"/>
<path d="M387.722 68H385.722V178H387.722V68Z" fill="black"/>
<path d="M391.722 68H389.722V178H391.722V68Z" fill="black"/>
<path d="M401.722 68H393.722V168H401.722V68Z" fill="black"/>
<path d="M405.722 68H403.722V168H405.722V68Z" fill="black"/>
<path d="M413.722 68H407.722V168H413.722V68Z" fill="black"/>
<path d="M419.722 68H415.722V168H419.722V68Z" fill="black"/>
<path d="M427.722 68H421.722V168H427.722V68Z" fill="black"/>
<path d="M433.722 68H431.722V168H433.722V68Z" fill="black"/>
<path d="M437.722 68H435.722V168H437.722V68Z" fill="black"/>
<path d="M447.722 68H445.722V168H447.722V68Z" fill="black"/>
<path d="M453.722 68H451.722V168H453.722V68Z" fill="black"/>
<path d="M461.722 68H457.722V168H461.722V68Z" fill="black"/>
<path d="M471.722 68H469.722V168H471.722V68Z" fill="black"/>
<path d="M475.722 68H473.722V168H475.722V68Z" fill="black"/>
<path d="M415.537 188.119C414.974 188.119 414.473 188.023 414.033 187.83C413.595 187.636 413.247 187.368 412.989 187.024C412.733 186.678 412.594 186.276 412.571 185.818H413.645C413.668 186.099 413.764 186.342 413.935 186.547C414.105 186.749 414.328 186.905 414.604 187.016C414.879 187.126 415.185 187.182 415.52 187.182C415.895 187.182 416.227 187.116 416.517 186.986C416.807 186.855 417.034 186.673 417.199 186.44C417.364 186.207 417.446 185.938 417.446 185.631C417.446 185.31 417.366 185.027 417.207 184.783C417.048 184.536 416.815 184.342 416.508 184.203C416.202 184.064 415.827 183.994 415.383 183.994H414.685V183.057H415.383C415.73 183.057 416.034 182.994 416.295 182.869C416.56 182.744 416.766 182.568 416.913 182.341C417.064 182.114 417.139 181.847 417.139 181.54C417.139 181.244 417.074 180.987 416.943 180.768C416.812 180.55 416.628 180.379 416.389 180.257C416.153 180.135 415.875 180.074 415.554 180.074C415.253 180.074 414.969 180.129 414.702 180.24C414.437 180.348 414.222 180.506 414.054 180.713C413.886 180.918 413.795 181.165 413.781 181.455H412.758C412.775 180.997 412.913 180.597 413.172 180.253C413.43 179.906 413.768 179.636 414.186 179.443C414.606 179.25 415.068 179.153 415.571 179.153C416.111 179.153 416.574 179.263 416.96 179.482C417.347 179.697 417.643 179.983 417.851 180.338C418.058 180.693 418.162 181.077 418.162 181.489C418.162 181.98 418.033 182.399 417.774 182.746C417.518 183.092 417.17 183.332 416.73 183.466V183.534C417.281 183.625 417.712 183.859 418.021 184.237C418.331 184.612 418.486 185.077 418.486 185.631C418.486 186.105 418.356 186.531 418.098 186.909C417.842 187.284 417.493 187.58 417.05 187.795C416.606 188.011 416.102 188.119 415.537 188.119ZM420.501 188L424.405 180.278V180.21H419.905V179.273H425.496V180.261L421.609 188H420.501ZM429.694 188.119C429.194 188.119 428.744 188.02 428.343 187.821C427.943 187.622 427.622 187.349 427.38 187.003C427.139 186.656 427.007 186.261 426.984 185.818H428.007C428.046 186.213 428.225 186.54 428.544 186.798C428.865 187.054 429.248 187.182 429.694 187.182C430.052 187.182 430.37 187.098 430.649 186.93C430.93 186.763 431.15 186.533 431.309 186.24C431.471 185.945 431.552 185.611 431.552 185.239C431.552 184.858 431.468 184.518 431.301 184.22C431.136 183.919 430.909 183.682 430.619 183.509C430.329 183.335 429.998 183.247 429.626 183.244C429.359 183.241 429.085 183.283 428.804 183.368C428.522 183.45 428.291 183.557 428.109 183.688L427.12 183.568L427.649 179.273H432.183V180.21H428.535L428.228 182.784H428.279C428.458 182.642 428.683 182.524 428.953 182.43C429.223 182.337 429.504 182.29 429.796 182.29C430.331 182.29 430.806 182.418 431.224 182.673C431.644 182.926 431.974 183.273 432.213 183.713C432.454 184.153 432.575 184.656 432.575 185.222C432.575 185.778 432.45 186.276 432.2 186.713C431.953 187.148 431.612 187.491 431.177 187.744C430.742 187.994 430.248 188.119 429.694 188.119ZM437.217 188.119C436.654 188.119 436.153 188.023 435.712 187.83C435.275 187.636 434.927 187.368 434.668 187.024C434.413 186.678 434.273 186.276 434.251 185.818H435.324C435.347 186.099 435.444 186.342 435.614 186.547C435.785 186.749 436.008 186.905 436.283 187.016C436.559 187.126 436.864 187.182 437.199 187.182C437.574 187.182 437.907 187.116 438.197 186.986C438.486 186.855 438.714 186.673 438.878 186.44C439.043 186.207 439.126 185.938 439.126 185.631C439.126 185.31 439.046 185.027 438.887 184.783C438.728 184.536 438.495 184.342 438.188 184.203C437.881 184.064 437.506 183.994 437.063 183.994H436.364V183.057H437.063C437.41 183.057 437.714 182.994 437.975 182.869C438.239 182.744 438.445 182.568 438.593 182.341C438.744 182.114 438.819 181.847 438.819 181.54C438.819 181.244 438.753 180.987 438.623 180.768C438.492 180.55 438.307 180.379 438.069 180.257C437.833 180.135 437.555 180.074 437.234 180.074C436.932 180.074 436.648 180.129 436.381 180.24C436.117 180.348 435.901 180.506 435.734 180.713C435.566 180.918 435.475 181.165 435.461 181.455H434.438C434.455 180.997 434.593 180.597 434.851 180.253C435.11 179.906 435.448 179.636 435.866 179.443C436.286 179.25 436.748 179.153 437.251 179.153C437.79 179.153 438.253 179.263 438.64 179.482C439.026 179.697 439.323 179.983 439.53 180.338C439.738 180.693 439.842 181.077 439.842 181.489C439.842 181.98 439.712 182.399 439.454 182.746C439.198 183.092 438.85 183.332 438.41 183.466V183.534C438.961 183.625 439.391 183.859 439.701 184.237C440.011 184.612 440.165 185.077 440.165 185.631C440.165 186.105 440.036 186.531 439.778 186.909C439.522 187.284 439.172 187.58 438.729 187.795C438.286 188.011 437.782 188.119 437.217 188.119ZM441.908 188V187.233L444.789 184.08C445.127 183.71 445.405 183.389 445.624 183.116C445.843 182.841 446.005 182.582 446.11 182.341C446.218 182.097 446.272 181.841 446.272 181.574C446.272 181.267 446.198 181.001 446.05 180.777C445.905 180.553 445.707 180.379 445.454 180.257C445.201 180.135 444.917 180.074 444.601 180.074C444.266 180.074 443.974 180.143 443.724 180.283C443.476 180.419 443.285 180.611 443.148 180.858C443.015 181.105 442.948 181.395 442.948 181.727H441.942C441.942 181.216 442.06 180.767 442.296 180.381C442.532 179.994 442.853 179.693 443.259 179.477C443.668 179.261 444.127 179.153 444.636 179.153C445.147 179.153 445.6 179.261 445.995 179.477C446.39 179.693 446.699 179.984 446.924 180.351C447.148 180.717 447.261 181.125 447.261 181.574C447.261 181.895 447.202 182.209 447.086 182.516C446.972 182.82 446.773 183.159 446.489 183.534C446.208 183.906 445.817 184.361 445.317 184.898L443.357 186.994V187.062H447.414V188H441.908ZM452.072 188.119C451.714 188.114 451.356 188.045 450.998 187.915C450.64 187.784 450.313 187.564 450.018 187.254C449.722 186.942 449.485 186.52 449.306 185.989C449.127 185.455 449.038 184.784 449.038 183.977C449.038 183.205 449.11 182.52 449.255 181.923C449.4 181.324 449.61 180.82 449.886 180.411C450.161 179.999 450.494 179.686 450.883 179.473C451.275 179.26 451.717 179.153 452.208 179.153C452.697 179.153 453.131 179.251 453.512 179.447C453.896 179.641 454.208 179.911 454.449 180.257C454.691 180.604 454.847 181.003 454.918 181.455H453.878C453.782 181.062 453.594 180.737 453.316 180.479C453.038 180.22 452.668 180.091 452.208 180.091C451.532 180.091 450.999 180.385 450.61 180.973C450.224 181.561 450.029 182.386 450.026 183.449H450.094C450.253 183.207 450.442 183.001 450.661 182.831C450.883 182.658 451.127 182.524 451.394 182.43C451.661 182.337 451.944 182.29 452.242 182.29C452.742 182.29 453.199 182.415 453.614 182.665C454.029 182.912 454.361 183.254 454.611 183.692C454.861 184.126 454.986 184.625 454.986 185.188C454.986 185.727 454.866 186.222 454.624 186.67C454.383 187.116 454.043 187.472 453.606 187.736C453.171 187.997 452.66 188.125 452.072 188.119ZM452.072 187.182C452.43 187.182 452.751 187.092 453.035 186.913C453.322 186.734 453.547 186.494 453.712 186.193C453.88 185.892 453.964 185.557 453.964 185.188C453.964 184.827 453.883 184.499 453.721 184.203C453.562 183.905 453.342 183.668 453.06 183.491C452.782 183.315 452.464 183.227 452.106 183.227C451.836 183.227 451.584 183.281 451.351 183.389C451.119 183.494 450.914 183.639 450.738 183.824C450.565 184.009 450.428 184.22 450.329 184.459C450.229 184.695 450.18 184.943 450.18 185.205C450.18 185.551 450.261 185.875 450.422 186.176C450.587 186.477 450.812 186.72 451.096 186.905C451.383 187.089 451.708 187.182 452.072 187.182Z" fill="black"/>
<path d="M479.722 68H477.722V178H479.722V68Z" fill="black"/>
<path d="M483.722 68H481.722V178H483.722V68Z" fill="black"/>
<path d="M487.722 68H485.722V168H487.722V68Z" fill="black"/>
<path d="M495.722 68H493.722V168H495.722V68Z" fill="black"/>
<path d="M501.722 68H499.722V168H501.722V68Z" fill="black"/>
<path d="M511.722 68H505.722V168H511.722V68Z" fill="black"/>
<path d="M519.722 68H513.722V168H519.722V68Z" fill="black"/>
<path d="M523.722 68H521.722V168H523.722V68Z" fill="black"/>
<path d="M531.722 68H527.722V168H531.722V68Z" fill="black"/>
<path d="M537.722 68H533.722V168H537.722V68Z" fill="black"/>
<path d="M545.722 68H541.722V168H545.722V68Z" fill="black"/>
<path d="M553.722 68H549.722V168H553.722V68Z" fill="black"/>
<path d="M557.722 68H555.722V168H557.722V68Z" fill="black"/>
<path d="M565.722 68H559.722V168H565.722V68Z" fill="black"/>
<path d="M507.863 188L511.766 180.278V180.21H507.266V179.273H512.857V180.261L508.971 188H507.863ZM517.055 188.119C516.555 188.119 516.105 188.02 515.705 187.821C515.304 187.622 514.983 187.349 514.742 187.003C514.5 186.656 514.368 186.261 514.345 185.818H515.368C515.408 186.213 515.587 186.54 515.905 186.798C516.226 187.054 516.609 187.182 517.055 187.182C517.413 187.182 517.732 187.098 518.01 186.93C518.291 186.763 518.511 186.533 518.671 186.24C518.832 185.945 518.913 185.611 518.913 185.239C518.913 184.858 518.83 184.518 518.662 184.22C518.497 183.919 518.27 183.682 517.98 183.509C517.69 183.335 517.359 183.247 516.987 183.244C516.72 183.241 516.446 183.283 516.165 183.368C515.884 183.45 515.652 183.557 515.47 183.688L514.482 183.568L515.01 179.273H519.544V180.21H515.896L515.59 182.784H515.641C515.82 182.642 516.044 182.524 516.314 182.43C516.584 182.337 516.865 182.29 517.158 182.29C517.692 182.29 518.168 182.418 518.585 182.673C519.006 182.926 519.335 183.273 519.574 183.713C519.815 184.153 519.936 184.656 519.936 185.222C519.936 185.778 519.811 186.276 519.561 186.713C519.314 187.148 518.973 187.491 518.538 187.744C518.104 187.994 517.609 188.119 517.055 188.119ZM524.407 179.153C524.765 179.156 525.123 179.224 525.481 179.358C525.839 179.491 526.166 179.713 526.461 180.023C526.757 180.33 526.994 180.749 527.173 181.28C527.352 181.811 527.441 182.477 527.441 183.278C527.441 184.054 527.368 184.743 527.22 185.345C527.075 185.945 526.865 186.45 526.589 186.862C526.316 187.274 525.984 187.587 525.592 187.8C525.203 188.013 524.763 188.119 524.271 188.119C523.782 188.119 523.346 188.023 522.963 187.83C522.582 187.634 522.27 187.362 522.025 187.016C521.784 186.666 521.629 186.261 521.561 185.801H522.601C522.694 186.202 522.88 186.533 523.159 186.794C523.44 187.053 523.811 187.182 524.271 187.182C524.944 187.182 525.476 186.888 525.865 186.3C526.257 185.712 526.453 184.881 526.453 183.807H526.385C526.226 184.045 526.037 184.251 525.818 184.425C525.599 184.598 525.356 184.732 525.089 184.825C524.822 184.919 524.538 184.966 524.237 184.966C523.737 184.966 523.278 184.842 522.861 184.595C522.446 184.345 522.113 184.003 521.863 183.568C521.616 183.131 521.493 182.631 521.493 182.068C521.493 181.534 521.612 181.045 521.851 180.602C522.092 180.156 522.43 179.801 522.865 179.537C523.302 179.273 523.816 179.145 524.407 179.153ZM524.407 180.091C524.049 180.091 523.727 180.18 523.44 180.359C523.156 180.536 522.93 180.774 522.763 181.075C522.598 181.374 522.515 181.705 522.515 182.068C522.515 182.432 522.595 182.763 522.754 183.061C522.916 183.357 523.136 183.592 523.415 183.768C523.696 183.942 524.015 184.028 524.373 184.028C524.643 184.028 524.895 183.976 525.128 183.871C525.361 183.763 525.564 183.616 525.737 183.432C525.913 183.244 526.051 183.033 526.15 182.797C526.25 182.558 526.299 182.31 526.299 182.051C526.299 181.71 526.217 181.391 526.052 181.092C525.89 180.794 525.666 180.553 525.379 180.368C525.095 180.183 524.771 180.091 524.407 180.091ZM529.117 188V187.233L531.998 184.08C532.336 183.71 532.614 183.389 532.833 183.116C533.052 182.841 533.214 182.582 533.319 182.341C533.427 182.097 533.481 181.841 533.481 181.574C533.481 181.267 533.407 181.001 533.259 180.777C533.114 180.553 532.916 180.379 532.663 180.257C532.41 180.135 532.126 180.074 531.81 180.074C531.475 180.074 531.183 180.143 530.933 180.283C530.685 180.419 530.494 180.611 530.357 180.858C530.224 181.105 530.157 181.395 530.157 181.727H529.151C529.151 181.216 529.269 180.767 529.505 180.381C529.741 179.994 530.062 179.693 530.468 179.477C530.877 179.261 531.336 179.153 531.845 179.153C532.356 179.153 532.809 179.261 533.204 179.477C533.599 179.693 533.908 179.984 534.133 180.351C534.357 180.717 534.47 181.125 534.47 181.574C534.47 181.895 534.411 182.209 534.295 182.516C534.181 182.82 533.982 183.159 533.698 183.534C533.417 183.906 533.026 184.361 532.526 184.898L530.566 186.994V187.062H534.623V188H529.117ZM539.451 179.273V188H538.394V180.381H538.343L536.212 181.795V180.722L538.394 179.273H539.451ZM541.756 186.21V185.341L545.592 179.273H546.222V180.619H545.796L542.899 185.205V185.273H548.063V186.21H541.756ZM545.864 188V185.946V185.541V179.273H546.87V188H545.864Z" fill="black"/>
<path d="M571.722 68H569.722V178H571.722V68Z" fill="black"/>
<path d="M575.722 68H573.722V178H575.722V68Z" fill="black"/>
</g>
<defs>
<clipPath id="clip0_1_1948">
<rect width="234" height="140" fill="white" transform="translate(351.722 58)"/>
</clipPath>
</defs>
</svg>
