<svg width="950" height="276" viewBox="0 0 950 276" fill="none" xmlns="http://www.w3.org/2000/svg">
<path d="M-28 4C-28 1.79086 -26.2091 0 -24 0H946C948.209 0 950 1.79086 950 4V272C950 274.209 948.209 276 946 276H-24C-26.2092 276 -28 274.209 -28 272V4Z" fill="#F2F5FB"/>
<g clip-path="url(#clip0_1_2129)">
<path d="M596.722 58H306.722V198H596.722V58Z" fill="white"/>
<path d="M318.722 68H316.722V168H318.722V68Z" fill="black"/>
<path d="M322.722 68H320.722V168H322.722V68Z" fill="black"/>
<path d="M330.722 68H324.722V168H330.722V68Z" fill="black"/>
<path d="M338.722 68H336.722V168H338.722V68Z" fill="black"/>
<path d="M350.722 68H344.722V168H350.722V68Z" fill="black"/>
<path d="M354.722 68H352.722V168H354.722V68Z" fill="black"/>
<path d="M358.722 68H356.722V168H358.722V68Z" fill="black"/>
<path d="M362.722 68H360.722V168H362.722V68Z" fill="black"/>
<path d="M374.722 68H368.722V168H374.722V68Z" fill="black"/>
<path d="M382.722 68H376.722V168H382.722V68Z" fill="black"/>
<path d="M386.722 68H384.722V168H386.722V68Z" fill="black"/>
<path d="M394.722 68H392.722V168H394.722V68Z" fill="black"/>
<path d="M398.722 68H396.722V168H398.722V68Z" fill="black"/>
<path d="M406.722 68H400.722V168H406.722V68Z" fill="black"/>
<path d="M418.722 68H412.722V168H418.722V68Z" fill="black"/>
<path d="M422.722 68H420.722V168H422.722V68Z" fill="black"/>
<path d="M426.722 68H424.722V168H426.722V68Z" fill="black"/>
<path d="M434.722 68H432.722V168H434.722V68Z" fill="black"/>
<path d="M442.722 68H436.722V168H442.722V68Z" fill="black"/>
<path d="M446.722 68H444.722V168H446.722V68Z" fill="black"/>
<path d="M454.722 68H448.722V168H454.722V68Z" fill="black"/>
<path d="M462.722 68H460.722V168H462.722V68Z" fill="black"/>
<path d="M470.722 68H468.722V168H470.722V68Z" fill="black"/>
<path d="M478.722 68H476.722V168H478.722V68Z" fill="black"/>
<path d="M490.722 68H484.722V168H490.722V68Z" fill="black"/>
<path d="M494.722 68H492.722V168H494.722V68Z" fill="black"/>
<path d="M502.722 68H496.722V168H502.722V68Z" fill="black"/>
<path d="M506.722 68H504.722V168H506.722V68Z" fill="black"/>
<path d="M514.722 68H512.722V168H514.722V68Z" fill="black"/>
<path d="M518.722 68H516.722V168H518.722V68Z" fill="black"/>
<path d="M526.722 68H520.722V168H526.722V68Z" fill="black"/>
<path d="M538.722 68H532.722V168H538.722V68Z" fill="black"/>
<path d="M542.722 68H540.722V168H542.722V68Z" fill="black"/>
<path d="M550.722 68H544.722V168H550.722V68Z" fill="black"/>
<path d="M558.722 68H556.722V168H558.722V68Z" fill="black"/>
<path d="M562.722 68H560.722V168H562.722V68Z" fill="black"/>
<path d="M570.722 68H564.722V168H570.722V68Z" fill="black"/>
<path d="M582.722 68H576.722V168H582.722V68Z" fill="black"/>
<path d="M586.722 68H584.722V168H586.722V68Z" fill="black"/>
<path d="M404.388 188.119C403.888 188.119 403.437 188.02 403.037 187.821C402.636 187.622 402.315 187.349 402.074 187.003C401.832 186.656 401.7 186.261 401.677 185.818H402.7C402.74 186.213 402.919 186.54 403.237 186.798C403.558 187.054 403.941 187.182 404.388 187.182C404.745 187.182 405.064 187.098 405.342 186.93C405.623 186.763 405.843 186.533 406.003 186.24C406.165 185.945 406.245 185.611 406.245 185.239C406.245 184.858 406.162 184.518 405.994 184.22C405.829 183.919 405.602 183.682 405.312 183.509C405.022 183.335 404.691 183.247 404.319 183.244C404.052 183.241 403.778 183.283 403.497 183.368C403.216 183.45 402.984 183.557 402.802 183.688L401.814 183.568L402.342 179.273H406.876V180.21H403.228L402.922 182.784H402.973C403.152 182.642 403.376 182.524 403.646 182.43C403.916 182.337 404.197 182.29 404.49 182.29C405.024 182.29 405.5 182.418 405.917 182.673C406.338 182.926 406.667 183.273 406.906 183.713C407.147 184.153 407.268 184.656 407.268 185.222C407.268 185.778 407.143 186.276 406.893 186.713C406.646 187.148 406.305 187.491 405.87 187.744C405.436 187.994 404.941 188.119 404.388 188.119Z" fill="black"/>
<path d="M411.91 188.119C411.347 188.119 410.846 188.023 410.406 187.83C409.968 187.636 409.62 187.368 409.362 187.024C409.106 186.678 408.967 186.276 408.944 185.818H410.018C410.041 186.099 410.137 186.342 410.308 186.547C410.478 186.749 410.701 186.905 410.977 187.016C411.252 187.126 411.558 187.182 411.893 187.182C412.268 187.182 412.6 187.116 412.89 186.986C413.18 186.855 413.407 186.673 413.572 186.44C413.737 186.207 413.819 185.938 413.819 185.631C413.819 185.31 413.739 185.027 413.58 184.783C413.421 184.536 413.188 184.342 412.881 184.203C412.575 184.064 412.2 183.994 411.756 183.994H411.058V183.057H411.756C412.103 183.057 412.407 182.994 412.668 182.869C412.933 182.744 413.139 182.568 413.286 182.341C413.437 182.114 413.512 181.847 413.512 181.54C413.512 181.244 413.447 180.987 413.316 180.768C413.185 180.55 413.001 180.379 412.762 180.257C412.526 180.135 412.248 180.074 411.927 180.074C411.626 180.074 411.342 180.129 411.075 180.24C410.81 180.348 410.595 180.506 410.427 180.713C410.259 180.918 410.168 181.165 410.154 181.455H409.131C409.149 180.997 409.286 180.597 409.545 180.253C409.803 179.906 410.141 179.636 410.559 179.443C410.979 179.25 411.441 179.153 411.944 179.153C412.484 179.153 412.947 179.263 413.333 179.482C413.72 179.697 414.016 179.983 414.224 180.338C414.431 180.693 414.535 181.077 414.535 181.489C414.535 181.98 414.406 182.399 414.147 182.746C413.891 183.092 413.543 183.332 413.103 183.466V183.534C413.654 183.625 414.085 183.859 414.394 184.237C414.704 184.612 414.859 185.077 414.859 185.631C414.859 186.105 414.729 186.531 414.471 186.909C414.215 187.284 413.866 187.58 413.423 187.795C412.979 188.011 412.475 188.119 411.91 188.119Z" fill="black"/>
<path d="M419.499 188.119C419.141 188.114 418.783 188.045 418.426 187.915C418.068 187.784 417.741 187.564 417.445 187.254C417.15 186.942 416.913 186.52 416.734 185.989C416.555 185.455 416.465 184.784 416.465 183.977C416.465 183.205 416.538 182.52 416.683 181.923C416.828 181.324 417.038 180.82 417.313 180.411C417.589 179.999 417.921 179.686 418.31 179.473C418.703 179.26 419.144 179.153 419.636 179.153C420.124 179.153 420.559 179.251 420.94 179.447C421.323 179.641 421.636 179.911 421.877 180.257C422.119 180.604 422.275 181.003 422.346 181.455H421.306C421.21 181.062 421.022 180.737 420.744 180.479C420.465 180.22 420.096 180.091 419.636 180.091C418.96 180.091 418.427 180.385 418.038 180.973C417.651 181.561 417.457 182.386 417.454 183.449H417.522C417.681 183.207 417.87 183.001 418.089 182.831C418.31 182.658 418.555 182.524 418.822 182.43C419.089 182.337 419.372 182.29 419.67 182.29C420.17 182.29 420.627 182.415 421.042 182.665C421.457 182.912 421.789 183.254 422.039 183.692C422.289 184.126 422.414 184.625 422.414 185.188C422.414 185.727 422.293 186.222 422.052 186.67C421.81 187.116 421.471 187.472 421.033 187.736C420.599 187.997 420.087 188.125 419.499 188.119ZM419.499 187.182C419.857 187.182 420.178 187.092 420.462 186.913C420.749 186.734 420.975 186.494 421.14 186.193C421.308 185.892 421.391 185.557 421.391 185.188C421.391 184.827 421.31 184.499 421.149 184.203C420.989 183.905 420.769 183.668 420.488 183.491C420.21 183.315 419.891 183.227 419.533 183.227C419.264 183.227 419.012 183.281 418.779 183.389C418.546 183.494 418.342 183.639 418.166 183.824C417.992 184.009 417.856 184.22 417.756 184.459C417.657 184.695 417.607 184.943 417.607 185.205C417.607 185.551 417.688 185.875 417.85 186.176C418.015 186.477 418.239 186.72 418.524 186.905C418.81 187.089 419.136 187.182 419.499 187.182Z" fill="black"/>
<path d="M426.885 188.119C426.3 188.119 425.783 188.016 425.334 187.808C424.888 187.598 424.54 187.31 424.29 186.943C424.04 186.574 423.917 186.153 423.919 185.682C423.917 185.312 423.989 184.972 424.137 184.659C424.285 184.344 424.486 184.081 424.742 183.871C425 183.658 425.289 183.523 425.607 183.466V183.415C425.189 183.307 424.857 183.072 424.61 182.712C424.363 182.348 424.24 181.935 424.243 181.472C424.24 181.028 424.353 180.632 424.58 180.283C424.807 179.933 425.12 179.658 425.517 179.456C425.918 179.254 426.374 179.153 426.885 179.153C427.391 179.153 427.843 179.254 428.241 179.456C428.638 179.658 428.951 179.933 429.178 180.283C429.408 180.632 429.525 181.028 429.527 181.472C429.525 181.935 429.398 182.348 429.148 182.712C428.901 183.072 428.573 183.307 428.164 183.415V183.466C428.479 183.523 428.763 183.658 429.016 183.871C429.269 184.081 429.471 184.344 429.621 184.659C429.772 184.972 429.848 185.312 429.851 185.682C429.848 186.153 429.721 186.574 429.468 186.943C429.218 187.31 428.87 187.598 428.424 187.808C427.981 188.016 427.468 188.119 426.885 188.119ZM426.885 187.182C427.28 187.182 427.621 187.118 427.908 186.99C428.195 186.862 428.417 186.682 428.573 186.449C428.729 186.216 428.809 185.943 428.812 185.631C428.809 185.301 428.723 185.01 428.556 184.757C428.388 184.504 428.16 184.305 427.87 184.161C427.583 184.016 427.255 183.943 426.885 183.943C426.513 183.943 426.181 184.016 425.888 184.161C425.598 184.305 425.37 184.504 425.202 184.757C425.037 185.01 424.956 185.301 424.959 185.631C424.956 185.943 425.032 186.216 425.185 186.449C425.341 186.682 425.564 186.862 425.854 186.99C426.144 187.118 426.488 187.182 426.885 187.182ZM426.885 183.04C427.198 183.04 427.475 182.977 427.716 182.852C427.961 182.727 428.152 182.553 428.292 182.328C428.431 182.104 428.502 181.841 428.505 181.54C428.502 181.244 428.432 180.987 428.296 180.768C428.16 180.547 427.971 180.376 427.729 180.257C427.488 180.135 427.206 180.074 426.885 180.074C426.559 180.074 426.273 180.135 426.029 180.257C425.785 180.376 425.596 180.547 425.462 180.768C425.329 180.987 425.263 181.244 425.266 181.54C425.263 181.841 425.33 182.104 425.466 182.328C425.606 182.553 425.797 182.727 426.042 182.852C426.286 182.977 426.567 183.04 426.885 183.04Z" fill="black"/>
<path d="M434.382 188.119C434.024 188.114 433.666 188.045 433.308 187.915C432.95 187.784 432.624 187.564 432.328 187.254C432.033 186.942 431.796 186.52 431.617 185.989C431.438 185.455 431.348 184.784 431.348 183.977C431.348 183.205 431.421 182.52 431.565 181.923C431.71 181.324 431.921 180.82 432.196 180.411C432.472 179.999 432.804 179.686 433.193 179.473C433.585 179.26 434.027 179.153 434.519 179.153C435.007 179.153 435.442 179.251 435.823 179.447C436.206 179.641 436.519 179.911 436.76 180.257C437.002 180.604 437.158 181.003 437.229 181.455H436.189C436.092 181.062 435.905 180.737 435.627 180.479C435.348 180.22 434.979 180.091 434.519 180.091C433.842 180.091 433.31 180.385 432.921 180.973C432.534 181.561 432.34 182.386 432.337 183.449H432.405C432.564 183.207 432.753 183.001 432.972 182.831C433.193 182.658 433.438 182.524 433.705 182.43C433.972 182.337 434.254 182.29 434.553 182.29C435.053 182.29 435.51 182.415 435.925 182.665C436.34 182.912 436.672 183.254 436.922 183.692C437.172 184.126 437.297 184.625 437.297 185.188C437.297 185.727 437.176 186.222 436.935 186.67C436.693 187.116 436.354 187.472 435.916 187.736C435.482 187.997 434.97 188.125 434.382 188.119ZM434.382 187.182C434.74 187.182 435.061 187.092 435.345 186.913C435.632 186.734 435.858 186.494 436.023 186.193C436.19 185.892 436.274 185.557 436.274 185.188C436.274 184.827 436.193 184.499 436.031 184.203C435.872 183.905 435.652 183.668 435.371 183.491C435.092 183.315 434.774 183.227 434.416 183.227C434.146 183.227 433.895 183.281 433.662 183.389C433.429 183.494 433.225 183.639 433.048 183.824C432.875 184.009 432.739 184.22 432.639 184.459C432.54 184.695 432.49 184.943 432.49 185.205C432.49 185.551 432.571 185.875 432.733 186.176C432.898 186.477 433.122 186.72 433.406 186.905C433.693 187.089 434.019 187.182 434.382 187.182Z" fill="black"/>
<path d="M438.973 188V187.233L441.853 184.08C442.191 183.71 442.47 183.389 442.689 183.116C442.907 182.841 443.069 182.582 443.174 182.341C443.282 182.097 443.336 181.841 443.336 181.574C443.336 181.267 443.263 181.001 443.115 180.777C442.97 180.553 442.771 180.379 442.518 180.257C442.265 180.135 441.981 180.074 441.666 180.074C441.331 180.074 441.038 180.143 440.788 180.283C440.541 180.419 440.349 180.611 440.213 180.858C440.079 181.105 440.013 181.395 440.013 181.727H439.007C439.007 181.216 439.125 180.767 439.361 180.381C439.596 179.994 439.917 179.693 440.324 179.477C440.733 179.261 441.191 179.153 441.7 179.153C442.211 179.153 442.665 179.261 443.059 179.477C443.454 179.693 443.764 179.984 443.988 180.351C444.213 180.717 444.325 181.125 444.325 181.574C444.325 181.895 444.267 182.209 444.15 182.516C444.037 182.82 443.838 183.159 443.554 183.534C443.272 183.906 442.882 184.361 442.382 184.898L440.422 186.994V187.062H444.478V188H438.973Z" fill="black"/>
<path d="M449.017 179.153C449.375 179.156 449.733 179.224 450.091 179.358C450.449 179.491 450.775 179.713 451.071 180.023C451.366 180.33 451.603 180.749 451.782 181.28C451.961 181.811 452.051 182.477 452.051 183.278C452.051 184.054 451.977 184.743 451.829 185.345C451.684 185.945 451.474 186.45 451.199 186.862C450.926 187.274 450.593 187.587 450.201 187.8C449.812 188.013 449.372 188.119 448.88 188.119C448.392 188.119 447.956 188.023 447.572 187.83C447.191 187.634 446.879 187.362 446.635 187.016C446.393 186.666 446.238 186.261 446.17 185.801H447.21C447.304 186.202 447.49 186.533 447.768 186.794C448.049 187.053 448.42 187.182 448.88 187.182C449.554 187.182 450.085 186.888 450.474 186.3C450.866 185.712 451.062 184.881 451.062 183.807H450.994C450.835 184.045 450.646 184.251 450.427 184.425C450.209 184.598 449.966 184.732 449.699 184.825C449.432 184.919 449.147 184.966 448.846 184.966C448.346 184.966 447.888 184.842 447.47 184.595C447.055 184.345 446.723 184.003 446.473 183.568C446.226 183.131 446.102 182.631 446.102 182.068C446.102 181.534 446.221 181.045 446.46 180.602C446.701 180.156 447.04 179.801 447.474 179.537C447.912 179.273 448.426 179.145 449.017 179.153ZM449.017 180.091C448.659 180.091 448.336 180.18 448.049 180.359C447.765 180.536 447.54 180.774 447.372 181.075C447.207 181.374 447.125 181.705 447.125 182.068C447.125 182.432 447.204 182.763 447.363 183.061C447.525 183.357 447.745 183.592 448.024 183.768C448.305 183.942 448.625 184.028 448.983 184.028C449.253 184.028 449.504 183.976 449.737 183.871C449.97 183.763 450.173 183.616 450.346 183.432C450.522 183.244 450.66 183.033 450.76 182.797C450.859 182.558 450.909 182.31 450.909 182.051C450.909 181.71 450.826 181.391 450.662 181.092C450.5 180.794 450.275 180.553 449.988 180.368C449.704 180.183 449.38 180.091 449.017 180.091Z" fill="black"/>
<path d="M453.765 188L457.668 180.278V180.21H453.168V179.273H458.759V180.261L454.873 188H453.765Z" fill="black"/>
<path d="M459.44 186.21V185.341L463.275 179.273H463.906V180.619H463.48L460.582 185.205V185.273H465.747V186.21H459.44ZM463.548 188V179.273H464.554V188H463.548Z" fill="black"/>
<path d="M470.293 188.119C469.73 188.119 469.229 188.023 468.788 187.83C468.351 187.636 468.003 187.368 467.744 187.024C467.489 186.678 467.35 186.276 467.327 185.818H468.401C468.423 186.099 468.52 186.342 468.69 186.547C468.861 186.749 469.084 186.905 469.359 187.016C469.635 187.126 469.94 187.182 470.276 187.182C470.651 187.182 470.983 187.116 471.273 186.986C471.563 186.855 471.79 186.673 471.955 186.44C472.119 186.207 472.202 185.938 472.202 185.631C472.202 185.31 472.122 185.027 471.963 184.783C471.804 184.536 471.571 184.342 471.264 184.203C470.957 184.064 470.582 183.994 470.139 183.994H469.44V183.057H470.139C470.486 183.057 470.79 182.994 471.051 182.869C471.315 182.744 471.521 182.568 471.669 182.341C471.82 182.114 471.895 181.847 471.895 181.54C471.895 181.244 471.83 180.987 471.699 180.768C471.568 180.55 471.384 180.379 471.145 180.257C470.909 180.135 470.631 180.074 470.31 180.074C470.009 180.074 469.725 180.129 469.457 180.24C469.193 180.348 468.977 180.506 468.81 180.713C468.642 180.918 468.551 181.165 468.537 181.455H467.514C467.531 180.997 467.669 180.597 467.928 180.253C468.186 179.906 468.524 179.636 468.942 179.443C469.362 179.25 469.824 179.153 470.327 179.153C470.867 179.153 471.33 179.263 471.716 179.482C472.102 179.697 472.399 179.983 472.607 180.338C472.814 180.693 472.918 181.077 472.918 181.489C472.918 181.98 472.788 182.399 472.53 182.746C472.274 183.092 471.926 183.332 471.486 183.466V183.534C472.037 183.625 472.467 183.859 472.777 184.237C473.087 184.612 473.242 185.077 473.242 185.631C473.242 186.105 473.112 186.531 472.854 186.909C472.598 187.284 472.249 187.58 471.805 187.795C471.362 188.011 470.858 188.119 470.293 188.119Z" fill="black"/>
<path d="M475.257 188L479.161 180.278V180.21H474.661V179.273H480.252V180.261L476.365 188H475.257Z" fill="black"/>
<path d="M484.46 188.119C483.874 188.119 483.357 188.016 482.908 187.808C482.462 187.598 482.114 187.31 481.864 186.943C481.614 186.574 481.491 186.153 481.494 185.682C481.491 185.312 481.563 184.972 481.711 184.659C481.859 184.344 482.06 184.081 482.316 183.871C482.575 183.658 482.863 183.523 483.181 183.466V183.415C482.764 183.307 482.431 183.072 482.184 182.712C481.937 182.348 481.815 181.935 481.818 181.472C481.815 181.028 481.927 180.632 482.154 180.283C482.381 179.933 482.694 179.658 483.092 179.456C483.492 179.254 483.948 179.153 484.46 179.153C484.965 179.153 485.417 179.254 485.815 179.456C486.212 179.658 486.525 179.933 486.752 180.283C486.982 180.632 487.099 181.028 487.102 181.472C487.099 181.935 486.972 182.348 486.722 182.712C486.475 183.072 486.147 183.307 485.738 183.415V183.466C486.053 183.523 486.337 183.658 486.59 183.871C486.843 184.081 487.045 184.344 487.195 184.659C487.346 184.972 487.423 185.312 487.426 185.682C487.423 186.153 487.295 186.574 487.042 186.943C486.792 187.31 486.444 187.598 485.998 187.808C485.555 188.016 485.042 188.119 484.46 188.119ZM484.46 187.182C484.854 187.182 485.195 187.118 485.482 186.99C485.769 186.862 485.991 186.682 486.147 186.449C486.303 186.216 486.383 185.943 486.386 185.631C486.383 185.301 486.298 185.01 486.13 184.757C485.962 184.504 485.734 184.305 485.444 184.161C485.157 184.016 484.829 183.943 484.46 183.943C484.087 183.943 483.755 184.016 483.462 184.161C483.173 184.305 482.944 184.504 482.776 184.757C482.612 185.01 482.531 185.301 482.533 185.631C482.531 185.943 482.606 186.216 482.759 186.449C482.916 186.682 483.139 186.862 483.428 186.99C483.718 187.118 484.062 187.182 484.46 187.182ZM484.46 183.04C484.772 183.04 485.049 182.977 485.291 182.852C485.535 182.727 485.727 182.553 485.866 182.328C486.005 182.104 486.076 181.841 486.079 181.54C486.076 181.244 486.006 180.987 485.87 180.768C485.734 180.547 485.545 180.376 485.303 180.257C485.062 180.135 484.781 180.074 484.46 180.074C484.133 180.074 483.847 180.135 483.603 180.257C483.359 180.376 483.17 180.547 483.036 180.768C482.903 180.987 482.837 181.244 482.84 181.54C482.837 181.841 482.904 182.104 483.041 182.328C483.18 182.553 483.372 182.727 483.616 182.852C483.86 182.977 484.141 183.04 484.46 183.04Z" fill="black"/>
<path d="M489.059 188V187.233L491.939 184.08C492.277 183.71 492.556 183.389 492.775 183.116C492.993 182.841 493.155 182.582 493.26 182.341C493.368 182.097 493.422 181.841 493.422 181.574C493.422 181.267 493.348 181.001 493.201 180.777C493.056 180.553 492.857 180.379 492.604 180.257C492.351 180.135 492.067 180.074 491.752 180.074C491.417 180.074 491.124 180.143 490.874 180.283C490.627 180.419 490.435 180.611 490.299 180.858C490.165 181.105 490.098 181.395 490.098 181.727H489.093C489.093 181.216 489.211 180.767 489.446 180.381C489.682 179.994 490.003 179.693 490.41 179.477C490.819 179.261 491.277 179.153 491.786 179.153C492.297 179.153 492.75 179.261 493.145 179.477C493.54 179.693 493.85 179.984 494.074 180.351C494.299 180.717 494.411 181.125 494.411 181.574C494.411 181.895 494.353 182.209 494.236 182.516C494.123 182.82 493.924 183.159 493.64 183.534C493.358 183.906 492.968 184.361 492.468 184.898L490.508 186.994V187.062H494.564V188H489.059Z" fill="black"/>
<path d="M496.324 188V187.233L499.205 184.08C499.543 183.71 499.821 183.389 500.04 183.116C500.259 182.841 500.421 182.582 500.526 182.341C500.634 182.097 500.688 181.841 500.688 181.574C500.688 181.267 500.614 181.001 500.466 180.777C500.321 180.553 500.123 180.379 499.87 180.257C499.617 180.135 499.333 180.074 499.017 180.074C498.682 180.074 498.39 180.143 498.14 180.283C497.892 180.419 497.701 180.611 497.564 180.858C497.431 181.105 497.364 181.395 497.364 181.727H496.358C496.358 181.216 496.476 180.767 496.712 180.381C496.948 179.994 497.269 179.693 497.675 179.477C498.084 179.261 498.543 179.153 499.052 179.153C499.563 179.153 500.016 179.261 500.411 179.477C500.806 179.693 501.116 179.984 501.34 180.351C501.564 180.717 501.677 181.125 501.677 181.574C501.677 181.895 501.618 182.209 501.502 182.516C501.388 182.82 501.189 183.159 500.905 183.534C500.624 183.906 500.233 184.361 499.733 184.898L497.773 186.994V187.062H501.83V188H496.324Z" fill="black"/>
</g>
<defs>
<clipPath id="clip0_1_2129">
<rect width="290" height="140" fill="white" transform="translate(306.722 58)"/>
</clipPath>
</defs>
</svg>
