<svg width="398" height="315" viewBox="0 0 398 315" fill="none" xmlns="http://www.w3.org/2000/svg">
<path d="M161.748 171.142V167.004C163.492 168.18 165.261 168.767 167.054 168.767C168.86 168.767 170.314 168.309 171.415 167.394C172.515 166.466 173.066 165.236 173.066 163.702C173.066 162.193 172.503 161.017 171.377 160.176C170.264 159.335 168.662 158.915 166.572 158.915C165.854 158.915 164.401 158.989 162.211 159.137L163.158 145.147H176.257V148.821H166.739L166.293 155.482C167.147 155.432 167.92 155.408 168.613 155.408C171.433 155.408 173.61 156.131 175.144 157.579C176.69 159.026 177.463 161.005 177.463 163.516C177.463 166.151 176.579 168.266 174.81 169.862C173.054 171.445 170.635 172.237 167.555 172.237C164.958 172.237 163.022 171.872 161.748 171.142ZM190.248 172.2C187.477 172.2 185.312 171.068 183.753 168.804C182.207 166.541 181.434 163.269 181.434 158.989C181.434 154.288 182.244 150.732 183.865 148.32C185.485 145.908 187.823 144.702 190.878 144.702C196.729 144.702 199.655 149.248 199.655 158.339C199.655 162.842 198.826 166.281 197.168 168.656C195.523 171.018 193.216 172.2 190.248 172.2ZM190.674 148.134C187.446 148.134 185.832 151.691 185.832 158.803C185.832 165.458 187.415 168.786 190.582 168.786C193.699 168.786 195.257 165.403 195.257 158.636C195.257 151.635 193.73 148.134 190.674 148.134Z" fill="black"/>
<path d="M168.566 116.229H164.119V130H162.314V116.229H157.877V114.596H168.566V116.229ZM173.207 130.258C171.581 130.258 170.281 129.746 169.307 128.722C168.34 127.69 167.857 126.326 167.857 124.629C167.857 122.781 168.362 121.338 169.372 120.3C170.381 119.261 171.746 118.742 173.464 118.742C175.104 118.742 176.383 119.247 177.299 120.257C178.223 121.267 178.685 122.667 178.685 124.457C178.685 126.212 178.187 127.619 177.192 128.679C176.204 129.731 174.875 130.258 173.207 130.258ZM173.335 120.225C172.204 120.225 171.309 120.611 170.65 121.385C169.991 122.151 169.662 123.211 169.662 124.564C169.662 125.868 169.995 126.896 170.661 127.647C171.327 128.399 172.218 128.775 173.335 128.775C174.474 128.775 175.348 128.407 175.957 127.669C176.572 126.931 176.88 125.882 176.88 124.521C176.88 123.146 176.572 122.087 175.957 121.342C175.348 120.597 174.474 120.225 173.335 120.225ZM186.602 129.893C186.187 130.122 185.639 130.236 184.958 130.236C183.032 130.236 182.069 129.162 182.069 127.014V120.504H180.178V119H182.069V116.314L183.831 115.745V119H186.602V120.504H183.831V126.702C183.831 127.44 183.956 127.966 184.207 128.281C184.457 128.596 184.873 128.754 185.453 128.754C185.897 128.754 186.28 128.632 186.602 128.389V129.893ZM196.829 130H195.067V128.281H195.024C194.258 129.599 193.13 130.258 191.64 130.258C190.544 130.258 189.685 129.968 189.062 129.388C188.446 128.808 188.138 128.038 188.138 127.078C188.138 125.023 189.348 123.827 191.769 123.49L195.067 123.028C195.067 121.159 194.311 120.225 192.8 120.225C191.475 120.225 190.279 120.676 189.212 121.578V119.773C190.294 119.086 191.54 118.742 192.951 118.742C195.536 118.742 196.829 120.11 196.829 122.846V130ZM195.067 124.436L192.414 124.801C191.597 124.915 190.981 125.119 190.566 125.413C190.151 125.7 189.943 126.212 189.943 126.949C189.943 127.486 190.133 127.927 190.512 128.271C190.899 128.607 191.411 128.775 192.048 128.775C192.922 128.775 193.642 128.471 194.208 127.862C194.78 127.246 195.067 126.469 195.067 125.531V124.436ZM201.91 130H200.148V113.715H201.91V130Z" fill="#555555"/>
<path d="M185.682 0C217.32 1.03826 247.754 12.2297 272.373 31.8792C296.993 51.5288 314.458 78.5659 322.122 108.896C337.871 171.21 308.212 211.772 308.322 211.822L261.094 186.455C261.302 187.139 278.079 160.114 268.475 122.118C263.796 103.608 253.23 87.0673 238.328 74.9254C223.426 62.7834 204.974 55.6801 185.682 54.6588V0Z" fill="#00ADD7"/>
<path d="M244.952 272.82C216.642 286.529 184.59 290.794 153.615 284.972C122.64 279.151 94.4153 263.557 73.1846 240.536L115.319 205.099C128.346 218.659 145.359 227.834 163.954 231.329C182.548 234.824 201.785 232.461 218.946 224.575L244.952 272.82Z" fill="#D2AA00"/>
<path d="M66.9084 233.26C47.272 208.898 36.1743 178.9 35.2837 147.776C34.3931 116.651 43.7577 86.0825 61.9697 60.6646L106.063 93.6959C95.4479 109.171 90.0244 127.549 90.559 146.234C91.0936 164.918 97.5592 182.964 109.043 197.823L66.9084 233.26Z" fill="#6BB800"/>
<path d="M67.8193 53.0487C80.9575 37.0774 97.414 24.0767 116.077 14.925C134.74 5.77323 155.175 0.683616 176 0V54.6588C163.714 55.3101 151.692 58.4337 140.671 63.8379C129.651 69.2421 119.865 76.8129 111.914 86.0857L67.8193 53.0487Z" fill="#C56200"/>
<path d="M304.578 220.064C291.904 240.085 274.434 256.717 253.709 268.491L227.716 220.232C239.354 213.306 249.259 203.877 256.695 192.647L304.578 220.064Z" fill="#0057BB"/>
<g filter="url(#filter0_d_14_5182)">
<circle cx="8.01221" cy="304" r="4.5" fill="#00ADD7"/>
</g>
<path d="M26.1177 309H25.0278L24.1372 306.645H20.5747L19.7368 309H18.6411L21.8638 300.598H22.8833L26.1177 309ZM23.8149 305.76L22.4966 302.18C22.4536 302.062 22.4106 301.875 22.3677 301.617H22.3442C22.3052 301.855 22.2603 302.043 22.2095 302.18L20.9028 305.76H23.8149ZM31.7134 303L29.3228 309H28.3794L26.106 303H27.1606L28.6841 307.359C28.7974 307.68 28.8677 307.959 28.895 308.197H28.9185C28.9575 307.896 29.02 307.625 29.106 307.383L30.6997 303H31.7134ZM37.0454 309H36.0845V308.062H36.061C35.6431 308.781 35.0278 309.141 34.2153 309.141C33.6177 309.141 33.1489 308.982 32.8091 308.666C32.4731 308.35 32.3052 307.93 32.3052 307.406C32.3052 306.285 32.9653 305.633 34.2856 305.449L36.0845 305.197C36.0845 304.178 35.6724 303.668 34.8481 303.668C34.1255 303.668 33.4731 303.914 32.8911 304.406V303.422C33.481 303.047 34.1606 302.859 34.9302 302.859C36.3403 302.859 37.0454 303.605 37.0454 305.098V309ZM36.0845 305.965L34.6372 306.164C34.1919 306.227 33.856 306.338 33.6294 306.498C33.4028 306.654 33.2896 306.934 33.2896 307.336C33.2896 307.629 33.3931 307.869 33.6001 308.057C33.811 308.24 34.0903 308.332 34.438 308.332C34.9146 308.332 35.3071 308.166 35.6157 307.834C35.9282 307.498 36.0845 307.074 36.0845 306.562V305.965ZM39.3481 301.477C39.1763 301.477 39.0298 301.418 38.9087 301.301C38.7876 301.184 38.7271 301.035 38.7271 300.855C38.7271 300.676 38.7876 300.527 38.9087 300.41C39.0298 300.289 39.1763 300.229 39.3481 300.229C39.5239 300.229 39.6724 300.289 39.7935 300.41C39.9185 300.527 39.981 300.676 39.981 300.855C39.981 301.027 39.9185 301.174 39.7935 301.295C39.6724 301.416 39.5239 301.477 39.3481 301.477ZM39.8169 309H38.856V303H39.8169V309ZM42.7231 309H41.7622V300.117H42.7231V309ZM48.9634 309H48.0024V308.062H47.979C47.561 308.781 46.9458 309.141 46.1333 309.141C45.5356 309.141 45.0669 308.982 44.7271 308.666C44.3911 308.35 44.2231 307.93 44.2231 307.406C44.2231 306.285 44.8833 305.633 46.2036 305.449L48.0024 305.197C48.0024 304.178 47.5903 303.668 46.7661 303.668C46.0435 303.668 45.3911 303.914 44.8091 304.406V303.422C45.3989 303.047 46.0786 302.859 46.8481 302.859C48.2583 302.859 48.9634 303.605 48.9634 305.098V309ZM48.0024 305.965L46.5552 306.164C46.1099 306.227 45.7739 306.338 45.5474 306.498C45.3208 306.654 45.2075 306.934 45.2075 307.336C45.2075 307.629 45.311 307.869 45.5181 308.057C45.729 308.24 46.0083 308.332 46.356 308.332C46.8325 308.332 47.2251 308.166 47.5337 307.834C47.8462 307.498 48.0024 307.074 48.0024 306.562V305.965ZM51.7583 308.133H51.7349V309H50.7739V300.117H51.7349V304.055H51.7583C52.231 303.258 52.9224 302.859 53.8325 302.859C54.6021 302.859 55.2036 303.129 55.6372 303.668C56.0747 304.203 56.2935 304.922 56.2935 305.824C56.2935 306.828 56.0493 307.633 55.561 308.238C55.0728 308.84 54.4048 309.141 53.5571 309.141C52.7642 309.141 52.1646 308.805 51.7583 308.133ZM51.7349 305.713V306.551C51.7349 307.047 51.895 307.469 52.2153 307.816C52.5396 308.16 52.9497 308.332 53.4458 308.332C54.0278 308.332 54.4829 308.109 54.811 307.664C55.1431 307.219 55.3091 306.6 55.3091 305.807C55.3091 305.139 55.1548 304.615 54.8462 304.236C54.5376 303.857 54.1196 303.668 53.5923 303.668C53.0337 303.668 52.5845 303.863 52.2446 304.254C51.9048 304.641 51.7349 305.127 51.7349 305.713ZM58.7896 309H57.8286V300.117H58.7896V309ZM65.5571 306.24H61.3208C61.3364 306.908 61.5161 307.424 61.8599 307.787C62.2036 308.15 62.6763 308.332 63.2778 308.332C63.9536 308.332 64.5747 308.109 65.1411 307.664V308.566C64.6138 308.949 63.9165 309.141 63.0493 309.141C62.2017 309.141 61.5356 308.869 61.0513 308.326C60.5669 307.779 60.3247 307.012 60.3247 306.023C60.3247 305.09 60.5884 304.33 61.1157 303.744C61.647 303.154 62.3052 302.859 63.0903 302.859C63.8755 302.859 64.4829 303.113 64.9126 303.621C65.3423 304.129 65.5571 304.834 65.5571 305.736V306.24ZM64.5728 305.426C64.5688 304.871 64.4341 304.439 64.1685 304.131C63.9067 303.822 63.5415 303.668 63.0728 303.668C62.6196 303.668 62.2349 303.83 61.9185 304.154C61.6021 304.479 61.4067 304.902 61.3325 305.426H64.5728Z" fill="#1B1B1D"/>
<g filter="url(#filter1_d_14_5182)">
<circle cx="85.0122" cy="304" r="4.5" fill="#0057BB"/>
</g>
<path d="M97.5981 309H96.6138V300.598H97.5981V309ZM104.665 309H103.704V305.578C103.704 304.305 103.239 303.668 102.309 303.668C101.829 303.668 101.43 303.85 101.114 304.213C100.801 304.572 100.645 305.027 100.645 305.578V309H99.6841V303H100.645V303.996H100.668C101.122 303.238 101.778 302.859 102.637 302.859C103.293 302.859 103.795 303.072 104.143 303.498C104.491 303.92 104.665 304.531 104.665 305.332V309ZM116.049 305.602C116.049 307.961 114.985 309.141 112.856 309.141C110.817 309.141 109.797 308.006 109.797 305.736V300.598H110.782V305.672C110.782 307.395 111.508 308.256 112.961 308.256C114.364 308.256 115.065 307.424 115.065 305.76V300.598H116.049V305.602ZM117.661 308.783V307.752C118.184 308.139 118.76 308.332 119.389 308.332C120.233 308.332 120.655 308.051 120.655 307.488C120.655 307.328 120.618 307.193 120.543 307.084C120.473 306.971 120.375 306.871 120.25 306.785C120.129 306.699 119.985 306.623 119.817 306.557C119.653 306.486 119.475 306.414 119.284 306.34C119.018 306.234 118.784 306.129 118.581 306.023C118.381 305.914 118.213 305.793 118.077 305.66C117.944 305.523 117.842 305.369 117.772 305.197C117.706 305.025 117.672 304.824 117.672 304.594C117.672 304.312 117.737 304.064 117.866 303.85C117.995 303.631 118.167 303.449 118.381 303.305C118.596 303.156 118.84 303.045 119.114 302.971C119.391 302.896 119.676 302.859 119.969 302.859C120.489 302.859 120.954 302.949 121.364 303.129V304.102C120.922 303.812 120.415 303.668 119.84 303.668C119.661 303.668 119.499 303.689 119.354 303.732C119.209 303.771 119.084 303.828 118.979 303.902C118.877 303.977 118.797 304.066 118.739 304.172C118.684 304.273 118.657 304.387 118.657 304.512C118.657 304.668 118.684 304.799 118.739 304.904C118.797 305.01 118.881 305.104 118.991 305.186C119.1 305.268 119.233 305.342 119.389 305.408C119.545 305.475 119.723 305.547 119.922 305.625C120.188 305.727 120.426 305.832 120.637 305.941C120.848 306.047 121.028 306.168 121.176 306.305C121.325 306.438 121.438 306.592 121.516 306.768C121.598 306.943 121.639 307.152 121.639 307.395C121.639 307.691 121.573 307.949 121.44 308.168C121.311 308.387 121.137 308.568 120.918 308.713C120.7 308.857 120.448 308.965 120.163 309.035C119.877 309.105 119.579 309.141 119.266 309.141C118.649 309.141 118.114 309.021 117.661 308.783ZM127.944 306.24H123.708C123.723 306.908 123.903 307.424 124.247 307.787C124.59 308.15 125.063 308.332 125.665 308.332C126.34 308.332 126.961 308.109 127.528 307.664V308.566C127 308.949 126.303 309.141 125.436 309.141C124.588 309.141 123.922 308.869 123.438 308.326C122.954 307.779 122.711 307.012 122.711 306.023C122.711 305.09 122.975 304.33 123.502 303.744C124.034 303.154 124.692 302.859 125.477 302.859C126.262 302.859 126.87 303.113 127.299 303.621C127.729 304.129 127.944 304.834 127.944 305.736V306.24ZM126.959 305.426C126.956 304.871 126.821 304.439 126.555 304.131C126.293 303.822 125.928 303.668 125.459 303.668C125.006 303.668 124.622 303.83 124.305 304.154C123.989 304.479 123.793 304.902 123.719 305.426H126.959Z" fill="#1B1B1D"/>
<g filter="url(#filter2_d_14_5182)">
<circle cx="140.012" cy="304" r="4.5" fill="#D2AA00"/>
</g>
<path d="M155 309.141C153.809 309.141 152.854 308.748 152.135 307.963C151.42 307.178 151.063 306.156 151.063 304.898C151.063 303.547 151.428 302.469 152.159 301.664C152.889 300.859 153.883 300.457 155.141 300.457C156.301 300.457 157.235 300.848 157.942 301.629C158.653 302.41 159.008 303.432 159.008 304.693C159.008 306.064 158.645 307.148 157.918 307.945C157.192 308.742 156.219 309.141 155 309.141ZM155.071 301.348C154.188 301.348 153.471 301.666 152.92 302.303C152.37 302.939 152.094 303.775 152.094 304.811C152.094 305.846 152.362 306.68 152.897 307.312C153.436 307.941 154.137 308.256 155 308.256C155.922 308.256 156.649 307.955 157.18 307.354C157.711 306.752 157.977 305.91 157.977 304.828C157.977 303.719 157.719 302.861 157.204 302.256C156.688 301.65 155.977 301.348 155.071 301.348ZM165.383 309H164.422V308.051H164.399C164 308.777 163.383 309.141 162.547 309.141C161.118 309.141 160.403 308.289 160.403 306.586V303H161.358V306.434C161.358 307.699 161.842 308.332 162.811 308.332C163.28 308.332 163.665 308.16 163.965 307.816C164.27 307.469 164.422 307.016 164.422 306.457V303H165.383V309ZM170.112 308.941C169.885 309.066 169.586 309.129 169.215 309.129C168.165 309.129 167.639 308.543 167.639 307.371V303.82H166.608V303H167.639V301.535L168.6 301.225V303H170.112V303.82H168.6V307.201C168.6 307.604 168.668 307.891 168.805 308.062C168.942 308.234 169.168 308.32 169.485 308.32C169.727 308.32 169.936 308.254 170.112 308.121V308.941ZM177.196 309.141C176.309 309.141 175.6 308.861 175.069 308.303C174.542 307.74 174.278 306.996 174.278 306.07C174.278 305.062 174.553 304.275 175.104 303.709C175.655 303.143 176.399 302.859 177.336 302.859C178.231 302.859 178.928 303.135 179.428 303.686C179.932 304.236 180.184 305 180.184 305.977C180.184 306.934 179.913 307.701 179.37 308.279C178.831 308.854 178.106 309.141 177.196 309.141ZM177.266 303.668C176.649 303.668 176.161 303.879 175.801 304.301C175.442 304.719 175.262 305.297 175.262 306.035C175.262 306.746 175.444 307.307 175.807 307.717C176.17 308.127 176.657 308.332 177.266 308.332C177.887 308.332 178.364 308.131 178.696 307.729C179.032 307.326 179.2 306.754 179.2 306.012C179.2 305.262 179.032 304.684 178.696 304.277C178.364 303.871 177.887 303.668 177.266 303.668ZM184.684 300.961C184.497 300.855 184.284 300.803 184.045 300.803C183.374 300.803 183.038 301.227 183.038 302.074V303H184.444V303.82H183.038V309H182.083V303.82H181.057V303H182.083V302.027C182.083 301.398 182.264 300.902 182.627 300.539C182.991 300.172 183.444 299.988 183.987 299.988C184.28 299.988 184.512 300.023 184.684 300.094V300.961ZM188.51 308.66V307.5C188.643 307.617 188.801 307.723 188.985 307.816C189.172 307.91 189.368 307.99 189.571 308.057C189.778 308.119 189.985 308.168 190.192 308.203C190.399 308.238 190.59 308.256 190.766 308.256C191.372 308.256 191.823 308.145 192.12 307.922C192.42 307.695 192.571 307.371 192.571 306.949C192.571 306.723 192.52 306.525 192.418 306.357C192.321 306.189 192.184 306.037 192.008 305.9C191.833 305.76 191.624 305.627 191.381 305.502C191.143 305.373 190.885 305.238 190.608 305.098C190.315 304.949 190.042 304.799 189.788 304.646C189.534 304.494 189.313 304.326 189.125 304.143C188.938 303.959 188.79 303.752 188.68 303.521C188.575 303.287 188.522 303.014 188.522 302.701C188.522 302.318 188.606 301.986 188.774 301.705C188.942 301.42 189.163 301.186 189.436 301.002C189.709 300.818 190.02 300.682 190.368 300.592C190.719 300.502 191.077 300.457 191.44 300.457C192.268 300.457 192.872 300.557 193.25 300.756V301.863C192.754 301.52 192.118 301.348 191.34 301.348C191.125 301.348 190.911 301.371 190.696 301.418C190.481 301.461 190.29 301.533 190.122 301.635C189.954 301.736 189.817 301.867 189.711 302.027C189.606 302.188 189.553 302.383 189.553 302.613C189.553 302.828 189.592 303.014 189.67 303.17C189.752 303.326 189.872 303.469 190.028 303.598C190.184 303.727 190.374 303.852 190.596 303.973C190.823 304.094 191.083 304.227 191.375 304.371C191.676 304.52 191.961 304.676 192.231 304.84C192.5 305.004 192.737 305.186 192.94 305.385C193.143 305.584 193.303 305.805 193.42 306.047C193.542 306.289 193.602 306.566 193.602 306.879C193.602 307.293 193.52 307.645 193.356 307.934C193.196 308.219 192.977 308.451 192.7 308.631C192.426 308.811 192.11 308.939 191.75 309.018C191.391 309.1 191.012 309.141 190.614 309.141C190.481 309.141 190.317 309.129 190.122 309.105C189.926 309.086 189.727 309.055 189.524 309.012C189.321 308.973 189.127 308.924 188.944 308.865C188.764 308.803 188.62 308.734 188.51 308.66ZM199.971 306.24H195.735C195.75 306.908 195.93 307.424 196.274 307.787C196.618 308.15 197.09 308.332 197.692 308.332C198.368 308.332 198.989 308.109 199.555 307.664V308.566C199.028 308.949 198.331 309.141 197.463 309.141C196.616 309.141 195.95 308.869 195.465 308.326C194.981 307.779 194.739 307.012 194.739 306.023C194.739 305.09 195.002 304.33 195.53 303.744C196.061 303.154 196.719 302.859 197.504 302.859C198.29 302.859 198.897 303.113 199.327 303.621C199.756 304.129 199.971 304.834 199.971 305.736V306.24ZM198.987 305.426C198.983 304.871 198.848 304.439 198.583 304.131C198.321 303.822 197.956 303.668 197.487 303.668C197.034 303.668 196.649 303.83 196.333 304.154C196.016 304.479 195.821 304.902 195.747 305.426H198.987ZM204.559 303.973C204.391 303.844 204.149 303.779 203.833 303.779C203.422 303.779 203.079 303.973 202.801 304.359C202.528 304.746 202.391 305.273 202.391 305.941V309H201.43V303H202.391V304.236H202.415C202.551 303.814 202.76 303.486 203.042 303.252C203.323 303.014 203.637 302.895 203.985 302.895C204.235 302.895 204.426 302.922 204.559 302.977V303.973ZM210.319 303L207.928 309H206.985L204.711 303H205.766L207.29 307.359C207.403 307.68 207.473 307.959 207.5 308.197H207.524C207.563 307.896 207.625 307.625 207.711 307.383L209.305 303H210.319ZM211.848 301.477C211.676 301.477 211.53 301.418 211.409 301.301C211.288 301.184 211.227 301.035 211.227 300.855C211.227 300.676 211.288 300.527 211.409 300.41C211.53 300.289 211.676 300.229 211.848 300.229C212.024 300.229 212.172 300.289 212.293 300.41C212.418 300.527 212.481 300.676 212.481 300.855C212.481 301.027 212.418 301.174 212.293 301.295C212.172 301.416 212.024 301.477 211.848 301.477ZM212.317 309H211.356V303H212.317V309ZM218.352 308.725C217.891 309.002 217.344 309.141 216.711 309.141C215.856 309.141 215.165 308.863 214.637 308.309C214.114 307.75 213.852 307.027 213.852 306.141C213.852 305.152 214.135 304.359 214.702 303.762C215.268 303.16 216.024 302.859 216.969 302.859C217.497 302.859 217.961 302.957 218.364 303.152V304.137C217.918 303.824 217.442 303.668 216.934 303.668C216.321 303.668 215.817 303.889 215.422 304.33C215.032 304.768 214.836 305.344 214.836 306.059C214.836 306.762 215.02 307.316 215.387 307.723C215.758 308.129 216.254 308.332 216.875 308.332C217.399 308.332 217.891 308.158 218.352 307.811V308.725ZM224.627 306.24H220.391C220.407 306.908 220.586 307.424 220.93 307.787C221.274 308.15 221.747 308.332 222.348 308.332C223.024 308.332 223.645 308.109 224.211 307.664V308.566C223.684 308.949 222.987 309.141 222.12 309.141C221.272 309.141 220.606 308.869 220.122 308.326C219.637 307.779 219.395 307.012 219.395 306.023C219.395 305.09 219.659 304.33 220.186 303.744C220.717 303.154 221.375 302.859 222.161 302.859C222.946 302.859 223.553 303.113 223.983 303.621C224.413 304.129 224.627 304.834 224.627 305.736V306.24ZM223.643 305.426C223.639 304.871 223.504 304.439 223.239 304.131C222.977 303.822 222.612 303.668 222.143 303.668C221.69 303.668 221.305 303.83 220.989 304.154C220.672 304.479 220.477 304.902 220.403 305.426H223.643Z" fill="#1B1B1D"/>
<g filter="url(#filter3_d_14_5182)">
<circle cx="246.012" cy="304" r="4.5" fill="#6BB800"/>
</g>
<path d="M261.973 309H257.614V300.598H258.598V308.109H261.973V309ZM265.641 309.141C264.754 309.141 264.045 308.861 263.514 308.303C262.987 307.74 262.723 306.996 262.723 306.07C262.723 305.062 262.999 304.275 263.549 303.709C264.1 303.143 264.844 302.859 265.782 302.859C266.676 302.859 267.374 303.135 267.874 303.686C268.377 304.236 268.629 305 268.629 305.977C268.629 306.934 268.358 307.701 267.815 308.279C267.276 308.854 266.551 309.141 265.641 309.141ZM265.711 303.668C265.094 303.668 264.606 303.879 264.247 304.301C263.887 304.719 263.708 305.297 263.708 306.035C263.708 306.746 263.889 307.307 264.252 307.717C264.616 308.127 265.102 308.332 265.711 308.332C266.333 308.332 266.809 308.131 267.141 307.729C267.477 307.326 267.645 306.754 267.645 306.012C267.645 305.262 267.477 304.684 267.141 304.277C266.809 303.871 266.333 303.668 265.711 303.668ZM269.801 308.783V307.752C270.325 308.139 270.901 308.332 271.53 308.332C272.374 308.332 272.795 308.051 272.795 307.488C272.795 307.328 272.758 307.193 272.684 307.084C272.614 306.971 272.516 306.871 272.391 306.785C272.27 306.699 272.125 306.623 271.958 306.557C271.793 306.486 271.616 306.414 271.424 306.34C271.159 306.234 270.924 306.129 270.721 306.023C270.522 305.914 270.354 305.793 270.217 305.66C270.084 305.523 269.983 305.369 269.913 305.197C269.846 305.025 269.813 304.824 269.813 304.594C269.813 304.312 269.877 304.064 270.006 303.85C270.135 303.631 270.307 303.449 270.522 303.305C270.737 303.156 270.981 303.045 271.254 302.971C271.532 302.896 271.817 302.859 272.11 302.859C272.629 302.859 273.094 302.949 273.504 303.129V304.102C273.063 303.812 272.555 303.668 271.981 303.668C271.801 303.668 271.639 303.689 271.495 303.732C271.35 303.771 271.225 303.828 271.12 303.902C271.018 303.977 270.938 304.066 270.879 304.172C270.825 304.273 270.797 304.387 270.797 304.512C270.797 304.668 270.825 304.799 270.879 304.904C270.938 305.01 271.022 305.104 271.131 305.186C271.241 305.268 271.374 305.342 271.53 305.408C271.686 305.475 271.864 305.547 272.063 305.625C272.329 305.727 272.567 305.832 272.778 305.941C272.989 306.047 273.168 306.168 273.317 306.305C273.465 306.438 273.579 306.592 273.657 306.768C273.739 306.943 273.78 307.152 273.78 307.395C273.78 307.691 273.713 307.949 273.581 308.168C273.452 308.387 273.278 308.568 273.059 308.713C272.84 308.857 272.588 308.965 272.303 309.035C272.018 309.105 271.719 309.141 271.407 309.141C270.79 309.141 270.254 309.021 269.801 308.783ZM278.045 308.941C277.819 309.066 277.52 309.129 277.149 309.129C276.098 309.129 275.573 308.543 275.573 307.371V303.82H274.542V303H275.573V301.535L276.534 301.225V303H278.045V303.82H276.534V307.201C276.534 307.604 276.602 307.891 276.739 308.062C276.875 308.234 277.102 308.32 277.418 308.32C277.661 308.32 277.87 308.254 278.045 308.121V308.941Z" fill="#1B1B1D"/>
<g filter="url(#filter4_d_14_5182)">
<circle cx="295.012" cy="304" r="4.5" fill="#C56200"/>
</g>
<path d="M306.614 309V300.598H308.934C311.895 300.598 313.375 301.963 313.375 304.693C313.375 305.99 312.963 307.033 312.139 307.822C311.319 308.607 310.219 309 308.84 309H306.614ZM307.598 301.488V308.109H308.852C309.954 308.109 310.811 307.814 311.424 307.225C312.038 306.635 312.344 305.799 312.344 304.717C312.344 302.564 311.2 301.488 308.911 301.488H307.598ZM319.721 306.24H315.485C315.5 306.908 315.68 307.424 316.024 307.787C316.368 308.15 316.84 308.332 317.442 308.332C318.118 308.332 318.739 308.109 319.305 307.664V308.566C318.778 308.949 318.081 309.141 317.213 309.141C316.366 309.141 315.7 308.869 315.215 308.326C314.731 307.779 314.489 307.012 314.489 306.023C314.489 305.09 314.752 304.33 315.28 303.744C315.811 303.154 316.469 302.859 317.254 302.859C318.04 302.859 318.647 303.113 319.077 303.621C319.506 304.129 319.721 304.834 319.721 305.736V306.24ZM318.737 305.426C318.733 304.871 318.598 304.439 318.333 304.131C318.071 303.822 317.706 303.668 317.237 303.668C316.784 303.668 316.399 303.83 316.083 304.154C315.766 304.479 315.571 304.902 315.497 305.426H318.737ZM325.27 308.725C324.809 309.002 324.262 309.141 323.629 309.141C322.774 309.141 322.083 308.863 321.555 308.309C321.032 307.75 320.77 307.027 320.77 306.141C320.77 305.152 321.053 304.359 321.62 303.762C322.186 303.16 322.942 302.859 323.887 302.859C324.415 302.859 324.879 302.957 325.282 303.152V304.137C324.836 303.824 324.36 303.668 323.852 303.668C323.239 303.668 322.735 303.889 322.34 304.33C321.95 304.768 321.754 305.344 321.754 306.059C321.754 306.762 321.938 307.316 322.305 307.723C322.676 308.129 323.172 308.332 323.793 308.332C324.317 308.332 324.809 308.158 325.27 307.811V308.725ZM329.231 309.141C328.344 309.141 327.635 308.861 327.104 308.303C326.577 307.74 326.313 306.996 326.313 306.07C326.313 305.062 326.588 304.275 327.139 303.709C327.69 303.143 328.434 302.859 329.372 302.859C330.266 302.859 330.963 303.135 331.463 303.686C331.967 304.236 332.219 305 332.219 305.977C332.219 306.934 331.948 307.701 331.405 308.279C330.866 308.854 330.141 309.141 329.231 309.141ZM329.301 303.668C328.684 303.668 328.196 303.879 327.836 304.301C327.477 304.719 327.297 305.297 327.297 306.035C327.297 306.746 327.479 307.307 327.842 307.717C328.206 308.127 328.692 308.332 329.301 308.332C329.922 308.332 330.399 308.131 330.731 307.729C331.067 307.326 331.235 306.754 331.235 306.012C331.235 305.262 331.067 304.684 330.731 304.277C330.399 303.871 329.922 303.668 329.301 303.668ZM342.274 309H341.313V305.555C341.313 304.891 341.209 304.41 341.002 304.113C340.799 303.816 340.456 303.668 339.971 303.668C339.561 303.668 339.211 303.855 338.922 304.23C338.637 304.605 338.495 305.055 338.495 305.578V309H337.534V305.438C337.534 304.258 337.079 303.668 336.168 303.668C335.747 303.668 335.399 303.846 335.125 304.201C334.852 304.553 334.715 305.012 334.715 305.578V309H333.754V303H334.715V303.949H334.739C335.165 303.223 335.786 302.859 336.602 302.859C337.012 302.859 337.37 302.975 337.674 303.205C337.979 303.432 338.188 303.73 338.301 304.102C338.747 303.273 339.411 302.859 340.293 302.859C341.614 302.859 342.274 303.674 342.274 305.303V309ZM352.61 309H351.649V305.555C351.649 304.891 351.545 304.41 351.338 304.113C351.135 303.816 350.792 303.668 350.307 303.668C349.897 303.668 349.547 303.855 349.258 304.23C348.973 304.605 348.831 305.055 348.831 305.578V309H347.87V305.438C347.87 304.258 347.415 303.668 346.504 303.668C346.083 303.668 345.735 303.846 345.461 304.201C345.188 304.553 345.051 305.012 345.051 305.578V309H344.09V303H345.051V303.949H345.075C345.5 303.223 346.122 302.859 346.938 302.859C347.348 302.859 347.706 302.975 348.01 303.205C348.315 303.432 348.524 303.73 348.637 304.102C349.083 303.273 349.747 302.859 350.629 302.859C351.95 302.859 352.61 303.674 352.61 305.303V309ZM354.918 301.477C354.747 301.477 354.6 301.418 354.479 301.301C354.358 301.184 354.297 301.035 354.297 300.855C354.297 300.676 354.358 300.527 354.479 300.41C354.6 300.289 354.747 300.229 354.918 300.229C355.094 300.229 355.243 300.289 355.364 300.41C355.489 300.527 355.551 300.676 355.551 300.855C355.551 301.027 355.489 301.174 355.364 301.295C355.243 301.416 355.094 301.477 354.918 301.477ZM355.387 309H354.426V303H355.387V309ZM356.969 308.783V307.752C357.493 308.139 358.069 308.332 358.698 308.332C359.542 308.332 359.963 308.051 359.963 307.488C359.963 307.328 359.926 307.193 359.852 307.084C359.782 306.971 359.684 306.871 359.559 306.785C359.438 306.699 359.293 306.623 359.125 306.557C358.961 306.486 358.784 306.414 358.592 306.34C358.327 306.234 358.092 306.129 357.889 306.023C357.69 305.914 357.522 305.793 357.385 305.66C357.252 305.523 357.151 305.369 357.081 305.197C357.014 305.025 356.981 304.824 356.981 304.594C356.981 304.312 357.045 304.064 357.174 303.85C357.303 303.631 357.475 303.449 357.69 303.305C357.905 303.156 358.149 303.045 358.422 302.971C358.7 302.896 358.985 302.859 359.278 302.859C359.797 302.859 360.262 302.949 360.672 303.129V304.102C360.231 303.812 359.723 303.668 359.149 303.668C358.969 303.668 358.807 303.689 358.663 303.732C358.518 303.771 358.393 303.828 358.288 303.902C358.186 303.977 358.106 304.066 358.047 304.172C357.993 304.273 357.965 304.387 357.965 304.512C357.965 304.668 357.993 304.799 358.047 304.904C358.106 305.01 358.19 305.104 358.299 305.186C358.409 305.268 358.542 305.342 358.698 305.408C358.854 305.475 359.032 305.547 359.231 305.625C359.497 305.727 359.735 305.832 359.946 305.941C360.157 306.047 360.336 306.168 360.485 306.305C360.633 306.438 360.747 306.592 360.825 306.768C360.907 306.943 360.948 307.152 360.948 307.395C360.948 307.691 360.881 307.949 360.749 308.168C360.62 308.387 360.446 308.568 360.227 308.713C360.008 308.857 359.756 308.965 359.471 309.035C359.186 309.105 358.887 309.141 358.575 309.141C357.958 309.141 357.422 309.021 356.969 308.783ZM362.067 308.783V307.752C362.59 308.139 363.167 308.332 363.795 308.332C364.639 308.332 365.061 308.051 365.061 307.488C365.061 307.328 365.024 307.193 364.95 307.084C364.879 306.971 364.782 306.871 364.657 306.785C364.536 306.699 364.391 306.623 364.223 306.557C364.059 306.486 363.881 306.414 363.69 306.34C363.424 306.234 363.19 306.129 362.987 306.023C362.788 305.914 362.62 305.793 362.483 305.66C362.35 305.523 362.249 305.369 362.178 305.197C362.112 305.025 362.079 304.824 362.079 304.594C362.079 304.312 362.143 304.064 362.272 303.85C362.401 303.631 362.573 303.449 362.788 303.305C363.002 303.156 363.247 303.045 363.52 302.971C363.797 302.896 364.083 302.859 364.375 302.859C364.895 302.859 365.36 302.949 365.77 303.129V304.102C365.329 303.812 364.821 303.668 364.247 303.668C364.067 303.668 363.905 303.689 363.76 303.732C363.616 303.771 363.491 303.828 363.385 303.902C363.284 303.977 363.204 304.066 363.145 304.172C363.09 304.273 363.063 304.387 363.063 304.512C363.063 304.668 363.09 304.799 363.145 304.904C363.204 305.01 363.288 305.104 363.397 305.186C363.506 305.268 363.639 305.342 363.795 305.408C363.952 305.475 364.129 305.547 364.329 305.625C364.594 305.727 364.833 305.832 365.043 305.941C365.254 306.047 365.434 306.168 365.583 306.305C365.731 306.438 365.844 306.592 365.922 306.768C366.004 306.943 366.045 307.152 366.045 307.395C366.045 307.691 365.979 307.949 365.846 308.168C365.717 308.387 365.543 308.568 365.325 308.713C365.106 308.857 364.854 308.965 364.569 309.035C364.284 309.105 363.985 309.141 363.672 309.141C363.055 309.141 362.52 309.021 362.067 308.783ZM368.02 301.477C367.848 301.477 367.702 301.418 367.581 301.301C367.459 301.184 367.399 301.035 367.399 300.855C367.399 300.676 367.459 300.527 367.581 300.41C367.702 300.289 367.848 300.229 368.02 300.229C368.196 300.229 368.344 300.289 368.465 300.41C368.59 300.527 368.653 300.676 368.653 300.855C368.653 301.027 368.59 301.174 368.465 301.295C368.344 301.416 368.196 301.477 368.02 301.477ZM368.489 309H367.528V303H368.489V309ZM372.942 309.141C372.055 309.141 371.346 308.861 370.815 308.303C370.288 307.74 370.024 306.996 370.024 306.07C370.024 305.062 370.299 304.275 370.85 303.709C371.401 303.143 372.145 302.859 373.083 302.859C373.977 302.859 374.674 303.135 375.174 303.686C375.678 304.236 375.93 305 375.93 305.977C375.93 306.934 375.659 307.701 375.116 308.279C374.577 308.854 373.852 309.141 372.942 309.141ZM373.012 303.668C372.395 303.668 371.907 303.879 371.547 304.301C371.188 304.719 371.008 305.297 371.008 306.035C371.008 306.746 371.19 307.307 371.553 307.717C371.917 308.127 372.403 308.332 373.012 308.332C373.633 308.332 374.11 308.131 374.442 307.729C374.778 307.326 374.946 306.754 374.946 306.012C374.946 305.262 374.778 304.684 374.442 304.277C374.11 303.871 373.633 303.668 373.012 303.668ZM382.446 309H381.485V305.578C381.485 304.305 381.02 303.668 380.09 303.668C379.61 303.668 379.211 303.85 378.895 304.213C378.583 304.572 378.426 305.027 378.426 305.578V309H377.465V303H378.426V303.996H378.45C378.903 303.238 379.559 302.859 380.418 302.859C381.075 302.859 381.577 303.072 381.924 303.498C382.272 303.92 382.446 304.531 382.446 305.332V309ZM389.084 306.24H384.848C384.864 306.908 385.043 307.424 385.387 307.787C385.731 308.15 386.204 308.332 386.805 308.332C387.481 308.332 388.102 308.109 388.668 307.664V308.566C388.141 308.949 387.444 309.141 386.577 309.141C385.729 309.141 385.063 308.869 384.579 308.326C384.094 307.779 383.852 307.012 383.852 306.023C383.852 305.09 384.116 304.33 384.643 303.744C385.174 303.154 385.833 302.859 386.618 302.859C387.403 302.859 388.01 303.113 388.44 303.621C388.87 304.129 389.084 304.834 389.084 305.736V306.24ZM388.1 305.426C388.096 304.871 387.961 304.439 387.696 304.131C387.434 303.822 387.069 303.668 386.6 303.668C386.147 303.668 385.762 303.83 385.446 304.154C385.129 304.479 384.934 304.902 384.86 305.426H388.1ZM395.665 309H394.704V307.98H394.68C394.235 308.754 393.547 309.141 392.618 309.141C391.864 309.141 391.26 308.873 390.807 308.338C390.358 307.799 390.133 307.066 390.133 306.141C390.133 305.148 390.383 304.354 390.883 303.756C391.383 303.158 392.049 302.859 392.881 302.859C393.706 302.859 394.305 303.184 394.68 303.832H394.704V300.117H395.665V309ZM394.704 306.287V305.402C394.704 304.918 394.543 304.508 394.223 304.172C393.903 303.836 393.497 303.668 393.004 303.668C392.418 303.668 391.958 303.883 391.622 304.312C391.286 304.742 391.118 305.336 391.118 306.094C391.118 306.785 391.278 307.332 391.598 307.734C391.922 308.133 392.356 308.332 392.899 308.332C393.434 308.332 393.868 308.139 394.2 307.752C394.536 307.365 394.704 306.877 394.704 306.287Z" fill="#1B1B1D"/>
<defs>
<filter id="filter0_d_14_5182" x="0.512207" y="299.5" width="15" height="15" filterUnits="userSpaceOnUse" color-interpolation-filters="sRGB">
<feFlood flood-opacity="0" result="BackgroundImageFix"/>
<feColorMatrix in="SourceAlpha" type="matrix" values="0 0 0 0 0 0 0 0 0 0 0 0 0 0 0 0 0 0 127 0" result="hardAlpha"/>
<feOffset dy="3"/>
<feGaussianBlur stdDeviation="1.5"/>
<feComposite in2="hardAlpha" operator="out"/>
<feColorMatrix type="matrix" values="0 0 0 0 0 0 0 0 0 0 0 0 0 0 0 0 0 0 0.160784 0"/>
<feBlend mode="normal" in2="BackgroundImageFix" result="effect1_dropShadow_14_5182"/>
<feBlend mode="normal" in="SourceGraphic" in2="effect1_dropShadow_14_5182" result="shape"/>
</filter>
<filter id="filter1_d_14_5182" x="77.5122" y="299.5" width="15" height="15" filterUnits="userSpaceOnUse" color-interpolation-filters="sRGB">
<feFlood flood-opacity="0" result="BackgroundImageFix"/>
<feColorMatrix in="SourceAlpha" type="matrix" values="0 0 0 0 0 0 0 0 0 0 0 0 0 0 0 0 0 0 127 0" result="hardAlpha"/>
<feOffset dy="3"/>
<feGaussianBlur stdDeviation="1.5"/>
<feComposite in2="hardAlpha" operator="out"/>
<feColorMatrix type="matrix" values="0 0 0 0 0 0 0 0 0 0 0 0 0 0 0 0 0 0 0.160784 0"/>
<feBlend mode="normal" in2="BackgroundImageFix" result="effect1_dropShadow_14_5182"/>
<feBlend mode="normal" in="SourceGraphic" in2="effect1_dropShadow_14_5182" result="shape"/>
</filter>
<filter id="filter2_d_14_5182" x="132.512" y="299.5" width="15" height="15" filterUnits="userSpaceOnUse" color-interpolation-filters="sRGB">
<feFlood flood-opacity="0" result="BackgroundImageFix"/>
<feColorMatrix in="SourceAlpha" type="matrix" values="0 0 0 0 0 0 0 0 0 0 0 0 0 0 0 0 0 0 127 0" result="hardAlpha"/>
<feOffset dy="3"/>
<feGaussianBlur stdDeviation="1.5"/>
<feComposite in2="hardAlpha" operator="out"/>
<feColorMatrix type="matrix" values="0 0 0 0 0 0 0 0 0 0 0 0 0 0 0 0 0 0 0.160784 0"/>
<feBlend mode="normal" in2="BackgroundImageFix" result="effect1_dropShadow_14_5182"/>
<feBlend mode="normal" in="SourceGraphic" in2="effect1_dropShadow_14_5182" result="shape"/>
</filter>
<filter id="filter3_d_14_5182" x="238.512" y="299.5" width="15" height="15" filterUnits="userSpaceOnUse" color-interpolation-filters="sRGB">
<feFlood flood-opacity="0" result="BackgroundImageFix"/>
<feColorMatrix in="SourceAlpha" type="matrix" values="0 0 0 0 0 0 0 0 0 0 0 0 0 0 0 0 0 0 127 0" result="hardAlpha"/>
<feOffset dy="3"/>
<feGaussianBlur stdDeviation="1.5"/>
<feComposite in2="hardAlpha" operator="out"/>
<feColorMatrix type="matrix" values="0 0 0 0 0 0 0 0 0 0 0 0 0 0 0 0 0 0 0.160784 0"/>
<feBlend mode="normal" in2="BackgroundImageFix" result="effect1_dropShadow_14_5182"/>
<feBlend mode="normal" in="SourceGraphic" in2="effect1_dropShadow_14_5182" result="shape"/>
</filter>
<filter id="filter4_d_14_5182" x="287.512" y="299.5" width="15" height="15" filterUnits="userSpaceOnUse" color-interpolation-filters="sRGB">
<feFlood flood-opacity="0" result="BackgroundImageFix"/>
<feColorMatrix in="SourceAlpha" type="matrix" values="0 0 0 0 0 0 0 0 0 0 0 0 0 0 0 0 0 0 127 0" result="hardAlpha"/>
<feOffset dy="3"/>
<feGaussianBlur stdDeviation="1.5"/>
<feComposite in2="hardAlpha" operator="out"/>
<feColorMatrix type="matrix" values="0 0 0 0 0 0 0 0 0 0 0 0 0 0 0 0 0 0 0.160784 0"/>
<feBlend mode="normal" in2="BackgroundImageFix" result="effect1_dropShadow_14_5182"/>
<feBlend mode="normal" in="SourceGraphic" in2="effect1_dropShadow_14_5182" result="shape"/>
</filter>
</defs>
</svg>
