<svg width="1112" height="300" viewBox="0 0 1112 300" fill="none" xmlns="http://www.w3.org/2000/svg">
<path d="M17.0322 282.932V281.839V0.702637H19.4692V15.1041H1110.32V16.1971H19.4692V81.7887H1110.32V82.8817H19.4692V148.472H1110.32V149.565H19.4692V215.156H1110.32V216.249H19.4692V281.839H1111.63V282.932H17.0322Z" fill="#E5E8EA"/>
<path opacity="0.652749" d="M7.13893 281.681C5.85893 281.681 5.08893 280.491 5.08893 278.351C5.08893 276.211 5.85893 275.061 7.13893 275.061C8.40893 275.061 9.17893 276.211 9.17893 278.351C9.17893 280.491 8.40893 281.681 7.13893 281.681ZM7.13893 281.011C7.87893 281.011 8.37893 280.221 8.37893 278.351C8.37893 276.481 7.87893 275.731 7.13893 275.731C6.39893 275.731 5.89893 276.481 5.89893 278.351C5.89893 280.221 6.39893 281.011 7.13893 281.011Z" fill="#373650"/>
<path opacity="0.652749" d="M0.518652 216.926V216.416C2.41865 214.556 3.51865 213.376 3.51865 212.346C3.51865 211.616 3.11865 211.106 2.30865 211.106C1.77865 211.106 1.31865 211.446 0.958652 211.866L0.488652 211.416C1.01865 210.816 1.58865 210.426 2.40865 210.426C3.58865 210.426 4.32865 211.176 4.32865 212.296C4.32865 213.536 3.20865 214.686 1.65865 216.266C2.00865 216.236 2.39865 216.216 2.72865 216.216H4.63865V216.926H0.518652ZM7.57936 217.046C6.29936 217.046 5.52936 215.856 5.52936 213.716C5.52936 211.576 6.29936 210.426 7.57936 210.426C8.84936 210.426 9.61936 211.576 9.61936 213.716C9.61936 215.856 8.84936 217.046 7.57936 217.046ZM7.57936 216.376C8.31936 216.376 8.81936 215.586 8.81936 213.716C8.81936 211.846 8.31936 211.096 7.57936 211.096C6.83936 211.096 6.33936 211.846 6.33936 213.716C6.33936 215.586 6.83936 216.376 7.57936 216.376Z" fill="#373650"/>
<path opacity="0.652749" d="M1.15865 147.139H3.15865V145.289C3.15865 144.959 3.18865 144.409 3.20865 144.069H3.16865C3.00865 144.369 2.82865 144.649 2.64865 144.969L1.15865 147.139ZM3.15865 149.559V147.799H0.288652V147.249L3.01865 143.179H3.93865V147.139H4.80865V147.799H3.93865V149.559H3.15865ZM7.57936 149.679C6.29936 149.679 5.52936 148.489 5.52936 146.349C5.52936 144.209 6.29936 143.059 7.57936 143.059C8.84936 143.059 9.61936 144.209 9.61936 146.349C9.61936 148.489 8.84936 149.679 7.57936 149.679ZM7.57936 149.009C8.31936 149.009 8.81936 148.219 8.81936 146.349C8.81936 144.479 8.31936 143.729 7.57936 143.729C6.83936 143.729 6.33936 144.479 6.33936 146.349C6.33936 148.219 6.83936 149.009 7.57936 149.009Z" fill="#373650"/>
<path opacity="0.652749" d="M2.72865 78.9148C2.31865 78.9148 1.79865 79.1648 1.39865 79.7648C1.50865 81.0048 1.99865 81.6648 2.79865 81.6648C3.42865 81.6648 3.90865 81.1048 3.90865 80.2648C3.90865 79.4348 3.51865 78.9148 2.72865 78.9148ZM2.79865 82.3148C1.54865 82.3148 0.598652 81.2948 0.598652 79.2448C0.598652 76.6848 1.75865 75.6948 3.02865 75.6948C3.71865 75.6948 4.21865 75.9848 4.56865 76.3748L4.10865 76.8948C3.85865 76.5848 3.45865 76.3848 3.05865 76.3848C2.16865 76.3848 1.40865 77.0848 1.37865 79.1148C1.77865 78.6148 2.34865 78.2948 2.86865 78.2948C3.97865 78.2948 4.68865 78.9548 4.68865 80.2648C4.68865 81.4848 3.82865 82.3148 2.79865 82.3148ZM7.57936 82.3148C6.29936 82.3148 5.52936 81.1248 5.52936 78.9848C5.52936 76.8448 6.29936 75.6948 7.57936 75.6948C8.84936 75.6948 9.61936 76.8448 9.61936 78.9848C9.61936 81.1248 8.84936 82.3148 7.57936 82.3148ZM7.57936 81.6448C8.31936 81.6448 8.81936 80.8548 8.81936 78.9848C8.81936 77.1148 8.31936 76.3648 7.57936 76.3648C6.83936 76.3648 6.33936 77.1148 6.33936 78.9848C6.33936 80.8548 6.83936 81.6448 7.57936 81.6448Z" fill="#373650"/>
<path opacity="0.652749" d="M2.61865 14.9506C1.41865 14.9506 0.528652 14.2106 0.528652 13.2006C0.528652 12.3706 1.12865 11.8006 1.72865 11.4806V11.4406C1.25865 11.1106 0.838652 10.6406 0.838652 9.97057C0.838652 8.99057 1.61865 8.33057 2.64865 8.33057C3.75865 8.33057 4.44865 9.04057 4.44865 10.0306C4.44865 10.7006 3.96865 11.2706 3.56865 11.5706V11.6106C4.13865 11.9406 4.67865 12.3906 4.67865 13.2506C4.67865 14.2006 3.85865 14.9506 2.61865 14.9506ZM3.06865 11.3506C3.49865 10.9706 3.73865 10.5406 3.73865 10.0706C3.73865 9.45057 3.32865 8.95057 2.62865 8.95057C2.03865 8.95057 1.59865 9.35057 1.59865 9.97057C1.59865 10.7306 2.29865 11.0506 3.06865 11.3506ZM2.63865 14.3306C3.37865 14.3306 3.88865 13.8806 3.88865 13.2206C3.88865 12.4006 3.07865 12.1106 2.15865 11.7406C1.65865 12.0706 1.27865 12.5406 1.27865 13.1206C1.27865 13.8206 1.85865 14.3306 2.63865 14.3306ZM7.57936 14.9506C6.29936 14.9506 5.52936 13.7606 5.52936 11.6206C5.52936 9.48057 6.29936 8.33057 7.57936 8.33057C8.84936 8.33057 9.61936 9.48057 9.61936 11.6206C9.61936 13.7606 8.84936 14.9506 7.57936 14.9506ZM7.57936 14.2806C8.31936 14.2806 8.81936 13.4906 8.81936 11.6206C8.81936 9.75057 8.31936 9.00057 7.57936 9.00057C6.83936 9.00057 6.33936 9.75057 6.33936 11.6206C6.33936 13.4906 6.83936 14.2806 7.57936 14.2806Z" fill="#373650"/>
<g filter="url(#filter0_d_14_5179)">
<rect x="50" y="26.8181" width="28" height="255" fill="#2538D5"/>
</g>
<g filter="url(#filter1_d_14_5179)">
<path d="M48.8633 288.081L46.2705 295.083H45.3672L42.8281 288.081H43.7412L45.6797 293.633C45.7415 293.812 45.7887 294.018 45.8213 294.253H45.8408C45.8669 294.057 45.9206 293.847 46.002 293.623L47.9795 288.081H48.8633ZM53.1455 292.783H49.6152C49.6283 293.34 49.778 293.769 50.0645 294.072C50.3509 294.375 50.7448 294.526 51.2461 294.526C51.8092 294.526 52.3268 294.341 52.7988 293.969V294.721C52.3594 295.04 51.7783 295.2 51.0557 295.2C50.3493 295.2 49.7943 294.974 49.3906 294.521C48.987 294.066 48.7852 293.426 48.7852 292.602C48.7852 291.824 49.0049 291.191 49.4443 290.703C49.887 290.211 50.4355 289.966 51.0898 289.966C51.7441 289.966 52.2503 290.177 52.6084 290.6C52.9665 291.024 53.1455 291.611 53.1455 292.363V292.783ZM52.3252 292.104C52.3219 291.642 52.2096 291.282 51.9883 291.025C51.7702 290.768 51.4658 290.639 51.0752 290.639C50.6976 290.639 50.377 290.774 50.1133 291.045C49.8496 291.315 49.6868 291.668 49.625 292.104H52.3252ZM58.5117 295.083H57.7109V292.231C57.7109 291.17 57.3236 290.639 56.5488 290.639C56.1484 290.639 55.8164 290.791 55.5527 291.094C55.2923 291.393 55.1621 291.772 55.1621 292.231V295.083H54.3613V290.083H55.1621V290.913H55.1816C55.5592 290.281 56.1061 289.966 56.8223 289.966C57.3691 289.966 57.7874 290.143 58.0771 290.498C58.3669 290.849 58.5117 291.359 58.5117 292.026V295.083ZM62.3447 295.034C62.1559 295.138 61.9069 295.19 61.5977 295.19C60.722 295.19 60.2842 294.702 60.2842 293.725V290.766H59.4248V290.083H60.2842V288.862L61.085 288.603V290.083H62.3447V290.766H61.085V293.584C61.085 293.919 61.1419 294.158 61.2559 294.302C61.3698 294.445 61.5586 294.516 61.8223 294.516C62.0241 294.516 62.1982 294.461 62.3447 294.35V295.034ZM63.8242 288.813C63.681 288.813 63.5589 288.764 63.458 288.667C63.3571 288.569 63.3066 288.445 63.3066 288.296C63.3066 288.146 63.3571 288.022 63.458 287.925C63.5589 287.824 63.681 287.773 63.8242 287.773C63.9707 287.773 64.0944 287.824 64.1953 287.925C64.2995 288.022 64.3516 288.146 64.3516 288.296C64.3516 288.439 64.2995 288.561 64.1953 288.662C64.0944 288.763 63.9707 288.813 63.8242 288.813ZM64.2148 295.083H63.4141V290.083H64.2148V295.083ZM66.6367 295.083H65.8359V287.68H66.6367V295.083ZM71.8369 295.083H71.0361V294.302H71.0166C70.6683 294.9 70.1556 295.2 69.4785 295.2C68.9805 295.2 68.5898 295.068 68.3066 294.804C68.0267 294.541 67.8867 294.191 67.8867 293.755C67.8867 292.82 68.4368 292.277 69.5371 292.124L71.0361 291.914C71.0361 291.064 70.6927 290.639 70.0059 290.639C69.4036 290.639 68.86 290.844 68.375 291.255V290.434C68.8665 290.122 69.4329 289.966 70.0742 289.966C71.2493 289.966 71.8369 290.587 71.8369 291.831V295.083ZM71.0361 292.553L69.8301 292.719C69.459 292.772 69.179 292.864 68.9902 292.998C68.8014 293.128 68.707 293.361 68.707 293.696C68.707 293.94 68.7933 294.14 68.9658 294.297C69.1416 294.45 69.3743 294.526 69.6641 294.526C70.0612 294.526 70.3883 294.388 70.6455 294.111C70.9059 293.831 71.0361 293.478 71.0361 293.052V292.553ZM75.665 295.034C75.4762 295.138 75.2272 295.19 74.918 295.19C74.0423 295.19 73.6045 294.702 73.6045 293.725V290.766H72.7451V290.083H73.6045V288.862L74.4053 288.603V290.083H75.665V290.766H74.4053V293.584C74.4053 293.919 74.4622 294.158 74.5762 294.302C74.6901 294.445 74.8789 294.516 75.1426 294.516C75.3444 294.516 75.5186 294.461 75.665 294.35V295.034ZM78.8242 295.2C78.0853 295.2 77.4945 294.967 77.0518 294.502C76.6123 294.033 76.3926 293.413 76.3926 292.641C76.3926 291.802 76.6221 291.146 77.0811 290.674C77.54 290.202 78.1602 289.966 78.9414 289.966C79.6868 289.966 80.2679 290.195 80.6846 290.654C81.1045 291.113 81.3145 291.749 81.3145 292.563C81.3145 293.361 81.0882 294 80.6357 294.482C80.1865 294.961 79.5827 295.2 78.8242 295.2ZM78.8828 290.639C78.3685 290.639 77.9616 290.815 77.6621 291.167C77.3626 291.515 77.2129 291.997 77.2129 292.612C77.2129 293.205 77.3643 293.672 77.667 294.013C77.9697 294.355 78.375 294.526 78.8828 294.526C79.4004 294.526 79.7975 294.358 80.0742 294.023C80.3542 293.688 80.4941 293.211 80.4941 292.593C80.4941 291.968 80.3542 291.486 80.0742 291.147C79.7975 290.809 79.4004 290.639 78.8828 290.639ZM85.2012 290.893C85.0612 290.786 84.8594 290.732 84.5957 290.732C84.2539 290.732 83.9674 290.893 83.7363 291.216C83.5085 291.538 83.3945 291.977 83.3945 292.534V295.083H82.5938V290.083H83.3945V291.113H83.4141C83.528 290.761 83.7021 290.488 83.9365 290.293C84.1709 290.094 84.4329 289.995 84.7227 289.995C84.931 289.995 85.0905 290.018 85.2012 290.063V290.893Z" fill="#31313B"/>
</g>
<g filter="url(#filter2_d_14_5179)">
<rect x="134" y="83.8179" width="28" height="198" fill="#2538D5"/>
</g>
<g filter="url(#filter3_d_14_5179)">
<path d="M142.097 294.639C141.579 294.912 140.935 295.049 140.163 295.049C139.167 295.049 138.369 294.728 137.771 294.087C137.172 293.446 136.872 292.604 136.872 291.562C136.872 290.443 137.209 289.538 137.883 288.848C138.557 288.158 139.411 287.812 140.446 287.812C141.11 287.812 141.66 287.909 142.097 288.101V288.975C141.595 288.695 141.042 288.555 140.437 288.555C139.632 288.555 138.98 288.823 138.479 289.36C137.98 289.897 137.731 290.615 137.731 291.514C137.731 292.367 137.964 293.047 138.43 293.555C138.898 294.059 139.512 294.312 140.271 294.312C140.974 294.312 141.582 294.155 142.097 293.843V294.639ZM144.343 292.285V294.932H143.522V287.93H145.446C146.195 287.93 146.774 288.112 147.185 288.477C147.598 288.841 147.805 289.355 147.805 290.02C147.805 290.684 147.575 291.227 147.116 291.65C146.66 292.074 146.044 292.285 145.266 292.285H144.343ZM144.343 288.672V291.543H145.202C145.769 291.543 146.2 291.414 146.496 291.157C146.796 290.897 146.945 290.531 146.945 290.059C146.945 289.134 146.398 288.672 145.305 288.672H144.343ZM153.864 294.932H152.956L152.214 292.969H149.245L148.547 294.932H147.634L150.319 287.93H151.169L153.864 294.932ZM151.945 292.231L150.847 289.248C150.811 289.15 150.775 288.994 150.739 288.779H150.72C150.687 288.978 150.65 289.134 150.607 289.248L149.519 292.231H151.945ZM155.72 292.285V294.932H154.899V287.93H156.823C157.572 287.93 158.151 288.112 158.562 288.477C158.975 288.841 159.182 289.355 159.182 290.02C159.182 290.684 158.952 291.227 158.493 291.65C158.037 292.074 157.421 292.285 156.643 292.285H155.72ZM155.72 288.672V291.543H156.579C157.146 291.543 157.577 291.414 157.873 291.157C158.173 290.897 158.322 290.531 158.322 290.059C158.322 289.134 157.775 288.672 156.682 288.672H155.72Z" fill="#31313B"/>
</g>
<g filter="url(#filter4_d_14_5179)">
<rect x="218" y="217.818" width="28" height="64" fill="#2538D5"/>
</g>
<g filter="url(#filter5_d_14_5179)">
<path d="M208.602 294.932H207.693L206.951 292.969H203.982L203.284 294.932H202.371L205.057 287.93H205.906L208.602 294.932ZM206.683 292.231L205.584 289.248C205.548 289.15 205.512 288.994 205.477 288.779H205.457C205.424 288.978 205.387 289.134 205.345 289.248L204.256 292.231H206.683ZM209.637 294.932V287.93H211.629C212.234 287.93 212.715 288.078 213.069 288.374C213.424 288.67 213.602 289.056 213.602 289.531C213.602 289.928 213.494 290.273 213.279 290.566C213.064 290.859 212.768 291.068 212.391 291.191V291.211C212.863 291.266 213.24 291.445 213.523 291.748C213.807 292.048 213.948 292.438 213.948 292.92C213.948 293.519 213.733 294.004 213.304 294.375C212.874 294.746 212.332 294.932 211.678 294.932H209.637ZM210.457 288.672V290.933H211.297C211.746 290.933 212.099 290.825 212.356 290.61C212.614 290.392 212.742 290.086 212.742 289.692C212.742 289.012 212.295 288.672 211.399 288.672H210.457ZM210.457 291.67V294.189H211.57C212.052 294.189 212.425 294.076 212.688 293.848C212.955 293.62 213.089 293.307 213.089 292.91C213.089 292.083 212.526 291.67 211.399 291.67H210.457ZM220.604 294.453C219.9 294.85 219.119 295.049 218.26 295.049C217.26 295.049 216.451 294.727 215.833 294.082C215.218 293.438 214.91 292.585 214.91 291.523C214.91 290.439 215.252 289.551 215.936 288.857C216.622 288.161 217.492 287.812 218.543 287.812C219.305 287.812 219.944 287.936 220.462 288.184V289.092C219.896 288.734 219.225 288.555 218.45 288.555C217.666 288.555 217.023 288.825 216.521 289.365C216.02 289.906 215.77 290.605 215.77 291.465C215.77 292.35 216.002 293.047 216.468 293.555C216.933 294.059 217.565 294.312 218.362 294.312C218.909 294.312 219.383 294.202 219.783 293.984V292.021H218.25V291.279H220.604V294.453ZM232.117 294.932H231.302V290.234C231.302 289.863 231.325 289.409 231.37 288.872H231.351C231.272 289.188 231.202 289.414 231.141 289.551L228.748 294.932H228.348L225.96 289.59C225.892 289.434 225.822 289.194 225.75 288.872H225.73C225.757 289.152 225.77 289.609 225.77 290.244V294.932H224.979V287.93H226.062L228.211 292.812C228.377 293.187 228.484 293.467 228.533 293.652H228.562C228.702 293.268 228.815 292.982 228.899 292.793L231.092 287.93H232.117V294.932ZM237.435 294.932H236.634V294.15H236.614C236.266 294.749 235.753 295.049 235.076 295.049C234.578 295.049 234.188 294.917 233.904 294.653C233.624 294.39 233.484 294.04 233.484 293.604C233.484 292.669 234.035 292.126 235.135 291.973L236.634 291.763C236.634 290.913 236.29 290.488 235.604 290.488C235.001 290.488 234.458 290.693 233.973 291.104V290.283C234.464 289.971 235.031 289.814 235.672 289.814C236.847 289.814 237.435 290.436 237.435 291.68V294.932ZM236.634 292.402L235.428 292.568C235.057 292.62 234.777 292.713 234.588 292.847C234.399 292.977 234.305 293.21 234.305 293.545C234.305 293.789 234.391 293.989 234.563 294.146C234.739 294.299 234.972 294.375 235.262 294.375C235.659 294.375 235.986 294.237 236.243 293.96C236.504 293.68 236.634 293.327 236.634 292.9V292.402ZM242.352 294.702C241.967 294.933 241.512 295.049 240.984 295.049C240.271 295.049 239.695 294.818 239.256 294.355C238.82 293.89 238.602 293.288 238.602 292.549C238.602 291.725 238.838 291.064 239.31 290.566C239.782 290.065 240.411 289.814 241.199 289.814C241.639 289.814 242.026 289.896 242.361 290.059V290.879C241.99 290.618 241.593 290.488 241.17 290.488C240.659 290.488 240.239 290.672 239.91 291.04C239.585 291.405 239.422 291.885 239.422 292.48C239.422 293.066 239.575 293.529 239.881 293.867C240.19 294.206 240.604 294.375 241.121 294.375C241.557 294.375 241.967 294.23 242.352 293.94V294.702ZM247.713 294.932H246.912V292.051C246.912 291.009 246.525 290.488 245.75 290.488C245.359 290.488 245.031 290.64 244.764 290.942C244.497 291.242 244.363 291.628 244.363 292.1V294.932H243.562V287.529H244.363V290.762H244.383C244.767 290.13 245.314 289.814 246.023 289.814C247.15 289.814 247.713 290.493 247.713 291.851V294.932ZM249.637 288.662C249.493 288.662 249.371 288.613 249.271 288.516C249.17 288.418 249.119 288.294 249.119 288.145C249.119 287.995 249.17 287.871 249.271 287.773C249.371 287.673 249.493 287.622 249.637 287.622C249.783 287.622 249.907 287.673 250.008 287.773C250.112 287.871 250.164 287.995 250.164 288.145C250.164 288.288 250.112 288.41 250.008 288.511C249.907 288.612 249.783 288.662 249.637 288.662ZM250.027 294.932H249.227V289.932H250.027V294.932ZM255.799 294.932H254.998V292.08C254.998 291.019 254.611 290.488 253.836 290.488C253.436 290.488 253.104 290.64 252.84 290.942C252.579 291.242 252.449 291.621 252.449 292.08V294.932H251.648V289.932H252.449V290.762H252.469C252.846 290.13 253.393 289.814 254.109 289.814C254.656 289.814 255.075 289.992 255.364 290.347C255.654 290.698 255.799 291.208 255.799 291.875V294.932ZM261.331 292.632H257.801C257.814 293.188 257.964 293.618 258.25 293.921C258.536 294.224 258.93 294.375 259.432 294.375C259.995 294.375 260.512 294.189 260.984 293.818V294.57C260.545 294.889 259.964 295.049 259.241 295.049C258.535 295.049 257.98 294.823 257.576 294.37C257.173 293.914 256.971 293.275 256.971 292.451C256.971 291.673 257.19 291.04 257.63 290.552C258.073 290.06 258.621 289.814 259.275 289.814C259.93 289.814 260.436 290.026 260.794 290.449C261.152 290.872 261.331 291.46 261.331 292.212V292.632ZM260.511 291.953C260.507 291.491 260.395 291.131 260.174 290.874C259.956 290.617 259.651 290.488 259.261 290.488C258.883 290.488 258.562 290.623 258.299 290.894C258.035 291.164 257.872 291.517 257.811 291.953H260.511Z" fill="#31313B"/>
</g>
<g filter="url(#filter6_d_14_5179)">
<rect x="302" y="149.818" width="28" height="132" fill="#2538D5"/>
</g>
<g filter="url(#filter7_d_14_5179)">
<path d="M297.831 288.672H295.097V291.094H297.626V291.831H295.097V294.932H294.276V287.93H297.831V288.672ZM303.095 294.932H302.294V294.141H302.274C301.942 294.746 301.428 295.049 300.731 295.049C299.54 295.049 298.944 294.339 298.944 292.92V289.932H299.74V292.793C299.74 293.848 300.144 294.375 300.951 294.375C301.342 294.375 301.662 294.232 301.913 293.945C302.167 293.656 302.294 293.278 302.294 292.812V289.932H303.095V294.932ZM311.815 294.932H311.015V292.061C311.015 291.507 310.928 291.107 310.756 290.859C310.587 290.612 310.3 290.488 309.896 290.488C309.555 290.488 309.263 290.645 309.022 290.957C308.785 291.27 308.666 291.644 308.666 292.08V294.932H307.865V291.963C307.865 290.98 307.486 290.488 306.728 290.488C306.376 290.488 306.086 290.636 305.858 290.933C305.631 291.226 305.517 291.608 305.517 292.08V294.932H304.716V289.932H305.517V290.723H305.536C305.891 290.117 306.409 289.814 307.089 289.814C307.431 289.814 307.729 289.91 307.982 290.103C308.236 290.291 308.41 290.54 308.505 290.85C308.876 290.16 309.429 289.814 310.165 289.814C311.265 289.814 311.815 290.493 311.815 291.851V294.932ZM313.739 288.662C313.596 288.662 313.474 288.613 313.373 288.516C313.272 288.418 313.222 288.294 313.222 288.145C313.222 287.995 313.272 287.871 313.373 287.773C313.474 287.673 313.596 287.622 313.739 287.622C313.886 287.622 314.009 287.673 314.11 287.773C314.215 287.871 314.267 287.995 314.267 288.145C314.267 288.288 314.215 288.41 314.11 288.511C314.009 288.612 313.886 288.662 313.739 288.662ZM314.13 294.932H313.329V289.932H314.13V294.932ZM320.019 294.531C320.019 296.367 319.14 297.285 317.382 297.285C316.763 297.285 316.223 297.168 315.761 296.934V296.133C316.324 296.445 316.861 296.602 317.372 296.602C318.603 296.602 319.218 295.947 319.218 294.639V294.092H319.198C318.817 294.73 318.244 295.049 317.479 295.049C316.858 295.049 316.356 294.827 315.976 294.385C315.598 293.939 315.409 293.341 315.409 292.593C315.409 291.743 315.613 291.068 316.02 290.566C316.43 290.065 316.99 289.814 317.699 289.814C318.373 289.814 318.873 290.085 319.198 290.625H319.218V289.932H320.019V294.531ZM319.218 292.671V291.934C319.218 291.536 319.083 291.196 318.812 290.913C318.546 290.63 318.212 290.488 317.812 290.488C317.317 290.488 316.929 290.669 316.649 291.03C316.369 291.388 316.229 291.891 316.229 292.539C316.229 293.096 316.363 293.542 316.63 293.877C316.9 294.209 317.257 294.375 317.699 294.375C318.148 294.375 318.513 294.215 318.793 293.896C319.076 293.577 319.218 293.169 319.218 292.671ZM325.219 294.932H324.418V294.15H324.398C324.05 294.749 323.537 295.049 322.86 295.049C322.362 295.049 321.972 294.917 321.688 294.653C321.409 294.39 321.269 294.04 321.269 293.604C321.269 292.669 321.819 292.126 322.919 291.973L324.418 291.763C324.418 290.913 324.075 290.488 323.388 290.488C322.785 290.488 322.242 290.693 321.757 291.104V290.283C322.248 289.971 322.815 289.814 323.456 289.814C324.631 289.814 325.219 290.436 325.219 291.68V294.932ZM324.418 292.402L323.212 292.568C322.841 292.62 322.561 292.713 322.372 292.847C322.183 292.977 322.089 293.21 322.089 293.545C322.089 293.789 322.175 293.989 322.348 294.146C322.523 294.299 322.756 294.375 323.046 294.375C323.443 294.375 323.77 294.237 324.027 293.96C324.288 293.68 324.418 293.327 324.418 292.9V292.402ZM329.047 294.883C328.858 294.987 328.609 295.039 328.3 295.039C327.424 295.039 326.986 294.551 326.986 293.574V290.615H326.127V289.932H326.986V288.711L327.787 288.452V289.932H329.047V290.615H327.787V293.433C327.787 293.768 327.844 294.007 327.958 294.15C328.072 294.294 328.261 294.365 328.524 294.365C328.726 294.365 328.9 294.31 329.047 294.199V294.883ZM332.206 295.049C331.467 295.049 330.876 294.816 330.434 294.351C329.994 293.882 329.774 293.262 329.774 292.49C329.774 291.65 330.004 290.994 330.463 290.522C330.922 290.05 331.542 289.814 332.323 289.814C333.069 289.814 333.65 290.044 334.066 290.503C334.486 290.962 334.696 291.598 334.696 292.412C334.696 293.21 334.47 293.849 334.018 294.331C333.568 294.81 332.965 295.049 332.206 295.049ZM332.265 290.488C331.75 290.488 331.343 290.664 331.044 291.016C330.744 291.364 330.595 291.846 330.595 292.461C330.595 293.053 330.746 293.521 331.049 293.862C331.352 294.204 331.757 294.375 332.265 294.375C332.782 294.375 333.179 294.207 333.456 293.872C333.736 293.537 333.876 293.06 333.876 292.441C333.876 291.816 333.736 291.335 333.456 290.996C333.179 290.658 332.782 290.488 332.265 290.488ZM338.583 290.742C338.443 290.635 338.241 290.581 337.978 290.581C337.636 290.581 337.349 290.742 337.118 291.064C336.89 291.387 336.776 291.826 336.776 292.383V294.932H335.976V289.932H336.776V290.962H336.796C336.91 290.61 337.084 290.337 337.318 290.142C337.553 289.943 337.815 289.844 338.104 289.844C338.313 289.844 338.472 289.867 338.583 289.912V290.742Z" fill="#31313B"/>
</g>
<g filter="url(#filter8_d_14_5179)">
<rect x="386" y="211.818" width="28" height="70" fill="#2538D5"/>
</g>
<g filter="url(#filter9_d_14_5179)">
<path d="M375.732 295.049C374.74 295.049 373.944 294.722 373.345 294.067C372.749 293.413 372.451 292.562 372.451 291.514C372.451 290.387 372.756 289.489 373.364 288.818C373.973 288.148 374.801 287.812 375.85 287.812C376.816 287.812 377.594 288.138 378.184 288.789C378.776 289.44 379.072 290.291 379.072 291.343C379.072 292.485 378.77 293.389 378.164 294.053C377.559 294.717 376.748 295.049 375.732 295.049ZM375.791 288.555C375.055 288.555 374.458 288.82 373.999 289.351C373.54 289.881 373.311 290.578 373.311 291.44C373.311 292.303 373.534 292.998 373.979 293.525C374.429 294.049 375.013 294.312 375.732 294.312C376.501 294.312 377.106 294.061 377.549 293.56C377.992 293.058 378.213 292.357 378.213 291.455C378.213 290.531 377.998 289.816 377.568 289.312C377.139 288.807 376.546 288.555 375.791 288.555ZM382.949 290.742C382.809 290.635 382.607 290.581 382.344 290.581C382.002 290.581 381.715 290.742 381.484 291.064C381.257 291.387 381.143 291.826 381.143 292.383V294.932H380.342V289.932H381.143V290.962H381.162C381.276 290.61 381.45 290.337 381.685 290.142C381.919 289.943 382.181 289.844 382.471 289.844C382.679 289.844 382.839 289.867 382.949 289.912V290.742ZM386.138 294.883C385.949 294.987 385.7 295.039 385.391 295.039C384.515 295.039 384.077 294.551 384.077 293.574V290.615H383.218V289.932H384.077V288.711L384.878 288.452V289.932H386.138V290.615H384.878V293.433C384.878 293.768 384.935 294.007 385.049 294.15C385.163 294.294 385.352 294.365 385.615 294.365C385.817 294.365 385.991 294.31 386.138 294.199V294.883ZM391.357 294.932H390.557V292.051C390.557 291.009 390.169 290.488 389.395 290.488C389.004 290.488 388.675 290.64 388.408 290.942C388.141 291.242 388.008 291.628 388.008 292.1V294.932H387.207V287.529H388.008V290.762H388.027C388.411 290.13 388.958 289.814 389.668 289.814C390.794 289.814 391.357 290.493 391.357 291.851V294.932ZM394.961 295.049C394.222 295.049 393.631 294.816 393.188 294.351C392.749 293.882 392.529 293.262 392.529 292.49C392.529 291.65 392.759 290.994 393.218 290.522C393.677 290.05 394.297 289.814 395.078 289.814C395.824 289.814 396.405 290.044 396.821 290.503C397.241 290.962 397.451 291.598 397.451 292.412C397.451 293.21 397.225 293.849 396.772 294.331C396.323 294.81 395.719 295.049 394.961 295.049ZM395.02 290.488C394.505 290.488 394.098 290.664 393.799 291.016C393.499 291.364 393.35 291.846 393.35 292.461C393.35 293.053 393.501 293.521 393.804 293.862C394.106 294.204 394.512 294.375 395.02 294.375C395.537 294.375 395.934 294.207 396.211 293.872C396.491 293.537 396.631 293.06 396.631 292.441C396.631 291.816 396.491 291.335 396.211 290.996C395.934 290.658 395.537 290.488 395.02 290.488ZM406.348 294.639C405.83 294.912 405.186 295.049 404.414 295.049C403.418 295.049 402.62 294.728 402.021 294.087C401.423 293.446 401.123 292.604 401.123 291.562C401.123 290.443 401.46 289.538 402.134 288.848C402.808 288.158 403.662 287.812 404.697 287.812C405.361 287.812 405.911 287.909 406.348 288.101V288.975C405.846 288.695 405.293 288.555 404.688 288.555C403.883 288.555 403.231 288.823 402.729 289.36C402.231 289.897 401.982 290.615 401.982 291.514C401.982 292.367 402.215 293.047 402.681 293.555C403.149 294.059 403.763 294.312 404.521 294.312C405.225 294.312 405.833 294.155 406.348 293.843V294.639ZM411.709 294.932H410.908V294.141H410.889C410.557 294.746 410.042 295.049 409.346 295.049C408.154 295.049 407.559 294.339 407.559 292.92V289.932H408.354V292.793C408.354 293.848 408.758 294.375 409.565 294.375C409.956 294.375 410.277 294.232 410.527 293.945C410.781 293.656 410.908 293.278 410.908 292.812V289.932H411.709V294.932ZM415.649 294.883C415.461 294.987 415.212 295.039 414.902 295.039C414.027 295.039 413.589 294.551 413.589 293.574V290.615H412.729V289.932H413.589V288.711L414.39 288.452V289.932H415.649V290.615H414.39V293.433C414.39 293.768 414.447 294.007 414.561 294.15C414.674 294.294 414.863 294.365 415.127 294.365C415.329 294.365 415.503 294.31 415.649 294.199V294.883ZM419.038 294.883C418.849 294.987 418.6 295.039 418.291 295.039C417.415 295.039 416.978 294.551 416.978 293.574V290.615H416.118V289.932H416.978V288.711L417.778 288.452V289.932H419.038V290.615H417.778V293.433C417.778 293.768 417.835 294.007 417.949 294.15C418.063 294.294 418.252 294.365 418.516 294.365C418.717 294.365 418.892 294.31 419.038 294.199V294.883ZM424.126 292.632H420.596C420.609 293.188 420.758 293.618 421.045 293.921C421.331 294.224 421.725 294.375 422.227 294.375C422.79 294.375 423.307 294.189 423.779 293.818V294.57C423.34 294.889 422.759 295.049 422.036 295.049C421.33 295.049 420.775 294.823 420.371 294.37C419.967 293.914 419.766 293.275 419.766 292.451C419.766 291.673 419.985 291.04 420.425 290.552C420.868 290.06 421.416 289.814 422.07 289.814C422.725 289.814 423.231 290.026 423.589 290.449C423.947 290.872 424.126 291.46 424.126 292.212V292.632ZM423.306 291.953C423.302 291.491 423.19 291.131 422.969 290.874C422.751 290.617 422.446 290.488 422.056 290.488C421.678 290.488 421.357 290.623 421.094 290.894C420.83 291.164 420.667 291.517 420.605 291.953H423.306ZM427.949 290.742C427.809 290.635 427.607 290.581 427.344 290.581C427.002 290.581 426.715 290.742 426.484 291.064C426.257 291.387 426.143 291.826 426.143 292.383V294.932H425.342V289.932H426.143V290.962H426.162C426.276 290.61 426.45 290.337 426.685 290.142C426.919 289.943 427.181 289.844 427.471 289.844C427.679 289.844 427.839 289.867 427.949 289.912V290.742Z" fill="#31313B"/>
</g>
<g filter="url(#filter10_d_14_5179)">
<rect x="470" y="98.2339" width="28" height="183.698" fill="#2538D5"/>
</g>
<g filter="url(#filter11_d_14_5179)">
<path d="M469.396 294.932H468.39L464.786 289.351C464.695 289.211 464.62 289.064 464.562 288.911H464.532C464.558 289.061 464.571 289.382 464.571 289.873V294.932H463.751V287.93H464.815L468.321 293.423C468.468 293.651 468.562 293.807 468.604 293.892H468.624C468.591 293.69 468.575 293.346 468.575 292.861V287.93H469.396V294.932ZM475.143 292.632H471.612C471.625 293.188 471.775 293.618 472.062 293.921C472.348 294.224 472.742 294.375 473.243 294.375C473.806 294.375 474.324 294.189 474.796 293.818V294.57C474.356 294.889 473.775 295.049 473.053 295.049C472.346 295.049 471.791 294.823 471.388 294.37C470.984 293.914 470.782 293.275 470.782 292.451C470.782 291.673 471.002 291.04 471.441 290.552C471.884 290.06 472.433 289.814 473.087 289.814C473.741 289.814 474.247 290.026 474.605 290.449C474.964 290.872 475.143 291.46 475.143 292.212V292.632ZM474.322 291.953C474.319 291.491 474.207 291.131 473.985 290.874C473.767 290.617 473.463 290.488 473.072 290.488C472.695 290.488 472.374 290.623 472.11 290.894C471.847 291.164 471.684 291.517 471.622 291.953H474.322ZM477.179 294.209H477.159V294.932H476.358V287.529H477.159V290.811H477.179C477.573 290.146 478.149 289.814 478.907 289.814C479.549 289.814 480.05 290.039 480.411 290.488C480.776 290.934 480.958 291.533 480.958 292.285C480.958 293.122 480.755 293.792 480.348 294.297C479.941 294.798 479.384 295.049 478.678 295.049C478.017 295.049 477.517 294.769 477.179 294.209ZM477.159 292.192V292.891C477.159 293.304 477.293 293.656 477.56 293.945C477.83 294.232 478.172 294.375 478.585 294.375C479.07 294.375 479.449 294.189 479.723 293.818C479.999 293.447 480.138 292.931 480.138 292.271C480.138 291.714 480.009 291.278 479.752 290.962C479.495 290.646 479.146 290.488 478.707 290.488C478.242 290.488 477.867 290.651 477.584 290.977C477.301 291.299 477.159 291.704 477.159 292.192ZM486.28 294.932H485.479V294.141H485.46C485.128 294.746 484.614 295.049 483.917 295.049C482.726 295.049 482.13 294.339 482.13 292.92V289.932H482.926V292.793C482.926 293.848 483.329 294.375 484.137 294.375C484.527 294.375 484.848 294.232 485.099 293.945C485.353 293.656 485.479 293.278 485.479 292.812V289.932H486.28V294.932ZM488.702 294.932H487.901V287.529H488.702V294.932ZM490.733 288.662C490.59 288.662 490.468 288.613 490.367 288.516C490.266 288.418 490.216 288.294 490.216 288.145C490.216 287.995 490.266 287.871 490.367 287.773C490.468 287.673 490.59 287.622 490.733 287.622C490.88 287.622 491.004 287.673 491.104 287.773C491.209 287.871 491.261 287.995 491.261 288.145C491.261 288.288 491.209 288.41 491.104 288.511C491.004 288.612 490.88 288.662 490.733 288.662ZM491.124 294.932H490.323V289.932H491.124V294.932ZM496.231 290.161L493.272 294.248H496.202V294.932H492.096V294.683L495.055 290.615H492.374V289.932H496.231V290.161ZM501.285 292.632H497.755C497.768 293.188 497.918 293.618 498.204 293.921C498.491 294.224 498.884 294.375 499.386 294.375C499.949 294.375 500.466 294.189 500.938 293.818V294.57C500.499 294.889 499.918 295.049 499.195 295.049C498.489 295.049 497.934 294.823 497.53 294.37C497.127 293.914 496.925 293.275 496.925 292.451C496.925 291.673 497.145 291.04 497.584 290.552C498.027 290.06 498.575 289.814 499.229 289.814C499.884 289.814 500.39 290.026 500.748 290.449C501.106 290.872 501.285 291.46 501.285 292.212V292.632ZM500.465 291.953C500.462 291.491 500.349 291.131 500.128 290.874C499.91 290.617 499.605 290.488 499.215 290.488C498.837 290.488 498.517 290.623 498.253 290.894C497.989 291.164 497.826 291.517 497.765 291.953H500.465ZM505.108 290.742C504.968 290.635 504.767 290.581 504.503 290.581C504.161 290.581 503.875 290.742 503.644 291.064C503.416 291.387 503.302 291.826 503.302 292.383V294.932H502.501V289.932H503.302V290.962H503.321C503.435 290.61 503.609 290.337 503.844 290.142C504.078 289.943 504.34 289.844 504.63 289.844C504.838 289.844 504.998 289.867 505.108 289.912V290.742Z" fill="#31313B"/>
</g>
<g filter="url(#filter12_d_14_5179)">
<rect x="554" y="173.818" width="28" height="108" fill="#2538D5"/>
</g>
<g filter="url(#filter13_d_14_5179)">
<path d="M550.456 294.932H549.641V290.234C549.641 289.863 549.663 289.409 549.709 288.872H549.689C549.611 289.188 549.541 289.414 549.479 289.551L547.087 294.932H546.687L544.299 289.59C544.23 289.434 544.16 289.194 544.089 288.872H544.069C544.095 289.152 544.108 289.609 544.108 290.244V294.932H543.317V287.93H544.401L546.55 292.812C546.716 293.187 546.823 293.467 546.872 293.652H546.901C547.041 293.268 547.154 292.982 547.238 292.793L549.431 287.93H550.456V294.932ZM552.604 288.662C552.461 288.662 552.339 288.613 552.238 288.516C552.137 288.418 552.087 288.294 552.087 288.145C552.087 287.995 552.137 287.871 552.238 287.773C552.339 287.673 552.461 287.622 552.604 287.622C552.751 287.622 552.875 287.673 552.976 287.773C553.08 287.871 553.132 287.995 553.132 288.145C553.132 288.288 553.08 288.41 552.976 288.511C552.875 288.612 552.751 288.662 552.604 288.662ZM552.995 294.932H552.194V289.932H552.995V294.932ZM558.024 294.702C557.64 294.933 557.185 295.049 556.657 295.049C555.944 295.049 555.368 294.818 554.929 294.355C554.493 293.89 554.274 293.288 554.274 292.549C554.274 291.725 554.51 291.064 554.982 290.566C555.454 290.065 556.084 289.814 556.872 289.814C557.312 289.814 557.699 289.896 558.034 290.059V290.879C557.663 290.618 557.266 290.488 556.843 290.488C556.332 290.488 555.912 290.672 555.583 291.04C555.257 291.405 555.095 291.885 555.095 292.48C555.095 293.066 555.248 293.529 555.554 293.867C555.863 294.206 556.276 294.375 556.794 294.375C557.23 294.375 557.64 294.23 558.024 293.94V294.702ZM561.843 290.742C561.703 290.635 561.501 290.581 561.237 290.581C560.896 290.581 560.609 290.742 560.378 291.064C560.15 291.387 560.036 291.826 560.036 292.383V294.932H559.235V289.932H560.036V290.962H560.056C560.17 290.61 560.344 290.337 560.578 290.142C560.812 289.943 561.075 289.844 561.364 289.844C561.573 289.844 561.732 289.867 561.843 289.912V290.742ZM564.802 295.049C564.063 295.049 563.472 294.816 563.029 294.351C562.59 293.882 562.37 293.262 562.37 292.49C562.37 291.65 562.6 290.994 563.059 290.522C563.518 290.05 564.138 289.814 564.919 289.814C565.664 289.814 566.245 290.044 566.662 290.503C567.082 290.962 567.292 291.598 567.292 292.412C567.292 293.21 567.066 293.849 566.613 294.331C566.164 294.81 565.56 295.049 564.802 295.049ZM564.86 290.488C564.346 290.488 563.939 290.664 563.64 291.016C563.34 291.364 563.19 291.846 563.19 292.461C563.19 293.053 563.342 293.521 563.645 293.862C563.947 294.204 564.353 294.375 564.86 294.375C565.378 294.375 565.775 294.207 566.052 293.872C566.332 293.537 566.472 293.06 566.472 292.441C566.472 291.816 566.332 291.335 566.052 290.996C565.775 290.658 565.378 290.488 564.86 290.488ZM568.269 294.751V293.892C568.705 294.214 569.185 294.375 569.709 294.375C570.412 294.375 570.764 294.141 570.764 293.672C570.764 293.538 570.733 293.426 570.671 293.335C570.612 293.241 570.531 293.158 570.427 293.086C570.326 293.014 570.205 292.951 570.065 292.896C569.929 292.837 569.781 292.777 569.621 292.715C569.4 292.627 569.204 292.539 569.035 292.451C568.869 292.36 568.729 292.259 568.615 292.148C568.505 292.035 568.42 291.906 568.361 291.763C568.306 291.619 568.278 291.452 568.278 291.26C568.278 291.025 568.332 290.819 568.439 290.64C568.547 290.457 568.69 290.306 568.869 290.186C569.048 290.062 569.252 289.969 569.479 289.907C569.711 289.845 569.948 289.814 570.192 289.814C570.625 289.814 571.013 289.889 571.354 290.039V290.85C570.987 290.609 570.563 290.488 570.085 290.488C569.935 290.488 569.8 290.506 569.68 290.542C569.559 290.575 569.455 290.622 569.367 290.684C569.283 290.745 569.216 290.82 569.167 290.908C569.121 290.993 569.099 291.087 569.099 291.191C569.099 291.322 569.121 291.431 569.167 291.519C569.216 291.606 569.286 291.685 569.377 291.753C569.468 291.821 569.579 291.883 569.709 291.938C569.839 291.994 569.987 292.054 570.153 292.119C570.375 292.204 570.573 292.292 570.749 292.383C570.925 292.471 571.075 292.572 571.198 292.686C571.322 292.796 571.416 292.925 571.481 293.071C571.55 293.218 571.584 293.392 571.584 293.594C571.584 293.841 571.529 294.056 571.418 294.238C571.311 294.421 571.166 294.572 570.983 294.692C570.801 294.813 570.591 294.902 570.354 294.961C570.116 295.02 569.867 295.049 569.606 295.049C569.092 295.049 568.646 294.95 568.269 294.751ZM576.228 294.702C575.843 294.933 575.388 295.049 574.86 295.049C574.147 295.049 573.571 294.818 573.132 294.355C572.696 293.89 572.478 293.288 572.478 292.549C572.478 291.725 572.714 291.064 573.186 290.566C573.658 290.065 574.287 289.814 575.075 289.814C575.515 289.814 575.902 289.896 576.237 290.059V290.879C575.866 290.618 575.469 290.488 575.046 290.488C574.535 290.488 574.115 290.672 573.786 291.04C573.461 291.405 573.298 291.885 573.298 292.48C573.298 293.066 573.451 293.529 573.757 293.867C574.066 294.206 574.479 294.375 574.997 294.375C575.433 294.375 575.843 294.23 576.228 293.94V294.702ZM579.528 295.049C578.789 295.049 578.199 294.816 577.756 294.351C577.316 293.882 577.097 293.262 577.097 292.49C577.097 291.65 577.326 290.994 577.785 290.522C578.244 290.05 578.864 289.814 579.646 289.814C580.391 289.814 580.972 290.044 581.389 290.503C581.809 290.962 582.019 291.598 582.019 292.412C582.019 293.21 581.792 293.849 581.34 294.331C580.891 294.81 580.287 295.049 579.528 295.049ZM579.587 290.488C579.073 290.488 578.666 290.664 578.366 291.016C578.067 291.364 577.917 291.846 577.917 292.461C577.917 293.053 578.068 293.521 578.371 293.862C578.674 294.204 579.079 294.375 579.587 294.375C580.104 294.375 580.502 294.207 580.778 293.872C581.058 293.537 581.198 293.06 581.198 292.441C581.198 291.816 581.058 291.335 580.778 290.996C580.502 290.658 580.104 290.488 579.587 290.488ZM584.118 294.209H584.099V297.231H583.298V289.932H584.099V290.811H584.118C584.512 290.146 585.088 289.814 585.847 289.814C586.491 289.814 586.994 290.039 587.355 290.488C587.717 290.934 587.897 291.533 587.897 292.285C587.897 293.122 587.694 293.792 587.287 294.297C586.88 294.798 586.324 295.049 585.617 295.049C584.969 295.049 584.47 294.769 584.118 294.209ZM584.099 292.192V292.891C584.099 293.304 584.232 293.656 584.499 293.945C584.769 294.232 585.111 294.375 585.524 294.375C586.009 294.375 586.389 294.189 586.662 293.818C586.939 293.447 587.077 292.931 587.077 292.271C587.077 291.714 586.949 291.278 586.691 290.962C586.434 290.646 586.086 290.488 585.646 290.488C585.181 290.488 584.807 290.651 584.523 290.977C584.24 291.299 584.099 291.704 584.099 292.192ZM593.195 292.632H589.665C589.678 293.188 589.828 293.618 590.114 293.921C590.401 294.224 590.795 294.375 591.296 294.375C591.859 294.375 592.377 294.189 592.849 293.818V294.57C592.409 294.889 591.828 295.049 591.105 295.049C590.399 295.049 589.844 294.823 589.44 294.37C589.037 293.914 588.835 293.275 588.835 292.451C588.835 291.673 589.055 291.04 589.494 290.552C589.937 290.06 590.485 289.814 591.14 289.814C591.794 289.814 592.3 290.026 592.658 290.449C593.016 290.872 593.195 291.46 593.195 292.212V292.632ZM592.375 291.953C592.372 291.491 592.259 291.131 592.038 290.874C591.82 290.617 591.516 290.488 591.125 290.488C590.747 290.488 590.427 290.623 590.163 290.894C589.899 291.164 589.737 291.517 589.675 291.953H592.375Z" fill="#31313B"/>
</g>
<g filter="url(#filter14_d_14_5179)">
<rect x="638" y="59.8179" width="28" height="222" fill="#2538D5"/>
</g>
<g filter="url(#filter15_d_14_5179)">
<path d="M625.979 292.1C625.979 294.066 625.092 295.049 623.318 295.049C621.619 295.049 620.77 294.103 620.77 292.212V287.93H621.59V292.158C621.59 293.594 622.195 294.312 623.406 294.312C624.575 294.312 625.159 293.618 625.159 292.231V287.93H625.979V292.1ZM630.232 290.742C630.092 290.635 629.891 290.581 629.627 290.581C629.285 290.581 628.999 290.742 628.768 291.064C628.54 291.387 628.426 291.826 628.426 292.383V294.932H627.625V289.932H628.426V290.962H628.445C628.559 290.61 628.733 290.337 628.968 290.142C629.202 289.943 629.464 289.844 629.754 289.844C629.962 289.844 630.122 289.867 630.232 289.912V290.742ZM631.512 288.662C631.368 288.662 631.246 288.613 631.146 288.516C631.045 288.418 630.994 288.294 630.994 288.145C630.994 287.995 631.045 287.871 631.146 287.773C631.246 287.673 631.368 287.622 631.512 287.622C631.658 287.622 631.782 287.673 631.883 287.773C631.987 287.871 632.039 287.995 632.039 288.145C632.039 288.288 631.987 288.41 631.883 288.511C631.782 288.612 631.658 288.662 631.512 288.662ZM631.902 294.932H631.102V289.932H631.902V294.932ZM637.674 294.932H636.873V292.08C636.873 291.019 636.486 290.488 635.711 290.488C635.311 290.488 634.979 290.64 634.715 290.942C634.454 291.242 634.324 291.621 634.324 292.08V294.932H633.523V289.932H634.324V290.762H634.344C634.721 290.13 635.268 289.814 635.984 289.814C636.531 289.814 636.95 289.992 637.239 290.347C637.529 290.698 637.674 291.208 637.674 291.875V294.932ZM643.206 292.632H639.676C639.689 293.188 639.839 293.618 640.125 293.921C640.411 294.224 640.805 294.375 641.307 294.375C641.87 294.375 642.387 294.189 642.859 293.818V294.57C642.42 294.889 641.839 295.049 641.116 295.049C640.41 295.049 639.855 294.823 639.451 294.37C639.048 293.914 638.846 293.275 638.846 292.451C638.846 291.673 639.065 291.04 639.505 290.552C639.948 290.06 640.496 289.814 641.15 289.814C641.805 289.814 642.311 290.026 642.669 290.449C643.027 290.872 643.206 291.46 643.206 292.212V292.632ZM642.386 291.953C642.382 291.491 642.27 291.131 642.049 290.874C641.831 290.617 641.526 290.488 641.136 290.488C640.758 290.488 640.438 290.623 640.174 290.894C639.91 291.164 639.747 291.517 639.686 291.953H642.386ZM652.693 294.932H651.785L651.043 292.969H648.074L647.376 294.932H646.463L649.148 287.93H649.998L652.693 294.932ZM650.774 292.231L649.676 289.248C649.64 289.15 649.604 288.994 649.568 288.779H649.549C649.516 288.978 649.479 289.134 649.437 289.248L648.348 292.231H650.774ZM657.771 294.932H656.971V292.08C656.971 291.019 656.583 290.488 655.809 290.488C655.408 290.488 655.076 290.64 654.812 290.942C654.552 291.242 654.422 291.621 654.422 292.08V294.932H653.621V289.932H654.422V290.762H654.441C654.819 290.13 655.366 289.814 656.082 289.814C656.629 289.814 657.047 289.992 657.337 290.347C657.627 290.698 657.771 291.208 657.771 291.875V294.932ZM662.864 294.932H662.063V294.15H662.044C661.696 294.749 661.183 295.049 660.506 295.049C660.008 295.049 659.617 294.917 659.334 294.653C659.054 294.39 658.914 294.04 658.914 293.604C658.914 292.669 659.464 292.126 660.564 291.973L662.063 291.763C662.063 290.913 661.72 290.488 661.033 290.488C660.431 290.488 659.887 290.693 659.402 291.104V290.283C659.894 289.971 660.46 289.814 661.102 289.814C662.277 289.814 662.864 290.436 662.864 291.68V294.932ZM662.063 292.402L660.857 292.568C660.486 292.62 660.206 292.713 660.018 292.847C659.829 292.977 659.734 293.21 659.734 293.545C659.734 293.789 659.821 293.989 659.993 294.146C660.169 294.299 660.402 294.375 660.691 294.375C661.089 294.375 661.416 294.237 661.673 293.96C661.933 293.68 662.063 293.327 662.063 292.9V292.402ZM665.174 294.932H664.373V287.529H665.174V294.932ZM670.774 289.932L668.475 295.732C668.064 296.768 667.488 297.285 666.746 297.285C666.538 297.285 666.364 297.264 666.224 297.222V296.504C666.396 296.562 666.554 296.592 666.697 296.592C667.101 296.592 667.404 296.351 667.605 295.869L668.006 294.922L666.053 289.932H666.941L668.294 293.779C668.31 293.828 668.344 293.955 668.396 294.16H668.426C668.442 294.082 668.475 293.958 668.523 293.789L669.944 289.932H670.774ZM675.125 290.161L672.166 294.248H675.096V294.932H670.989V294.683L673.948 290.615H671.268V289.932H675.125V290.161ZM680.179 292.632H676.648C676.661 293.188 676.811 293.618 677.098 293.921C677.384 294.224 677.778 294.375 678.279 294.375C678.842 294.375 679.36 294.189 679.832 293.818V294.57C679.393 294.889 678.812 295.049 678.089 295.049C677.382 295.049 676.827 294.823 676.424 294.37C676.02 293.914 675.818 293.275 675.818 292.451C675.818 291.673 676.038 291.04 676.478 290.552C676.92 290.06 677.469 289.814 678.123 289.814C678.777 289.814 679.284 290.026 679.642 290.449C680 290.872 680.179 291.46 680.179 292.212V292.632ZM679.358 291.953C679.355 291.491 679.243 291.131 679.021 290.874C678.803 290.617 678.499 290.488 678.108 290.488C677.731 290.488 677.41 290.623 677.146 290.894C676.883 291.164 676.72 291.517 676.658 291.953H679.358ZM684.002 290.742C683.862 290.635 683.66 290.581 683.396 290.581C683.055 290.581 682.768 290.742 682.537 291.064C682.309 291.387 682.195 291.826 682.195 292.383V294.932H681.395V289.932H682.195V290.962H682.215C682.329 290.61 682.503 290.337 682.737 290.142C682.972 289.943 683.234 289.844 683.523 289.844C683.732 289.844 683.891 289.867 684.002 289.912V290.742Z" fill="#31313B"/>
</g>
<g filter="url(#filter16_d_14_5179)">
<rect x="722" y="216.818" width="28" height="65" fill="#2538D5"/>
</g>
<g filter="url(#filter17_d_14_5179)">
<path d="M718.549 294.639C718.031 294.912 717.387 295.049 716.615 295.049C715.619 295.049 714.822 294.728 714.223 294.087C713.624 293.446 713.324 292.604 713.324 291.562C713.324 290.443 713.661 289.538 714.335 288.848C715.009 288.158 715.863 287.812 716.898 287.812C717.562 287.812 718.113 287.909 718.549 288.101V288.975C718.048 288.695 717.494 288.555 716.889 288.555C716.085 288.555 715.432 288.823 714.931 289.36C714.433 289.897 714.184 290.615 714.184 291.514C714.184 292.367 714.416 293.047 714.882 293.555C715.351 294.059 715.964 294.312 716.723 294.312C717.426 294.312 718.035 294.155 718.549 293.843V294.639ZM724.994 294.932H724.018L722.846 292.969C722.738 292.786 722.634 292.632 722.533 292.505C722.432 292.375 722.328 292.269 722.221 292.188C722.117 292.106 722.003 292.048 721.879 292.012C721.758 291.973 721.622 291.953 721.469 291.953H720.795V294.932H719.975V287.93H722.064C722.37 287.93 722.652 287.969 722.909 288.047C723.17 288.122 723.394 288.237 723.583 288.394C723.775 288.55 723.925 288.745 724.032 288.979C724.14 289.211 724.193 289.482 724.193 289.795C724.193 290.039 724.156 290.264 724.081 290.469C724.009 290.671 723.905 290.851 723.769 291.011C723.635 291.17 723.472 291.307 723.28 291.421C723.091 291.532 722.878 291.618 722.641 291.68V291.699C722.758 291.751 722.859 291.812 722.943 291.88C723.031 291.945 723.114 292.023 723.192 292.114C723.271 292.205 723.347 292.31 723.422 292.427C723.5 292.541 723.586 292.674 723.681 292.827L724.994 294.932ZM720.795 288.672V291.211H721.908C722.113 291.211 722.302 291.18 722.475 291.118C722.65 291.056 722.802 290.968 722.929 290.854C723.056 290.737 723.155 290.596 723.227 290.43C723.298 290.26 723.334 290.072 723.334 289.863C723.334 289.489 723.212 289.198 722.968 288.989C722.727 288.778 722.377 288.672 721.918 288.672H720.795ZM728.378 294.648V293.682C728.489 293.779 728.62 293.867 728.773 293.945C728.93 294.023 729.092 294.09 729.262 294.146C729.434 294.198 729.607 294.238 729.779 294.268C729.952 294.297 730.111 294.312 730.258 294.312C730.762 294.312 731.138 294.219 731.386 294.033C731.636 293.844 731.762 293.574 731.762 293.223C731.762 293.034 731.719 292.869 731.635 292.729C731.553 292.59 731.439 292.463 731.293 292.349C731.146 292.231 730.972 292.121 730.771 292.017C730.572 291.909 730.357 291.797 730.126 291.68C729.882 291.556 729.654 291.431 729.442 291.304C729.231 291.177 729.047 291.037 728.891 290.884C728.734 290.731 728.611 290.558 728.52 290.366C728.432 290.171 728.388 289.943 728.388 289.683C728.388 289.364 728.458 289.087 728.598 288.853C728.738 288.615 728.922 288.42 729.149 288.267C729.377 288.114 729.636 288 729.926 287.925C730.219 287.85 730.517 287.812 730.819 287.812C731.509 287.812 732.012 287.896 732.328 288.062V288.984C731.915 288.698 731.384 288.555 730.736 288.555C730.557 288.555 730.378 288.574 730.199 288.613C730.02 288.649 729.861 288.709 729.721 288.794C729.581 288.879 729.467 288.988 729.379 289.121C729.291 289.255 729.247 289.417 729.247 289.609C729.247 289.788 729.28 289.943 729.345 290.073C729.413 290.203 729.512 290.322 729.643 290.43C729.773 290.537 729.931 290.641 730.116 290.742C730.305 290.843 730.521 290.954 730.766 291.074C731.016 291.198 731.254 291.328 731.479 291.465C731.703 291.602 731.9 291.753 732.069 291.919C732.239 292.085 732.372 292.269 732.47 292.471C732.571 292.673 732.621 292.904 732.621 293.164C732.621 293.509 732.553 293.802 732.416 294.043C732.283 294.281 732.1 294.474 731.869 294.624C731.641 294.774 731.378 294.881 731.078 294.946C730.779 295.015 730.463 295.049 730.131 295.049C730.02 295.049 729.883 295.039 729.721 295.02C729.558 295.003 729.392 294.977 729.223 294.941C729.053 294.909 728.892 294.868 728.739 294.819C728.59 294.767 728.469 294.71 728.378 294.648ZM737.597 289.932L735.297 295.732C734.887 296.768 734.311 297.285 733.568 297.285C733.36 297.285 733.186 297.264 733.046 297.222V296.504C733.218 296.562 733.376 296.592 733.52 296.592C733.923 296.592 734.226 296.351 734.428 295.869L734.828 294.922L732.875 289.932H733.764L735.116 293.779C735.132 293.828 735.167 293.955 735.219 294.16H735.248C735.264 294.082 735.297 293.958 735.346 293.789L736.767 289.932H737.597ZM738.158 294.751V293.892C738.594 294.214 739.075 294.375 739.599 294.375C740.302 294.375 740.653 294.141 740.653 293.672C740.653 293.538 740.622 293.426 740.561 293.335C740.502 293.241 740.421 293.158 740.316 293.086C740.215 293.014 740.095 292.951 739.955 292.896C739.818 292.837 739.67 292.777 739.511 292.715C739.289 292.627 739.094 292.539 738.925 292.451C738.759 292.36 738.619 292.259 738.505 292.148C738.394 292.035 738.31 291.906 738.251 291.763C738.196 291.619 738.168 291.452 738.168 291.26C738.168 291.025 738.222 290.819 738.329 290.64C738.437 290.457 738.58 290.306 738.759 290.186C738.938 290.062 739.141 289.969 739.369 289.907C739.6 289.845 739.838 289.814 740.082 289.814C740.515 289.814 740.902 289.889 741.244 290.039V290.85C740.876 290.609 740.453 290.488 739.975 290.488C739.825 290.488 739.69 290.506 739.569 290.542C739.449 290.575 739.345 290.622 739.257 290.684C739.172 290.745 739.105 290.82 739.057 290.908C739.011 290.993 738.988 291.087 738.988 291.191C738.988 291.322 739.011 291.431 739.057 291.519C739.105 291.606 739.175 291.685 739.267 291.753C739.358 291.821 739.468 291.883 739.599 291.938C739.729 291.994 739.877 292.054 740.043 292.119C740.264 292.204 740.463 292.292 740.639 292.383C740.814 292.471 740.964 292.572 741.088 292.686C741.212 292.796 741.306 292.925 741.371 293.071C741.439 293.218 741.474 293.392 741.474 293.594C741.474 293.841 741.418 294.056 741.308 294.238C741.2 294.421 741.055 294.572 740.873 294.692C740.691 294.813 740.481 294.902 740.243 294.961C740.006 295.02 739.757 295.049 739.496 295.049C738.982 295.049 738.536 294.95 738.158 294.751ZM745.028 294.883C744.84 294.987 744.59 295.039 744.281 295.039C743.406 295.039 742.968 294.551 742.968 293.574V290.615H742.108V289.932H742.968V288.711L743.769 288.452V289.932H745.028V290.615H743.769V293.433C743.769 293.768 743.826 294.007 743.939 294.15C744.053 294.294 744.242 294.365 744.506 294.365C744.708 294.365 744.882 294.31 745.028 294.199V294.883ZM750.116 292.632H746.586C746.599 293.188 746.749 293.618 747.035 293.921C747.322 294.224 747.715 294.375 748.217 294.375C748.78 294.375 749.298 294.189 749.77 293.818V294.57C749.33 294.889 748.749 295.049 748.026 295.049C747.32 295.049 746.765 294.823 746.361 294.37C745.958 293.914 745.756 293.275 745.756 292.451C745.756 291.673 745.976 291.04 746.415 290.552C746.858 290.06 747.406 289.814 748.061 289.814C748.715 289.814 749.221 290.026 749.579 290.449C749.937 290.872 750.116 291.46 750.116 292.212V292.632ZM749.296 291.953C749.293 291.491 749.18 291.131 748.959 290.874C748.741 290.617 748.437 290.488 748.046 290.488C747.668 290.488 747.348 290.623 747.084 290.894C746.82 291.164 746.658 291.517 746.596 291.953H749.296ZM758.432 294.932H757.631V292.061C757.631 291.507 757.545 291.107 757.372 290.859C757.203 290.612 756.916 290.488 756.513 290.488C756.171 290.488 755.88 290.645 755.639 290.957C755.401 291.27 755.282 291.644 755.282 292.08V294.932H754.481V291.963C754.481 290.98 754.102 290.488 753.344 290.488C752.992 290.488 752.702 290.636 752.475 290.933C752.247 291.226 752.133 291.608 752.133 292.08V294.932H751.332V289.932H752.133V290.723H752.152C752.507 290.117 753.025 289.814 753.705 289.814C754.047 289.814 754.345 289.91 754.599 290.103C754.853 290.291 755.027 290.54 755.121 290.85C755.492 290.16 756.046 289.814 756.781 289.814C757.882 289.814 758.432 290.493 758.432 291.851V294.932Z" fill="#31313B"/>
</g>
<g filter="url(#filter18_d_14_5179)">
<rect x="806" y="126.818" width="28" height="155" fill="#2538D5"/>
</g>
<g filter="url(#filter19_d_14_5179)">
<path d="M792.632 294.932H791.631L790.02 292.251C789.971 292.17 789.917 292.054 789.858 291.904H789.839C789.806 291.979 789.751 292.095 789.673 292.251L788.013 294.932H787.007L789.351 291.411L787.192 287.93H788.198L789.629 290.391C789.723 290.553 789.806 290.716 789.878 290.879H789.897C790.002 290.664 790.093 290.495 790.171 290.371L791.66 287.93H792.603L790.4 291.401L792.632 294.932ZM796.147 292.461H793.481V291.831H796.147V292.461ZM802.72 294.932H801.743L800.571 292.969C800.464 292.786 800.36 292.632 800.259 292.505C800.158 292.375 800.054 292.269 799.946 292.188C799.842 292.106 799.728 292.048 799.604 292.012C799.484 291.973 799.347 291.953 799.194 291.953H798.521V294.932H797.7V287.93H799.79C800.096 287.93 800.378 287.969 800.635 288.047C800.895 288.122 801.12 288.237 801.309 288.394C801.501 288.55 801.65 288.745 801.758 288.979C801.865 289.211 801.919 289.482 801.919 289.795C801.919 290.039 801.882 290.264 801.807 290.469C801.735 290.671 801.631 290.851 801.494 291.011C801.361 291.17 801.198 291.307 801.006 291.421C800.817 291.532 800.604 291.618 800.366 291.68V291.699C800.483 291.751 800.584 291.812 800.669 291.88C800.757 291.945 800.84 292.023 800.918 292.114C800.996 292.205 801.073 292.31 801.147 292.427C801.226 292.541 801.312 292.674 801.406 292.827L802.72 294.932ZM798.521 288.672V291.211H799.634C799.839 291.211 800.028 291.18 800.2 291.118C800.376 291.056 800.527 290.968 800.654 290.854C800.781 290.737 800.881 290.596 800.952 290.43C801.024 290.26 801.06 290.072 801.06 289.863C801.06 289.489 800.938 289.198 800.693 288.989C800.452 288.778 800.103 288.672 799.644 288.672H798.521ZM807.158 294.932H806.357V294.15H806.338C805.99 294.749 805.477 295.049 804.8 295.049C804.302 295.049 803.911 294.917 803.628 294.653C803.348 294.39 803.208 294.04 803.208 293.604C803.208 292.669 803.758 292.126 804.858 291.973L806.357 291.763C806.357 290.913 806.014 290.488 805.327 290.488C804.725 290.488 804.181 290.693 803.696 291.104V290.283C804.188 289.971 804.754 289.814 805.396 289.814C806.571 289.814 807.158 290.436 807.158 291.68V294.932ZM806.357 292.402L805.151 292.568C804.78 292.62 804.5 292.713 804.312 292.847C804.123 292.977 804.028 293.21 804.028 293.545C804.028 293.789 804.115 293.989 804.287 294.146C804.463 294.299 804.696 294.375 804.985 294.375C805.382 294.375 805.71 294.237 805.967 293.96C806.227 293.68 806.357 293.327 806.357 292.9V292.402ZM812.646 289.932L810.347 295.732C809.937 296.768 809.36 297.285 808.618 297.285C808.41 297.285 808.236 297.264 808.096 297.222V296.504C808.268 296.562 808.426 296.592 808.569 296.592C808.973 296.592 809.276 296.351 809.478 295.869L809.878 294.922L807.925 289.932H808.813L810.166 293.779C810.182 293.828 810.216 293.955 810.269 294.16H810.298C810.314 294.082 810.347 293.958 810.396 293.789L811.816 289.932H812.646ZM823.501 294.932H822.686V290.234C822.686 289.863 822.708 289.409 822.754 288.872H822.734C822.656 289.188 822.586 289.414 822.524 289.551L820.132 294.932H819.731L817.344 289.59C817.275 289.434 817.205 289.194 817.134 288.872H817.114C817.14 289.152 817.153 289.609 817.153 290.244V294.932H816.362V287.93H817.446L819.595 292.812C819.761 293.187 819.868 293.467 819.917 293.652H819.946C820.086 293.268 820.199 292.982 820.283 292.793L822.476 287.93H823.501V294.932ZM828.818 294.932H828.018V294.15H827.998C827.65 294.749 827.137 295.049 826.46 295.049C825.962 295.049 825.571 294.917 825.288 294.653C825.008 294.39 824.868 294.04 824.868 293.604C824.868 292.669 825.418 292.126 826.519 291.973L828.018 291.763C828.018 290.913 827.674 290.488 826.987 290.488C826.385 290.488 825.841 290.693 825.356 291.104V290.283C825.848 289.971 826.414 289.814 827.056 289.814C828.231 289.814 828.818 290.436 828.818 291.68V294.932ZM828.018 292.402L826.812 292.568C826.44 292.62 826.16 292.713 825.972 292.847C825.783 292.977 825.688 293.21 825.688 293.545C825.688 293.789 825.775 293.989 825.947 294.146C826.123 294.299 826.356 294.375 826.646 294.375C827.043 294.375 827.37 294.237 827.627 293.96C827.887 293.68 828.018 293.327 828.018 292.9V292.402ZM833.735 294.702C833.351 294.933 832.896 295.049 832.368 295.049C831.655 295.049 831.079 294.818 830.64 294.355C830.203 293.89 829.985 293.288 829.985 292.549C829.985 291.725 830.221 291.064 830.693 290.566C831.165 290.065 831.795 289.814 832.583 289.814C833.022 289.814 833.41 289.896 833.745 290.059V290.879C833.374 290.618 832.977 290.488 832.554 290.488C832.043 290.488 831.623 290.672 831.294 291.04C830.968 291.405 830.806 291.885 830.806 292.48C830.806 293.066 830.959 293.529 831.265 293.867C831.574 294.206 831.987 294.375 832.505 294.375C832.941 294.375 833.351 294.23 833.735 293.94V294.702ZM839.097 294.932H838.296V292.051C838.296 291.009 837.909 290.488 837.134 290.488C836.743 290.488 836.414 290.64 836.147 290.942C835.881 291.242 835.747 291.628 835.747 292.1V294.932H834.946V287.529H835.747V290.762H835.767C836.151 290.13 836.698 289.814 837.407 289.814C838.534 289.814 839.097 290.493 839.097 291.851V294.932ZM841.021 288.662C840.877 288.662 840.755 288.613 840.654 288.516C840.553 288.418 840.503 288.294 840.503 288.145C840.503 287.995 840.553 287.871 840.654 287.773C840.755 287.673 840.877 287.622 841.021 287.622C841.167 287.622 841.291 287.673 841.392 287.773C841.496 287.871 841.548 287.995 841.548 288.145C841.548 288.288 841.496 288.41 841.392 288.511C841.291 288.612 841.167 288.662 841.021 288.662ZM841.411 294.932H840.61V289.932H841.411V294.932ZM847.183 294.932H846.382V292.08C846.382 291.019 845.994 290.488 845.22 290.488C844.819 290.488 844.487 290.64 844.224 290.942C843.963 291.242 843.833 291.621 843.833 292.08V294.932H843.032V289.932H843.833V290.762H843.853C844.23 290.13 844.777 289.814 845.493 289.814C846.04 289.814 846.458 289.992 846.748 290.347C847.038 290.698 847.183 291.208 847.183 291.875V294.932ZM852.715 292.632H849.185C849.198 293.188 849.347 293.618 849.634 293.921C849.92 294.224 850.314 294.375 850.815 294.375C851.379 294.375 851.896 294.189 852.368 293.818V294.57C851.929 294.889 851.348 295.049 850.625 295.049C849.919 295.049 849.364 294.823 848.96 294.37C848.556 293.914 848.354 293.275 848.354 292.451C848.354 291.673 848.574 291.04 849.014 290.552C849.456 290.06 850.005 289.814 850.659 289.814C851.313 289.814 851.82 290.026 852.178 290.449C852.536 290.872 852.715 291.46 852.715 292.212V292.632ZM851.895 291.953C851.891 291.491 851.779 291.131 851.558 290.874C851.34 290.617 851.035 290.488 850.645 290.488C850.267 290.488 849.946 290.623 849.683 290.894C849.419 291.164 849.256 291.517 849.194 291.953H851.895Z" fill="#31313B"/>
</g>
<g filter="url(#filter20_d_14_5179)">
<rect x="890" y="160.818" width="28" height="121" fill="#2538D5"/>
</g>
<g filter="url(#filter21_d_14_5179)">
<path d="M879.361 294.932H875.65V287.93H879.205V288.672H876.471V291.001H879V291.738H876.471V294.189H879.361V294.932ZM885.475 294.639C884.957 294.912 884.312 295.049 883.541 295.049C882.545 295.049 881.747 294.728 881.148 294.087C880.549 293.446 880.25 292.604 880.25 291.562C880.25 290.443 880.587 289.538 881.261 288.848C881.935 288.158 882.789 287.812 883.824 287.812C884.488 287.812 885.038 287.909 885.475 288.101V288.975C884.973 288.695 884.42 288.555 883.814 288.555C883.01 288.555 882.358 288.823 881.856 289.36C881.358 289.897 881.109 290.615 881.109 291.514C881.109 292.367 881.342 293.047 881.808 293.555C882.276 294.059 882.89 294.312 883.648 294.312C884.352 294.312 884.96 294.155 885.475 293.843V294.639ZM892.135 294.453C891.432 294.85 890.65 295.049 889.791 295.049C888.792 295.049 887.983 294.727 887.364 294.082C886.749 293.438 886.441 292.585 886.441 291.523C886.441 290.439 886.783 289.551 887.467 288.857C888.154 288.161 889.023 287.812 890.074 287.812C890.836 287.812 891.476 287.936 891.993 288.184V289.092C891.427 288.734 890.756 288.555 889.981 288.555C889.197 288.555 888.554 288.825 888.053 289.365C887.551 289.906 887.301 290.605 887.301 291.465C887.301 292.35 887.534 293.047 887.999 293.555C888.465 294.059 889.096 294.312 889.894 294.312C890.44 294.312 890.914 294.202 891.314 293.984V292.021H889.781V291.279H892.135V294.453ZM903.648 294.932H902.833V290.234C902.833 289.863 902.856 289.409 902.901 288.872H902.882C902.804 289.188 902.734 289.414 902.672 289.551L900.279 294.932H899.879L897.491 289.59C897.423 289.434 897.353 289.194 897.281 288.872H897.262C897.288 289.152 897.301 289.609 897.301 290.244V294.932H896.51V287.93H897.594L899.742 292.812C899.908 293.187 900.016 293.467 900.064 293.652H900.094C900.234 293.268 900.346 292.982 900.431 292.793L902.623 287.93H903.648V294.932ZM908.966 294.932H908.165V294.15H908.146C907.797 294.749 907.285 295.049 906.607 295.049C906.109 295.049 905.719 294.917 905.436 294.653C905.156 294.39 905.016 294.04 905.016 293.604C905.016 292.669 905.566 292.126 906.666 291.973L908.165 291.763C908.165 290.913 907.822 290.488 907.135 290.488C906.533 290.488 905.989 290.693 905.504 291.104V290.283C905.995 289.971 906.562 289.814 907.203 289.814C908.378 289.814 908.966 290.436 908.966 291.68V294.932ZM908.165 292.402L906.959 292.568C906.588 292.62 906.308 292.713 906.119 292.847C905.93 292.977 905.836 293.21 905.836 293.545C905.836 293.789 905.922 293.989 906.095 294.146C906.271 294.299 906.503 294.375 906.793 294.375C907.19 294.375 907.517 294.237 907.774 293.96C908.035 293.68 908.165 293.327 908.165 292.9V292.402ZM913.883 294.702C913.499 294.933 913.043 295.049 912.516 295.049C911.803 295.049 911.227 294.818 910.787 294.355C910.351 293.89 910.133 293.288 910.133 292.549C910.133 291.725 910.369 291.064 910.841 290.566C911.313 290.065 911.943 289.814 912.73 289.814C913.17 289.814 913.557 289.896 913.893 290.059V290.879C913.521 290.618 913.124 290.488 912.701 290.488C912.19 290.488 911.77 290.672 911.441 291.04C911.116 291.405 910.953 291.885 910.953 292.48C910.953 293.066 911.106 293.529 911.412 293.867C911.721 294.206 912.135 294.375 912.652 294.375C913.089 294.375 913.499 294.23 913.883 293.94V294.702ZM919.244 294.932H918.443V292.051C918.443 291.009 918.056 290.488 917.281 290.488C916.891 290.488 916.562 290.64 916.295 290.942C916.028 291.242 915.895 291.628 915.895 292.1V294.932H915.094V287.529H915.895V290.762H915.914C916.298 290.13 916.845 289.814 917.555 289.814C918.681 289.814 919.244 290.493 919.244 291.851V294.932ZM921.168 288.662C921.025 288.662 920.903 288.613 920.802 288.516C920.701 288.418 920.65 288.294 920.65 288.145C920.65 287.995 920.701 287.871 920.802 287.773C920.903 287.673 921.025 287.622 921.168 287.622C921.314 287.622 921.438 287.673 921.539 287.773C921.643 287.871 921.695 287.995 921.695 288.145C921.695 288.288 921.643 288.41 921.539 288.511C921.438 288.612 921.314 288.662 921.168 288.662ZM921.559 294.932H920.758V289.932H921.559V294.932ZM927.33 294.932H926.529V292.08C926.529 291.019 926.142 290.488 925.367 290.488C924.967 290.488 924.635 290.64 924.371 290.942C924.111 291.242 923.98 291.621 923.98 292.08V294.932H923.18V289.932H923.98V290.762H924C924.378 290.13 924.924 289.814 925.641 289.814C926.188 289.814 926.606 289.992 926.896 290.347C927.185 290.698 927.33 291.208 927.33 291.875V294.932ZM932.862 292.632H929.332C929.345 293.188 929.495 293.618 929.781 293.921C930.068 294.224 930.462 294.375 930.963 294.375C931.526 294.375 932.044 294.189 932.516 293.818V294.57C932.076 294.889 931.495 295.049 930.772 295.049C930.066 295.049 929.511 294.823 929.107 294.37C928.704 293.914 928.502 293.275 928.502 292.451C928.502 291.673 928.722 291.04 929.161 290.552C929.604 290.06 930.152 289.814 930.807 289.814C931.461 289.814 931.967 290.026 932.325 290.449C932.683 290.872 932.862 291.46 932.862 292.212V292.632ZM932.042 291.953C932.039 291.491 931.926 291.131 931.705 290.874C931.487 290.617 931.183 290.488 930.792 290.488C930.414 290.488 930.094 290.623 929.83 290.894C929.566 291.164 929.404 291.517 929.342 291.953H932.042Z" fill="#31313B"/>
</g>
<g filter="url(#filter22_d_14_5179)">
<rect x="974" y="98.2339" width="28" height="183.698" fill="#2538D5"/>
</g>
<g filter="url(#filter23_d_14_5179)">
<path d="M976.008 294.932V287.93H978C978.605 287.93 979.086 288.078 979.44 288.374C979.795 288.67 979.973 289.056 979.973 289.531C979.973 289.928 979.865 290.273 979.65 290.566C979.436 290.859 979.139 291.068 978.762 291.191V291.211C979.234 291.266 979.611 291.445 979.895 291.748C980.178 292.048 980.319 292.438 980.319 292.92C980.319 293.519 980.104 294.004 979.675 294.375C979.245 294.746 978.703 294.932 978.049 294.932H976.008ZM976.828 288.672V290.933H977.668C978.117 290.933 978.47 290.825 978.728 290.61C978.985 290.392 979.113 290.086 979.113 289.692C979.113 289.012 978.666 288.672 977.771 288.672H976.828ZM976.828 291.67V294.189H977.941C978.423 294.189 978.796 294.076 979.06 293.848C979.326 293.62 979.46 293.307 979.46 292.91C979.46 292.083 978.897 291.67 977.771 291.67H976.828ZM982.043 288.662C981.9 288.662 981.778 288.613 981.677 288.516C981.576 288.418 981.525 288.294 981.525 288.145C981.525 287.995 981.576 287.871 981.677 287.773C981.778 287.673 981.9 287.622 982.043 287.622C982.189 287.622 982.313 287.673 982.414 287.773C982.518 287.871 982.57 287.995 982.57 288.145C982.57 288.288 982.518 288.41 982.414 288.511C982.313 288.612 982.189 288.662 982.043 288.662ZM982.434 294.932H981.633V289.932H982.434V294.932ZM984.982 292.285V294.932H984.162V287.93H986.086C986.835 287.93 987.414 288.112 987.824 288.477C988.238 288.841 988.444 289.355 988.444 290.02C988.444 290.684 988.215 291.227 987.756 291.65C987.3 292.074 986.683 292.285 985.905 292.285H984.982ZM984.982 288.672V291.543H985.842C986.408 291.543 986.84 291.414 987.136 291.157C987.435 290.897 987.585 290.531 987.585 290.059C987.585 289.134 987.038 288.672 985.944 288.672H984.982ZM995.188 294.932H994.279L993.537 292.969H990.568L989.87 294.932H988.957L991.643 287.93H992.492L995.188 294.932ZM993.269 292.231L992.17 289.248C992.134 289.15 992.098 288.994 992.062 288.779H992.043C992.01 288.978 991.973 289.134 991.931 289.248L990.842 292.231H993.269ZM997.043 292.285V294.932H996.223V287.93H998.146C998.895 287.93 999.475 288.112 999.885 288.477C1000.3 288.841 1000.5 289.355 1000.5 290.02C1000.5 290.684 1000.28 291.227 999.816 291.65C999.361 292.074 998.744 292.285 997.966 292.285H997.043ZM997.043 288.672V291.543H997.902C998.469 291.543 998.9 291.414 999.196 291.157C999.496 290.897 999.646 290.531 999.646 290.059C999.646 289.134 999.099 288.672 998.005 288.672H997.043Z" fill="#31313B"/>
</g>
<g filter="url(#filter24_d_14_5179)">
<rect x="1058" y="14.8179" width="28" height="267" fill="#2538D5"/>
</g>
<g filter="url(#filter25_d_14_5179)">
<path d="M1046.8 294.932V287.93H1048.73C1051.2 287.93 1052.43 289.067 1052.43 291.343C1052.43 292.424 1052.09 293.293 1051.4 293.95C1050.72 294.604 1049.8 294.932 1048.66 294.932H1046.8ZM1047.62 288.672V294.189H1048.67C1049.58 294.189 1050.3 293.944 1050.81 293.452C1051.32 292.961 1051.58 292.264 1051.58 291.362C1051.58 289.569 1050.62 288.672 1048.71 288.672H1047.62ZM1057.72 292.632H1054.19C1054.21 293.188 1054.36 293.618 1054.64 293.921C1054.93 294.224 1055.32 294.375 1055.82 294.375C1056.39 294.375 1056.9 294.189 1057.38 293.818V294.57C1056.94 294.889 1056.36 295.049 1055.63 295.049C1054.93 295.049 1054.37 294.823 1053.97 294.37C1053.56 293.914 1053.36 293.275 1053.36 292.451C1053.36 291.673 1053.58 291.04 1054.02 290.552C1054.46 290.06 1055.01 289.814 1055.67 289.814C1056.32 289.814 1056.83 290.026 1057.19 290.449C1057.54 290.872 1057.72 291.46 1057.72 292.212V292.632ZM1056.9 291.953C1056.9 291.491 1056.79 291.131 1056.57 290.874C1056.35 290.617 1056.04 290.488 1055.65 290.488C1055.27 290.488 1054.95 290.623 1054.69 290.894C1054.43 291.164 1054.26 291.517 1054.2 291.953H1056.9ZM1061.41 288.232C1061.25 288.145 1061.08 288.101 1060.88 288.101C1060.32 288.101 1060.04 288.454 1060.04 289.16V289.932H1061.21V290.615H1060.04V294.932H1059.24V290.615H1058.39V289.932H1059.24V289.121C1059.24 288.597 1059.39 288.184 1059.7 287.881C1060 287.575 1060.38 287.422 1060.83 287.422C1061.07 287.422 1061.27 287.451 1061.41 287.51V288.232ZM1062.48 288.662C1062.34 288.662 1062.22 288.613 1062.12 288.516C1062.02 288.418 1061.97 288.294 1061.97 288.145C1061.97 287.995 1062.02 287.871 1062.12 287.773C1062.22 287.673 1062.34 287.622 1062.48 287.622C1062.63 287.622 1062.75 287.673 1062.85 287.773C1062.96 287.871 1063.01 287.995 1063.01 288.145C1063.01 288.288 1062.96 288.41 1062.85 288.511C1062.75 288.612 1062.63 288.662 1062.48 288.662ZM1062.87 294.932H1062.07V289.932H1062.87V294.932ZM1065.32 294.209H1065.3V294.932H1064.5V287.529H1065.3V290.811H1065.32C1065.71 290.146 1066.29 289.814 1067.04 289.814C1067.69 289.814 1068.19 290.039 1068.55 290.488C1068.91 290.934 1069.09 291.533 1069.09 292.285C1069.09 293.122 1068.89 293.792 1068.48 294.297C1068.08 294.798 1067.52 295.049 1066.81 295.049C1066.15 295.049 1065.65 294.769 1065.32 294.209ZM1065.3 292.192V292.891C1065.3 293.304 1065.43 293.656 1065.7 293.945C1065.97 294.232 1066.31 294.375 1066.72 294.375C1067.21 294.375 1067.59 294.189 1067.86 293.818C1068.14 293.447 1068.27 292.931 1068.27 292.271C1068.27 291.714 1068.15 291.278 1067.89 290.962C1067.63 290.646 1067.28 290.488 1066.84 290.488C1066.38 290.488 1066 290.651 1065.72 290.977C1065.44 291.299 1065.3 291.704 1065.3 292.192ZM1072.98 290.742C1072.84 290.635 1072.64 290.581 1072.38 290.581C1072.03 290.581 1071.75 290.742 1071.52 291.064C1071.29 291.387 1071.17 291.826 1071.17 292.383V294.932H1070.37V289.932H1071.17V290.962H1071.19C1071.31 290.61 1071.48 290.337 1071.72 290.142C1071.95 289.943 1072.21 289.844 1072.5 289.844C1072.71 289.844 1072.87 289.867 1072.98 289.912V290.742ZM1074.26 288.662C1074.12 288.662 1074 288.613 1073.89 288.516C1073.79 288.418 1073.74 288.294 1073.74 288.145C1073.74 287.995 1073.79 287.871 1073.89 287.773C1074 287.673 1074.12 287.622 1074.26 287.622C1074.41 287.622 1074.53 287.673 1074.63 287.773C1074.74 287.871 1074.79 287.995 1074.79 288.145C1074.79 288.288 1074.74 288.41 1074.63 288.511C1074.53 288.612 1074.41 288.662 1074.26 288.662ZM1074.65 294.932H1073.85V289.932H1074.65V294.932ZM1077.07 294.932H1076.27V287.529H1077.07V294.932ZM1079.5 294.932H1078.69V287.529H1079.5V294.932ZM1084.7 294.932H1083.89V294.15H1083.88C1083.53 294.749 1083.01 295.049 1082.34 295.049C1081.84 295.049 1081.45 294.917 1081.17 294.653C1080.89 294.39 1080.75 294.04 1080.75 293.604C1080.75 292.669 1081.3 292.126 1082.4 291.973L1083.89 291.763C1083.89 290.913 1083.55 290.488 1082.86 290.488C1082.26 290.488 1081.72 290.693 1081.23 291.104V290.283C1081.72 289.971 1082.29 289.814 1082.93 289.814C1084.11 289.814 1084.7 290.436 1084.7 291.68V294.932ZM1083.89 292.402L1082.69 292.568C1082.32 292.62 1082.04 292.713 1081.85 292.847C1081.66 292.977 1081.57 293.21 1081.57 293.545C1081.57 293.789 1081.65 293.989 1081.82 294.146C1082 294.299 1082.23 294.375 1082.52 294.375C1082.92 294.375 1083.25 294.237 1083.5 293.96C1083.76 293.68 1083.89 293.327 1083.89 292.9V292.402ZM1088.52 294.883C1088.33 294.987 1088.09 295.039 1087.78 295.039C1086.9 295.039 1086.46 294.551 1086.46 293.574V290.615H1085.6V289.932H1086.46V288.711L1087.26 288.452V289.932H1088.52V290.615H1087.26V293.433C1087.26 293.768 1087.32 294.007 1087.43 294.15C1087.55 294.294 1087.74 294.365 1088 294.365C1088.2 294.365 1088.38 294.31 1088.52 294.199V294.883ZM1091.68 295.049C1090.94 295.049 1090.35 294.816 1089.91 294.351C1089.47 293.882 1089.25 293.262 1089.25 292.49C1089.25 291.65 1089.48 290.994 1089.94 290.522C1090.4 290.05 1091.02 289.814 1091.8 289.814C1092.55 289.814 1093.13 290.044 1093.54 290.503C1093.96 290.962 1094.17 291.598 1094.17 292.412C1094.17 293.21 1093.95 293.849 1093.49 294.331C1093.04 294.81 1092.44 295.049 1091.68 295.049ZM1091.74 290.488C1091.23 290.488 1090.82 290.664 1090.52 291.016C1090.22 291.364 1090.07 291.846 1090.07 292.461C1090.07 293.053 1090.22 293.521 1090.53 293.862C1090.83 294.204 1091.23 294.375 1091.74 294.375C1092.26 294.375 1092.66 294.207 1092.93 293.872C1093.21 293.537 1093.35 293.06 1093.35 292.441C1093.35 291.816 1093.21 291.335 1092.93 290.996C1092.66 290.658 1092.26 290.488 1091.74 290.488ZM1098.06 290.742C1097.92 290.635 1097.72 290.581 1097.45 290.581C1097.11 290.581 1096.83 290.742 1096.59 291.064C1096.37 291.387 1096.25 291.826 1096.25 292.383V294.932H1095.45V289.932H1096.25V290.962H1096.27C1096.39 290.61 1096.56 290.337 1096.79 290.142C1097.03 289.943 1097.29 289.844 1097.58 289.844C1097.79 289.844 1097.95 289.867 1098.06 289.912V290.742Z" fill="#31313B"/>
</g>
<defs>
<filter id="filter0_d_14_5179" x="47" y="22.8181" width="34" height="261" filterUnits="userSpaceOnUse" color-interpolation-filters="sRGB">
<feFlood flood-opacity="0" result="BackgroundImageFix"/>
<feColorMatrix in="SourceAlpha" type="matrix" values="0 0 0 0 0 0 0 0 0 0 0 0 0 0 0 0 0 0 127 0" result="hardAlpha"/>
<feOffset dy="-1"/>
<feGaussianBlur stdDeviation="1.5"/>
<feComposite in2="hardAlpha" operator="out"/>
<feColorMatrix type="matrix" values="0 0 0 0 0 0 0 0 0 0 0 0 0 0 0 0 0 0 0.160784 0"/>
<feBlend mode="normal" in2="BackgroundImageFix" result="effect1_dropShadow_14_5179"/>
<feBlend mode="normal" in="SourceGraphic" in2="effect1_dropShadow_14_5179" result="shape"/>
</filter>
<filter id="filter1_d_14_5179" x="39.8281" y="283.68" width="48.373" height="13.5195" filterUnits="userSpaceOnUse" color-interpolation-filters="sRGB">
<feFlood flood-opacity="0" result="BackgroundImageFix"/>
<feColorMatrix in="SourceAlpha" type="matrix" values="0 0 0 0 0 0 0 0 0 0 0 0 0 0 0 0 0 0 127 0" result="hardAlpha"/>
<feOffset dy="-1"/>
<feGaussianBlur stdDeviation="1.5"/>
<feComposite in2="hardAlpha" operator="out"/>
<feColorMatrix type="matrix" values="0 0 0 0 0 0 0 0 0 0 0 0 0 0 0 0 0 0 0.160784 0"/>
<feBlend mode="normal" in2="BackgroundImageFix" result="effect1_dropShadow_14_5179"/>
<feBlend mode="normal" in="SourceGraphic" in2="effect1_dropShadow_14_5179" result="shape"/>
</filter>
<filter id="filter2_d_14_5179" x="131" y="79.8179" width="34" height="204" filterUnits="userSpaceOnUse" color-interpolation-filters="sRGB">
<feFlood flood-opacity="0" result="BackgroundImageFix"/>
<feColorMatrix in="SourceAlpha" type="matrix" values="0 0 0 0 0 0 0 0 0 0 0 0 0 0 0 0 0 0 127 0" result="hardAlpha"/>
<feOffset dy="-1"/>
<feGaussianBlur stdDeviation="1.5"/>
<feComposite in2="hardAlpha" operator="out"/>
<feColorMatrix type="matrix" values="0 0 0 0 0 0 0 0 0 0 0 0 0 0 0 0 0 0 0.160784 0"/>
<feBlend mode="normal" in2="BackgroundImageFix" result="effect1_dropShadow_14_5179"/>
<feBlend mode="normal" in="SourceGraphic" in2="effect1_dropShadow_14_5179" result="shape"/>
</filter>
<filter id="filter3_d_14_5179" x="133.872" y="283.812" width="28.3096" height="13.2363" filterUnits="userSpaceOnUse" color-interpolation-filters="sRGB">
<feFlood flood-opacity="0" result="BackgroundImageFix"/>
<feColorMatrix in="SourceAlpha" type="matrix" values="0 0 0 0 0 0 0 0 0 0 0 0 0 0 0 0 0 0 127 0" result="hardAlpha"/>
<feOffset dy="-1"/>
<feGaussianBlur stdDeviation="1.5"/>
<feComposite in2="hardAlpha" operator="out"/>
<feColorMatrix type="matrix" values="0 0 0 0 0 0 0 0 0 0 0 0 0 0 0 0 0 0 0.160784 0"/>
<feBlend mode="normal" in2="BackgroundImageFix" result="effect1_dropShadow_14_5179"/>
<feBlend mode="normal" in="SourceGraphic" in2="effect1_dropShadow_14_5179" result="shape"/>
</filter>
<filter id="filter4_d_14_5179" x="215" y="213.818" width="34" height="70" filterUnits="userSpaceOnUse" color-interpolation-filters="sRGB">
<feFlood flood-opacity="0" result="BackgroundImageFix"/>
<feColorMatrix in="SourceAlpha" type="matrix" values="0 0 0 0 0 0 0 0 0 0 0 0 0 0 0 0 0 0 127 0" result="hardAlpha"/>
<feOffset dy="-1"/>
<feGaussianBlur stdDeviation="1.5"/>
<feComposite in2="hardAlpha" operator="out"/>
<feColorMatrix type="matrix" values="0 0 0 0 0 0 0 0 0 0 0 0 0 0 0 0 0 0 0.160784 0"/>
<feBlend mode="normal" in2="BackgroundImageFix" result="effect1_dropShadow_14_5179"/>
<feBlend mode="normal" in="SourceGraphic" in2="effect1_dropShadow_14_5179" result="shape"/>
</filter>
<filter id="filter5_d_14_5179" x="199.371" y="283.529" width="64.96" height="13.5195" filterUnits="userSpaceOnUse" color-interpolation-filters="sRGB">
<feFlood flood-opacity="0" result="BackgroundImageFix"/>
<feColorMatrix in="SourceAlpha" type="matrix" values="0 0 0 0 0 0 0 0 0 0 0 0 0 0 0 0 0 0 127 0" result="hardAlpha"/>
<feOffset dy="-1"/>
<feGaussianBlur stdDeviation="1.5"/>
<feComposite in2="hardAlpha" operator="out"/>
<feColorMatrix type="matrix" values="0 0 0 0 0 0 0 0 0 0 0 0 0 0 0 0 0 0 0.160784 0"/>
<feBlend mode="normal" in2="BackgroundImageFix" result="effect1_dropShadow_14_5179"/>
<feBlend mode="normal" in="SourceGraphic" in2="effect1_dropShadow_14_5179" result="shape"/>
</filter>
<filter id="filter6_d_14_5179" x="299" y="145.818" width="34" height="138" filterUnits="userSpaceOnUse" color-interpolation-filters="sRGB">
<feFlood flood-opacity="0" result="BackgroundImageFix"/>
<feColorMatrix in="SourceAlpha" type="matrix" values="0 0 0 0 0 0 0 0 0 0 0 0 0 0 0 0 0 0 127 0" result="hardAlpha"/>
<feOffset dy="-1"/>
<feGaussianBlur stdDeviation="1.5"/>
<feComposite in2="hardAlpha" operator="out"/>
<feColorMatrix type="matrix" values="0 0 0 0 0 0 0 0 0 0 0 0 0 0 0 0 0 0 0.160784 0"/>
<feBlend mode="normal" in2="BackgroundImageFix" result="effect1_dropShadow_14_5179"/>
<feBlend mode="normal" in="SourceGraphic" in2="effect1_dropShadow_14_5179" result="shape"/>
</filter>
<filter id="filter7_d_14_5179" x="291.276" y="283.622" width="50.3066" height="15.6631" filterUnits="userSpaceOnUse" color-interpolation-filters="sRGB">
<feFlood flood-opacity="0" result="BackgroundImageFix"/>
<feColorMatrix in="SourceAlpha" type="matrix" values="0 0 0 0 0 0 0 0 0 0 0 0 0 0 0 0 0 0 127 0" result="hardAlpha"/>
<feOffset dy="-1"/>
<feGaussianBlur stdDeviation="1.5"/>
<feComposite in2="hardAlpha" operator="out"/>
<feColorMatrix type="matrix" values="0 0 0 0 0 0 0 0 0 0 0 0 0 0 0 0 0 0 0.160784 0"/>
<feBlend mode="normal" in2="BackgroundImageFix" result="effect1_dropShadow_14_5179"/>
<feBlend mode="normal" in="SourceGraphic" in2="effect1_dropShadow_14_5179" result="shape"/>
</filter>
<filter id="filter8_d_14_5179" x="383" y="207.818" width="34" height="76" filterUnits="userSpaceOnUse" color-interpolation-filters="sRGB">
<feFlood flood-opacity="0" result="BackgroundImageFix"/>
<feColorMatrix in="SourceAlpha" type="matrix" values="0 0 0 0 0 0 0 0 0 0 0 0 0 0 0 0 0 0 127 0" result="hardAlpha"/>
<feOffset dy="-1"/>
<feGaussianBlur stdDeviation="1.5"/>
<feComposite in2="hardAlpha" operator="out"/>
<feColorMatrix type="matrix" values="0 0 0 0 0 0 0 0 0 0 0 0 0 0 0 0 0 0 0.160784 0"/>
<feBlend mode="normal" in2="BackgroundImageFix" result="effect1_dropShadow_14_5179"/>
<feBlend mode="normal" in="SourceGraphic" in2="effect1_dropShadow_14_5179" result="shape"/>
</filter>
<filter id="filter9_d_14_5179" x="369.451" y="283.529" width="61.498" height="13.5195" filterUnits="userSpaceOnUse" color-interpolation-filters="sRGB">
<feFlood flood-opacity="0" result="BackgroundImageFix"/>
<feColorMatrix in="SourceAlpha" type="matrix" values="0 0 0 0 0 0 0 0 0 0 0 0 0 0 0 0 0 0 127 0" result="hardAlpha"/>
<feOffset dy="-1"/>
<feGaussianBlur stdDeviation="1.5"/>
<feComposite in2="hardAlpha" operator="out"/>
<feColorMatrix type="matrix" values="0 0 0 0 0 0 0 0 0 0 0 0 0 0 0 0 0 0 0.160784 0"/>
<feBlend mode="normal" in2="BackgroundImageFix" result="effect1_dropShadow_14_5179"/>
<feBlend mode="normal" in="SourceGraphic" in2="effect1_dropShadow_14_5179" result="shape"/>
</filter>
<filter id="filter10_d_14_5179" x="467" y="94.2339" width="34" height="189.698" filterUnits="userSpaceOnUse" color-interpolation-filters="sRGB">
<feFlood flood-opacity="0" result="BackgroundImageFix"/>
<feColorMatrix in="SourceAlpha" type="matrix" values="0 0 0 0 0 0 0 0 0 0 0 0 0 0 0 0 0 0 127 0" result="hardAlpha"/>
<feOffset dy="-1"/>
<feGaussianBlur stdDeviation="1.5"/>
<feComposite in2="hardAlpha" operator="out"/>
<feColorMatrix type="matrix" values="0 0 0 0 0 0 0 0 0 0 0 0 0 0 0 0 0 0 0.160784 0"/>
<feBlend mode="normal" in2="BackgroundImageFix" result="effect1_dropShadow_14_5179"/>
<feBlend mode="normal" in="SourceGraphic" in2="effect1_dropShadow_14_5179" result="shape"/>
</filter>
<filter id="filter11_d_14_5179" x="460.751" y="283.529" width="47.3574" height="13.5195" filterUnits="userSpaceOnUse" color-interpolation-filters="sRGB">
<feFlood flood-opacity="0" result="BackgroundImageFix"/>
<feColorMatrix in="SourceAlpha" type="matrix" values="0 0 0 0 0 0 0 0 0 0 0 0 0 0 0 0 0 0 127 0" result="hardAlpha"/>
<feOffset dy="-1"/>
<feGaussianBlur stdDeviation="1.5"/>
<feComposite in2="hardAlpha" operator="out"/>
<feColorMatrix type="matrix" values="0 0 0 0 0 0 0 0 0 0 0 0 0 0 0 0 0 0 0.160784 0"/>
<feBlend mode="normal" in2="BackgroundImageFix" result="effect1_dropShadow_14_5179"/>
<feBlend mode="normal" in="SourceGraphic" in2="effect1_dropShadow_14_5179" result="shape"/>
</filter>
<filter id="filter12_d_14_5179" x="551" y="169.818" width="34" height="114" filterUnits="userSpaceOnUse" color-interpolation-filters="sRGB">
<feFlood flood-opacity="0" result="BackgroundImageFix"/>
<feColorMatrix in="SourceAlpha" type="matrix" values="0 0 0 0 0 0 0 0 0 0 0 0 0 0 0 0 0 0 127 0" result="hardAlpha"/>
<feOffset dy="-1"/>
<feGaussianBlur stdDeviation="1.5"/>
<feComposite in2="hardAlpha" operator="out"/>
<feColorMatrix type="matrix" values="0 0 0 0 0 0 0 0 0 0 0 0 0 0 0 0 0 0 0.160784 0"/>
<feBlend mode="normal" in2="BackgroundImageFix" result="effect1_dropShadow_14_5179"/>
<feBlend mode="normal" in="SourceGraphic" in2="effect1_dropShadow_14_5179" result="shape"/>
</filter>
<filter id="filter13_d_14_5179" x="540.317" y="283.622" width="55.8779" height="15.6094" filterUnits="userSpaceOnUse" color-interpolation-filters="sRGB">
<feFlood flood-opacity="0" result="BackgroundImageFix"/>
<feColorMatrix in="SourceAlpha" type="matrix" values="0 0 0 0 0 0 0 0 0 0 0 0 0 0 0 0 0 0 127 0" result="hardAlpha"/>
<feOffset dy="-1"/>
<feGaussianBlur stdDeviation="1.5"/>
<feComposite in2="hardAlpha" operator="out"/>
<feColorMatrix type="matrix" values="0 0 0 0 0 0 0 0 0 0 0 0 0 0 0 0 0 0 0.160784 0"/>
<feBlend mode="normal" in2="BackgroundImageFix" result="effect1_dropShadow_14_5179"/>
<feBlend mode="normal" in="SourceGraphic" in2="effect1_dropShadow_14_5179" result="shape"/>
</filter>
<filter id="filter14_d_14_5179" x="635" y="55.8179" width="34" height="228" filterUnits="userSpaceOnUse" color-interpolation-filters="sRGB">
<feFlood flood-opacity="0" result="BackgroundImageFix"/>
<feColorMatrix in="SourceAlpha" type="matrix" values="0 0 0 0 0 0 0 0 0 0 0 0 0 0 0 0 0 0 127 0" result="hardAlpha"/>
<feOffset dy="-1"/>
<feGaussianBlur stdDeviation="1.5"/>
<feComposite in2="hardAlpha" operator="out"/>
<feColorMatrix type="matrix" values="0 0 0 0 0 0 0 0 0 0 0 0 0 0 0 0 0 0 0.160784 0"/>
<feBlend mode="normal" in2="BackgroundImageFix" result="effect1_dropShadow_14_5179"/>
<feBlend mode="normal" in="SourceGraphic" in2="effect1_dropShadow_14_5179" result="shape"/>
</filter>
<filter id="filter15_d_14_5179" x="617.77" y="283.529" width="69.2324" height="15.7559" filterUnits="userSpaceOnUse" color-interpolation-filters="sRGB">
<feFlood flood-opacity="0" result="BackgroundImageFix"/>
<feColorMatrix in="SourceAlpha" type="matrix" values="0 0 0 0 0 0 0 0 0 0 0 0 0 0 0 0 0 0 127 0" result="hardAlpha"/>
<feOffset dy="-1"/>
<feGaussianBlur stdDeviation="1.5"/>
<feComposite in2="hardAlpha" operator="out"/>
<feColorMatrix type="matrix" values="0 0 0 0 0 0 0 0 0 0 0 0 0 0 0 0 0 0 0.160784 0"/>
<feBlend mode="normal" in2="BackgroundImageFix" result="effect1_dropShadow_14_5179"/>
<feBlend mode="normal" in="SourceGraphic" in2="effect1_dropShadow_14_5179" result="shape"/>
</filter>
<filter id="filter16_d_14_5179" x="719" y="212.818" width="34" height="71" filterUnits="userSpaceOnUse" color-interpolation-filters="sRGB">
<feFlood flood-opacity="0" result="BackgroundImageFix"/>
<feColorMatrix in="SourceAlpha" type="matrix" values="0 0 0 0 0 0 0 0 0 0 0 0 0 0 0 0 0 0 127 0" result="hardAlpha"/>
<feOffset dy="-1"/>
<feGaussianBlur stdDeviation="1.5"/>
<feComposite in2="hardAlpha" operator="out"/>
<feColorMatrix type="matrix" values="0 0 0 0 0 0 0 0 0 0 0 0 0 0 0 0 0 0 0.160784 0"/>
<feBlend mode="normal" in2="BackgroundImageFix" result="effect1_dropShadow_14_5179"/>
<feBlend mode="normal" in="SourceGraphic" in2="effect1_dropShadow_14_5179" result="shape"/>
</filter>
<filter id="filter17_d_14_5179" x="710.324" y="283.812" width="51.1074" height="15.4727" filterUnits="userSpaceOnUse" color-interpolation-filters="sRGB">
<feFlood flood-opacity="0" result="BackgroundImageFix"/>
<feColorMatrix in="SourceAlpha" type="matrix" values="0 0 0 0 0 0 0 0 0 0 0 0 0 0 0 0 0 0 127 0" result="hardAlpha"/>
<feOffset dy="-1"/>
<feGaussianBlur stdDeviation="1.5"/>
<feComposite in2="hardAlpha" operator="out"/>
<feColorMatrix type="matrix" values="0 0 0 0 0 0 0 0 0 0 0 0 0 0 0 0 0 0 0.160784 0"/>
<feBlend mode="normal" in2="BackgroundImageFix" result="effect1_dropShadow_14_5179"/>
<feBlend mode="normal" in="SourceGraphic" in2="effect1_dropShadow_14_5179" result="shape"/>
</filter>
<filter id="filter18_d_14_5179" x="803" y="122.818" width="34" height="161" filterUnits="userSpaceOnUse" color-interpolation-filters="sRGB">
<feFlood flood-opacity="0" result="BackgroundImageFix"/>
<feColorMatrix in="SourceAlpha" type="matrix" values="0 0 0 0 0 0 0 0 0 0 0 0 0 0 0 0 0 0 127 0" result="hardAlpha"/>
<feOffset dy="-1"/>
<feGaussianBlur stdDeviation="1.5"/>
<feComposite in2="hardAlpha" operator="out"/>
<feColorMatrix type="matrix" values="0 0 0 0 0 0 0 0 0 0 0 0 0 0 0 0 0 0 0.160784 0"/>
<feBlend mode="normal" in2="BackgroundImageFix" result="effect1_dropShadow_14_5179"/>
<feBlend mode="normal" in="SourceGraphic" in2="effect1_dropShadow_14_5179" result="shape"/>
</filter>
<filter id="filter19_d_14_5179" x="784.007" y="283.529" width="71.708" height="15.7559" filterUnits="userSpaceOnUse" color-interpolation-filters="sRGB">
<feFlood flood-opacity="0" result="BackgroundImageFix"/>
<feColorMatrix in="SourceAlpha" type="matrix" values="0 0 0 0 0 0 0 0 0 0 0 0 0 0 0 0 0 0 127 0" result="hardAlpha"/>
<feOffset dy="-1"/>
<feGaussianBlur stdDeviation="1.5"/>
<feComposite in2="hardAlpha" operator="out"/>
<feColorMatrix type="matrix" values="0 0 0 0 0 0 0 0 0 0 0 0 0 0 0 0 0 0 0.160784 0"/>
<feBlend mode="normal" in2="BackgroundImageFix" result="effect1_dropShadow_14_5179"/>
<feBlend mode="normal" in="SourceGraphic" in2="effect1_dropShadow_14_5179" result="shape"/>
</filter>
<filter id="filter20_d_14_5179" x="887" y="156.818" width="34" height="127" filterUnits="userSpaceOnUse" color-interpolation-filters="sRGB">
<feFlood flood-opacity="0" result="BackgroundImageFix"/>
<feColorMatrix in="SourceAlpha" type="matrix" values="0 0 0 0 0 0 0 0 0 0 0 0 0 0 0 0 0 0 127 0" result="hardAlpha"/>
<feOffset dy="-1"/>
<feGaussianBlur stdDeviation="1.5"/>
<feComposite in2="hardAlpha" operator="out"/>
<feColorMatrix type="matrix" values="0 0 0 0 0 0 0 0 0 0 0 0 0 0 0 0 0 0 0.160784 0"/>
<feBlend mode="normal" in2="BackgroundImageFix" result="effect1_dropShadow_14_5179"/>
<feBlend mode="normal" in="SourceGraphic" in2="effect1_dropShadow_14_5179" result="shape"/>
</filter>
<filter id="filter21_d_14_5179" x="872.65" y="283.529" width="63.2119" height="13.5195" filterUnits="userSpaceOnUse" color-interpolation-filters="sRGB">
<feFlood flood-opacity="0" result="BackgroundImageFix"/>
<feColorMatrix in="SourceAlpha" type="matrix" values="0 0 0 0 0 0 0 0 0 0 0 0 0 0 0 0 0 0 127 0" result="hardAlpha"/>
<feOffset dy="-1"/>
<feGaussianBlur stdDeviation="1.5"/>
<feComposite in2="hardAlpha" operator="out"/>
<feColorMatrix type="matrix" values="0 0 0 0 0 0 0 0 0 0 0 0 0 0 0 0 0 0 0.160784 0"/>
<feBlend mode="normal" in2="BackgroundImageFix" result="effect1_dropShadow_14_5179"/>
<feBlend mode="normal" in="SourceGraphic" in2="effect1_dropShadow_14_5179" result="shape"/>
</filter>
<filter id="filter22_d_14_5179" x="971" y="94.2339" width="34" height="189.698" filterUnits="userSpaceOnUse" color-interpolation-filters="sRGB">
<feFlood flood-opacity="0" result="BackgroundImageFix"/>
<feColorMatrix in="SourceAlpha" type="matrix" values="0 0 0 0 0 0 0 0 0 0 0 0 0 0 0 0 0 0 127 0" result="hardAlpha"/>
<feOffset dy="-1"/>
<feGaussianBlur stdDeviation="1.5"/>
<feComposite in2="hardAlpha" operator="out"/>
<feColorMatrix type="matrix" values="0 0 0 0 0 0 0 0 0 0 0 0 0 0 0 0 0 0 0.160784 0"/>
<feBlend mode="normal" in2="BackgroundImageFix" result="effect1_dropShadow_14_5179"/>
<feBlend mode="normal" in="SourceGraphic" in2="effect1_dropShadow_14_5179" result="shape"/>
</filter>
<filter id="filter23_d_14_5179" x="973.008" y="283.622" width="30.4971" height="13.3096" filterUnits="userSpaceOnUse" color-interpolation-filters="sRGB">
<feFlood flood-opacity="0" result="BackgroundImageFix"/>
<feColorMatrix in="SourceAlpha" type="matrix" values="0 0 0 0 0 0 0 0 0 0 0 0 0 0 0 0 0 0 127 0" result="hardAlpha"/>
<feOffset dy="-1"/>
<feGaussianBlur stdDeviation="1.5"/>
<feComposite in2="hardAlpha" operator="out"/>
<feColorMatrix type="matrix" values="0 0 0 0 0 0 0 0 0 0 0 0 0 0 0 0 0 0 0.160784 0"/>
<feBlend mode="normal" in2="BackgroundImageFix" result="effect1_dropShadow_14_5179"/>
<feBlend mode="normal" in="SourceGraphic" in2="effect1_dropShadow_14_5179" result="shape"/>
</filter>
<filter id="filter24_d_14_5179" x="1055" y="10.8179" width="34" height="273" filterUnits="userSpaceOnUse" color-interpolation-filters="sRGB">
<feFlood flood-opacity="0" result="BackgroundImageFix"/>
<feColorMatrix in="SourceAlpha" type="matrix" values="0 0 0 0 0 0 0 0 0 0 0 0 0 0 0 0 0 0 127 0" result="hardAlpha"/>
<feOffset dy="-1"/>
<feGaussianBlur stdDeviation="1.5"/>
<feComposite in2="hardAlpha" operator="out"/>
<feColorMatrix type="matrix" values="0 0 0 0 0 0 0 0 0 0 0 0 0 0 0 0 0 0 0.160784 0"/>
<feBlend mode="normal" in2="BackgroundImageFix" result="effect1_dropShadow_14_5179"/>
<feBlend mode="normal" in="SourceGraphic" in2="effect1_dropShadow_14_5179" result="shape"/>
</filter>
<filter id="filter25_d_14_5179" x="1043.8" y="283.422" width="57.2598" height="13.627" filterUnits="userSpaceOnUse" color-interpolation-filters="sRGB">
<feFlood flood-opacity="0" result="BackgroundImageFix"/>
<feColorMatrix in="SourceAlpha" type="matrix" values="0 0 0 0 0 0 0 0 0 0 0 0 0 0 0 0 0 0 127 0" result="hardAlpha"/>
<feOffset dy="-1"/>
<feGaussianBlur stdDeviation="1.5"/>
<feComposite in2="hardAlpha" operator="out"/>
<feColorMatrix type="matrix" values="0 0 0 0 0 0 0 0 0 0 0 0 0 0 0 0 0 0 0.160784 0"/>
<feBlend mode="normal" in2="BackgroundImageFix" result="effect1_dropShadow_14_5179"/>
<feBlend mode="normal" in="SourceGraphic" in2="effect1_dropShadow_14_5179" result="shape"/>
</filter>
</defs>
</svg>
