<svg width="517" height="299" viewBox="0 0 517 299" fill="none" xmlns="http://www.w3.org/2000/svg">
<path d="M16.9399 282V280.908V0H18.0531V14.3897H516.345V15.4818H18.0531V81.02H516.345V82.1122H18.0531V147.649H516.345V148.741H18.0531V214.279H516.345V215.371H18.0531V280.908H516.94V282H16.9399Z" fill="#E5E8EA"/>
<path opacity="0.652749" d="M7.07881 280.683C5.79881 280.683 5.02881 279.493 5.02881 277.353C5.02881 275.213 5.79881 274.062 7.07881 274.062C8.34881 274.062 9.11881 275.213 9.11881 277.353C9.11881 279.493 8.34881 280.683 7.07881 280.683ZM7.07881 280.013C7.81881 280.013 8.31881 279.223 8.31881 277.353C8.31881 275.483 7.81881 274.733 7.07881 274.733C6.33881 274.733 5.83881 275.483 5.83881 277.353C5.83881 279.223 6.33881 280.013 7.07881 280.013Z" fill="#373650"/>
<path opacity="0.652749" d="M7.51924 216.048C6.23924 216.048 5.46924 214.858 5.46924 212.718C5.46924 210.578 6.23924 209.428 7.51924 209.428C8.78924 209.428 9.55924 210.578 9.55924 212.718C9.55924 214.858 8.78924 216.048 7.51924 216.048ZM7.51924 215.378C8.25924 215.378 8.75924 214.588 8.75924 212.718C8.75924 210.848 8.25924 210.098 7.51924 210.098C6.77924 210.098 6.27924 210.848 6.27924 212.718C6.27924 214.588 6.77924 215.378 7.51924 215.378Z" fill="#373650"/>
<path opacity="0.652749" d="M0.458711 215.928V215.418C2.35871 213.558 3.45871 212.378 3.45871 211.348C3.45871 210.618 3.05871 210.108 2.24871 210.108C1.71871 210.108 1.25871 210.448 0.898711 210.868L0.428711 210.418C0.958711 209.818 1.52871 209.428 2.34871 209.428C3.52871 209.428 4.26871 210.178 4.26871 211.298C4.26871 212.538 3.14871 213.688 1.59871 215.268C1.94871 215.238 2.33871 215.218 2.66871 215.218H4.57871V215.928H0.458711Z" fill="#373650"/>
<path opacity="0.652749" d="M7.51924 148.681C6.23924 148.681 5.46924 147.491 5.46924 145.351C5.46924 143.211 6.23924 142.061 7.51924 142.061C8.78924 142.061 9.55924 143.211 9.55924 145.351C9.55924 147.491 8.78924 148.681 7.51924 148.681ZM7.51924 148.011C8.25924 148.011 8.75924 147.221 8.75924 145.351C8.75924 143.481 8.25924 142.731 7.51924 142.731C6.77924 142.731 6.27924 143.481 6.27924 145.351C6.27924 147.221 6.77924 148.011 7.51924 148.011Z" fill="#373650"/>
<path opacity="0.652749" d="M1.09852 146.141H3.09852V144.291C3.09852 143.961 3.12852 143.411 3.14852 143.071H3.10852C2.94852 143.371 2.76852 143.651 2.58852 143.971L1.09852 146.141ZM3.09852 148.561V146.801H0.228516V146.251L2.95852 142.181H3.87852V146.141H4.74852V146.801H3.87852V148.561H3.09852Z" fill="#373650"/>
<path opacity="0.652749" d="M7.51924 81.3153C6.23924 81.3153 5.46924 80.1253 5.46924 77.9853C5.46924 75.8453 6.23924 74.6953 7.51924 74.6953C8.78924 74.6953 9.55924 75.8453 9.55924 77.9853C9.55924 80.1253 8.78924 81.3153 7.51924 81.3153ZM7.51924 80.6453C8.25924 80.6453 8.75924 79.8553 8.75924 77.9853C8.75924 76.1153 8.25924 75.3653 7.51924 75.3653C6.77924 75.3653 6.27924 76.1153 6.27924 77.9853C6.27924 79.8553 6.77924 80.6453 7.51924 80.6453Z" fill="#373650"/>
<path opacity="0.652749" d="M2.66857 77.9153C2.25857 77.9153 1.73857 78.1653 1.33857 78.7653C1.44857 80.0053 1.93857 80.6653 2.73857 80.6653C3.36857 80.6653 3.84857 80.1053 3.84857 79.2653C3.84857 78.4353 3.45857 77.9153 2.66857 77.9153ZM2.73857 81.3153C1.48857 81.3153 0.538574 80.2953 0.538574 78.2453C0.538574 75.6853 1.69857 74.6953 2.96857 74.6953C3.65857 74.6953 4.15857 74.9853 4.50857 75.3753L4.04857 75.8953C3.79857 75.5853 3.39857 75.3853 2.99857 75.3853C2.10857 75.3853 1.34857 76.0853 1.31857 78.1153C1.71857 77.6153 2.28857 77.2953 2.80857 77.2953C3.91857 77.2953 4.62857 77.9553 4.62857 79.2653C4.62857 80.4853 3.76857 81.3153 2.73857 81.3153Z" fill="#373650"/>
<path opacity="0.652749" d="M7.51924 13.952C6.23924 13.952 5.46924 12.762 5.46924 10.622C5.46924 8.48203 6.23924 7.33203 7.51924 7.33203C8.78924 7.33203 9.55924 8.48203 9.55924 10.622C9.55924 12.762 8.78924 13.952 7.51924 13.952ZM7.51924 13.282C8.25924 13.282 8.75924 12.492 8.75924 10.622C8.75924 8.75203 8.25924 8.00203 7.51924 8.00203C6.77924 8.00203 6.27924 8.75203 6.27924 10.622C6.27924 12.492 6.77924 13.282 7.51924 13.282Z" fill="#373650"/>
<path opacity="0.652749" d="M2.55875 13.952C1.35875 13.952 0.46875 13.212 0.46875 12.202C0.46875 11.372 1.06875 10.802 1.66875 10.482V10.442C1.19875 10.112 0.77875 9.64203 0.77875 8.97203C0.77875 7.99203 1.55875 7.33203 2.58875 7.33203C3.69875 7.33203 4.38875 8.04203 4.38875 9.03203C4.38875 9.70203 3.90875 10.272 3.50875 10.572V10.612C4.07875 10.942 4.61875 11.392 4.61875 12.252C4.61875 13.202 3.79875 13.952 2.55875 13.952ZM3.00875 10.352C3.43875 9.97203 3.67875 9.54203 3.67875 9.07203C3.67875 8.45203 3.26875 7.95203 2.56875 7.95203C1.97875 7.95203 1.53875 8.35203 1.53875 8.97203C1.53875 9.73203 2.23875 10.052 3.00875 10.352ZM2.57875 13.332C3.31875 13.332 3.82875 12.882 3.82875 12.222C3.82875 11.402 3.01875 11.112 2.09875 10.742C1.59875 11.072 1.21875 11.542 1.21875 12.122C1.21875 12.822 1.79875 13.332 2.57875 13.332Z" fill="#373650"/>
<g filter="url(#filter0_d_33_5373)">
<path d="M49.9399 25.5843H77.9399V280.584H49.9399V25.5843Z" fill="#2538D5"/>
</g>
<g filter="url(#filter1_d_33_5373)">
<path d="M85.1411 289.659C85.0011 289.552 84.7993 289.498 84.5356 289.498C84.1938 289.498 83.9074 289.659 83.6763 289.982C83.4484 290.304 83.3345 290.743 83.3345 291.3V293.849H82.5337V288.849H83.3345V289.879H83.354C83.4679 289.528 83.6421 289.254 83.8765 289.059C84.1108 288.86 84.3729 288.761 84.6626 288.761C84.8709 288.761 85.0304 288.784 85.1411 288.829V289.659Z" fill="#31313B"/>
</g>
<g filter="url(#filter2_d_33_5373)">
<path d="M78.7642 293.966C78.0252 293.966 77.4344 293.733 76.9917 293.268C76.5522 292.799 76.3325 292.179 76.3325 291.408C76.3325 290.568 76.562 289.912 77.021 289.44C77.48 288.968 78.1001 288.732 78.8813 288.732C79.6268 288.732 80.2078 288.961 80.6245 289.42C81.0444 289.879 81.2544 290.516 81.2544 291.329C81.2544 292.127 81.0282 292.767 80.5757 293.248C80.1265 293.727 79.5226 293.966 78.7642 293.966ZM78.8228 289.406C78.3084 289.406 77.9015 289.581 77.6021 289.933C77.3026 290.281 77.1528 290.763 77.1528 291.378C77.1528 291.971 77.3042 292.438 77.6069 292.78C77.9097 293.121 78.3149 293.292 78.8228 293.292C79.3403 293.292 79.7375 293.125 80.0142 292.789C80.2941 292.454 80.4341 291.977 80.4341 291.359C80.4341 290.734 80.2941 290.252 80.0142 289.913C79.7375 289.575 79.3403 289.406 78.8228 289.406Z" fill="#31313B"/>
</g>
<g filter="url(#filter3_d_33_5373)">
<path d="M75.605 293.8C75.4162 293.904 75.1672 293.956 74.8579 293.956C73.9823 293.956 73.5444 293.468 73.5444 292.491V289.533H72.6851V288.849H73.5444V287.628L74.3452 287.369V288.849H75.605V289.533H74.3452V292.35C74.3452 292.685 74.4022 292.924 74.5161 293.068C74.63 293.211 74.8188 293.283 75.0825 293.283C75.2843 293.283 75.4585 293.227 75.605 293.116V293.8Z" fill="#31313B"/>
</g>
<g filter="url(#filter4_d_33_5373)">
<path d="M71.7769 293.849H70.9761V293.068H70.9565C70.6082 293.667 70.0955 293.966 69.4185 293.966C68.9204 293.966 68.5298 293.834 68.2466 293.571C67.9666 293.307 67.8267 292.957 67.8267 292.521C67.8267 291.587 68.3768 291.043 69.4771 290.89L70.9761 290.68C70.9761 289.83 70.6326 289.406 69.9458 289.406C69.3436 289.406 68.8 289.611 68.3149 290.021V289.2C68.8065 288.888 69.3729 288.732 70.0142 288.732C71.1893 288.732 71.7769 289.353 71.7769 290.597V293.849ZM70.9761 291.32L69.77 291.486C69.3989 291.538 69.119 291.63 68.9302 291.764C68.7414 291.894 68.647 292.127 68.647 292.462C68.647 292.706 68.7332 292.907 68.9058 293.063C69.0815 293.216 69.3143 293.292 69.604 293.292C70.0011 293.292 70.3283 293.154 70.5854 292.877C70.8459 292.597 70.9761 292.244 70.9761 291.818V291.32Z" fill="#31313B"/>
</g>
<g filter="url(#filter5_d_33_5373)">
<path d="M66.5767 293.849H65.7759V286.447H66.5767V293.849Z" fill="#31313B"/>
</g>
<g filter="url(#filter6_d_33_5373)">
<path d="M63.7642 287.579C63.6209 287.579 63.4989 287.531 63.3979 287.433C63.297 287.335 63.2466 287.212 63.2466 287.062C63.2466 286.912 63.297 286.788 63.3979 286.691C63.4989 286.59 63.6209 286.539 63.7642 286.539C63.9106 286.539 64.0343 286.59 64.1353 286.691C64.2394 286.788 64.2915 286.912 64.2915 287.062C64.2915 287.205 64.2394 287.327 64.1353 287.428C64.0343 287.529 63.9106 287.579 63.7642 287.579ZM64.1548 293.849H63.354V288.849H64.1548V293.849Z" fill="#31313B"/>
</g>
<g filter="url(#filter7_d_33_5373)">
<path d="M62.2847 293.8C62.0959 293.904 61.8468 293.956 61.5376 293.956C60.6619 293.956 60.2241 293.468 60.2241 292.491V289.533H59.3647V288.849H60.2241V287.628L61.0249 287.369V288.849H62.2847V289.533H61.0249V292.35C61.0249 292.685 61.0819 292.924 61.1958 293.068C61.3097 293.211 61.4985 293.283 61.7622 293.283C61.964 293.283 62.1382 293.227 62.2847 293.116V293.8Z" fill="#31313B"/>
</g>
<g filter="url(#filter8_d_33_5373)">
<path d="M58.4517 293.849H57.6509V290.997C57.6509 289.936 57.2635 289.406 56.4888 289.406C56.0884 289.406 55.7563 289.557 55.4927 289.86C55.2323 290.159 55.1021 290.538 55.1021 290.997V293.849H54.3013V288.849H55.1021V289.679H55.1216C55.4992 289.047 56.0461 288.732 56.7622 288.732C57.3091 288.732 57.7274 288.909 58.0171 289.264C58.3068 289.616 58.4517 290.125 58.4517 290.792V293.849Z" fill="#31313B"/>
</g>
<g filter="url(#filter9_d_33_5373)">
<path d="M53.0854 291.549H49.5552C49.5682 292.106 49.7179 292.535 50.0044 292.838C50.2909 293.141 50.6847 293.292 51.186 293.292C51.7492 293.292 52.2668 293.107 52.7388 292.736V293.488C52.2993 293.807 51.7183 293.966 50.9956 293.966C50.2892 293.966 49.7342 293.74 49.3306 293.287C48.9269 292.832 48.7251 292.192 48.7251 291.368C48.7251 290.59 48.9448 289.957 49.3843 289.469C49.827 288.977 50.3755 288.732 51.0298 288.732C51.6841 288.732 52.1903 288.943 52.5483 289.366C52.9064 289.79 53.0854 290.377 53.0854 291.129V291.549ZM52.2651 290.87C52.2619 290.408 52.1496 290.048 51.9282 289.791C51.7101 289.534 51.4058 289.406 51.0151 289.406C50.6375 289.406 50.3169 289.541 50.0532 289.811C49.7896 290.081 49.6268 290.434 49.5649 290.87H52.2651Z" fill="#31313B"/>
</g>
<g filter="url(#filter10_d_33_5373)">
<path d="M48.8032 286.847L46.2104 293.849H45.3071L42.7681 286.847H43.6812L45.6196 292.399C45.6815 292.578 45.7287 292.784 45.7612 293.019H45.7808C45.8068 292.824 45.8605 292.614 45.9419 292.389L47.9194 286.847H48.8032Z" fill="#31313B"/>
</g>
<g filter="url(#filter11_d_33_5373)">
<path d="M133.94 82.584H161.94V280.584H133.94V82.584Z" fill="#2538D5"/>
</g>
<g filter="url(#filter12_d_33_5373)">
<path d="M155.66 291.051V293.698H154.839V286.696H156.763C157.512 286.696 158.091 286.878 158.501 287.243C158.915 287.607 159.122 288.122 159.122 288.786C159.122 289.45 158.892 289.993 158.433 290.417C157.977 290.84 157.361 291.051 156.583 291.051H155.66ZM155.66 287.438V290.309H156.519C157.085 290.309 157.517 290.181 157.813 289.923C158.112 289.663 158.262 289.297 158.262 288.825C158.262 287.9 157.715 287.438 156.622 287.438H155.66Z" fill="#31313B"/>
</g>
<g filter="url(#filter13_d_33_5373)">
<path d="M153.804 293.698H152.896L152.154 291.735H149.185L148.487 293.698H147.574L150.259 286.696H151.109L153.804 293.698ZM151.885 290.998L150.787 288.014C150.751 287.917 150.715 287.76 150.679 287.545H150.66C150.627 287.744 150.59 287.9 150.547 288.014L149.458 290.998H151.885Z" fill="#31313B"/>
</g>
<g filter="url(#filter14_d_33_5373)">
<path d="M144.283 291.051V293.698H143.462V286.696H145.386C146.135 286.696 146.714 286.878 147.125 287.243C147.538 287.607 147.745 288.122 147.745 288.786C147.745 289.45 147.515 289.993 147.056 290.417C146.6 290.84 145.984 291.051 145.206 291.051H144.283ZM144.283 287.438V290.309H145.142C145.708 290.309 146.14 290.181 146.436 289.923C146.736 289.663 146.885 289.297 146.885 288.825C146.885 287.9 146.338 287.438 145.245 287.438H144.283Z" fill="#31313B"/>
</g>
<g filter="url(#filter15_d_33_5373)">
<path d="M142.037 293.405C141.519 293.678 140.875 293.815 140.103 293.815C139.107 293.815 138.309 293.494 137.71 292.853C137.111 292.212 136.812 291.37 136.812 290.329C136.812 289.209 137.149 288.304 137.823 287.614C138.497 286.924 139.351 286.579 140.386 286.579C141.05 286.579 141.6 286.675 142.037 286.867V287.741C141.535 287.461 140.982 287.321 140.376 287.321C139.572 287.321 138.92 287.589 138.418 288.127C137.92 288.664 137.671 289.381 137.671 290.28C137.671 291.133 137.904 291.813 138.37 292.321C138.838 292.825 139.452 293.078 140.21 293.078C140.914 293.078 141.522 292.921 142.037 292.609V293.405Z" fill="#31313B"/>
</g>
<g filter="url(#filter16_d_33_5373)">
<path d="M217.94 216.584H245.94V280.584H217.94V216.584Z" fill="#2538D5"/>
</g>
<g filter="url(#filter17_d_33_5373)">
<path d="M261.271 291.398H257.741C257.754 291.955 257.903 292.384 258.19 292.687C258.476 292.99 258.87 293.141 259.372 293.141C259.935 293.141 260.452 292.956 260.924 292.585V293.336C260.485 293.655 259.904 293.815 259.181 293.815C258.475 293.815 257.92 293.589 257.516 293.136C257.112 292.681 256.911 292.041 256.911 291.217C256.911 290.439 257.13 289.806 257.57 289.318C258.013 288.826 258.561 288.581 259.215 288.581C259.87 288.581 260.376 288.792 260.734 289.215C261.092 289.639 261.271 290.226 261.271 290.978V291.398ZM260.451 290.719C260.447 290.257 260.335 289.897 260.114 289.64C259.896 289.383 259.591 289.254 259.201 289.254C258.823 289.254 258.502 289.39 258.239 289.66C257.975 289.93 257.812 290.283 257.75 290.719H260.451Z" fill="#31313B"/>
</g>
<g filter="url(#filter18_d_33_5373)">
<path d="M255.739 293.698H254.938V290.846C254.938 289.785 254.551 289.254 253.776 289.254C253.375 289.254 253.043 289.406 252.78 289.709C252.519 290.008 252.389 290.387 252.389 290.846V293.698H251.588V288.698H252.389V289.528H252.409C252.786 288.896 253.333 288.581 254.049 288.581C254.596 288.581 255.014 288.758 255.304 289.113C255.594 289.464 255.739 289.974 255.739 290.641V293.698Z" fill="#31313B"/>
</g>
<g filter="url(#filter19_d_33_5373)">
<path d="M249.577 287.428C249.433 287.428 249.311 287.379 249.21 287.282C249.11 287.184 249.059 287.06 249.059 286.911C249.059 286.761 249.11 286.637 249.21 286.54C249.311 286.439 249.433 286.388 249.577 286.388C249.723 286.388 249.847 286.439 249.948 286.54C250.052 286.637 250.104 286.761 250.104 286.911C250.104 287.054 250.052 287.176 249.948 287.277C249.847 287.378 249.723 287.428 249.577 287.428ZM249.967 293.698H249.167V288.698H249.967V293.698Z" fill="#31313B"/>
</g>
<g filter="url(#filter20_d_33_5373)">
<path d="M247.653 293.698H246.852V290.817C246.852 289.775 246.465 289.254 245.69 289.254C245.299 289.254 244.971 289.406 244.704 289.709C244.437 290.008 244.303 290.394 244.303 290.866V293.698H243.502V286.295H244.303V289.528H244.323C244.707 288.896 245.254 288.581 245.963 288.581C247.09 288.581 247.653 289.259 247.653 290.617V293.698Z" fill="#31313B"/>
</g>
<g filter="url(#filter21_d_33_5373)">
<path d="M242.292 293.468C241.907 293.699 241.452 293.815 240.924 293.815C240.211 293.815 239.635 293.584 239.196 293.122C238.76 292.656 238.542 292.054 238.542 291.315C238.542 290.491 238.778 289.831 239.25 289.333C239.722 288.831 240.351 288.581 241.139 288.581C241.579 288.581 241.966 288.662 242.301 288.825V289.645C241.93 289.385 241.533 289.254 241.11 289.254C240.599 289.254 240.179 289.438 239.85 289.806C239.525 290.171 239.362 290.651 239.362 291.247C239.362 291.833 239.515 292.295 239.821 292.633C240.13 292.972 240.543 293.141 241.061 293.141C241.497 293.141 241.907 292.996 242.292 292.707V293.468Z" fill="#31313B"/>
</g>
<g filter="url(#filter22_d_33_5373)">
<path d="M237.375 293.698H236.574V292.917H236.554C236.206 293.516 235.693 293.815 235.016 293.815C234.518 293.815 234.127 293.683 233.844 293.419C233.564 293.156 233.424 292.806 233.424 292.37C233.424 291.435 233.974 290.892 235.075 290.739L236.574 290.529C236.574 289.679 236.23 289.254 235.543 289.254C234.941 289.254 234.398 289.46 233.913 289.87V289.049C234.404 288.737 234.971 288.581 235.612 288.581C236.787 288.581 237.375 289.202 237.375 290.446V293.698ZM236.574 291.169L235.368 291.335C234.997 291.387 234.717 291.479 234.528 291.613C234.339 291.743 234.245 291.976 234.245 292.311C234.245 292.555 234.331 292.755 234.503 292.912C234.679 293.065 234.912 293.141 235.202 293.141C235.599 293.141 235.926 293.003 236.183 292.726C236.444 292.446 236.574 292.093 236.574 291.667V291.169Z" fill="#31313B"/>
</g>
<g filter="url(#filter23_d_33_5373)">
<path d="M232.057 293.698H231.242V289.001C231.242 288.629 231.264 288.175 231.31 287.638H231.291C231.212 287.954 231.142 288.18 231.081 288.317L228.688 293.698H228.288L225.9 288.356C225.832 288.2 225.762 287.96 225.69 287.638H225.67C225.696 287.918 225.709 288.376 225.709 289.01V293.698H224.918V286.696H226.002L228.151 291.579C228.317 291.953 228.424 292.233 228.473 292.419H228.502C228.642 292.034 228.755 291.748 228.839 291.559L231.032 286.696H232.057V293.698Z" fill="#31313B"/>
</g>
<g filter="url(#filter24_d_33_5373)">
<path d="M220.543 293.219C219.84 293.616 219.059 293.815 218.2 293.815C217.2 293.815 216.391 293.493 215.773 292.848C215.158 292.204 214.85 291.351 214.85 290.29C214.85 289.206 215.192 288.317 215.875 287.624C216.562 286.927 217.431 286.579 218.483 286.579C219.245 286.579 219.884 286.702 220.402 286.95V287.858C219.835 287.5 219.165 287.321 218.39 287.321C217.606 287.321 216.963 287.591 216.461 288.131C215.96 288.672 215.709 289.372 215.709 290.231C215.709 291.116 215.942 291.813 216.408 292.321C216.873 292.825 217.505 293.078 218.302 293.078C218.849 293.078 219.323 292.969 219.723 292.751V290.788H218.19V290.045H220.543V293.219Z" fill="#31313B"/>
</g>
<g filter="url(#filter25_d_33_5373)">
<path d="M209.577 293.698V286.696H211.569C212.174 286.696 212.654 286.844 213.009 287.14C213.364 287.436 213.542 287.822 213.542 288.297C213.542 288.695 213.434 289.04 213.219 289.333C213.004 289.626 212.708 289.834 212.331 289.958V289.977C212.803 290.032 213.18 290.211 213.463 290.514C213.747 290.814 213.888 291.204 213.888 291.686C213.888 292.285 213.673 292.77 213.244 293.141C212.814 293.512 212.272 293.698 211.618 293.698H209.577ZM210.397 287.438V289.699H211.237C211.686 289.699 212.039 289.591 212.296 289.377C212.554 289.158 212.682 288.852 212.682 288.459C212.682 287.778 212.235 287.438 211.339 287.438H210.397ZM210.397 290.436V292.956H211.51C211.992 292.956 212.365 292.842 212.628 292.614C212.895 292.386 213.029 292.073 213.029 291.676C213.029 290.849 212.466 290.436 211.339 290.436H210.397Z" fill="#31313B"/>
</g>
<g filter="url(#filter26_d_33_5373)">
<path d="M208.542 293.698H207.633L206.891 291.735H203.922L203.224 293.698H202.311L204.997 286.696H205.846L208.542 293.698ZM206.623 290.998L205.524 288.014C205.488 287.917 205.452 287.76 205.417 287.545H205.397C205.364 287.744 205.327 287.9 205.285 288.014L204.196 290.998H206.623Z" fill="#31313B"/>
</g>
<g filter="url(#filter27_d_33_5373)">
<path d="M301.94 148.584H329.94V280.584H301.94V148.584Z" fill="#2538D5"/>
</g>
<g filter="url(#filter28_d_33_5373)">
<path d="M338.523 289.508C338.383 289.401 338.181 289.347 337.917 289.347C337.576 289.347 337.289 289.508 337.058 289.831C336.83 290.153 336.716 290.592 336.716 291.149V293.698H335.916V288.698H336.716V289.728H336.736C336.85 289.377 337.024 289.103 337.258 288.908C337.493 288.709 337.755 288.61 338.044 288.61C338.253 288.61 338.412 288.633 338.523 288.678V289.508Z" fill="#31313B"/>
</g>
<g filter="url(#filter29_d_33_5373)">
<path d="M332.146 293.815C331.407 293.815 330.816 293.582 330.374 293.117C329.934 292.648 329.714 292.028 329.714 291.256C329.714 290.417 329.944 289.761 330.403 289.289C330.862 288.817 331.482 288.581 332.263 288.581C333.009 288.581 333.59 288.81 334.006 289.269C334.426 289.728 334.636 290.364 334.636 291.178C334.636 291.976 334.41 292.615 333.958 293.097C333.508 293.576 332.904 293.815 332.146 293.815ZM332.205 289.254C331.69 289.254 331.283 289.43 330.984 289.782C330.684 290.13 330.535 290.612 330.535 291.227C330.535 291.82 330.686 292.287 330.989 292.628C331.292 292.97 331.697 293.141 332.205 293.141C332.722 293.141 333.119 292.974 333.396 292.638C333.676 292.303 333.816 291.826 333.816 291.208C333.816 290.583 333.676 290.101 333.396 289.762C333.119 289.424 332.722 289.254 332.205 289.254Z" fill="#31313B"/>
</g>
<g filter="url(#filter30_d_33_5373)">
<path d="M328.987 293.649C328.798 293.753 328.549 293.805 328.24 293.805C327.364 293.805 326.926 293.317 326.926 292.34V289.381H326.067V288.698H326.926V287.477L327.727 287.218V288.698H328.987V289.381H327.727V292.199C327.727 292.534 327.784 292.773 327.898 292.917C328.012 293.06 328.201 293.131 328.464 293.131C328.666 293.131 328.84 293.076 328.987 292.965V293.649Z" fill="#31313B"/>
</g>
<g filter="url(#filter31_d_33_5373)">
<path d="M325.159 293.698H324.358V292.917H324.338C323.99 293.516 323.477 293.815 322.8 293.815C322.302 293.815 321.912 293.683 321.628 293.419C321.348 293.156 321.208 292.806 321.208 292.37C321.208 291.435 321.759 290.892 322.859 290.739L324.358 290.529C324.358 289.679 324.014 289.254 323.328 289.254C322.725 289.254 322.182 289.46 321.697 289.87V289.049C322.188 288.737 322.755 288.581 323.396 288.581C324.571 288.581 325.159 289.202 325.159 290.446V293.698ZM324.358 291.169L323.152 291.335C322.781 291.387 322.501 291.479 322.312 291.613C322.123 291.743 322.029 291.976 322.029 292.311C322.029 292.555 322.115 292.755 322.288 292.912C322.463 293.065 322.696 293.141 322.986 293.141C323.383 293.141 323.71 293.003 323.967 292.726C324.228 292.446 324.358 292.093 324.358 291.667V291.169Z" fill="#31313B"/>
</g>
<g filter="url(#filter32_d_33_5373)">
<path d="M319.958 293.297C319.958 295.133 319.08 296.051 317.322 296.051C316.703 296.051 316.163 295.934 315.701 295.7V294.899C316.264 295.211 316.801 295.368 317.312 295.368C318.542 295.368 319.158 294.713 319.158 293.405V292.858H319.138C318.757 293.496 318.184 293.815 317.419 293.815C316.798 293.815 316.296 293.594 315.916 293.151C315.538 292.705 315.349 292.108 315.349 291.359C315.349 290.509 315.553 289.834 315.959 289.333C316.37 288.831 316.93 288.581 317.639 288.581C318.313 288.581 318.813 288.851 319.138 289.391H319.158V288.698H319.958V293.297ZM319.158 291.437V290.7C319.158 290.303 319.023 289.962 318.752 289.679C318.486 289.396 318.152 289.254 317.751 289.254C317.257 289.254 316.869 289.435 316.589 289.796C316.309 290.155 316.169 290.657 316.169 291.305C316.169 291.862 316.303 292.308 316.57 292.643C316.84 292.975 317.196 293.141 317.639 293.141C318.088 293.141 318.453 292.982 318.733 292.663C319.016 292.344 319.158 291.935 319.158 291.437Z" fill="#31313B"/>
</g>
<g filter="url(#filter33_d_33_5373)">
<path d="M313.679 287.428C313.536 287.428 313.414 287.379 313.313 287.282C313.212 287.184 313.162 287.06 313.162 286.911C313.162 286.761 313.212 286.637 313.313 286.54C313.414 286.439 313.536 286.388 313.679 286.388C313.826 286.388 313.949 286.439 314.05 286.54C314.154 286.637 314.207 286.761 314.207 286.911C314.207 287.054 314.154 287.176 314.05 287.277C313.949 287.378 313.826 287.428 313.679 287.428ZM314.07 293.698H313.269V288.698H314.07V293.698Z" fill="#31313B"/>
</g>
<g filter="url(#filter34_d_33_5373)">
<path d="M311.755 293.698H310.955V290.827C310.955 290.273 310.868 289.873 310.696 289.626C310.527 289.378 310.24 289.254 309.836 289.254C309.495 289.254 309.203 289.411 308.962 289.723C308.725 290.036 308.606 290.41 308.606 290.846V293.698H307.805V290.729C307.805 289.746 307.426 289.254 306.667 289.254C306.316 289.254 306.026 289.403 305.798 289.699C305.57 289.992 305.457 290.374 305.457 290.846V293.698H304.656V288.698H305.457V289.489H305.476C305.831 288.883 306.348 288.581 307.029 288.581C307.371 288.581 307.668 288.677 307.922 288.869C308.176 289.058 308.35 289.307 308.445 289.616C308.816 288.926 309.369 288.581 310.105 288.581C311.205 288.581 311.755 289.259 311.755 290.617V293.698Z" fill="#31313B"/>
</g>
<g filter="url(#filter35_d_33_5373)">
<path d="M303.035 293.698H302.234V292.907H302.214C301.882 293.512 301.368 293.815 300.671 293.815C299.48 293.815 298.884 293.105 298.884 291.686V288.698H299.68V291.559C299.68 292.614 300.084 293.141 300.891 293.141C301.282 293.141 301.602 292.998 301.853 292.711C302.107 292.422 302.234 292.044 302.234 291.579V288.698H303.035V293.698Z" fill="#31313B"/>
</g>
<g filter="url(#filter36_d_33_5373)">
<path d="M297.771 287.438H295.037V289.86H297.566V290.597H295.037V293.698H294.216V286.696H297.771V287.438Z" fill="#31313B"/>
</g>
<g filter="url(#filter37_d_33_5373)">
<path d="M385.94 210.584H413.94V280.584H385.94V210.584Z" fill="#2538D5"/>
</g>
<g filter="url(#filter38_d_33_5373)">
<path d="M427.889 289.508C427.749 289.401 427.547 289.347 427.284 289.347C426.942 289.347 426.655 289.508 426.424 289.831C426.196 290.153 426.083 290.592 426.083 291.149V293.698H425.282V288.698H426.083V289.728H426.102C426.216 289.377 426.39 289.103 426.625 288.908C426.859 288.709 427.121 288.61 427.411 288.61C427.619 288.61 427.778 288.633 427.889 288.678V289.508Z" fill="#31313B"/>
</g>
<g filter="url(#filter39_d_33_5373)">
<path d="M424.066 291.398H420.536C420.549 291.955 420.698 292.384 420.985 292.687C421.271 292.99 421.665 293.141 422.167 293.141C422.73 293.141 423.247 292.956 423.719 292.585V293.336C423.28 293.655 422.699 293.815 421.976 293.815C421.27 293.815 420.715 293.589 420.311 293.136C419.907 292.681 419.706 292.041 419.706 291.217C419.706 290.439 419.925 289.806 420.365 289.318C420.807 288.826 421.356 288.581 422.01 288.581C422.665 288.581 423.171 288.792 423.529 289.215C423.887 289.639 424.066 290.226 424.066 290.978V291.398ZM423.246 290.719C423.242 290.257 423.13 289.897 422.909 289.64C422.691 289.383 422.386 289.254 421.996 289.254C421.618 289.254 421.297 289.39 421.034 289.66C420.77 289.93 420.607 290.283 420.545 290.719H423.246Z" fill="#31313B"/>
</g>
<g filter="url(#filter40_d_33_5373)">
<path d="M418.978 293.649C418.789 293.753 418.54 293.805 418.231 293.805C417.355 293.805 416.917 293.317 416.917 292.34V289.381H416.058V288.698H416.917V287.477L417.718 287.218V288.698H418.978V289.381H417.718V292.199C417.718 292.534 417.775 292.773 417.889 292.917C418.003 293.06 418.192 293.131 418.456 293.131C418.657 293.131 418.832 293.076 418.978 292.965V293.649Z" fill="#31313B"/>
</g>
<g filter="url(#filter41_d_33_5373)">
<path d="M415.589 293.649C415.401 293.753 415.152 293.805 414.842 293.805C413.967 293.805 413.529 293.317 413.529 292.34V289.381H412.669V288.698H413.529V287.477L414.33 287.218V288.698H415.589V289.381H414.33V292.199C414.33 292.534 414.387 292.773 414.5 292.917C414.614 293.06 414.803 293.131 415.067 293.131C415.269 293.131 415.443 293.076 415.589 292.965V293.649Z" fill="#31313B"/>
</g>
<g filter="url(#filter42_d_33_5373)">
<path d="M411.649 293.698H410.848V292.907H410.829C410.497 293.512 409.982 293.815 409.286 293.815C408.094 293.815 407.499 293.105 407.499 291.686V288.698H408.294V291.559C408.294 292.614 408.698 293.141 409.505 293.141C409.896 293.141 410.217 292.998 410.467 292.711C410.721 292.422 410.848 292.044 410.848 291.579V288.698H411.649V293.698Z" fill="#31313B"/>
</g>
<g filter="url(#filter43_d_33_5373)">
<path d="M406.288 293.405C405.77 293.678 405.125 293.815 404.354 293.815C403.358 293.815 402.56 293.494 401.961 292.853C401.362 292.212 401.063 291.37 401.063 290.329C401.063 289.209 401.4 288.304 402.074 287.614C402.748 286.924 403.602 286.579 404.637 286.579C405.301 286.579 405.851 286.675 406.288 286.867V287.741C405.786 287.461 405.233 287.321 404.627 287.321C403.823 287.321 403.171 287.589 402.669 288.127C402.171 288.664 401.922 289.381 401.922 290.28C401.922 291.133 402.155 291.813 402.621 292.321C403.089 292.825 403.703 293.078 404.461 293.078C405.165 293.078 405.773 292.921 406.288 292.609V293.405Z" fill="#31313B"/>
</g>
<g filter="url(#filter44_d_33_5373)">
<path d="M394.901 293.815C394.162 293.815 393.571 293.582 393.128 293.117C392.689 292.648 392.469 292.028 392.469 291.256C392.469 290.417 392.699 289.761 393.158 289.289C393.617 288.817 394.237 288.581 395.018 288.581C395.764 288.581 396.345 288.81 396.761 289.269C397.181 289.728 397.391 290.364 397.391 291.178C397.391 291.976 397.165 292.615 396.712 293.097C396.263 293.576 395.659 293.815 394.901 293.815ZM394.959 289.254C394.445 289.254 394.038 289.43 393.739 289.782C393.439 290.13 393.29 290.612 393.29 291.227C393.29 291.82 393.441 292.287 393.744 292.628C394.046 292.97 394.452 293.141 394.959 293.141C395.477 293.141 395.874 292.974 396.151 292.638C396.431 292.303 396.571 291.826 396.571 291.208C396.571 290.583 396.431 290.101 396.151 289.762C395.874 289.424 395.477 289.254 394.959 289.254Z" fill="#31313B"/>
</g>
<g filter="url(#filter45_d_33_5373)">
<path d="M391.297 293.698H390.497V290.817C390.497 289.775 390.109 289.254 389.334 289.254C388.944 289.254 388.615 289.406 388.348 289.709C388.081 290.008 387.948 290.394 387.948 290.866V293.698H387.147V286.295H387.948V289.528H387.967C388.351 288.896 388.898 288.581 389.608 288.581C390.734 288.581 391.297 289.259 391.297 290.617V293.698Z" fill="#31313B"/>
</g>
<g filter="url(#filter46_d_33_5373)">
<path d="M386.078 293.649C385.889 293.753 385.64 293.805 385.331 293.805C384.455 293.805 384.017 293.317 384.017 292.34V289.381H383.158V288.698H384.017V287.477L384.818 287.218V288.698H386.078V289.381H384.818V292.199C384.818 292.534 384.875 292.773 384.989 292.917C385.103 293.06 385.292 293.131 385.555 293.131C385.757 293.131 385.931 293.076 386.078 292.965V293.649Z" fill="#31313B"/>
</g>
<g filter="url(#filter47_d_33_5373)">
<path d="M382.889 289.508C382.749 289.401 382.547 289.347 382.284 289.347C381.942 289.347 381.655 289.508 381.424 289.831C381.196 290.153 381.083 290.592 381.083 291.149V293.698H380.282V288.698H381.083V289.728H381.102C381.216 289.377 381.39 289.103 381.625 288.908C381.859 288.709 382.121 288.61 382.411 288.61C382.619 288.61 382.778 288.633 382.889 288.678V289.508Z" fill="#31313B"/>
</g>
<g filter="url(#filter48_d_33_5373)">
<path d="M375.672 293.815C374.68 293.815 373.884 293.488 373.285 292.834C372.689 292.179 372.391 291.328 372.391 290.28C372.391 289.154 372.695 288.255 373.304 287.585C373.913 286.914 374.741 286.579 375.79 286.579C376.756 286.579 377.534 286.904 378.124 287.555C378.716 288.206 379.012 289.058 379.012 290.109C379.012 291.252 378.709 292.155 378.104 292.819C377.499 293.483 376.688 293.815 375.672 293.815ZM375.731 287.321C374.995 287.321 374.398 287.586 373.939 288.117C373.48 288.647 373.25 289.344 373.25 290.207C373.25 291.069 373.473 291.764 373.919 292.292C374.369 292.816 374.953 293.078 375.672 293.078C376.441 293.078 377.046 292.827 377.489 292.326C377.931 291.824 378.153 291.123 378.153 290.221C378.153 289.297 377.938 288.582 377.508 288.078C377.079 287.573 376.486 287.321 375.731 287.321Z" fill="#31313B"/>
</g>
<g filter="url(#filter49_d_33_5373)">
<path d="M469.94 97H497.94V280.698H469.94V97Z" fill="#2538D5"/>
</g>
<g filter="url(#filter50_d_33_5373)">
<path d="M505.048 289.508C504.908 289.401 504.707 289.347 504.443 289.347C504.101 289.347 503.815 289.508 503.583 289.831C503.356 290.153 503.242 290.592 503.242 291.149V293.698H502.441V288.698H503.242V289.728H503.261C503.375 289.377 503.549 289.103 503.784 288.908C504.018 288.709 504.28 288.61 504.57 288.61C504.778 288.61 504.938 288.633 505.048 288.678V289.508Z" fill="#31313B"/>
</g>
<g filter="url(#filter51_d_33_5373)">
<path d="M501.225 291.398H497.695C497.708 291.955 497.858 292.384 498.144 292.687C498.431 292.99 498.824 293.141 499.326 293.141C499.889 293.141 500.406 292.956 500.878 292.585V293.336C500.439 293.655 499.858 293.815 499.135 293.815C498.429 293.815 497.874 293.589 497.47 293.136C497.067 292.681 496.865 292.041 496.865 291.217C496.865 290.439 497.084 289.806 497.524 289.318C497.967 288.826 498.515 288.581 499.169 288.581C499.824 288.581 500.33 288.792 500.688 289.215C501.046 289.639 501.225 290.226 501.225 290.978V291.398ZM500.405 290.719C500.402 290.257 500.289 289.897 500.068 289.64C499.85 289.383 499.545 289.254 499.155 289.254C498.777 289.254 498.457 289.39 498.193 289.66C497.929 289.93 497.766 290.283 497.705 290.719H500.405Z" fill="#31313B"/>
</g>
<g filter="url(#filter52_d_33_5373)">
<path d="M496.171 288.927L493.212 293.014H496.142V293.698H492.036V293.449L494.995 289.381H492.314V288.698H496.171V288.927Z" fill="#31313B"/>
</g>
<g filter="url(#filter53_d_33_5373)">
<path d="M490.673 287.428C490.53 287.428 490.408 287.379 490.307 287.282C490.206 287.184 490.156 287.06 490.156 286.911C490.156 286.761 490.206 286.637 490.307 286.54C490.408 286.439 490.53 286.388 490.673 286.388C490.82 286.388 490.944 286.439 491.044 286.54C491.149 286.637 491.201 286.761 491.201 286.911C491.201 287.054 491.149 287.176 491.044 287.277C490.944 287.378 490.82 287.428 490.673 287.428ZM491.064 293.698H490.263V288.698H491.064V293.698Z" fill="#31313B"/>
</g>
<g filter="url(#filter54_d_33_5373)">
<path d="M488.642 293.698H487.841V286.295H488.642V293.698Z" fill="#31313B"/>
</g>
<g filter="url(#filter55_d_33_5373)">
<path d="M486.22 293.698H485.419V292.907H485.4C485.068 293.512 484.554 293.815 483.857 293.815C482.666 293.815 482.07 293.105 482.07 291.686V288.698H482.866V291.559C482.866 292.614 483.269 293.141 484.077 293.141C484.467 293.141 484.788 292.998 485.039 292.711C485.292 292.422 485.419 292.044 485.419 291.579V288.698H486.22V293.698Z" fill="#31313B"/>
</g>
<g filter="url(#filter56_d_33_5373)">
<path d="M477.119 292.975H477.099V293.698H476.298V286.295H477.099V289.577H477.119C477.513 288.913 478.089 288.581 478.847 288.581C479.488 288.581 479.99 288.805 480.351 289.254C480.716 289.7 480.898 290.299 480.898 291.051C480.898 291.888 480.694 292.558 480.288 293.063C479.881 293.564 479.324 293.815 478.618 293.815C477.957 293.815 477.457 293.535 477.119 292.975ZM477.099 290.959V291.657C477.099 292.07 477.233 292.422 477.5 292.711C477.77 292.998 478.111 293.141 478.525 293.141C479.01 293.141 479.389 292.956 479.663 292.585C479.939 292.213 480.078 291.697 480.078 291.037C480.078 290.48 479.949 290.044 479.692 289.728C479.435 289.412 479.086 289.254 478.647 289.254C478.181 289.254 477.807 289.417 477.524 289.743C477.241 290.065 477.099 290.47 477.099 290.959Z" fill="#31313B"/>
</g>
<g filter="url(#filter57_d_33_5373)">
<path d="M475.083 291.398H471.552C471.565 291.955 471.715 292.384 472.001 292.687C472.288 292.99 472.682 293.141 473.183 293.141C473.746 293.141 474.264 292.956 474.736 292.585V293.336C474.296 293.655 473.715 293.815 472.993 293.815C472.286 293.815 471.731 293.589 471.328 293.136C470.924 292.681 470.722 292.041 470.722 291.217C470.722 290.439 470.942 289.806 471.381 289.318C471.824 288.826 472.373 288.581 473.027 288.581C473.681 288.581 474.187 288.792 474.545 289.215C474.903 289.639 475.083 290.226 475.083 290.978V291.398ZM474.262 290.719C474.259 290.257 474.147 289.897 473.925 289.64C473.707 289.383 473.403 289.254 473.012 289.254C472.635 289.254 472.314 289.39 472.05 289.66C471.787 289.93 471.624 290.283 471.562 290.719H474.262Z" fill="#31313B"/>
</g>
<g filter="url(#filter58_d_33_5373)">
<path d="M469.335 293.698H468.33L464.726 288.117C464.635 287.977 464.56 287.83 464.501 287.677H464.472C464.498 287.827 464.511 288.148 464.511 288.639V293.698H463.691V286.696H464.755L468.261 292.189C468.408 292.417 468.502 292.573 468.544 292.658H468.564C468.531 292.456 468.515 292.113 468.515 291.627V286.696H469.335V293.698Z" fill="#31313B"/>
</g>
<defs>
<filter id="filter0_d_33_5373" x="46.9399" y="21.5843" width="34" height="261" filterUnits="userSpaceOnUse" color-interpolation-filters="sRGB">
<feFlood flood-opacity="0" result="BackgroundImageFix"/>
<feColorMatrix in="SourceAlpha" type="matrix" values="0 0 0 0 0 0 0 0 0 0 0 0 0 0 0 0 0 0 127 0" result="hardAlpha"/>
<feOffset dy="-1"/>
<feGaussianBlur stdDeviation="1.5"/>
<feComposite in2="hardAlpha" operator="out"/>
<feColorMatrix type="matrix" values="0 0 0 0 0 0 0 0 0 0 0 0 0 0 0 0 0 0 0.160784 0"/>
<feBlend mode="normal" in2="BackgroundImageFix" result="effect1_dropShadow_33_5373"/>
<feBlend mode="normal" in="SourceGraphic" in2="effect1_dropShadow_33_5373" result="shape"/>
</filter>
<filter id="filter1_d_33_5373" x="79.5337" y="284.761" width="8.60742" height="11.0879" filterUnits="userSpaceOnUse" color-interpolation-filters="sRGB">
<feFlood flood-opacity="0" result="BackgroundImageFix"/>
<feColorMatrix in="SourceAlpha" type="matrix" values="0 0 0 0 0 0 0 0 0 0 0 0 0 0 0 0 0 0 127 0" result="hardAlpha"/>
<feOffset dy="-1"/>
<feGaussianBlur stdDeviation="1.5"/>
<feComposite in2="hardAlpha" operator="out"/>
<feColorMatrix type="matrix" values="0 0 0 0 0 0 0 0 0 0 0 0 0 0 0 0 0 0 0.160784 0"/>
<feBlend mode="normal" in2="BackgroundImageFix" result="effect1_dropShadow_33_5373"/>
<feBlend mode="normal" in="SourceGraphic" in2="effect1_dropShadow_33_5373" result="shape"/>
</filter>
<filter id="filter2_d_33_5373" x="73.3325" y="284.732" width="10.9219" height="11.2344" filterUnits="userSpaceOnUse" color-interpolation-filters="sRGB">
<feFlood flood-opacity="0" result="BackgroundImageFix"/>
<feColorMatrix in="SourceAlpha" type="matrix" values="0 0 0 0 0 0 0 0 0 0 0 0 0 0 0 0 0 0 127 0" result="hardAlpha"/>
<feOffset dy="-1"/>
<feGaussianBlur stdDeviation="1.5"/>
<feComposite in2="hardAlpha" operator="out"/>
<feColorMatrix type="matrix" values="0 0 0 0 0 0 0 0 0 0 0 0 0 0 0 0 0 0 0.160784 0"/>
<feBlend mode="normal" in2="BackgroundImageFix" result="effect1_dropShadow_33_5373"/>
<feBlend mode="normal" in="SourceGraphic" in2="effect1_dropShadow_33_5373" result="shape"/>
</filter>
<filter id="filter3_d_33_5373" x="69.6851" y="283.369" width="8.91992" height="12.5869" filterUnits="userSpaceOnUse" color-interpolation-filters="sRGB">
<feFlood flood-opacity="0" result="BackgroundImageFix"/>
<feColorMatrix in="SourceAlpha" type="matrix" values="0 0 0 0 0 0 0 0 0 0 0 0 0 0 0 0 0 0 127 0" result="hardAlpha"/>
<feOffset dy="-1"/>
<feGaussianBlur stdDeviation="1.5"/>
<feComposite in2="hardAlpha" operator="out"/>
<feColorMatrix type="matrix" values="0 0 0 0 0 0 0 0 0 0 0 0 0 0 0 0 0 0 0.160784 0"/>
<feBlend mode="normal" in2="BackgroundImageFix" result="effect1_dropShadow_33_5373"/>
<feBlend mode="normal" in="SourceGraphic" in2="effect1_dropShadow_33_5373" result="shape"/>
</filter>
<filter id="filter4_d_33_5373" x="64.8267" y="284.732" width="9.9502" height="11.2344" filterUnits="userSpaceOnUse" color-interpolation-filters="sRGB">
<feFlood flood-opacity="0" result="BackgroundImageFix"/>
<feColorMatrix in="SourceAlpha" type="matrix" values="0 0 0 0 0 0 0 0 0 0 0 0 0 0 0 0 0 0 127 0" result="hardAlpha"/>
<feOffset dy="-1"/>
<feGaussianBlur stdDeviation="1.5"/>
<feComposite in2="hardAlpha" operator="out"/>
<feColorMatrix type="matrix" values="0 0 0 0 0 0 0 0 0 0 0 0 0 0 0 0 0 0 0.160784 0"/>
<feBlend mode="normal" in2="BackgroundImageFix" result="effect1_dropShadow_33_5373"/>
<feBlend mode="normal" in="SourceGraphic" in2="effect1_dropShadow_33_5373" result="shape"/>
</filter>
<filter id="filter5_d_33_5373" x="62.7759" y="282.447" width="6.80078" height="13.4023" filterUnits="userSpaceOnUse" color-interpolation-filters="sRGB">
<feFlood flood-opacity="0" result="BackgroundImageFix"/>
<feColorMatrix in="SourceAlpha" type="matrix" values="0 0 0 0 0 0 0 0 0 0 0 0 0 0 0 0 0 0 127 0" result="hardAlpha"/>
<feOffset dy="-1"/>
<feGaussianBlur stdDeviation="1.5"/>
<feComposite in2="hardAlpha" operator="out"/>
<feColorMatrix type="matrix" values="0 0 0 0 0 0 0 0 0 0 0 0 0 0 0 0 0 0 0.160784 0"/>
<feBlend mode="normal" in2="BackgroundImageFix" result="effect1_dropShadow_33_5373"/>
<feBlend mode="normal" in="SourceGraphic" in2="effect1_dropShadow_33_5373" result="shape"/>
</filter>
<filter id="filter6_d_33_5373" x="60.2466" y="282.539" width="7.04492" height="13.3096" filterUnits="userSpaceOnUse" color-interpolation-filters="sRGB">
<feFlood flood-opacity="0" result="BackgroundImageFix"/>
<feColorMatrix in="SourceAlpha" type="matrix" values="0 0 0 0 0 0 0 0 0 0 0 0 0 0 0 0 0 0 127 0" result="hardAlpha"/>
<feOffset dy="-1"/>
<feGaussianBlur stdDeviation="1.5"/>
<feComposite in2="hardAlpha" operator="out"/>
<feColorMatrix type="matrix" values="0 0 0 0 0 0 0 0 0 0 0 0 0 0 0 0 0 0 0.160784 0"/>
<feBlend mode="normal" in2="BackgroundImageFix" result="effect1_dropShadow_33_5373"/>
<feBlend mode="normal" in="SourceGraphic" in2="effect1_dropShadow_33_5373" result="shape"/>
</filter>
<filter id="filter7_d_33_5373" x="56.3647" y="283.369" width="8.91992" height="12.5869" filterUnits="userSpaceOnUse" color-interpolation-filters="sRGB">
<feFlood flood-opacity="0" result="BackgroundImageFix"/>
<feColorMatrix in="SourceAlpha" type="matrix" values="0 0 0 0 0 0 0 0 0 0 0 0 0 0 0 0 0 0 127 0" result="hardAlpha"/>
<feOffset dy="-1"/>
<feGaussianBlur stdDeviation="1.5"/>
<feComposite in2="hardAlpha" operator="out"/>
<feColorMatrix type="matrix" values="0 0 0 0 0 0 0 0 0 0 0 0 0 0 0 0 0 0 0.160784 0"/>
<feBlend mode="normal" in2="BackgroundImageFix" result="effect1_dropShadow_33_5373"/>
<feBlend mode="normal" in="SourceGraphic" in2="effect1_dropShadow_33_5373" result="shape"/>
</filter>
<filter id="filter8_d_33_5373" x="51.3013" y="284.732" width="10.1504" height="11.1172" filterUnits="userSpaceOnUse" color-interpolation-filters="sRGB">
<feFlood flood-opacity="0" result="BackgroundImageFix"/>
<feColorMatrix in="SourceAlpha" type="matrix" values="0 0 0 0 0 0 0 0 0 0 0 0 0 0 0 0 0 0 127 0" result="hardAlpha"/>
<feOffset dy="-1"/>
<feGaussianBlur stdDeviation="1.5"/>
<feComposite in2="hardAlpha" operator="out"/>
<feColorMatrix type="matrix" values="0 0 0 0 0 0 0 0 0 0 0 0 0 0 0 0 0 0 0.160784 0"/>
<feBlend mode="normal" in2="BackgroundImageFix" result="effect1_dropShadow_33_5373"/>
<feBlend mode="normal" in="SourceGraphic" in2="effect1_dropShadow_33_5373" result="shape"/>
</filter>
<filter id="filter9_d_33_5373" x="45.7251" y="284.732" width="10.3604" height="11.2344" filterUnits="userSpaceOnUse" color-interpolation-filters="sRGB">
<feFlood flood-opacity="0" result="BackgroundImageFix"/>
<feColorMatrix in="SourceAlpha" type="matrix" values="0 0 0 0 0 0 0 0 0 0 0 0 0 0 0 0 0 0 127 0" result="hardAlpha"/>
<feOffset dy="-1"/>
<feGaussianBlur stdDeviation="1.5"/>
<feComposite in2="hardAlpha" operator="out"/>
<feColorMatrix type="matrix" values="0 0 0 0 0 0 0 0 0 0 0 0 0 0 0 0 0 0 0.160784 0"/>
<feBlend mode="normal" in2="BackgroundImageFix" result="effect1_dropShadow_33_5373"/>
<feBlend mode="normal" in="SourceGraphic" in2="effect1_dropShadow_33_5373" result="shape"/>
</filter>
<filter id="filter10_d_33_5373" x="39.7681" y="282.847" width="12.0352" height="13.002" filterUnits="userSpaceOnUse" color-interpolation-filters="sRGB">
<feFlood flood-opacity="0" result="BackgroundImageFix"/>
<feColorMatrix in="SourceAlpha" type="matrix" values="0 0 0 0 0 0 0 0 0 0 0 0 0 0 0 0 0 0 127 0" result="hardAlpha"/>
<feOffset dy="-1"/>
<feGaussianBlur stdDeviation="1.5"/>
<feComposite in2="hardAlpha" operator="out"/>
<feColorMatrix type="matrix" values="0 0 0 0 0 0 0 0 0 0 0 0 0 0 0 0 0 0 0.160784 0"/>
<feBlend mode="normal" in2="BackgroundImageFix" result="effect1_dropShadow_33_5373"/>
<feBlend mode="normal" in="SourceGraphic" in2="effect1_dropShadow_33_5373" result="shape"/>
</filter>
<filter id="filter11_d_33_5373" x="130.94" y="78.584" width="34" height="204" filterUnits="userSpaceOnUse" color-interpolation-filters="sRGB">
<feFlood flood-opacity="0" result="BackgroundImageFix"/>
<feColorMatrix in="SourceAlpha" type="matrix" values="0 0 0 0 0 0 0 0 0 0 0 0 0 0 0 0 0 0 127 0" result="hardAlpha"/>
<feOffset dy="-1"/>
<feGaussianBlur stdDeviation="1.5"/>
<feComposite in2="hardAlpha" operator="out"/>
<feColorMatrix type="matrix" values="0 0 0 0 0 0 0 0 0 0 0 0 0 0 0 0 0 0 0.160784 0"/>
<feBlend mode="normal" in2="BackgroundImageFix" result="effect1_dropShadow_33_5373"/>
<feBlend mode="normal" in="SourceGraphic" in2="effect1_dropShadow_33_5373" result="shape"/>
</filter>
<filter id="filter12_d_33_5373" x="151.839" y="282.696" width="10.2822" height="13.002" filterUnits="userSpaceOnUse" color-interpolation-filters="sRGB">
<feFlood flood-opacity="0" result="BackgroundImageFix"/>
<feColorMatrix in="SourceAlpha" type="matrix" values="0 0 0 0 0 0 0 0 0 0 0 0 0 0 0 0 0 0 127 0" result="hardAlpha"/>
<feOffset dy="-1"/>
<feGaussianBlur stdDeviation="1.5"/>
<feComposite in2="hardAlpha" operator="out"/>
<feColorMatrix type="matrix" values="0 0 0 0 0 0 0 0 0 0 0 0 0 0 0 0 0 0 0.160784 0"/>
<feBlend mode="normal" in2="BackgroundImageFix" result="effect1_dropShadow_33_5373"/>
<feBlend mode="normal" in="SourceGraphic" in2="effect1_dropShadow_33_5373" result="shape"/>
</filter>
<filter id="filter13_d_33_5373" x="144.574" y="282.696" width="12.2305" height="13.002" filterUnits="userSpaceOnUse" color-interpolation-filters="sRGB">
<feFlood flood-opacity="0" result="BackgroundImageFix"/>
<feColorMatrix in="SourceAlpha" type="matrix" values="0 0 0 0 0 0 0 0 0 0 0 0 0 0 0 0 0 0 127 0" result="hardAlpha"/>
<feOffset dy="-1"/>
<feGaussianBlur stdDeviation="1.5"/>
<feComposite in2="hardAlpha" operator="out"/>
<feColorMatrix type="matrix" values="0 0 0 0 0 0 0 0 0 0 0 0 0 0 0 0 0 0 0.160784 0"/>
<feBlend mode="normal" in2="BackgroundImageFix" result="effect1_dropShadow_33_5373"/>
<feBlend mode="normal" in="SourceGraphic" in2="effect1_dropShadow_33_5373" result="shape"/>
</filter>
<filter id="filter14_d_33_5373" x="140.462" y="282.696" width="10.2822" height="13.002" filterUnits="userSpaceOnUse" color-interpolation-filters="sRGB">
<feFlood flood-opacity="0" result="BackgroundImageFix"/>
<feColorMatrix in="SourceAlpha" type="matrix" values="0 0 0 0 0 0 0 0 0 0 0 0 0 0 0 0 0 0 127 0" result="hardAlpha"/>
<feOffset dy="-1"/>
<feGaussianBlur stdDeviation="1.5"/>
<feComposite in2="hardAlpha" operator="out"/>
<feColorMatrix type="matrix" values="0 0 0 0 0 0 0 0 0 0 0 0 0 0 0 0 0 0 0.160784 0"/>
<feBlend mode="normal" in2="BackgroundImageFix" result="effect1_dropShadow_33_5373"/>
<feBlend mode="normal" in="SourceGraphic" in2="effect1_dropShadow_33_5373" result="shape"/>
</filter>
<filter id="filter15_d_33_5373" x="133.812" y="282.579" width="11.2246" height="13.2363" filterUnits="userSpaceOnUse" color-interpolation-filters="sRGB">
<feFlood flood-opacity="0" result="BackgroundImageFix"/>
<feColorMatrix in="SourceAlpha" type="matrix" values="0 0 0 0 0 0 0 0 0 0 0 0 0 0 0 0 0 0 127 0" result="hardAlpha"/>
<feOffset dy="-1"/>
<feGaussianBlur stdDeviation="1.5"/>
<feComposite in2="hardAlpha" operator="out"/>
<feColorMatrix type="matrix" values="0 0 0 0 0 0 0 0 0 0 0 0 0 0 0 0 0 0 0.160784 0"/>
<feBlend mode="normal" in2="BackgroundImageFix" result="effect1_dropShadow_33_5373"/>
<feBlend mode="normal" in="SourceGraphic" in2="effect1_dropShadow_33_5373" result="shape"/>
</filter>
<filter id="filter16_d_33_5373" x="214.94" y="212.584" width="34" height="70" filterUnits="userSpaceOnUse" color-interpolation-filters="sRGB">
<feFlood flood-opacity="0" result="BackgroundImageFix"/>
<feColorMatrix in="SourceAlpha" type="matrix" values="0 0 0 0 0 0 0 0 0 0 0 0 0 0 0 0 0 0 127 0" result="hardAlpha"/>
<feOffset dy="-1"/>
<feGaussianBlur stdDeviation="1.5"/>
<feComposite in2="hardAlpha" operator="out"/>
<feColorMatrix type="matrix" values="0 0 0 0 0 0 0 0 0 0 0 0 0 0 0 0 0 0 0.160784 0"/>
<feBlend mode="normal" in2="BackgroundImageFix" result="effect1_dropShadow_33_5373"/>
<feBlend mode="normal" in="SourceGraphic" in2="effect1_dropShadow_33_5373" result="shape"/>
</filter>
<filter id="filter17_d_33_5373" x="253.911" y="284.581" width="10.3604" height="11.2344" filterUnits="userSpaceOnUse" color-interpolation-filters="sRGB">
<feFlood flood-opacity="0" result="BackgroundImageFix"/>
<feColorMatrix in="SourceAlpha" type="matrix" values="0 0 0 0 0 0 0 0 0 0 0 0 0 0 0 0 0 0 127 0" result="hardAlpha"/>
<feOffset dy="-1"/>
<feGaussianBlur stdDeviation="1.5"/>
<feComposite in2="hardAlpha" operator="out"/>
<feColorMatrix type="matrix" values="0 0 0 0 0 0 0 0 0 0 0 0 0 0 0 0 0 0 0.160784 0"/>
<feBlend mode="normal" in2="BackgroundImageFix" result="effect1_dropShadow_33_5373"/>
<feBlend mode="normal" in="SourceGraphic" in2="effect1_dropShadow_33_5373" result="shape"/>
</filter>
<filter id="filter18_d_33_5373" x="248.588" y="284.581" width="10.1504" height="11.1172" filterUnits="userSpaceOnUse" color-interpolation-filters="sRGB">
<feFlood flood-opacity="0" result="BackgroundImageFix"/>
<feColorMatrix in="SourceAlpha" type="matrix" values="0 0 0 0 0 0 0 0 0 0 0 0 0 0 0 0 0 0 127 0" result="hardAlpha"/>
<feOffset dy="-1"/>
<feGaussianBlur stdDeviation="1.5"/>
<feComposite in2="hardAlpha" operator="out"/>
<feColorMatrix type="matrix" values="0 0 0 0 0 0 0 0 0 0 0 0 0 0 0 0 0 0 0.160784 0"/>
<feBlend mode="normal" in2="BackgroundImageFix" result="effect1_dropShadow_33_5373"/>
<feBlend mode="normal" in="SourceGraphic" in2="effect1_dropShadow_33_5373" result="shape"/>
</filter>
<filter id="filter19_d_33_5373" x="246.059" y="282.388" width="7.04492" height="13.3096" filterUnits="userSpaceOnUse" color-interpolation-filters="sRGB">
<feFlood flood-opacity="0" result="BackgroundImageFix"/>
<feColorMatrix in="SourceAlpha" type="matrix" values="0 0 0 0 0 0 0 0 0 0 0 0 0 0 0 0 0 0 127 0" result="hardAlpha"/>
<feOffset dy="-1"/>
<feGaussianBlur stdDeviation="1.5"/>
<feComposite in2="hardAlpha" operator="out"/>
<feColorMatrix type="matrix" values="0 0 0 0 0 0 0 0 0 0 0 0 0 0 0 0 0 0 0.160784 0"/>
<feBlend mode="normal" in2="BackgroundImageFix" result="effect1_dropShadow_33_5373"/>
<feBlend mode="normal" in="SourceGraphic" in2="effect1_dropShadow_33_5373" result="shape"/>
</filter>
<filter id="filter20_d_33_5373" x="240.502" y="282.295" width="10.1504" height="13.4023" filterUnits="userSpaceOnUse" color-interpolation-filters="sRGB">
<feFlood flood-opacity="0" result="BackgroundImageFix"/>
<feColorMatrix in="SourceAlpha" type="matrix" values="0 0 0 0 0 0 0 0 0 0 0 0 0 0 0 0 0 0 127 0" result="hardAlpha"/>
<feOffset dy="-1"/>
<feGaussianBlur stdDeviation="1.5"/>
<feComposite in2="hardAlpha" operator="out"/>
<feColorMatrix type="matrix" values="0 0 0 0 0 0 0 0 0 0 0 0 0 0 0 0 0 0 0.160784 0"/>
<feBlend mode="normal" in2="BackgroundImageFix" result="effect1_dropShadow_33_5373"/>
<feBlend mode="normal" in="SourceGraphic" in2="effect1_dropShadow_33_5373" result="shape"/>
</filter>
<filter id="filter21_d_33_5373" x="235.542" y="284.581" width="9.75977" height="11.2344" filterUnits="userSpaceOnUse" color-interpolation-filters="sRGB">
<feFlood flood-opacity="0" result="BackgroundImageFix"/>
<feColorMatrix in="SourceAlpha" type="matrix" values="0 0 0 0 0 0 0 0 0 0 0 0 0 0 0 0 0 0 127 0" result="hardAlpha"/>
<feOffset dy="-1"/>
<feGaussianBlur stdDeviation="1.5"/>
<feComposite in2="hardAlpha" operator="out"/>
<feColorMatrix type="matrix" values="0 0 0 0 0 0 0 0 0 0 0 0 0 0 0 0 0 0 0.160784 0"/>
<feBlend mode="normal" in2="BackgroundImageFix" result="effect1_dropShadow_33_5373"/>
<feBlend mode="normal" in="SourceGraphic" in2="effect1_dropShadow_33_5373" result="shape"/>
</filter>
<filter id="filter22_d_33_5373" x="230.424" y="284.581" width="9.9502" height="11.2344" filterUnits="userSpaceOnUse" color-interpolation-filters="sRGB">
<feFlood flood-opacity="0" result="BackgroundImageFix"/>
<feColorMatrix in="SourceAlpha" type="matrix" values="0 0 0 0 0 0 0 0 0 0 0 0 0 0 0 0 0 0 127 0" result="hardAlpha"/>
<feOffset dy="-1"/>
<feGaussianBlur stdDeviation="1.5"/>
<feComposite in2="hardAlpha" operator="out"/>
<feColorMatrix type="matrix" values="0 0 0 0 0 0 0 0 0 0 0 0 0 0 0 0 0 0 0.160784 0"/>
<feBlend mode="normal" in2="BackgroundImageFix" result="effect1_dropShadow_33_5373"/>
<feBlend mode="normal" in="SourceGraphic" in2="effect1_dropShadow_33_5373" result="shape"/>
</filter>
<filter id="filter23_d_33_5373" x="221.918" y="282.696" width="13.1387" height="13.002" filterUnits="userSpaceOnUse" color-interpolation-filters="sRGB">
<feFlood flood-opacity="0" result="BackgroundImageFix"/>
<feColorMatrix in="SourceAlpha" type="matrix" values="0 0 0 0 0 0 0 0 0 0 0 0 0 0 0 0 0 0 127 0" result="hardAlpha"/>
<feOffset dy="-1"/>
<feGaussianBlur stdDeviation="1.5"/>
<feComposite in2="hardAlpha" operator="out"/>
<feColorMatrix type="matrix" values="0 0 0 0 0 0 0 0 0 0 0 0 0 0 0 0 0 0 0.160784 0"/>
<feBlend mode="normal" in2="BackgroundImageFix" result="effect1_dropShadow_33_5373"/>
<feBlend mode="normal" in="SourceGraphic" in2="effect1_dropShadow_33_5373" result="shape"/>
</filter>
<filter id="filter24_d_33_5373" x="211.85" y="282.579" width="11.6934" height="13.2363" filterUnits="userSpaceOnUse" color-interpolation-filters="sRGB">
<feFlood flood-opacity="0" result="BackgroundImageFix"/>
<feColorMatrix in="SourceAlpha" type="matrix" values="0 0 0 0 0 0 0 0 0 0 0 0 0 0 0 0 0 0 127 0" result="hardAlpha"/>
<feOffset dy="-1"/>
<feGaussianBlur stdDeviation="1.5"/>
<feComposite in2="hardAlpha" operator="out"/>
<feColorMatrix type="matrix" values="0 0 0 0 0 0 0 0 0 0 0 0 0 0 0 0 0 0 0.160784 0"/>
<feBlend mode="normal" in2="BackgroundImageFix" result="effect1_dropShadow_33_5373"/>
<feBlend mode="normal" in="SourceGraphic" in2="effect1_dropShadow_33_5373" result="shape"/>
</filter>
<filter id="filter25_d_33_5373" x="206.577" y="282.696" width="10.3115" height="13.002" filterUnits="userSpaceOnUse" color-interpolation-filters="sRGB">
<feFlood flood-opacity="0" result="BackgroundImageFix"/>
<feColorMatrix in="SourceAlpha" type="matrix" values="0 0 0 0 0 0 0 0 0 0 0 0 0 0 0 0 0 0 127 0" result="hardAlpha"/>
<feOffset dy="-1"/>
<feGaussianBlur stdDeviation="1.5"/>
<feComposite in2="hardAlpha" operator="out"/>
<feColorMatrix type="matrix" values="0 0 0 0 0 0 0 0 0 0 0 0 0 0 0 0 0 0 0.160784 0"/>
<feBlend mode="normal" in2="BackgroundImageFix" result="effect1_dropShadow_33_5373"/>
<feBlend mode="normal" in="SourceGraphic" in2="effect1_dropShadow_33_5373" result="shape"/>
</filter>
<filter id="filter26_d_33_5373" x="199.311" y="282.696" width="12.2305" height="13.002" filterUnits="userSpaceOnUse" color-interpolation-filters="sRGB">
<feFlood flood-opacity="0" result="BackgroundImageFix"/>
<feColorMatrix in="SourceAlpha" type="matrix" values="0 0 0 0 0 0 0 0 0 0 0 0 0 0 0 0 0 0 127 0" result="hardAlpha"/>
<feOffset dy="-1"/>
<feGaussianBlur stdDeviation="1.5"/>
<feComposite in2="hardAlpha" operator="out"/>
<feColorMatrix type="matrix" values="0 0 0 0 0 0 0 0 0 0 0 0 0 0 0 0 0 0 0.160784 0"/>
<feBlend mode="normal" in2="BackgroundImageFix" result="effect1_dropShadow_33_5373"/>
<feBlend mode="normal" in="SourceGraphic" in2="effect1_dropShadow_33_5373" result="shape"/>
</filter>
<filter id="filter27_d_33_5373" x="298.94" y="144.584" width="34" height="138" filterUnits="userSpaceOnUse" color-interpolation-filters="sRGB">
<feFlood flood-opacity="0" result="BackgroundImageFix"/>
<feColorMatrix in="SourceAlpha" type="matrix" values="0 0 0 0 0 0 0 0 0 0 0 0 0 0 0 0 0 0 127 0" result="hardAlpha"/>
<feOffset dy="-1"/>
<feGaussianBlur stdDeviation="1.5"/>
<feComposite in2="hardAlpha" operator="out"/>
<feColorMatrix type="matrix" values="0 0 0 0 0 0 0 0 0 0 0 0 0 0 0 0 0 0 0.160784 0"/>
<feBlend mode="normal" in2="BackgroundImageFix" result="effect1_dropShadow_33_5373"/>
<feBlend mode="normal" in="SourceGraphic" in2="effect1_dropShadow_33_5373" result="shape"/>
</filter>
<filter id="filter28_d_33_5373" x="332.916" y="284.61" width="8.60742" height="11.0879" filterUnits="userSpaceOnUse" color-interpolation-filters="sRGB">
<feFlood flood-opacity="0" result="BackgroundImageFix"/>
<feColorMatrix in="SourceAlpha" type="matrix" values="0 0 0 0 0 0 0 0 0 0 0 0 0 0 0 0 0 0 127 0" result="hardAlpha"/>
<feOffset dy="-1"/>
<feGaussianBlur stdDeviation="1.5"/>
<feComposite in2="hardAlpha" operator="out"/>
<feColorMatrix type="matrix" values="0 0 0 0 0 0 0 0 0 0 0 0 0 0 0 0 0 0 0.160784 0"/>
<feBlend mode="normal" in2="BackgroundImageFix" result="effect1_dropShadow_33_5373"/>
<feBlend mode="normal" in="SourceGraphic" in2="effect1_dropShadow_33_5373" result="shape"/>
</filter>
<filter id="filter29_d_33_5373" x="326.714" y="284.581" width="10.9219" height="11.2344" filterUnits="userSpaceOnUse" color-interpolation-filters="sRGB">
<feFlood flood-opacity="0" result="BackgroundImageFix"/>
<feColorMatrix in="SourceAlpha" type="matrix" values="0 0 0 0 0 0 0 0 0 0 0 0 0 0 0 0 0 0 127 0" result="hardAlpha"/>
<feOffset dy="-1"/>
<feGaussianBlur stdDeviation="1.5"/>
<feComposite in2="hardAlpha" operator="out"/>
<feColorMatrix type="matrix" values="0 0 0 0 0 0 0 0 0 0 0 0 0 0 0 0 0 0 0.160784 0"/>
<feBlend mode="normal" in2="BackgroundImageFix" result="effect1_dropShadow_33_5373"/>
<feBlend mode="normal" in="SourceGraphic" in2="effect1_dropShadow_33_5373" result="shape"/>
</filter>
<filter id="filter30_d_33_5373" x="323.067" y="283.218" width="8.91992" height="12.5869" filterUnits="userSpaceOnUse" color-interpolation-filters="sRGB">
<feFlood flood-opacity="0" result="BackgroundImageFix"/>
<feColorMatrix in="SourceAlpha" type="matrix" values="0 0 0 0 0 0 0 0 0 0 0 0 0 0 0 0 0 0 127 0" result="hardAlpha"/>
<feOffset dy="-1"/>
<feGaussianBlur stdDeviation="1.5"/>
<feComposite in2="hardAlpha" operator="out"/>
<feColorMatrix type="matrix" values="0 0 0 0 0 0 0 0 0 0 0 0 0 0 0 0 0 0 0.160784 0"/>
<feBlend mode="normal" in2="BackgroundImageFix" result="effect1_dropShadow_33_5373"/>
<feBlend mode="normal" in="SourceGraphic" in2="effect1_dropShadow_33_5373" result="shape"/>
</filter>
<filter id="filter31_d_33_5373" x="318.208" y="284.581" width="9.9502" height="11.2344" filterUnits="userSpaceOnUse" color-interpolation-filters="sRGB">
<feFlood flood-opacity="0" result="BackgroundImageFix"/>
<feColorMatrix in="SourceAlpha" type="matrix" values="0 0 0 0 0 0 0 0 0 0 0 0 0 0 0 0 0 0 127 0" result="hardAlpha"/>
<feOffset dy="-1"/>
<feGaussianBlur stdDeviation="1.5"/>
<feComposite in2="hardAlpha" operator="out"/>
<feColorMatrix type="matrix" values="0 0 0 0 0 0 0 0 0 0 0 0 0 0 0 0 0 0 0.160784 0"/>
<feBlend mode="normal" in2="BackgroundImageFix" result="effect1_dropShadow_33_5373"/>
<feBlend mode="normal" in="SourceGraphic" in2="effect1_dropShadow_33_5373" result="shape"/>
</filter>
<filter id="filter32_d_33_5373" x="312.349" y="284.581" width="10.6094" height="13.4707" filterUnits="userSpaceOnUse" color-interpolation-filters="sRGB">
<feFlood flood-opacity="0" result="BackgroundImageFix"/>
<feColorMatrix in="SourceAlpha" type="matrix" values="0 0 0 0 0 0 0 0 0 0 0 0 0 0 0 0 0 0 127 0" result="hardAlpha"/>
<feOffset dy="-1"/>
<feGaussianBlur stdDeviation="1.5"/>
<feComposite in2="hardAlpha" operator="out"/>
<feColorMatrix type="matrix" values="0 0 0 0 0 0 0 0 0 0 0 0 0 0 0 0 0 0 0.160784 0"/>
<feBlend mode="normal" in2="BackgroundImageFix" result="effect1_dropShadow_33_5373"/>
<feBlend mode="normal" in="SourceGraphic" in2="effect1_dropShadow_33_5373" result="shape"/>
</filter>
<filter id="filter33_d_33_5373" x="310.162" y="282.388" width="7.04492" height="13.3096" filterUnits="userSpaceOnUse" color-interpolation-filters="sRGB">
<feFlood flood-opacity="0" result="BackgroundImageFix"/>
<feColorMatrix in="SourceAlpha" type="matrix" values="0 0 0 0 0 0 0 0 0 0 0 0 0 0 0 0 0 0 127 0" result="hardAlpha"/>
<feOffset dy="-1"/>
<feGaussianBlur stdDeviation="1.5"/>
<feComposite in2="hardAlpha" operator="out"/>
<feColorMatrix type="matrix" values="0 0 0 0 0 0 0 0 0 0 0 0 0 0 0 0 0 0 0.160784 0"/>
<feBlend mode="normal" in2="BackgroundImageFix" result="effect1_dropShadow_33_5373"/>
<feBlend mode="normal" in="SourceGraphic" in2="effect1_dropShadow_33_5373" result="shape"/>
</filter>
<filter id="filter34_d_33_5373" x="301.656" y="284.581" width="13.0996" height="11.1172" filterUnits="userSpaceOnUse" color-interpolation-filters="sRGB">
<feFlood flood-opacity="0" result="BackgroundImageFix"/>
<feColorMatrix in="SourceAlpha" type="matrix" values="0 0 0 0 0 0 0 0 0 0 0 0 0 0 0 0 0 0 127 0" result="hardAlpha"/>
<feOffset dy="-1"/>
<feGaussianBlur stdDeviation="1.5"/>
<feComposite in2="hardAlpha" operator="out"/>
<feColorMatrix type="matrix" values="0 0 0 0 0 0 0 0 0 0 0 0 0 0 0 0 0 0 0.160784 0"/>
<feBlend mode="normal" in2="BackgroundImageFix" result="effect1_dropShadow_33_5373"/>
<feBlend mode="normal" in="SourceGraphic" in2="effect1_dropShadow_33_5373" result="shape"/>
</filter>
<filter id="filter35_d_33_5373" x="295.884" y="284.698" width="10.1504" height="11.1172" filterUnits="userSpaceOnUse" color-interpolation-filters="sRGB">
<feFlood flood-opacity="0" result="BackgroundImageFix"/>
<feColorMatrix in="SourceAlpha" type="matrix" values="0 0 0 0 0 0 0 0 0 0 0 0 0 0 0 0 0 0 127 0" result="hardAlpha"/>
<feOffset dy="-1"/>
<feGaussianBlur stdDeviation="1.5"/>
<feComposite in2="hardAlpha" operator="out"/>
<feColorMatrix type="matrix" values="0 0 0 0 0 0 0 0 0 0 0 0 0 0 0 0 0 0 0.160784 0"/>
<feBlend mode="normal" in2="BackgroundImageFix" result="effect1_dropShadow_33_5373"/>
<feBlend mode="normal" in="SourceGraphic" in2="effect1_dropShadow_33_5373" result="shape"/>
</filter>
<filter id="filter36_d_33_5373" x="291.216" y="282.696" width="9.55469" height="13.002" filterUnits="userSpaceOnUse" color-interpolation-filters="sRGB">
<feFlood flood-opacity="0" result="BackgroundImageFix"/>
<feColorMatrix in="SourceAlpha" type="matrix" values="0 0 0 0 0 0 0 0 0 0 0 0 0 0 0 0 0 0 127 0" result="hardAlpha"/>
<feOffset dy="-1"/>
<feGaussianBlur stdDeviation="1.5"/>
<feComposite in2="hardAlpha" operator="out"/>
<feColorMatrix type="matrix" values="0 0 0 0 0 0 0 0 0 0 0 0 0 0 0 0 0 0 0.160784 0"/>
<feBlend mode="normal" in2="BackgroundImageFix" result="effect1_dropShadow_33_5373"/>
<feBlend mode="normal" in="SourceGraphic" in2="effect1_dropShadow_33_5373" result="shape"/>
</filter>
<filter id="filter37_d_33_5373" x="382.94" y="206.584" width="34" height="76" filterUnits="userSpaceOnUse" color-interpolation-filters="sRGB">
<feFlood flood-opacity="0" result="BackgroundImageFix"/>
<feColorMatrix in="SourceAlpha" type="matrix" values="0 0 0 0 0 0 0 0 0 0 0 0 0 0 0 0 0 0 127 0" result="hardAlpha"/>
<feOffset dy="-1"/>
<feGaussianBlur stdDeviation="1.5"/>
<feComposite in2="hardAlpha" operator="out"/>
<feColorMatrix type="matrix" values="0 0 0 0 0 0 0 0 0 0 0 0 0 0 0 0 0 0 0.160784 0"/>
<feBlend mode="normal" in2="BackgroundImageFix" result="effect1_dropShadow_33_5373"/>
<feBlend mode="normal" in="SourceGraphic" in2="effect1_dropShadow_33_5373" result="shape"/>
</filter>
<filter id="filter38_d_33_5373" x="422.282" y="284.61" width="8.60742" height="11.0879" filterUnits="userSpaceOnUse" color-interpolation-filters="sRGB">
<feFlood flood-opacity="0" result="BackgroundImageFix"/>
<feColorMatrix in="SourceAlpha" type="matrix" values="0 0 0 0 0 0 0 0 0 0 0 0 0 0 0 0 0 0 127 0" result="hardAlpha"/>
<feOffset dy="-1"/>
<feGaussianBlur stdDeviation="1.5"/>
<feComposite in2="hardAlpha" operator="out"/>
<feColorMatrix type="matrix" values="0 0 0 0 0 0 0 0 0 0 0 0 0 0 0 0 0 0 0.160784 0"/>
<feBlend mode="normal" in2="BackgroundImageFix" result="effect1_dropShadow_33_5373"/>
<feBlend mode="normal" in="SourceGraphic" in2="effect1_dropShadow_33_5373" result="shape"/>
</filter>
<filter id="filter39_d_33_5373" x="416.706" y="284.581" width="10.3604" height="11.2344" filterUnits="userSpaceOnUse" color-interpolation-filters="sRGB">
<feFlood flood-opacity="0" result="BackgroundImageFix"/>
<feColorMatrix in="SourceAlpha" type="matrix" values="0 0 0 0 0 0 0 0 0 0 0 0 0 0 0 0 0 0 127 0" result="hardAlpha"/>
<feOffset dy="-1"/>
<feGaussianBlur stdDeviation="1.5"/>
<feComposite in2="hardAlpha" operator="out"/>
<feColorMatrix type="matrix" values="0 0 0 0 0 0 0 0 0 0 0 0 0 0 0 0 0 0 0.160784 0"/>
<feBlend mode="normal" in2="BackgroundImageFix" result="effect1_dropShadow_33_5373"/>
<feBlend mode="normal" in="SourceGraphic" in2="effect1_dropShadow_33_5373" result="shape"/>
</filter>
<filter id="filter40_d_33_5373" x="413.058" y="283.218" width="8.91992" height="12.5869" filterUnits="userSpaceOnUse" color-interpolation-filters="sRGB">
<feFlood flood-opacity="0" result="BackgroundImageFix"/>
<feColorMatrix in="SourceAlpha" type="matrix" values="0 0 0 0 0 0 0 0 0 0 0 0 0 0 0 0 0 0 127 0" result="hardAlpha"/>
<feOffset dy="-1"/>
<feGaussianBlur stdDeviation="1.5"/>
<feComposite in2="hardAlpha" operator="out"/>
<feColorMatrix type="matrix" values="0 0 0 0 0 0 0 0 0 0 0 0 0 0 0 0 0 0 0.160784 0"/>
<feBlend mode="normal" in2="BackgroundImageFix" result="effect1_dropShadow_33_5373"/>
<feBlend mode="normal" in="SourceGraphic" in2="effect1_dropShadow_33_5373" result="shape"/>
</filter>
<filter id="filter41_d_33_5373" x="409.669" y="283.218" width="8.91992" height="12.5869" filterUnits="userSpaceOnUse" color-interpolation-filters="sRGB">
<feFlood flood-opacity="0" result="BackgroundImageFix"/>
<feColorMatrix in="SourceAlpha" type="matrix" values="0 0 0 0 0 0 0 0 0 0 0 0 0 0 0 0 0 0 127 0" result="hardAlpha"/>
<feOffset dy="-1"/>
<feGaussianBlur stdDeviation="1.5"/>
<feComposite in2="hardAlpha" operator="out"/>
<feColorMatrix type="matrix" values="0 0 0 0 0 0 0 0 0 0 0 0 0 0 0 0 0 0 0.160784 0"/>
<feBlend mode="normal" in2="BackgroundImageFix" result="effect1_dropShadow_33_5373"/>
<feBlend mode="normal" in="SourceGraphic" in2="effect1_dropShadow_33_5373" result="shape"/>
</filter>
<filter id="filter42_d_33_5373" x="404.499" y="284.698" width="10.1504" height="11.1172" filterUnits="userSpaceOnUse" color-interpolation-filters="sRGB">
<feFlood flood-opacity="0" result="BackgroundImageFix"/>
<feColorMatrix in="SourceAlpha" type="matrix" values="0 0 0 0 0 0 0 0 0 0 0 0 0 0 0 0 0 0 127 0" result="hardAlpha"/>
<feOffset dy="-1"/>
<feGaussianBlur stdDeviation="1.5"/>
<feComposite in2="hardAlpha" operator="out"/>
<feColorMatrix type="matrix" values="0 0 0 0 0 0 0 0 0 0 0 0 0 0 0 0 0 0 0.160784 0"/>
<feBlend mode="normal" in2="BackgroundImageFix" result="effect1_dropShadow_33_5373"/>
<feBlend mode="normal" in="SourceGraphic" in2="effect1_dropShadow_33_5373" result="shape"/>
</filter>
<filter id="filter43_d_33_5373" x="398.063" y="282.579" width="11.2246" height="13.2363" filterUnits="userSpaceOnUse" color-interpolation-filters="sRGB">
<feFlood flood-opacity="0" result="BackgroundImageFix"/>
<feColorMatrix in="SourceAlpha" type="matrix" values="0 0 0 0 0 0 0 0 0 0 0 0 0 0 0 0 0 0 127 0" result="hardAlpha"/>
<feOffset dy="-1"/>
<feGaussianBlur stdDeviation="1.5"/>
<feComposite in2="hardAlpha" operator="out"/>
<feColorMatrix type="matrix" values="0 0 0 0 0 0 0 0 0 0 0 0 0 0 0 0 0 0 0.160784 0"/>
<feBlend mode="normal" in2="BackgroundImageFix" result="effect1_dropShadow_33_5373"/>
<feBlend mode="normal" in="SourceGraphic" in2="effect1_dropShadow_33_5373" result="shape"/>
</filter>
<filter id="filter44_d_33_5373" x="389.469" y="284.581" width="10.9219" height="11.2344" filterUnits="userSpaceOnUse" color-interpolation-filters="sRGB">
<feFlood flood-opacity="0" result="BackgroundImageFix"/>
<feColorMatrix in="SourceAlpha" type="matrix" values="0 0 0 0 0 0 0 0 0 0 0 0 0 0 0 0 0 0 127 0" result="hardAlpha"/>
<feOffset dy="-1"/>
<feGaussianBlur stdDeviation="1.5"/>
<feComposite in2="hardAlpha" operator="out"/>
<feColorMatrix type="matrix" values="0 0 0 0 0 0 0 0 0 0 0 0 0 0 0 0 0 0 0.160784 0"/>
<feBlend mode="normal" in2="BackgroundImageFix" result="effect1_dropShadow_33_5373"/>
<feBlend mode="normal" in="SourceGraphic" in2="effect1_dropShadow_33_5373" result="shape"/>
</filter>
<filter id="filter45_d_33_5373" x="384.147" y="282.295" width="10.1504" height="13.4023" filterUnits="userSpaceOnUse" color-interpolation-filters="sRGB">
<feFlood flood-opacity="0" result="BackgroundImageFix"/>
<feColorMatrix in="SourceAlpha" type="matrix" values="0 0 0 0 0 0 0 0 0 0 0 0 0 0 0 0 0 0 127 0" result="hardAlpha"/>
<feOffset dy="-1"/>
<feGaussianBlur stdDeviation="1.5"/>
<feComposite in2="hardAlpha" operator="out"/>
<feColorMatrix type="matrix" values="0 0 0 0 0 0 0 0 0 0 0 0 0 0 0 0 0 0 0.160784 0"/>
<feBlend mode="normal" in2="BackgroundImageFix" result="effect1_dropShadow_33_5373"/>
<feBlend mode="normal" in="SourceGraphic" in2="effect1_dropShadow_33_5373" result="shape"/>
</filter>
<filter id="filter46_d_33_5373" x="380.158" y="283.218" width="8.91992" height="12.5869" filterUnits="userSpaceOnUse" color-interpolation-filters="sRGB">
<feFlood flood-opacity="0" result="BackgroundImageFix"/>
<feColorMatrix in="SourceAlpha" type="matrix" values="0 0 0 0 0 0 0 0 0 0 0 0 0 0 0 0 0 0 127 0" result="hardAlpha"/>
<feOffset dy="-1"/>
<feGaussianBlur stdDeviation="1.5"/>
<feComposite in2="hardAlpha" operator="out"/>
<feColorMatrix type="matrix" values="0 0 0 0 0 0 0 0 0 0 0 0 0 0 0 0 0 0 0.160784 0"/>
<feBlend mode="normal" in2="BackgroundImageFix" result="effect1_dropShadow_33_5373"/>
<feBlend mode="normal" in="SourceGraphic" in2="effect1_dropShadow_33_5373" result="shape"/>
</filter>
<filter id="filter47_d_33_5373" x="377.282" y="284.61" width="8.60742" height="11.0879" filterUnits="userSpaceOnUse" color-interpolation-filters="sRGB">
<feFlood flood-opacity="0" result="BackgroundImageFix"/>
<feColorMatrix in="SourceAlpha" type="matrix" values="0 0 0 0 0 0 0 0 0 0 0 0 0 0 0 0 0 0 127 0" result="hardAlpha"/>
<feOffset dy="-1"/>
<feGaussianBlur stdDeviation="1.5"/>
<feComposite in2="hardAlpha" operator="out"/>
<feColorMatrix type="matrix" values="0 0 0 0 0 0 0 0 0 0 0 0 0 0 0 0 0 0 0.160784 0"/>
<feBlend mode="normal" in2="BackgroundImageFix" result="effect1_dropShadow_33_5373"/>
<feBlend mode="normal" in="SourceGraphic" in2="effect1_dropShadow_33_5373" result="shape"/>
</filter>
<filter id="filter48_d_33_5373" x="369.391" y="282.579" width="12.6211" height="13.2363" filterUnits="userSpaceOnUse" color-interpolation-filters="sRGB">
<feFlood flood-opacity="0" result="BackgroundImageFix"/>
<feColorMatrix in="SourceAlpha" type="matrix" values="0 0 0 0 0 0 0 0 0 0 0 0 0 0 0 0 0 0 127 0" result="hardAlpha"/>
<feOffset dy="-1"/>
<feGaussianBlur stdDeviation="1.5"/>
<feComposite in2="hardAlpha" operator="out"/>
<feColorMatrix type="matrix" values="0 0 0 0 0 0 0 0 0 0 0 0 0 0 0 0 0 0 0.160784 0"/>
<feBlend mode="normal" in2="BackgroundImageFix" result="effect1_dropShadow_33_5373"/>
<feBlend mode="normal" in="SourceGraphic" in2="effect1_dropShadow_33_5373" result="shape"/>
</filter>
<filter id="filter49_d_33_5373" x="466.94" y="93" width="34" height="189.698" filterUnits="userSpaceOnUse" color-interpolation-filters="sRGB">
<feFlood flood-opacity="0" result="BackgroundImageFix"/>
<feColorMatrix in="SourceAlpha" type="matrix" values="0 0 0 0 0 0 0 0 0 0 0 0 0 0 0 0 0 0 127 0" result="hardAlpha"/>
<feOffset dy="-1"/>
<feGaussianBlur stdDeviation="1.5"/>
<feComposite in2="hardAlpha" operator="out"/>
<feColorMatrix type="matrix" values="0 0 0 0 0 0 0 0 0 0 0 0 0 0 0 0 0 0 0.160784 0"/>
<feBlend mode="normal" in2="BackgroundImageFix" result="effect1_dropShadow_33_5373"/>
<feBlend mode="normal" in="SourceGraphic" in2="effect1_dropShadow_33_5373" result="shape"/>
</filter>
<filter id="filter50_d_33_5373" x="499.441" y="284.61" width="8.60742" height="11.0879" filterUnits="userSpaceOnUse" color-interpolation-filters="sRGB">
<feFlood flood-opacity="0" result="BackgroundImageFix"/>
<feColorMatrix in="SourceAlpha" type="matrix" values="0 0 0 0 0 0 0 0 0 0 0 0 0 0 0 0 0 0 127 0" result="hardAlpha"/>
<feOffset dy="-1"/>
<feGaussianBlur stdDeviation="1.5"/>
<feComposite in2="hardAlpha" operator="out"/>
<feColorMatrix type="matrix" values="0 0 0 0 0 0 0 0 0 0 0 0 0 0 0 0 0 0 0.160784 0"/>
<feBlend mode="normal" in2="BackgroundImageFix" result="effect1_dropShadow_33_5373"/>
<feBlend mode="normal" in="SourceGraphic" in2="effect1_dropShadow_33_5373" result="shape"/>
</filter>
<filter id="filter51_d_33_5373" x="493.865" y="284.581" width="10.3604" height="11.2344" filterUnits="userSpaceOnUse" color-interpolation-filters="sRGB">
<feFlood flood-opacity="0" result="BackgroundImageFix"/>
<feColorMatrix in="SourceAlpha" type="matrix" values="0 0 0 0 0 0 0 0 0 0 0 0 0 0 0 0 0 0 127 0" result="hardAlpha"/>
<feOffset dy="-1"/>
<feGaussianBlur stdDeviation="1.5"/>
<feComposite in2="hardAlpha" operator="out"/>
<feColorMatrix type="matrix" values="0 0 0 0 0 0 0 0 0 0 0 0 0 0 0 0 0 0 0.160784 0"/>
<feBlend mode="normal" in2="BackgroundImageFix" result="effect1_dropShadow_33_5373"/>
<feBlend mode="normal" in="SourceGraphic" in2="effect1_dropShadow_33_5373" result="shape"/>
</filter>
<filter id="filter52_d_33_5373" x="489.036" y="284.698" width="10.1357" height="11" filterUnits="userSpaceOnUse" color-interpolation-filters="sRGB">
<feFlood flood-opacity="0" result="BackgroundImageFix"/>
<feColorMatrix in="SourceAlpha" type="matrix" values="0 0 0 0 0 0 0 0 0 0 0 0 0 0 0 0 0 0 127 0" result="hardAlpha"/>
<feOffset dy="-1"/>
<feGaussianBlur stdDeviation="1.5"/>
<feComposite in2="hardAlpha" operator="out"/>
<feColorMatrix type="matrix" values="0 0 0 0 0 0 0 0 0 0 0 0 0 0 0 0 0 0 0.160784 0"/>
<feBlend mode="normal" in2="BackgroundImageFix" result="effect1_dropShadow_33_5373"/>
<feBlend mode="normal" in="SourceGraphic" in2="effect1_dropShadow_33_5373" result="shape"/>
</filter>
<filter id="filter53_d_33_5373" x="487.156" y="282.388" width="7.04492" height="13.3096" filterUnits="userSpaceOnUse" color-interpolation-filters="sRGB">
<feFlood flood-opacity="0" result="BackgroundImageFix"/>
<feColorMatrix in="SourceAlpha" type="matrix" values="0 0 0 0 0 0 0 0 0 0 0 0 0 0 0 0 0 0 127 0" result="hardAlpha"/>
<feOffset dy="-1"/>
<feGaussianBlur stdDeviation="1.5"/>
<feComposite in2="hardAlpha" operator="out"/>
<feColorMatrix type="matrix" values="0 0 0 0 0 0 0 0 0 0 0 0 0 0 0 0 0 0 0.160784 0"/>
<feBlend mode="normal" in2="BackgroundImageFix" result="effect1_dropShadow_33_5373"/>
<feBlend mode="normal" in="SourceGraphic" in2="effect1_dropShadow_33_5373" result="shape"/>
</filter>
<filter id="filter54_d_33_5373" x="484.841" y="282.295" width="6.80078" height="13.4023" filterUnits="userSpaceOnUse" color-interpolation-filters="sRGB">
<feFlood flood-opacity="0" result="BackgroundImageFix"/>
<feColorMatrix in="SourceAlpha" type="matrix" values="0 0 0 0 0 0 0 0 0 0 0 0 0 0 0 0 0 0 127 0" result="hardAlpha"/>
<feOffset dy="-1"/>
<feGaussianBlur stdDeviation="1.5"/>
<feComposite in2="hardAlpha" operator="out"/>
<feColorMatrix type="matrix" values="0 0 0 0 0 0 0 0 0 0 0 0 0 0 0 0 0 0 0.160784 0"/>
<feBlend mode="normal" in2="BackgroundImageFix" result="effect1_dropShadow_33_5373"/>
<feBlend mode="normal" in="SourceGraphic" in2="effect1_dropShadow_33_5373" result="shape"/>
</filter>
<filter id="filter55_d_33_5373" x="479.07" y="284.698" width="10.1504" height="11.1172" filterUnits="userSpaceOnUse" color-interpolation-filters="sRGB">
<feFlood flood-opacity="0" result="BackgroundImageFix"/>
<feColorMatrix in="SourceAlpha" type="matrix" values="0 0 0 0 0 0 0 0 0 0 0 0 0 0 0 0 0 0 127 0" result="hardAlpha"/>
<feOffset dy="-1"/>
<feGaussianBlur stdDeviation="1.5"/>
<feComposite in2="hardAlpha" operator="out"/>
<feColorMatrix type="matrix" values="0 0 0 0 0 0 0 0 0 0 0 0 0 0 0 0 0 0 0.160784 0"/>
<feBlend mode="normal" in2="BackgroundImageFix" result="effect1_dropShadow_33_5373"/>
<feBlend mode="normal" in="SourceGraphic" in2="effect1_dropShadow_33_5373" result="shape"/>
</filter>
<filter id="filter56_d_33_5373" x="473.298" y="282.295" width="10.5996" height="13.5195" filterUnits="userSpaceOnUse" color-interpolation-filters="sRGB">
<feFlood flood-opacity="0" result="BackgroundImageFix"/>
<feColorMatrix in="SourceAlpha" type="matrix" values="0 0 0 0 0 0 0 0 0 0 0 0 0 0 0 0 0 0 127 0" result="hardAlpha"/>
<feOffset dy="-1"/>
<feGaussianBlur stdDeviation="1.5"/>
<feComposite in2="hardAlpha" operator="out"/>
<feColorMatrix type="matrix" values="0 0 0 0 0 0 0 0 0 0 0 0 0 0 0 0 0 0 0.160784 0"/>
<feBlend mode="normal" in2="BackgroundImageFix" result="effect1_dropShadow_33_5373"/>
<feBlend mode="normal" in="SourceGraphic" in2="effect1_dropShadow_33_5373" result="shape"/>
</filter>
<filter id="filter57_d_33_5373" x="467.722" y="284.581" width="10.3604" height="11.2344" filterUnits="userSpaceOnUse" color-interpolation-filters="sRGB">
<feFlood flood-opacity="0" result="BackgroundImageFix"/>
<feColorMatrix in="SourceAlpha" type="matrix" values="0 0 0 0 0 0 0 0 0 0 0 0 0 0 0 0 0 0 127 0" result="hardAlpha"/>
<feOffset dy="-1"/>
<feGaussianBlur stdDeviation="1.5"/>
<feComposite in2="hardAlpha" operator="out"/>
<feColorMatrix type="matrix" values="0 0 0 0 0 0 0 0 0 0 0 0 0 0 0 0 0 0 0.160784 0"/>
<feBlend mode="normal" in2="BackgroundImageFix" result="effect1_dropShadow_33_5373"/>
<feBlend mode="normal" in="SourceGraphic" in2="effect1_dropShadow_33_5373" result="shape"/>
</filter>
<filter id="filter58_d_33_5373" x="460.691" y="282.696" width="11.6445" height="13.002" filterUnits="userSpaceOnUse" color-interpolation-filters="sRGB">
<feFlood flood-opacity="0" result="BackgroundImageFix"/>
<feColorMatrix in="SourceAlpha" type="matrix" values="0 0 0 0 0 0 0 0 0 0 0 0 0 0 0 0 0 0 127 0" result="hardAlpha"/>
<feOffset dy="-1"/>
<feGaussianBlur stdDeviation="1.5"/>
<feComposite in2="hardAlpha" operator="out"/>
<feColorMatrix type="matrix" values="0 0 0 0 0 0 0 0 0 0 0 0 0 0 0 0 0 0 0.160784 0"/>
<feBlend mode="normal" in2="BackgroundImageFix" result="effect1_dropShadow_33_5373"/>
<feBlend mode="normal" in="SourceGraphic" in2="effect1_dropShadow_33_5373" result="shape"/>
</filter>
</defs>
</svg>
