<svg width="1116" height="304" viewBox="0 0 1116 304" fill="none" xmlns="http://www.w3.org/2000/svg">
<g filter="url(#filter0_d_14_5183)">
<circle cx="872.5" cy="9" r="4.5" fill="#2537D3"/>
</g>
<path d="M884.193 14V4.89746H886.707C889.915 4.89746 891.519 6.37646 891.519 9.33447C891.519 10.7394 891.072 11.8693 890.179 12.7241C889.291 13.5747 888.099 14 886.605 14H884.193ZM885.26 5.8623V13.0352H886.618C887.812 13.0352 888.74 12.7157 889.405 12.0767C890.069 11.4377 890.401 10.5321 890.401 9.35986C890.401 7.02816 889.161 5.8623 886.682 5.8623H885.26ZM893.702 5.84961C893.516 5.84961 893.357 5.78613 893.226 5.65918C893.095 5.53223 893.029 5.37142 893.029 5.17676C893.029 4.9821 893.095 4.82129 893.226 4.69434C893.357 4.56315 893.516 4.49756 893.702 4.49756C893.893 4.49756 894.053 4.56315 894.185 4.69434C894.32 4.82129 894.388 4.9821 894.388 5.17676C894.388 5.36296 894.32 5.52165 894.185 5.65283C894.053 5.78402 893.893 5.84961 893.702 5.84961ZM894.21 14H893.169V7.5H894.21V14ZM900.97 14H899.929V12.9844H899.904C899.451 13.763 898.785 14.1523 897.904 14.1523C897.257 14.1523 896.749 13.981 896.381 13.6382C896.017 13.2954 895.835 12.8405 895.835 12.2734C895.835 11.0589 896.55 10.3522 897.98 10.1533L899.929 9.88037C899.929 8.77588 899.483 8.22363 898.59 8.22363C897.807 8.22363 897.1 8.49023 896.47 9.02344V7.95703C897.109 7.55078 897.845 7.34766 898.679 7.34766C900.206 7.34766 900.97 8.15592 900.97 9.77246V14ZM899.929 10.7119L898.361 10.9277C897.879 10.9954 897.515 11.116 897.27 11.2896C897.024 11.4588 896.901 11.7614 896.901 12.1973C896.901 12.5146 897.014 12.7749 897.238 12.978C897.466 13.1769 897.769 13.2764 898.146 13.2764C898.662 13.2764 899.087 13.0965 899.421 12.7368C899.76 12.3729 899.929 11.9137 899.929 11.3594V10.7119ZM908.479 13.4795C908.479 15.8662 907.337 17.0596 905.052 17.0596C904.248 17.0596 903.545 16.9072 902.944 16.6025V15.5615C903.676 15.9678 904.375 16.1709 905.039 16.1709C906.639 16.1709 907.438 15.3203 907.438 13.6191V12.9082H907.413C906.918 13.7376 906.173 14.1523 905.179 14.1523C904.37 14.1523 903.719 13.8646 903.224 13.2891C902.733 12.7093 902.487 11.9328 902.487 10.9595C902.487 9.85498 902.752 8.97689 903.281 8.3252C903.814 7.6735 904.542 7.34766 905.464 7.34766C906.34 7.34766 906.99 7.69889 907.413 8.40137H907.438V7.5H908.479V13.4795ZM907.438 11.061V10.1025C907.438 9.58626 907.263 9.14404 906.912 8.77588C906.565 8.40771 906.131 8.22363 905.61 8.22363C904.967 8.22363 904.464 8.4585 904.1 8.92822C903.736 9.39372 903.554 10.0475 903.554 10.8896C903.554 11.6133 903.727 12.193 904.074 12.6289C904.425 13.0605 904.889 13.2764 905.464 13.2764C906.048 13.2764 906.522 13.069 906.886 12.6543C907.254 12.2396 907.438 11.7085 907.438 11.061ZM915.982 14H914.941V10.293C914.941 8.91341 914.438 8.22363 913.431 8.22363C912.91 8.22363 912.479 8.42041 912.136 8.81396C911.797 9.20329 911.628 9.69629 911.628 10.293V14H910.587V7.5H911.628V8.5791H911.653C912.144 7.75814 912.855 7.34766 913.786 7.34766C914.497 7.34766 915.041 7.57829 915.417 8.03955C915.794 8.49658 915.982 9.15885 915.982 10.0264V14ZM920.667 14.1523C919.706 14.1523 918.938 13.8498 918.363 13.2446C917.792 12.6353 917.506 11.8291 917.506 10.8262C917.506 9.73438 917.804 8.88167 918.401 8.26807C918.998 7.65446 919.804 7.34766 920.819 7.34766C921.788 7.34766 922.544 7.646 923.085 8.24268C923.631 8.83936 923.904 9.66667 923.904 10.7246C923.904 11.7614 923.61 12.5929 923.022 13.2192C922.438 13.8413 921.653 14.1523 920.667 14.1523ZM920.743 8.22363C920.075 8.22363 919.546 8.45215 919.156 8.90918C918.767 9.36198 918.572 9.98828 918.572 10.7881C918.572 11.5583 918.769 12.1655 919.163 12.6099C919.556 13.0542 920.083 13.2764 920.743 13.2764C921.416 13.2764 921.932 13.0584 922.292 12.6226C922.656 12.1867 922.838 11.5667 922.838 10.7627C922.838 9.9502 922.656 9.32389 922.292 8.88379C921.932 8.44368 921.416 8.22363 920.743 8.22363ZM925.174 13.7651V12.6479C925.741 13.0669 926.365 13.2764 927.046 13.2764C927.96 13.2764 928.417 12.9717 928.417 12.3623C928.417 12.1888 928.377 12.0428 928.297 11.9243C928.221 11.8016 928.115 11.6937 927.979 11.6006C927.848 11.5075 927.692 11.425 927.51 11.353C927.332 11.2769 927.139 11.1986 926.932 11.1182C926.644 11.0039 926.39 10.8896 926.17 10.7754C925.955 10.6569 925.773 10.5257 925.625 10.3818C925.481 10.2337 925.371 10.0666 925.294 9.88037C925.222 9.69417 925.187 9.47624 925.187 9.22656C925.187 8.92188 925.256 8.65316 925.396 8.42041C925.536 8.18343 925.722 7.98665 925.955 7.83008C926.187 7.66927 926.452 7.54867 926.748 7.46826C927.049 7.38786 927.357 7.34766 927.675 7.34766C928.238 7.34766 928.741 7.44499 929.186 7.63965V8.69336C928.707 8.38021 928.157 8.22363 927.535 8.22363C927.34 8.22363 927.165 8.24691 927.008 8.29346C926.852 8.33577 926.716 8.39714 926.602 8.47754C926.492 8.55794 926.405 8.65527 926.342 8.76953C926.283 8.87956 926.253 9.00228 926.253 9.1377C926.253 9.30697 926.283 9.44873 926.342 9.56299C926.405 9.67725 926.496 9.77881 926.615 9.86768C926.733 9.95654 926.877 10.0369 927.046 10.1089C927.216 10.1808 927.408 10.2591 927.624 10.3438C927.912 10.4538 928.17 10.568 928.398 10.6865C928.627 10.8008 928.822 10.932 928.982 11.0801C929.143 11.224 929.266 11.3911 929.351 11.5815C929.439 11.772 929.484 11.9984 929.484 12.2607C929.484 12.5824 929.412 12.8617 929.268 13.0986C929.128 13.3356 928.94 13.5324 928.703 13.689C928.466 13.8455 928.193 13.9619 927.884 14.0381C927.575 14.1143 927.252 14.1523 926.913 14.1523C926.244 14.1523 925.665 14.0233 925.174 13.7651ZM934.105 13.9365C933.86 14.0719 933.536 14.1396 933.134 14.1396C931.995 14.1396 931.426 13.5049 931.426 12.2354V8.38867H930.309V7.5H931.426V5.91309L932.467 5.57666V7.5H934.105V8.38867H932.467V12.0513C932.467 12.4871 932.541 12.7982 932.689 12.9844C932.838 13.1706 933.083 13.2637 933.426 13.2637C933.688 13.2637 933.915 13.1917 934.105 13.0479V13.9365ZM936.028 5.84961C935.842 5.84961 935.683 5.78613 935.552 5.65918C935.421 5.53223 935.355 5.37142 935.355 5.17676C935.355 4.9821 935.421 4.82129 935.552 4.69434C935.683 4.56315 935.842 4.49756 936.028 4.49756C936.219 4.49756 936.38 4.56315 936.511 4.69434C936.646 4.82129 936.714 4.9821 936.714 5.17676C936.714 5.36296 936.646 5.52165 936.511 5.65283C936.38 5.78402 936.219 5.84961 936.028 5.84961ZM936.536 14H935.495V7.5H936.536V14ZM943.074 13.7017C942.575 14.0021 941.982 14.1523 941.297 14.1523C940.37 14.1523 939.621 13.8519 939.05 13.251C938.483 12.6458 938.199 11.863 938.199 10.9023C938.199 9.83171 938.506 8.97266 939.12 8.3252C939.733 7.6735 940.552 7.34766 941.576 7.34766C942.147 7.34766 942.651 7.45345 943.087 7.66504V8.73145C942.604 8.3929 942.088 8.22363 941.538 8.22363C940.874 8.22363 940.328 8.46273 939.9 8.94092C939.477 9.41488 939.266 10.0391 939.266 10.8135C939.266 11.5752 939.465 12.1761 939.862 12.6162C940.264 13.0563 940.802 13.2764 941.475 13.2764C942.042 13.2764 942.575 13.0881 943.074 12.7114V13.7017Z" fill="black"/>
<g filter="url(#filter1_d_14_5183)">
<circle cx="960.5" cy="9" r="4.5" fill="#2C0857"/>
</g>
<path d="M971.768 13.6318V12.375C971.912 12.502 972.083 12.6162 972.282 12.7178C972.485 12.8193 972.697 12.9061 972.917 12.978C973.141 13.0457 973.366 13.0986 973.59 13.1367C973.814 13.1748 974.021 13.1938 974.212 13.1938C974.868 13.1938 975.357 13.0732 975.678 12.832C976.004 12.5866 976.167 12.2354 976.167 11.7783C976.167 11.5329 976.112 11.3192 976.002 11.1372C975.896 10.9552 975.748 10.7902 975.558 10.6421C975.367 10.4897 975.141 10.3459 974.878 10.2104C974.62 10.0708 974.341 9.9248 974.041 9.77246C973.723 9.61165 973.427 9.44873 973.152 9.28369C972.877 9.11865 972.638 8.93669 972.435 8.73779C972.231 8.5389 972.071 8.31462 971.952 8.06494C971.838 7.81104 971.781 7.51481 971.781 7.17627C971.781 6.76156 971.872 6.40186 972.054 6.09717C972.236 5.78825 972.475 5.53434 972.771 5.33545C973.067 5.13656 973.404 4.98844 973.78 4.89111C974.161 4.79378 974.548 4.74512 974.942 4.74512C975.839 4.74512 976.493 4.85303 976.903 5.06885V6.26855C976.366 5.89616 975.676 5.70996 974.834 5.70996C974.601 5.70996 974.368 5.73535 974.136 5.78613C973.903 5.83268 973.696 5.91097 973.514 6.021C973.332 6.13102 973.184 6.27279 973.069 6.44629C972.955 6.61979 972.898 6.83138 972.898 7.08105C972.898 7.3138 972.94 7.51481 973.025 7.68408C973.114 7.85335 973.243 8.00781 973.412 8.14746C973.581 8.28711 973.787 8.42253 974.028 8.55371C974.273 8.6849 974.555 8.82878 974.872 8.98535C975.198 9.14616 975.507 9.31543 975.799 9.49316C976.091 9.6709 976.347 9.86768 976.567 10.0835C976.787 10.2993 976.96 10.5384 977.087 10.8008C977.219 11.0632 977.284 11.3636 977.284 11.7021C977.284 12.1507 977.195 12.5316 977.018 12.8447C976.844 13.1536 976.607 13.4054 976.307 13.6001C976.01 13.7948 975.668 13.9344 975.278 14.019C974.889 14.1079 974.479 14.1523 974.047 14.1523C973.903 14.1523 973.725 14.1396 973.514 14.1143C973.302 14.0931 973.086 14.0592 972.866 14.0127C972.646 13.9704 972.437 13.9175 972.238 13.854C972.043 13.7863 971.887 13.7122 971.768 13.6318ZM984.216 14H983.175V12.9717H983.149C982.718 13.7588 982.049 14.1523 981.144 14.1523C979.595 14.1523 978.82 13.2298 978.82 11.3848V7.5H979.855V11.2197C979.855 12.5908 980.38 13.2764 981.429 13.2764C981.937 13.2764 982.354 13.0902 982.68 12.7178C983.01 12.3411 983.175 11.8503 983.175 11.2451V7.5H984.216V14ZM989.713 8.55371C989.531 8.41406 989.269 8.34424 988.926 8.34424C988.481 8.34424 988.109 8.55371 987.809 8.97266C987.512 9.3916 987.364 9.96289 987.364 10.6865V14H986.323V7.5H987.364V8.83936H987.39C987.538 8.38232 987.764 8.02686 988.069 7.77295C988.374 7.51481 988.714 7.38574 989.091 7.38574C989.362 7.38574 989.569 7.41536 989.713 7.47461V8.55371ZM996.391 13.4795C996.391 15.8662 995.248 17.0596 992.963 17.0596C992.159 17.0596 991.456 16.9072 990.855 16.6025V15.5615C991.588 15.9678 992.286 16.1709 992.95 16.1709C994.55 16.1709 995.35 15.3203 995.35 13.6191V12.9082H995.324C994.829 13.7376 994.084 14.1523 993.09 14.1523C992.282 14.1523 991.63 13.8646 991.135 13.2891C990.644 12.7093 990.398 11.9328 990.398 10.9595C990.398 9.85498 990.663 8.97689 991.192 8.3252C991.725 7.6735 992.453 7.34766 993.375 7.34766C994.251 7.34766 994.901 7.69889 995.324 8.40137H995.35V7.5H996.391V13.4795ZM995.35 11.061V10.1025C995.35 9.58626 995.174 9.14404 994.823 8.77588C994.476 8.40771 994.042 8.22363 993.521 8.22363C992.878 8.22363 992.375 8.4585 992.011 8.92822C991.647 9.39372 991.465 10.0475 991.465 10.8896C991.465 11.6133 991.638 12.193 991.985 12.6289C992.337 13.0605 992.8 13.2764 993.375 13.2764C993.959 13.2764 994.433 13.069 994.797 12.6543C995.166 12.2396 995.35 11.7085 995.35 11.061ZM999.031 5.84961C998.845 5.84961 998.686 5.78613 998.555 5.65918C998.424 5.53223 998.358 5.37142 998.358 5.17676C998.358 4.9821 998.424 4.82129 998.555 4.69434C998.686 4.56315 998.845 4.49756 999.031 4.49756C999.222 4.49756 999.382 4.56315 999.514 4.69434C999.649 4.82129 999.717 4.9821 999.717 5.17676C999.717 5.36296 999.649 5.52165 999.514 5.65283C999.382 5.78402 999.222 5.84961 999.031 5.84961ZM999.539 14H998.498V7.5H999.539V14ZM1006.08 13.7017C1005.58 14.0021 1004.99 14.1523 1004.3 14.1523C1003.37 14.1523 1002.62 13.8519 1002.05 13.251C1001.49 12.6458 1001.2 11.863 1001.2 10.9023C1001.2 9.83171 1001.51 8.97266 1002.12 8.3252C1002.74 7.6735 1003.56 7.34766 1004.58 7.34766C1005.15 7.34766 1005.65 7.45345 1006.09 7.66504V8.73145C1005.61 8.3929 1005.09 8.22363 1004.54 8.22363C1003.88 8.22363 1003.33 8.46273 1002.9 8.94092C1002.48 9.41488 1002.27 10.0391 1002.27 10.8135C1002.27 11.5752 1002.47 12.1761 1002.87 12.6162C1003.27 13.0563 1003.8 13.2764 1004.48 13.2764C1005.04 13.2764 1005.58 13.0881 1006.08 12.7114V13.7017ZM1012.3 14H1011.26V12.9844H1011.24C1010.78 13.763 1010.12 14.1523 1009.24 14.1523C1008.59 14.1523 1008.08 13.981 1007.71 13.6382C1007.35 13.2954 1007.17 12.8405 1007.17 12.2734C1007.17 11.0589 1007.88 10.3522 1009.31 10.1533L1011.26 9.88037C1011.26 8.77588 1010.82 8.22363 1009.92 8.22363C1009.14 8.22363 1008.43 8.49023 1007.8 9.02344V7.95703C1008.44 7.55078 1009.18 7.34766 1010.01 7.34766C1011.54 7.34766 1012.3 8.15592 1012.3 9.77246V14ZM1011.26 10.7119L1009.7 10.9277C1009.21 10.9954 1008.85 11.116 1008.6 11.2896C1008.36 11.4588 1008.24 11.7614 1008.24 12.1973C1008.24 12.5146 1008.35 12.7749 1008.57 12.978C1008.8 13.1769 1009.1 13.2764 1009.48 13.2764C1010 13.2764 1010.42 13.0965 1010.76 12.7368C1011.09 12.3729 1011.26 11.9137 1011.26 11.3594V10.7119ZM1015.31 14H1014.27V4.37695H1015.31V14Z" fill="black"/>
<g filter="url(#filter2_d_14_5183)">
<circle cx="1033.5" cy="9" r="4.5" fill="#ADA004"/>
</g>
<path d="M1050.58 5.8623H1047.95V14H1046.88V5.8623H1044.26V4.89746H1050.58V5.8623ZM1057.27 14H1056.23V10.2549C1056.23 8.90072 1055.72 8.22363 1054.71 8.22363C1054.21 8.22363 1053.78 8.42041 1053.43 8.81396C1053.09 9.20329 1052.91 9.70475 1052.91 10.3184V14H1051.87V4.37695H1052.91V8.5791H1052.94C1053.44 7.75814 1054.15 7.34766 1055.07 7.34766C1056.53 7.34766 1057.27 8.22998 1057.27 9.99463V14ZM1064.46 11.0103H1059.87C1059.89 11.7339 1060.08 12.2925 1060.45 12.686C1060.83 13.0796 1061.34 13.2764 1061.99 13.2764C1062.72 13.2764 1063.39 13.0352 1064.01 12.5527V13.5303C1063.44 13.945 1062.68 14.1523 1061.74 14.1523C1060.82 14.1523 1060.1 13.8582 1059.58 13.27C1059.05 12.6776 1058.79 11.846 1058.79 10.7754C1058.79 9.764 1059.08 8.94092 1059.65 8.30615C1060.22 7.66715 1060.94 7.34766 1061.79 7.34766C1062.64 7.34766 1063.29 7.62272 1063.76 8.17285C1064.23 8.72298 1064.46 9.48682 1064.46 10.4644V11.0103ZM1063.39 10.1279C1063.39 9.52702 1063.24 9.05941 1062.95 8.7251C1062.67 8.39079 1062.27 8.22363 1061.77 8.22363C1061.28 8.22363 1060.86 8.39925 1060.52 8.75049C1060.17 9.10173 1059.96 9.56087 1059.88 10.1279H1063.39ZM1069.43 8.55371C1069.25 8.41406 1068.98 8.34424 1068.64 8.34424C1068.2 8.34424 1067.82 8.55371 1067.52 8.97266C1067.23 9.3916 1067.08 9.96289 1067.08 10.6865V14H1066.04V7.5H1067.08V8.83936H1067.11C1067.25 8.38232 1067.48 8.02686 1067.78 7.77295C1068.09 7.51481 1068.43 7.38574 1068.81 7.38574C1069.08 7.38574 1069.28 7.41536 1069.43 7.47461V8.55371ZM1075.21 14H1074.17V12.9844H1074.15C1073.69 13.763 1073.03 14.1523 1072.15 14.1523C1071.5 14.1523 1070.99 13.981 1070.62 13.6382C1070.26 13.2954 1070.08 12.8405 1070.08 12.2734C1070.08 11.0589 1070.79 10.3522 1072.22 10.1533L1074.17 9.88037C1074.17 8.77588 1073.72 8.22363 1072.83 8.22363C1072.05 8.22363 1071.34 8.49023 1070.71 9.02344V7.95703C1071.35 7.55078 1072.09 7.34766 1072.92 7.34766C1074.45 7.34766 1075.21 8.15592 1075.21 9.77246V14ZM1074.17 10.7119L1072.6 10.9277C1072.12 10.9954 1071.76 11.116 1071.51 11.2896C1071.27 11.4588 1071.14 11.7614 1071.14 12.1973C1071.14 12.5146 1071.25 12.7749 1071.48 12.978C1071.71 13.1769 1072.01 13.2764 1072.39 13.2764C1072.9 13.2764 1073.33 13.0965 1073.66 12.7368C1074 12.3729 1074.17 11.9137 1074.17 11.3594V10.7119ZM1078.24 13.0605H1078.21V16.9897H1077.17V7.5H1078.21V8.64258H1078.24C1078.75 7.7793 1079.5 7.34766 1080.49 7.34766C1081.32 7.34766 1081.98 7.63965 1082.45 8.22363C1082.92 8.80339 1083.15 9.58203 1083.15 10.5596C1083.15 11.6471 1082.89 12.5189 1082.36 13.1748C1081.83 13.8265 1081.11 14.1523 1080.19 14.1523C1079.35 14.1523 1078.7 13.7884 1078.24 13.0605ZM1078.21 10.439V11.3467C1078.21 11.8841 1078.39 12.3411 1078.73 12.7178C1079.09 13.0902 1079.53 13.2764 1080.07 13.2764C1080.7 13.2764 1081.19 13.0352 1081.55 12.5527C1081.91 12.0703 1082.09 11.3996 1082.09 10.5405C1082.09 9.81689 1081.92 9.24984 1081.58 8.83936C1081.25 8.42887 1080.8 8.22363 1080.23 8.22363C1079.62 8.22363 1079.13 8.43522 1078.77 8.8584C1078.4 9.27734 1078.21 9.8042 1078.21 10.439ZM1090.04 11.0103H1085.45C1085.47 11.7339 1085.66 12.2925 1086.03 12.686C1086.41 13.0796 1086.92 13.2764 1087.57 13.2764C1088.3 13.2764 1088.98 13.0352 1089.59 12.5527V13.5303C1089.02 13.945 1088.26 14.1523 1087.32 14.1523C1086.4 14.1523 1085.68 13.8582 1085.16 13.27C1084.63 12.6776 1084.37 11.846 1084.37 10.7754C1084.37 9.764 1084.66 8.94092 1085.23 8.30615C1085.8 7.66715 1086.52 7.34766 1087.37 7.34766C1088.22 7.34766 1088.88 7.62272 1089.34 8.17285C1089.81 8.72298 1090.04 9.48682 1090.04 10.4644V11.0103ZM1088.97 10.1279C1088.97 9.52702 1088.82 9.05941 1088.54 8.7251C1088.25 8.39079 1087.86 8.22363 1087.35 8.22363C1086.86 8.22363 1086.44 8.39925 1086.1 8.75049C1085.75 9.10173 1085.54 9.56087 1085.46 10.1279H1088.97ZM1096.88 14H1095.83V12.9717H1095.81C1095.38 13.7588 1094.71 14.1523 1093.8 14.1523C1092.25 14.1523 1091.48 13.2298 1091.48 11.3848V7.5H1092.52V11.2197C1092.52 12.5908 1093.04 13.2764 1094.09 13.2764C1094.6 13.2764 1095.01 13.0902 1095.34 12.7178C1095.67 12.3411 1095.83 11.8503 1095.83 11.2451V7.5H1096.88V14ZM1102 13.9365C1101.75 14.0719 1101.43 14.1396 1101.03 14.1396C1099.89 14.1396 1099.32 13.5049 1099.32 12.2354V8.38867H1098.2V7.5H1099.32V5.91309L1100.36 5.57666V7.5H1102V8.38867H1100.36V12.0513C1100.36 12.4871 1100.43 12.7982 1100.58 12.9844C1100.73 13.1706 1100.98 13.2637 1101.32 13.2637C1101.58 13.2637 1101.81 13.1917 1102 13.0479V13.9365ZM1103.92 5.84961C1103.74 5.84961 1103.58 5.78613 1103.45 5.65918C1103.31 5.53223 1103.25 5.37142 1103.25 5.17676C1103.25 4.9821 1103.31 4.82129 1103.45 4.69434C1103.58 4.56315 1103.74 4.49756 1103.92 4.49756C1104.11 4.49756 1104.27 4.56315 1104.4 4.69434C1104.54 4.82129 1104.61 4.9821 1104.61 5.17676C1104.61 5.36296 1104.54 5.52165 1104.4 5.65283C1104.27 5.78402 1104.11 5.84961 1103.92 5.84961ZM1104.43 14H1103.39V7.5H1104.43V14ZM1110.97 13.7017C1110.47 14.0021 1109.88 14.1523 1109.19 14.1523C1108.26 14.1523 1107.51 13.8519 1106.94 13.251C1106.38 12.6458 1106.09 11.863 1106.09 10.9023C1106.09 9.83171 1106.4 8.97266 1107.01 8.3252C1107.63 7.6735 1108.45 7.34766 1109.47 7.34766C1110.04 7.34766 1110.54 7.45345 1110.98 7.66504V8.73145C1110.5 8.3929 1109.98 8.22363 1109.43 8.22363C1108.77 8.22363 1108.22 8.46273 1107.79 8.94092C1107.37 9.41488 1107.16 10.0391 1107.16 10.8135C1107.16 11.5752 1107.36 12.1761 1107.76 12.6162C1108.16 13.0563 1108.7 13.2764 1109.37 13.2764C1109.94 13.2764 1110.47 13.0881 1110.97 12.7114V13.7017Z" fill="black"/>
<path d="M36 290V288.962V22H38.3711V35.6753H1099.73V36.7132H38.3711V98.9977H1099.73V100.036H38.3711V162.319H1099.73V163.357H38.3711V225.641H1099.73V226.679H38.3711V288.962H1101V290H36Z" fill="#E5E8EA"/>
<path opacity="0.652749" d="M18.0342 288.498C16.7542 288.498 15.9842 287.308 15.9842 285.168C15.9842 283.028 16.7542 281.878 18.0342 281.878C19.3042 281.878 20.0742 283.028 20.0742 285.168C20.0742 287.308 19.3042 288.498 18.0342 288.498ZM18.0342 287.828C18.7742 287.828 19.2742 287.038 19.2742 285.168C19.2742 283.298 18.7742 282.548 18.0342 282.548C17.2942 282.548 16.7942 283.298 16.7942 285.168C16.7942 287.038 17.2942 287.828 18.0342 287.828Z" fill="#373650"/>
<path opacity="0.652749" d="M14.0091 227.863C12.7291 227.863 11.9591 226.673 11.9591 224.533C11.9591 222.393 12.7291 221.243 14.0091 221.243C15.2791 221.243 16.0491 222.393 16.0491 224.533C16.0491 226.673 15.2791 227.863 14.0091 227.863ZM14.0091 227.193C14.7491 227.193 15.2492 226.403 15.2492 224.533C15.2492 222.663 14.7491 221.913 14.0091 221.913C13.2691 221.913 12.7691 222.663 12.7691 224.533C12.7691 226.403 13.2691 227.193 14.0091 227.193ZM16.8899 227.743V227.233C18.7899 225.373 19.8899 224.193 19.8899 223.163C19.8899 222.433 19.4899 221.923 18.6799 221.923C18.1499 221.923 17.6899 222.263 17.3299 222.683L16.8599 222.233C17.3899 221.633 17.9599 221.243 18.7799 221.243C19.9599 221.243 20.6999 221.993 20.6999 223.113C20.6999 224.353 19.5799 225.503 18.0299 227.083C18.3799 227.053 18.7699 227.033 19.0999 227.033H21.0099V227.743H16.8899Z" fill="#373650"/>
<path opacity="0.652749" d="M14.0091 165.496C12.7291 165.496 11.9591 164.306 11.9591 162.166C11.9591 160.026 12.7291 158.876 14.0091 158.876C15.2791 158.876 16.0491 160.026 16.0491 162.166C16.0491 164.306 15.2791 165.496 14.0091 165.496ZM14.0091 164.826C14.7491 164.826 15.2492 164.036 15.2492 162.166C15.2492 160.296 14.7491 159.546 14.0091 159.546C13.2691 159.546 12.7691 160.296 12.7691 162.166C12.7691 164.036 13.2691 164.826 14.0091 164.826ZM17.5299 162.956H19.5299V161.106C19.5299 160.776 19.5599 160.226 19.5799 159.886H19.5399C19.3799 160.186 19.1999 160.466 19.0199 160.786L17.5299 162.956ZM19.5299 165.376V163.616H16.6599V163.066L19.3899 158.996H20.3099V162.956H21.1799V163.616H20.3099V165.376H19.5299Z" fill="#373650"/>
<path opacity="0.652749" d="M14.0091 102.132C12.7291 102.132 11.9591 100.942 11.9591 98.8017C11.9591 96.6617 12.7291 95.5117 14.0091 95.5117C15.2791 95.5117 16.0491 96.6617 16.0491 98.8017C16.0491 100.942 15.2791 102.132 14.0091 102.132ZM14.0091 101.462C14.7491 101.462 15.2492 100.672 15.2492 98.8017C15.2492 96.9317 14.7491 96.1817 14.0091 96.1817C13.2691 96.1817 12.7691 96.9317 12.7691 98.8017C12.7691 100.672 13.2691 101.462 14.0091 101.462ZM19.0999 98.7317C18.6899 98.7317 18.1699 98.9817 17.7699 99.5817C17.8799 100.822 18.3699 101.482 19.1699 101.482C19.7999 101.482 20.2799 100.922 20.2799 100.082C20.2799 99.2517 19.8899 98.7317 19.0999 98.7317ZM19.1699 102.132C17.9199 102.132 16.9699 101.112 16.9699 99.0617C16.9699 96.5017 18.1299 95.5117 19.3999 95.5117C20.0899 95.5117 20.5899 95.8017 20.9399 96.1917L20.4799 96.7117C20.2299 96.4017 19.8299 96.2017 19.4299 96.2017C18.5399 96.2017 17.7799 96.9017 17.7499 98.9317C18.1499 98.4317 18.7199 98.1117 19.2399 98.1117C20.3499 98.1117 21.0599 98.7717 21.0599 100.082C21.0599 101.302 20.1999 102.132 19.1699 102.132Z" fill="#373650"/>
<path opacity="0.652749" d="M14.0091 37.7675C12.7291 37.7675 11.9591 36.5775 11.9591 34.4375C11.9591 32.2975 12.7291 31.1475 14.0091 31.1475C15.2791 31.1475 16.0491 32.2975 16.0491 34.4375C16.0491 36.5775 15.2791 37.7675 14.0091 37.7675ZM14.0091 37.0975C14.7491 37.0975 15.2492 36.3075 15.2492 34.4375C15.2492 32.5675 14.7491 31.8175 14.0091 31.8175C13.2691 31.8175 12.7691 32.5675 12.7691 34.4375C12.7691 36.3075 13.2691 37.0975 14.0091 37.0975ZM18.9899 37.7675C17.7899 37.7675 16.8999 37.0275 16.8999 36.0175C16.8999 35.1875 17.4999 34.6175 18.0999 34.2975V34.2575C17.6299 33.9275 17.2099 33.4575 17.2099 32.7875C17.2099 31.8075 17.9899 31.1475 19.0199 31.1475C20.1299 31.1475 20.8199 31.8575 20.8199 32.8475C20.8199 33.5175 20.3399 34.0875 19.9399 34.3875V34.4275C20.5099 34.7575 21.0499 35.2075 21.0499 36.0675C21.0499 37.0175 20.2299 37.7675 18.9899 37.7675ZM19.4399 34.1675C19.8699 33.7875 20.1099 33.3575 20.1099 32.8875C20.1099 32.2675 19.6999 31.7675 18.9999 31.7675C18.4099 31.7675 17.9699 32.1675 17.9699 32.7875C17.9699 33.5475 18.6699 33.8675 19.4399 34.1675ZM19.0099 37.1475C19.7499 37.1475 20.2599 36.6975 20.2599 36.0375C20.2599 35.2175 19.4499 34.9275 18.5299 34.5575C18.0299 34.8875 17.6499 35.3575 17.6499 35.9375C17.6499 36.6375 18.2299 37.1475 19.0099 37.1475Z" fill="#373650"/>
<g filter="url(#filter3_d_14_5183)">
<path d="M100.206 298.61C100.206 300.576 99.3188 301.559 97.5447 301.559C95.8455 301.559 94.9959 300.613 94.9959 298.722V294.44H95.8162V298.668C95.8162 300.104 96.4216 300.822 97.6326 300.822C98.8012 300.822 99.3855 300.128 99.3855 298.742V294.44H100.206V298.61ZM106.724 301.149C106.207 301.422 105.562 301.559 104.791 301.559C103.795 301.559 102.997 301.238 102.398 300.597C101.799 299.956 101.5 299.114 101.5 298.073C101.5 296.953 101.837 296.048 102.511 295.358C103.184 294.668 104.039 294.323 105.074 294.323C105.738 294.323 106.288 294.419 106.724 294.611V295.485C106.223 295.205 105.67 295.065 105.064 295.065C104.26 295.065 103.608 295.333 103.106 295.871C102.608 296.408 102.359 297.125 102.359 298.024C102.359 298.877 102.592 299.557 103.057 300.065C103.526 300.569 104.14 300.822 104.898 300.822C105.601 300.822 106.21 300.666 106.724 300.353V301.149ZM111.783 301.442H108.15V294.44H108.97V300.7H111.783V301.442ZM118.57 301.442H117.662L116.92 299.479H113.951L113.253 301.442H112.34L115.025 294.44H115.875L118.57 301.442ZM116.651 298.742L115.552 295.758C115.517 295.661 115.481 295.504 115.445 295.29H115.426C115.393 295.488 115.356 295.644 115.313 295.758L114.224 298.742H116.651Z" fill="#31313B"/>
</g>
<g filter="url(#filter4_d_14_5183)">
<rect x="92" y="44" width="30" height="245" fill="#ADA004"/>
</g>
<g filter="url(#filter5_d_14_5183)">
<rect x="92" y="83" width="30" height="206" fill="#290755"/>
</g>
<g filter="url(#filter6_d_14_5183)">
<rect x="92" y="155" width="30" height="134" fill="#2537D3"/>
</g>
<g filter="url(#filter7_d_14_5183)">
<path d="M219.749 301H218.606L215.901 297.797C215.8 297.676 215.739 297.595 215.716 297.553H215.696V301H214.876V293.998H215.696V297.289H215.716C215.761 297.217 215.823 297.138 215.901 297.05L218.519 293.998H219.539L216.536 297.357L219.749 301ZM220.979 294.73C220.836 294.73 220.714 294.682 220.613 294.584C220.512 294.486 220.462 294.363 220.462 294.213C220.462 294.063 220.512 293.939 220.613 293.842C220.714 293.741 220.836 293.69 220.979 293.69C221.126 293.69 221.25 293.741 221.351 293.842C221.455 293.939 221.507 294.063 221.507 294.213C221.507 294.356 221.455 294.478 221.351 294.579C221.25 294.68 221.126 294.73 220.979 294.73ZM221.37 301H220.569V296H221.37V301ZM230.091 301H229.29V298.129C229.29 297.576 229.204 297.175 229.031 296.928C228.862 296.68 228.576 296.557 228.172 296.557C227.83 296.557 227.539 296.713 227.298 297.025C227.06 297.338 226.941 297.712 226.941 298.148V301H226.141V298.031C226.141 297.048 225.761 296.557 225.003 296.557C224.651 296.557 224.362 296.705 224.134 297.001C223.906 297.294 223.792 297.676 223.792 298.148V301H222.991V296H223.792V296.791H223.812C224.166 296.186 224.684 295.883 225.364 295.883C225.706 295.883 226.004 295.979 226.258 296.171C226.512 296.36 226.686 296.609 226.78 296.918C227.151 296.228 227.705 295.883 228.44 295.883C229.541 295.883 230.091 296.562 230.091 297.919V301ZM231.302 300.819V299.96C231.738 300.282 232.218 300.443 232.742 300.443C233.445 300.443 233.797 300.209 233.797 299.74C233.797 299.607 233.766 299.494 233.704 299.403C233.646 299.309 233.564 299.226 233.46 299.154C233.359 299.083 233.239 299.019 233.099 298.964C232.962 298.905 232.814 298.845 232.654 298.783C232.433 298.695 232.238 298.607 232.068 298.52C231.902 298.428 231.762 298.327 231.648 298.217C231.538 298.103 231.453 297.974 231.395 297.831C231.339 297.688 231.312 297.52 231.312 297.328C231.312 297.094 231.365 296.887 231.473 296.708C231.58 296.526 231.723 296.374 231.902 296.254C232.081 296.13 232.285 296.037 232.513 295.976C232.744 295.914 232.981 295.883 233.226 295.883C233.659 295.883 234.046 295.958 234.388 296.107V296.918C234.02 296.677 233.597 296.557 233.118 296.557C232.968 296.557 232.833 296.575 232.713 296.61C232.592 296.643 232.488 296.69 232.4 296.752C232.316 296.814 232.249 296.889 232.2 296.977C232.155 297.061 232.132 297.156 232.132 297.26C232.132 297.39 232.155 297.499 232.2 297.587C232.249 297.675 232.319 297.753 232.41 297.821C232.501 297.89 232.612 297.951 232.742 298.007C232.872 298.062 233.021 298.122 233.187 298.188C233.408 298.272 233.606 298.36 233.782 298.451C233.958 298.539 234.108 298.64 234.231 298.754C234.355 298.865 234.45 298.993 234.515 299.14C234.583 299.286 234.617 299.46 234.617 299.662C234.617 299.91 234.562 300.124 234.451 300.307C234.344 300.489 234.199 300.64 234.017 300.761C233.834 300.881 233.624 300.971 233.387 301.029C233.149 301.088 232.9 301.117 232.64 301.117C232.125 301.117 231.679 301.018 231.302 300.819Z" fill="#31313B"/>
</g>
<g filter="url(#filter8_d_14_5183)">
<rect x="212" y="44" width="29" height="245" fill="#ADA004"/>
</g>
<g filter="url(#filter9_d_14_5183)">
<rect x="212" y="98" width="29" height="191" fill="#290755"/>
</g>
<g filter="url(#filter10_d_14_5183)">
<rect x="212" y="155" width="29" height="134" fill="#2537D3"/>
</g>
<g filter="url(#filter11_d_14_5183)">
<path d="M698.614 301.441H697.793V294.439H698.614V301.441ZM705.581 298.609C705.581 300.576 704.694 301.559 702.92 301.559C701.221 301.559 700.371 300.613 700.371 298.722V294.439H701.192V298.668C701.192 300.104 701.797 300.821 703.008 300.821C704.177 300.821 704.761 300.128 704.761 298.741V294.439H705.581V298.609Z" fill="#31313B"/>
</g>
<g filter="url(#filter12_d_14_5183)">
<rect x="690" y="121" width="29" height="168" fill="#ADA004"/>
</g>
<g filter="url(#filter13_d_14_5183)">
<rect x="690" y="169" width="29" height="120" fill="#290755"/>
</g>
<g filter="url(#filter14_d_14_5183)">
<rect x="690" y="212" width="29" height="77" fill="#2537D3"/>
</g>
<path d="M812.837 300.717V299.75C812.948 299.848 813.079 299.936 813.232 300.014C813.389 300.092 813.551 300.159 813.721 300.214C813.893 300.266 814.066 300.307 814.238 300.336C814.411 300.365 814.57 300.38 814.717 300.38C815.221 300.38 815.597 300.287 815.845 300.102C816.095 299.913 816.221 299.643 816.221 299.291C816.221 299.102 816.178 298.938 816.094 298.798C816.012 298.658 815.898 298.531 815.752 298.417C815.605 298.3 815.431 298.189 815.229 298.085C815.031 297.978 814.816 297.865 814.585 297.748C814.341 297.624 814.113 297.499 813.901 297.372C813.69 297.245 813.506 297.105 813.35 296.952C813.193 296.799 813.07 296.627 812.979 296.435C812.891 296.239 812.847 296.011 812.847 295.751C812.847 295.432 812.917 295.155 813.057 294.921C813.197 294.683 813.381 294.488 813.608 294.335C813.836 294.182 814.095 294.068 814.385 293.993C814.678 293.918 814.976 293.881 815.278 293.881C815.968 293.881 816.471 293.964 816.787 294.13V295.053C816.374 294.766 815.843 294.623 815.195 294.623C815.016 294.623 814.837 294.643 814.658 294.682C814.479 294.717 814.32 294.778 814.18 294.862C814.04 294.947 813.926 295.056 813.838 295.189C813.75 295.323 813.706 295.486 813.706 295.678C813.706 295.857 813.739 296.011 813.804 296.142C813.872 296.272 813.971 296.391 814.102 296.498C814.232 296.605 814.39 296.71 814.575 296.811C814.764 296.911 814.98 297.022 815.225 297.143C815.475 297.266 815.713 297.396 815.938 297.533C816.162 297.67 816.359 297.821 816.528 297.987C816.698 298.153 816.831 298.337 816.929 298.539C817.03 298.741 817.08 298.972 817.08 299.232C817.08 299.577 817.012 299.87 816.875 300.111C816.742 300.349 816.559 300.543 816.328 300.692C816.1 300.842 815.837 300.95 815.537 301.015C815.238 301.083 814.922 301.117 814.59 301.117C814.479 301.117 814.342 301.107 814.18 301.088C814.017 301.072 813.851 301.046 813.682 301.01C813.512 300.977 813.351 300.937 813.198 300.888C813.049 300.836 812.928 300.779 812.837 300.717ZM823.682 293.998L821.089 301H820.186L817.646 293.998H818.56L820.498 299.55C820.56 299.729 820.607 299.936 820.64 300.17H820.659C820.685 299.975 820.739 299.765 820.82 299.54L822.798 293.998H823.682ZM831.826 301H831.011V296.303C831.011 295.932 831.034 295.478 831.079 294.94H831.06C830.981 295.256 830.911 295.482 830.85 295.619L828.457 301H828.057L825.669 295.658C825.601 295.502 825.531 295.263 825.459 294.94H825.439C825.465 295.22 825.479 295.678 825.479 296.312V301H824.688V293.998H825.771L827.92 298.881C828.086 299.255 828.193 299.535 828.242 299.721H828.271C828.411 299.337 828.524 299.05 828.608 298.861L830.801 293.998H831.826V301Z" fill="#31313B"/>
<g filter="url(#filter15_d_14_5183)">
<rect x="809" y="64" width="30" height="225" fill="#ADA004"/>
</g>
<g filter="url(#filter16_d_14_5183)">
<rect x="809" y="114" width="30" height="175" fill="#290755"/>
</g>
<g filter="url(#filter17_d_14_5183)">
<rect x="809" y="192" width="30" height="97" fill="#2537D3"/>
</g>
<path d="M322.938 298.168C322.938 300.134 322.05 301.117 320.276 301.117C318.577 301.117 317.728 300.172 317.728 298.28V293.998H318.548V298.227C318.548 299.662 319.153 300.38 320.364 300.38C321.533 300.38 322.117 299.687 322.117 298.3V293.998H322.938V298.168ZM330.335 301H329.329L325.726 295.419C325.634 295.279 325.56 295.132 325.501 294.979H325.472C325.498 295.129 325.511 295.45 325.511 295.941V301H324.69V293.998H325.755L329.261 299.491C329.407 299.719 329.502 299.875 329.544 299.96H329.563C329.531 299.758 329.515 299.415 329.515 298.93V293.998H330.335V301ZM336.937 300.707C336.419 300.98 335.774 301.117 335.003 301.117C334.007 301.117 333.209 300.797 332.61 300.155C332.011 299.514 331.712 298.673 331.712 297.631C331.712 296.511 332.049 295.606 332.723 294.916C333.396 294.226 334.251 293.881 335.286 293.881C335.95 293.881 336.5 293.977 336.937 294.169V295.043C336.435 294.763 335.882 294.623 335.276 294.623C334.472 294.623 333.82 294.892 333.318 295.429C332.82 295.966 332.571 296.684 332.571 297.582C332.571 298.435 332.804 299.115 333.27 299.623C333.738 300.128 334.352 300.38 335.11 300.38C335.813 300.38 336.422 300.224 336.937 299.911V300.707ZM348.245 301H347.43V296.303C347.43 295.932 347.452 295.478 347.498 294.94H347.479C347.4 295.256 347.33 295.482 347.269 295.619L344.876 301H344.476L342.088 295.658C342.02 295.502 341.95 295.263 341.878 294.94H341.858C341.884 295.22 341.897 295.678 341.897 296.312V301H341.106V293.998H342.19L344.339 298.881C344.505 299.255 344.612 299.535 344.661 299.721H344.69C344.83 299.337 344.943 299.05 345.027 298.861L347.22 293.998H348.245V301ZM354.002 298.7H350.472C350.485 299.257 350.634 299.687 350.921 299.989C351.207 300.292 351.601 300.443 352.103 300.443C352.666 300.443 353.183 300.258 353.655 299.887V300.639C353.216 300.958 352.635 301.117 351.912 301.117C351.206 301.117 350.651 300.891 350.247 300.438C349.843 299.983 349.642 299.343 349.642 298.52C349.642 297.742 349.861 297.108 350.301 296.62C350.743 296.129 351.292 295.883 351.946 295.883C352.601 295.883 353.107 296.094 353.465 296.518C353.823 296.941 354.002 297.528 354.002 298.28V298.7ZM353.182 298.021C353.178 297.559 353.066 297.2 352.845 296.942C352.627 296.685 352.322 296.557 351.932 296.557C351.554 296.557 351.233 296.692 350.97 296.962C350.706 297.232 350.543 297.585 350.481 298.021H353.182ZM359.485 301H358.685V300.15H358.665C358.294 300.795 357.721 301.117 356.946 301.117C356.318 301.117 355.815 300.894 355.438 300.448C355.063 299.999 354.876 299.389 354.876 298.617C354.876 297.79 355.084 297.128 355.501 296.63C355.918 296.132 356.473 295.883 357.166 295.883C357.853 295.883 358.353 296.153 358.665 296.693H358.685V293.598H359.485V301ZM358.685 298.739V298.002C358.685 297.598 358.551 297.257 358.284 296.977C358.017 296.697 357.679 296.557 357.269 296.557C356.78 296.557 356.396 296.736 356.116 297.094C355.836 297.452 355.696 297.947 355.696 298.578C355.696 299.154 355.83 299.61 356.097 299.945C356.367 300.277 356.728 300.443 357.181 300.443C357.627 300.443 357.988 300.282 358.265 299.96C358.545 299.638 358.685 299.231 358.685 298.739ZM361.517 294.73C361.373 294.73 361.251 294.682 361.15 294.584C361.049 294.486 360.999 294.363 360.999 294.213C360.999 294.063 361.049 293.939 361.15 293.842C361.251 293.741 361.373 293.69 361.517 293.69C361.663 293.69 361.787 293.741 361.888 293.842C361.992 293.939 362.044 294.063 362.044 294.213C362.044 294.356 361.992 294.478 361.888 294.579C361.787 294.68 361.663 294.73 361.517 294.73ZM361.907 301H361.106V296H361.907V301ZM366.937 300.771C366.552 301.002 366.097 301.117 365.569 301.117C364.856 301.117 364.28 300.886 363.841 300.424C363.405 299.958 363.187 299.356 363.187 298.617C363.187 297.794 363.423 297.133 363.895 296.635C364.367 296.133 364.996 295.883 365.784 295.883C366.224 295.883 366.611 295.964 366.946 296.127V296.947C366.575 296.687 366.178 296.557 365.755 296.557C365.244 296.557 364.824 296.741 364.495 297.108C364.17 297.473 364.007 297.953 364.007 298.549C364.007 299.135 364.16 299.597 364.466 299.936C364.775 300.274 365.188 300.443 365.706 300.443C366.142 300.443 366.552 300.299 366.937 300.009V300.771ZM371.727 301H370.926V300.219H370.906C370.558 300.818 370.045 301.117 369.368 301.117C368.87 301.117 368.479 300.985 368.196 300.722C367.916 300.458 367.776 300.108 367.776 299.672C367.776 298.738 368.326 298.194 369.427 298.041L370.926 297.831C370.926 296.981 370.582 296.557 369.896 296.557C369.293 296.557 368.75 296.762 368.265 297.172V296.352C368.756 296.039 369.323 295.883 369.964 295.883C371.139 295.883 371.727 296.505 371.727 297.748V301ZM370.926 298.471L369.72 298.637C369.349 298.689 369.069 298.782 368.88 298.915C368.691 299.045 368.597 299.278 368.597 299.613C368.597 299.857 368.683 300.058 368.855 300.214C369.031 300.367 369.264 300.443 369.554 300.443C369.951 300.443 370.278 300.305 370.535 300.028C370.796 299.748 370.926 299.395 370.926 298.969V298.471ZM374.036 301H373.235V293.598H374.036V301Z" fill="#31313B"/>
<g filter="url(#filter18_d_14_5183)">
<rect x="331" y="106" width="30" height="183" fill="#ADA004"/>
</g>
<g filter="url(#filter19_d_14_5183)">
<rect x="331" y="169" width="30" height="120" fill="#290755"/>
</g>
<g filter="url(#filter20_d_14_5183)">
<rect x="331" y="212" width="30" height="77" fill="#2537D3"/>
</g>
<path d="M575.818 298.168C575.818 300.134 574.931 301.117 573.157 301.117C571.458 301.117 570.608 300.172 570.608 298.28V293.998H571.429V298.227C571.429 299.662 572.034 300.38 573.245 300.38C574.414 300.38 574.998 299.687 574.998 298.3V293.998H575.818V298.168ZM584.71 301H583.895V296.303C583.895 295.932 583.917 295.478 583.963 294.94H583.943C583.865 295.256 583.795 295.482 583.733 295.619L581.341 301H580.94L578.553 295.658C578.484 295.502 578.414 295.263 578.343 294.94H578.323C578.349 295.22 578.362 295.678 578.362 296.312V301H577.571V293.998H578.655L580.804 298.881C580.97 299.255 581.077 299.535 581.126 299.721H581.155C581.295 299.337 581.408 299.05 581.492 298.861L583.685 293.998H584.71V301ZM590.027 301H589.227V300.219H589.207C588.859 300.818 588.346 301.117 587.669 301.117C587.171 301.117 586.78 300.985 586.497 300.722C586.217 300.458 586.077 300.108 586.077 299.672C586.077 298.738 586.627 298.194 587.728 298.041L589.227 297.831C589.227 296.981 588.883 296.557 588.196 296.557C587.594 296.557 587.05 296.762 586.565 297.172V296.352C587.057 296.039 587.623 295.883 588.265 295.883C589.44 295.883 590.027 296.505 590.027 297.748V301ZM589.227 298.471L588.021 298.637C587.649 298.689 587.369 298.782 587.181 298.915C586.992 299.045 586.897 299.278 586.897 299.613C586.897 299.857 586.984 300.058 587.156 300.214C587.332 300.367 587.565 300.443 587.854 300.443C588.252 300.443 588.579 300.305 588.836 300.028C589.096 299.748 589.227 299.395 589.227 298.969V298.471ZM591.233 300.819V299.96C591.67 300.282 592.15 300.443 592.674 300.443C593.377 300.443 593.729 300.209 593.729 299.74C593.729 299.607 593.698 299.494 593.636 299.403C593.577 299.309 593.496 299.226 593.392 299.154C593.291 299.083 593.17 299.019 593.03 298.964C592.894 298.905 592.745 298.845 592.586 298.783C592.365 298.695 592.169 298.607 592 298.52C591.834 298.428 591.694 298.327 591.58 298.217C591.469 298.103 591.385 297.974 591.326 297.831C591.271 297.688 591.243 297.52 591.243 297.328C591.243 297.094 591.297 296.887 591.404 296.708C591.512 296.526 591.655 296.374 591.834 296.254C592.013 296.13 592.216 296.037 592.444 295.976C592.675 295.914 592.913 295.883 593.157 295.883C593.59 295.883 593.978 295.958 594.319 296.107V296.918C593.951 296.677 593.528 296.557 593.05 296.557C592.9 296.557 592.765 296.575 592.645 296.61C592.524 296.643 592.42 296.69 592.332 296.752C592.247 296.814 592.181 296.889 592.132 296.977C592.086 297.061 592.063 297.156 592.063 297.26C592.063 297.39 592.086 297.499 592.132 297.587C592.181 297.675 592.251 297.753 592.342 297.821C592.433 297.89 592.544 297.951 592.674 298.007C592.804 298.062 592.952 298.122 593.118 298.188C593.34 298.272 593.538 298.36 593.714 298.451C593.89 298.539 594.039 298.64 594.163 298.754C594.287 298.865 594.381 298.993 594.446 299.14C594.515 299.286 594.549 299.46 594.549 299.662C594.549 299.91 594.493 300.124 594.383 300.307C594.275 300.489 594.131 300.64 593.948 300.761C593.766 300.881 593.556 300.971 593.318 301.029C593.081 301.088 592.832 301.117 592.571 301.117C592.057 301.117 591.611 301.018 591.233 300.819ZM595.481 300.819V299.96C595.918 300.282 596.398 300.443 596.922 300.443C597.625 300.443 597.977 300.209 597.977 299.74C597.977 299.607 597.946 299.494 597.884 299.403C597.825 299.309 597.744 299.226 597.64 299.154C597.539 299.083 597.418 299.019 597.278 298.964C597.142 298.905 596.993 298.845 596.834 298.783C596.613 298.695 596.417 298.607 596.248 298.52C596.082 298.428 595.942 298.327 595.828 298.217C595.717 298.103 595.633 297.974 595.574 297.831C595.519 297.688 595.491 297.52 595.491 297.328C595.491 297.094 595.545 296.887 595.652 296.708C595.76 296.526 595.903 296.374 596.082 296.254C596.261 296.13 596.465 296.037 596.692 295.976C596.924 295.914 597.161 295.883 597.405 295.883C597.838 295.883 598.226 295.958 598.567 296.107V296.918C598.2 296.677 597.776 296.557 597.298 296.557C597.148 296.557 597.013 296.575 596.893 296.61C596.772 296.643 596.668 296.69 596.58 296.752C596.495 296.814 596.429 296.889 596.38 296.977C596.334 297.061 596.312 297.156 596.312 297.26C596.312 297.39 596.334 297.499 596.38 297.587C596.429 297.675 596.499 297.753 596.59 297.821C596.681 297.89 596.792 297.951 596.922 298.007C597.052 298.062 597.2 298.122 597.366 298.188C597.588 298.272 597.786 298.36 597.962 298.451C598.138 298.539 598.287 298.64 598.411 298.754C598.535 298.865 598.629 298.993 598.694 299.14C598.763 299.286 598.797 299.46 598.797 299.662C598.797 299.91 598.742 300.124 598.631 300.307C598.523 300.489 598.379 300.64 598.196 300.761C598.014 300.881 597.804 300.971 597.566 301.029C597.329 301.088 597.08 301.117 596.819 301.117C596.305 301.117 595.859 301.018 595.481 300.819Z" fill="#31313B"/>
<g filter="url(#filter21_d_14_5183)">
<rect x="570" y="175" width="30" height="114" fill="#ADA004"/>
</g>
<g filter="url(#filter22_d_14_5183)">
<rect x="570" y="212" width="30" height="77" fill="#290755"/>
</g>
<g filter="url(#filter23_d_14_5183)">
<rect x="570" y="212" width="30" height="77" fill="#290755"/>
</g>
<g filter="url(#filter24_d_14_5183)">
<rect x="570" y="244" width="30" height="45" fill="#2537D3"/>
</g>
<path d="M460.156 301H459.18L458.008 299.037C457.9 298.855 457.796 298.7 457.695 298.573C457.594 298.443 457.49 298.337 457.383 298.256C457.279 298.174 457.165 298.116 457.041 298.08C456.921 298.041 456.784 298.021 456.631 298.021H455.957V301H455.137V293.998H457.227C457.533 293.998 457.814 294.037 458.071 294.115C458.332 294.19 458.556 294.306 458.745 294.462C458.937 294.618 459.087 294.813 459.194 295.048C459.302 295.279 459.355 295.551 459.355 295.863C459.355 296.107 459.318 296.332 459.243 296.537C459.172 296.739 459.067 296.92 458.931 297.079C458.797 297.239 458.634 297.375 458.442 297.489C458.254 297.6 458.04 297.686 457.803 297.748V297.768C457.92 297.82 458.021 297.88 458.105 297.948C458.193 298.013 458.276 298.091 458.354 298.183C458.433 298.274 458.509 298.378 458.584 298.495C458.662 298.609 458.748 298.743 458.843 298.896L460.156 301ZM455.957 294.74V297.279H457.07C457.275 297.279 457.464 297.248 457.637 297.187C457.812 297.125 457.964 297.037 458.091 296.923C458.218 296.806 458.317 296.664 458.389 296.498C458.46 296.329 458.496 296.14 458.496 295.932C458.496 295.557 458.374 295.266 458.13 295.058C457.889 294.846 457.539 294.74 457.08 294.74H455.957ZM465.059 301H464.258V300.209H464.238C463.906 300.814 463.392 301.117 462.695 301.117C461.504 301.117 460.908 300.408 460.908 298.988V296H461.704V298.861C461.704 299.916 462.108 300.443 462.915 300.443C463.306 300.443 463.626 300.3 463.877 300.014C464.131 299.724 464.258 299.346 464.258 298.881V296H465.059V301ZM466.377 300.819V299.96C466.813 300.282 467.293 300.443 467.817 300.443C468.521 300.443 468.872 300.209 468.872 299.74C468.872 299.607 468.841 299.494 468.779 299.403C468.721 299.309 468.639 299.226 468.535 299.154C468.434 299.083 468.314 299.019 468.174 298.964C468.037 298.905 467.889 298.845 467.729 298.783C467.508 298.695 467.313 298.607 467.144 298.52C466.978 298.428 466.838 298.327 466.724 298.217C466.613 298.103 466.528 297.974 466.47 297.831C466.414 297.688 466.387 297.52 466.387 297.328C466.387 297.094 466.44 296.887 466.548 296.708C466.655 296.526 466.799 296.374 466.978 296.254C467.157 296.13 467.36 296.037 467.588 295.976C467.819 295.914 468.057 295.883 468.301 295.883C468.734 295.883 469.121 295.958 469.463 296.107V296.918C469.095 296.677 468.672 296.557 468.193 296.557C468.044 296.557 467.909 296.575 467.788 296.61C467.668 296.643 467.563 296.69 467.476 296.752C467.391 296.814 467.324 296.889 467.275 296.977C467.23 297.061 467.207 297.156 467.207 297.26C467.207 297.39 467.23 297.499 467.275 297.587C467.324 297.675 467.394 297.753 467.485 297.821C467.576 297.89 467.687 297.951 467.817 298.007C467.948 298.062 468.096 298.122 468.262 298.188C468.483 298.272 468.682 298.36 468.857 298.451C469.033 298.539 469.183 298.64 469.307 298.754C469.43 298.865 469.525 298.993 469.59 299.14C469.658 299.286 469.692 299.46 469.692 299.662C469.692 299.91 469.637 300.124 469.526 300.307C469.419 300.489 469.274 300.64 469.092 300.761C468.91 300.881 468.7 300.971 468.462 301.029C468.224 301.088 467.975 301.117 467.715 301.117C467.201 301.117 466.755 301.018 466.377 300.819ZM475.078 301H474.277V298.119C474.277 297.077 473.89 296.557 473.115 296.557C472.725 296.557 472.396 296.708 472.129 297.011C471.862 297.31 471.729 297.696 471.729 298.168V301H470.928V293.598H471.729V296.83H471.748C472.132 296.199 472.679 295.883 473.389 295.883C474.515 295.883 475.078 296.562 475.078 297.919V301Z" fill="#31313B"/>
<g filter="url(#filter25_d_14_5183)">
<rect x="451" y="121" width="29" height="168" fill="#ADA004"/>
</g>
<g filter="url(#filter26_d_14_5183)">
<rect x="451" y="150" width="29" height="139" fill="#290755"/>
</g>
<g filter="url(#filter27_d_14_5183)">
<rect x="451" y="203" width="29" height="86" fill="#2537D3"/>
</g>
<path d="M936.046 298.61C936.046 300.576 935.159 301.559 933.384 301.559C931.685 301.559 930.836 300.613 930.836 298.722V294.44H931.656V298.668C931.656 300.104 932.261 300.822 933.472 300.822C934.641 300.822 935.225 300.128 935.225 298.742V294.44H936.046V298.61ZM938.619 298.795V301.442H937.798V294.44H939.722C940.471 294.44 941.05 294.622 941.461 294.987C941.874 295.351 942.081 295.866 942.081 296.53C942.081 297.194 941.851 297.737 941.392 298.161C940.937 298.584 940.32 298.795 939.542 298.795H938.619ZM938.619 295.182V298.053H939.478C940.045 298.053 940.476 297.925 940.772 297.667C941.072 297.407 941.221 297.041 941.221 296.569C941.221 295.644 940.674 295.182 939.581 295.182H938.619ZM950.543 301.442H949.727V296.745C949.727 296.374 949.75 295.919 949.796 295.382H949.776C949.698 295.698 949.628 295.924 949.566 296.061L947.173 301.442H946.773L944.385 296.1C944.317 295.944 944.247 295.705 944.175 295.382H944.156C944.182 295.662 944.195 296.12 944.195 296.754V301.442H943.404V294.44H944.488L946.636 299.323C946.802 299.697 946.91 299.977 946.959 300.163H946.988C947.128 299.778 947.24 299.492 947.325 299.303L949.517 294.44H950.543V301.442ZM957.154 301.149C956.636 301.422 955.992 301.559 955.22 301.559C954.224 301.559 953.427 301.238 952.828 300.597C952.229 299.956 951.929 299.114 951.929 298.073C951.929 296.953 952.266 296.048 952.94 295.358C953.614 294.668 954.468 294.323 955.504 294.323C956.168 294.323 956.718 294.419 957.154 294.611V295.485C956.653 295.205 956.099 295.065 955.494 295.065C954.69 295.065 954.037 295.333 953.536 295.871C953.038 296.408 952.789 297.125 952.789 298.024C952.789 298.877 953.021 299.557 953.487 300.065C953.956 300.569 954.569 300.822 955.328 300.822C956.031 300.822 956.64 300.666 957.154 300.353V301.149Z" fill="#31313B"/>
<g filter="url(#filter28_d_14_5183)">
<rect x="929" y="169" width="29" height="120" fill="#ADA004"/>
</g>
<g filter="url(#filter29_d_14_5183)">
<rect x="929" y="212" width="29" height="77" fill="#290755"/>
</g>
<g filter="url(#filter30_d_14_5183)">
<rect x="929" y="244" width="29" height="45" fill="#2537D3"/>
</g>
<path d="M1053.29 301.56C1052.3 301.56 1051.5 301.232 1050.9 300.578C1050.3 299.924 1050.01 299.073 1050.01 298.024C1050.01 296.898 1050.31 296 1050.92 295.329C1051.53 294.659 1052.36 294.323 1053.41 294.323C1054.37 294.323 1055.15 294.649 1055.74 295.3C1056.33 295.951 1056.63 296.802 1056.63 297.854C1056.63 298.996 1056.33 299.899 1055.72 300.563C1055.11 301.228 1054.3 301.56 1053.29 301.56ZM1053.35 295.065C1052.61 295.065 1052.01 295.331 1051.55 295.861C1051.1 296.392 1050.87 297.089 1050.87 297.951C1050.87 298.814 1051.09 299.509 1051.54 300.036C1051.98 300.56 1052.57 300.822 1053.29 300.822C1054.06 300.822 1054.66 300.572 1055.1 300.07C1055.55 299.569 1055.77 298.868 1055.77 297.966C1055.77 297.041 1055.55 296.327 1055.12 295.822C1054.69 295.318 1054.1 295.065 1053.35 295.065ZM1063.27 301.442H1062.45V298.249H1058.83V301.442H1058V294.44H1058.83V297.512H1062.45V294.44H1063.27V301.442ZM1064.78 301.159V300.192C1064.89 300.29 1065.02 300.378 1065.17 300.456C1065.33 300.534 1065.49 300.601 1065.66 300.656C1065.83 300.708 1066.01 300.749 1066.18 300.778C1066.35 300.808 1066.51 300.822 1066.66 300.822C1067.16 300.822 1067.54 300.729 1067.79 300.544C1068.04 300.355 1068.16 300.085 1068.16 299.733C1068.16 299.545 1068.12 299.38 1068.03 299.24C1067.95 299.1 1067.84 298.973 1067.69 298.859C1067.55 298.742 1067.37 298.632 1067.17 298.527C1066.97 298.42 1066.76 298.308 1066.53 298.19C1066.28 298.067 1066.05 297.941 1065.84 297.814C1065.63 297.688 1065.45 297.548 1065.29 297.395C1065.13 297.242 1065.01 297.069 1064.92 296.877C1064.83 296.682 1064.79 296.454 1064.79 296.193C1064.79 295.874 1064.86 295.598 1065 295.363C1065.14 295.126 1065.32 294.93 1065.55 294.777C1065.78 294.624 1066.04 294.51 1066.33 294.436C1066.62 294.361 1066.92 294.323 1067.22 294.323C1067.91 294.323 1068.41 294.406 1068.73 294.572V295.495C1068.31 295.209 1067.78 295.065 1067.14 295.065C1066.96 295.065 1066.78 295.085 1066.6 295.124C1066.42 295.16 1066.26 295.22 1066.12 295.305C1065.98 295.389 1065.87 295.498 1065.78 295.632C1065.69 295.765 1065.65 295.928 1065.65 296.12C1065.65 296.299 1065.68 296.454 1065.74 296.584C1065.81 296.714 1065.91 296.833 1066.04 296.94C1066.17 297.048 1066.33 297.152 1066.52 297.253C1066.7 297.354 1066.92 297.465 1067.17 297.585C1067.42 297.709 1067.65 297.839 1067.88 297.976C1068.1 298.112 1068.3 298.264 1068.47 298.43C1068.64 298.596 1068.77 298.78 1068.87 298.981C1068.97 299.183 1069.02 299.414 1069.02 299.675C1069.02 300.02 1068.95 300.313 1068.82 300.554C1068.68 300.791 1068.5 300.985 1068.27 301.135C1068.04 301.285 1067.78 301.392 1067.48 301.457C1067.18 301.525 1066.86 301.56 1066.53 301.56C1066.42 301.56 1066.28 301.55 1066.12 301.53C1065.96 301.514 1065.79 301.488 1065.62 301.452C1065.45 301.42 1065.29 301.379 1065.14 301.33C1064.99 301.278 1064.87 301.221 1064.78 301.159ZM1075.54 298.61C1075.54 300.576 1074.65 301.56 1072.88 301.56C1071.18 301.56 1070.33 300.614 1070.33 298.723V294.44H1071.15V298.669C1071.15 300.104 1071.75 300.822 1072.97 300.822C1074.13 300.822 1074.72 300.129 1074.72 298.742V294.44H1075.54V298.61Z" fill="#31313B"/>
<g filter="url(#filter31_d_14_5183)">
<rect x="1048" y="172" width="30" height="117" fill="#ADA004"/>
</g>
<g filter="url(#filter32_d_14_5183)">
<rect x="1048" y="199" width="30" height="90" fill="#290755"/>
</g>
<g filter="url(#filter33_d_14_5183)">
<rect x="1048" y="233" width="30" height="56" fill="#2537D3"/>
</g>
<defs>
<filter id="filter0_d_14_5183" x="865" y="4.5" width="15" height="15" filterUnits="userSpaceOnUse" color-interpolation-filters="sRGB">
<feFlood flood-opacity="0" result="BackgroundImageFix"/>
<feColorMatrix in="SourceAlpha" type="matrix" values="0 0 0 0 0 0 0 0 0 0 0 0 0 0 0 0 0 0 127 0" result="hardAlpha"/>
<feOffset dy="3"/>
<feGaussianBlur stdDeviation="1.5"/>
<feComposite in2="hardAlpha" operator="out"/>
<feColorMatrix type="matrix" values="0 0 0 0 0 0 0 0 0 0 0 0 0 0 0 0 0 0 0.160784 0"/>
<feBlend mode="normal" in2="BackgroundImageFix" result="effect1_dropShadow_14_5183"/>
<feBlend mode="normal" in="SourceGraphic" in2="effect1_dropShadow_14_5183" result="shape"/>
</filter>
<filter id="filter1_d_14_5183" x="953" y="4.5" width="15" height="15" filterUnits="userSpaceOnUse" color-interpolation-filters="sRGB">
<feFlood flood-opacity="0" result="BackgroundImageFix"/>
<feColorMatrix in="SourceAlpha" type="matrix" values="0 0 0 0 0 0 0 0 0 0 0 0 0 0 0 0 0 0 127 0" result="hardAlpha"/>
<feOffset dy="3"/>
<feGaussianBlur stdDeviation="1.5"/>
<feComposite in2="hardAlpha" operator="out"/>
<feColorMatrix type="matrix" values="0 0 0 0 0 0 0 0 0 0 0 0 0 0 0 0 0 0 0.160784 0"/>
<feBlend mode="normal" in2="BackgroundImageFix" result="effect1_dropShadow_14_5183"/>
<feBlend mode="normal" in="SourceGraphic" in2="effect1_dropShadow_14_5183" result="shape"/>
</filter>
<filter id="filter2_d_14_5183" x="1026" y="4.5" width="15" height="15" filterUnits="userSpaceOnUse" color-interpolation-filters="sRGB">
<feFlood flood-opacity="0" result="BackgroundImageFix"/>
<feColorMatrix in="SourceAlpha" type="matrix" values="0 0 0 0 0 0 0 0 0 0 0 0 0 0 0 0 0 0 127 0" result="hardAlpha"/>
<feOffset dy="3"/>
<feGaussianBlur stdDeviation="1.5"/>
<feComposite in2="hardAlpha" operator="out"/>
<feColorMatrix type="matrix" values="0 0 0 0 0 0 0 0 0 0 0 0 0 0 0 0 0 0 0.160784 0"/>
<feBlend mode="normal" in2="BackgroundImageFix" result="effect1_dropShadow_14_5183"/>
<feBlend mode="normal" in="SourceGraphic" in2="effect1_dropShadow_14_5183" result="shape"/>
</filter>
<filter id="filter3_d_14_5183" x="91.9961" y="290.323" width="29.5742" height="13.2363" filterUnits="userSpaceOnUse" color-interpolation-filters="sRGB">
<feFlood flood-opacity="0" result="BackgroundImageFix"/>
<feColorMatrix in="SourceAlpha" type="matrix" values="0 0 0 0 0 0 0 0 0 0 0 0 0 0 0 0 0 0 127 0" result="hardAlpha"/>
<feOffset dy="-1"/>
<feGaussianBlur stdDeviation="1.5"/>
<feComposite in2="hardAlpha" operator="out"/>
<feColorMatrix type="matrix" values="0 0 0 0 0 0 0 0 0 0 0 0 0 0 0 0 0 0 0.160784 0"/>
<feBlend mode="normal" in2="BackgroundImageFix" result="effect1_dropShadow_14_5183"/>
<feBlend mode="normal" in="SourceGraphic" in2="effect1_dropShadow_14_5183" result="shape"/>
</filter>
<filter id="filter4_d_14_5183" x="89" y="40" width="36" height="251" filterUnits="userSpaceOnUse" color-interpolation-filters="sRGB">
<feFlood flood-opacity="0" result="BackgroundImageFix"/>
<feColorMatrix in="SourceAlpha" type="matrix" values="0 0 0 0 0 0 0 0 0 0 0 0 0 0 0 0 0 0 127 0" result="hardAlpha"/>
<feOffset dy="-1"/>
<feGaussianBlur stdDeviation="1.5"/>
<feComposite in2="hardAlpha" operator="out"/>
<feColorMatrix type="matrix" values="0 0 0 0 0 0 0 0 0 0 0 0 0 0 0 0 0 0 0.160784 0"/>
<feBlend mode="normal" in2="BackgroundImageFix" result="effect1_dropShadow_14_5183"/>
<feBlend mode="normal" in="SourceGraphic" in2="effect1_dropShadow_14_5183" result="shape"/>
</filter>
<filter id="filter5_d_14_5183" x="89" y="79" width="36" height="212" filterUnits="userSpaceOnUse" color-interpolation-filters="sRGB">
<feFlood flood-opacity="0" result="BackgroundImageFix"/>
<feColorMatrix in="SourceAlpha" type="matrix" values="0 0 0 0 0 0 0 0 0 0 0 0 0 0 0 0 0 0 127 0" result="hardAlpha"/>
<feOffset dy="-1"/>
<feGaussianBlur stdDeviation="1.5"/>
<feComposite in2="hardAlpha" operator="out"/>
<feColorMatrix type="matrix" values="0 0 0 0 0 0 0 0 0 0 0 0 0 0 0 0 0 0 0.160784 0"/>
<feBlend mode="normal" in2="BackgroundImageFix" result="effect1_dropShadow_14_5183"/>
<feBlend mode="normal" in="SourceGraphic" in2="effect1_dropShadow_14_5183" result="shape"/>
</filter>
<filter id="filter6_d_14_5183" x="89" y="151" width="36" height="140" filterUnits="userSpaceOnUse" color-interpolation-filters="sRGB">
<feFlood flood-opacity="0" result="BackgroundImageFix"/>
<feColorMatrix in="SourceAlpha" type="matrix" values="0 0 0 0 0 0 0 0 0 0 0 0 0 0 0 0 0 0 127 0" result="hardAlpha"/>
<feOffset dy="-1"/>
<feGaussianBlur stdDeviation="1.5"/>
<feComposite in2="hardAlpha" operator="out"/>
<feColorMatrix type="matrix" values="0 0 0 0 0 0 0 0 0 0 0 0 0 0 0 0 0 0 0.160784 0"/>
<feBlend mode="normal" in2="BackgroundImageFix" result="effect1_dropShadow_14_5183"/>
<feBlend mode="normal" in="SourceGraphic" in2="effect1_dropShadow_14_5183" result="shape"/>
</filter>
<filter id="filter7_d_14_5183" x="211.876" y="289.69" width="25.7412" height="13.4268" filterUnits="userSpaceOnUse" color-interpolation-filters="sRGB">
<feFlood flood-opacity="0" result="BackgroundImageFix"/>
<feColorMatrix in="SourceAlpha" type="matrix" values="0 0 0 0 0 0 0 0 0 0 0 0 0 0 0 0 0 0 127 0" result="hardAlpha"/>
<feOffset dy="-1"/>
<feGaussianBlur stdDeviation="1.5"/>
<feComposite in2="hardAlpha" operator="out"/>
<feColorMatrix type="matrix" values="0 0 0 0 0 0 0 0 0 0 0 0 0 0 0 0 0 0 0.160784 0"/>
<feBlend mode="normal" in2="BackgroundImageFix" result="effect1_dropShadow_14_5183"/>
<feBlend mode="normal" in="SourceGraphic" in2="effect1_dropShadow_14_5183" result="shape"/>
</filter>
<filter id="filter8_d_14_5183" x="209" y="40" width="35" height="251" filterUnits="userSpaceOnUse" color-interpolation-filters="sRGB">
<feFlood flood-opacity="0" result="BackgroundImageFix"/>
<feColorMatrix in="SourceAlpha" type="matrix" values="0 0 0 0 0 0 0 0 0 0 0 0 0 0 0 0 0 0 127 0" result="hardAlpha"/>
<feOffset dy="-1"/>
<feGaussianBlur stdDeviation="1.5"/>
<feComposite in2="hardAlpha" operator="out"/>
<feColorMatrix type="matrix" values="0 0 0 0 0 0 0 0 0 0 0 0 0 0 0 0 0 0 0.160784 0"/>
<feBlend mode="normal" in2="BackgroundImageFix" result="effect1_dropShadow_14_5183"/>
<feBlend mode="normal" in="SourceGraphic" in2="effect1_dropShadow_14_5183" result="shape"/>
</filter>
<filter id="filter9_d_14_5183" x="209" y="94" width="35" height="197" filterUnits="userSpaceOnUse" color-interpolation-filters="sRGB">
<feFlood flood-opacity="0" result="BackgroundImageFix"/>
<feColorMatrix in="SourceAlpha" type="matrix" values="0 0 0 0 0 0 0 0 0 0 0 0 0 0 0 0 0 0 127 0" result="hardAlpha"/>
<feOffset dy="-1"/>
<feGaussianBlur stdDeviation="1.5"/>
<feComposite in2="hardAlpha" operator="out"/>
<feColorMatrix type="matrix" values="0 0 0 0 0 0 0 0 0 0 0 0 0 0 0 0 0 0 0.160784 0"/>
<feBlend mode="normal" in2="BackgroundImageFix" result="effect1_dropShadow_14_5183"/>
<feBlend mode="normal" in="SourceGraphic" in2="effect1_dropShadow_14_5183" result="shape"/>
</filter>
<filter id="filter10_d_14_5183" x="209" y="151" width="35" height="140" filterUnits="userSpaceOnUse" color-interpolation-filters="sRGB">
<feFlood flood-opacity="0" result="BackgroundImageFix"/>
<feColorMatrix in="SourceAlpha" type="matrix" values="0 0 0 0 0 0 0 0 0 0 0 0 0 0 0 0 0 0 127 0" result="hardAlpha"/>
<feOffset dy="-1"/>
<feGaussianBlur stdDeviation="1.5"/>
<feComposite in2="hardAlpha" operator="out"/>
<feColorMatrix type="matrix" values="0 0 0 0 0 0 0 0 0 0 0 0 0 0 0 0 0 0 0.160784 0"/>
<feBlend mode="normal" in2="BackgroundImageFix" result="effect1_dropShadow_14_5183"/>
<feBlend mode="normal" in="SourceGraphic" in2="effect1_dropShadow_14_5183" result="shape"/>
</filter>
<filter id="filter11_d_14_5183" x="694.793" y="290.439" width="13.7881" height="13.1191" filterUnits="userSpaceOnUse" color-interpolation-filters="sRGB">
<feFlood flood-opacity="0" result="BackgroundImageFix"/>
<feColorMatrix in="SourceAlpha" type="matrix" values="0 0 0 0 0 0 0 0 0 0 0 0 0 0 0 0 0 0 127 0" result="hardAlpha"/>
<feOffset dy="-1"/>
<feGaussianBlur stdDeviation="1.5"/>
<feComposite in2="hardAlpha" operator="out"/>
<feColorMatrix type="matrix" values="0 0 0 0 0 0 0 0 0 0 0 0 0 0 0 0 0 0 0.160784 0"/>
<feBlend mode="normal" in2="BackgroundImageFix" result="effect1_dropShadow_14_5183"/>
<feBlend mode="normal" in="SourceGraphic" in2="effect1_dropShadow_14_5183" result="shape"/>
</filter>
<filter id="filter12_d_14_5183" x="687" y="117" width="35" height="174" filterUnits="userSpaceOnUse" color-interpolation-filters="sRGB">
<feFlood flood-opacity="0" result="BackgroundImageFix"/>
<feColorMatrix in="SourceAlpha" type="matrix" values="0 0 0 0 0 0 0 0 0 0 0 0 0 0 0 0 0 0 127 0" result="hardAlpha"/>
<feOffset dy="-1"/>
<feGaussianBlur stdDeviation="1.5"/>
<feComposite in2="hardAlpha" operator="out"/>
<feColorMatrix type="matrix" values="0 0 0 0 0 0 0 0 0 0 0 0 0 0 0 0 0 0 0.160784 0"/>
<feBlend mode="normal" in2="BackgroundImageFix" result="effect1_dropShadow_14_5183"/>
<feBlend mode="normal" in="SourceGraphic" in2="effect1_dropShadow_14_5183" result="shape"/>
</filter>
<filter id="filter13_d_14_5183" x="687" y="165" width="35" height="126" filterUnits="userSpaceOnUse" color-interpolation-filters="sRGB">
<feFlood flood-opacity="0" result="BackgroundImageFix"/>
<feColorMatrix in="SourceAlpha" type="matrix" values="0 0 0 0 0 0 0 0 0 0 0 0 0 0 0 0 0 0 127 0" result="hardAlpha"/>
<feOffset dy="-1"/>
<feGaussianBlur stdDeviation="1.5"/>
<feComposite in2="hardAlpha" operator="out"/>
<feColorMatrix type="matrix" values="0 0 0 0 0 0 0 0 0 0 0 0 0 0 0 0 0 0 0.160784 0"/>
<feBlend mode="normal" in2="BackgroundImageFix" result="effect1_dropShadow_14_5183"/>
<feBlend mode="normal" in="SourceGraphic" in2="effect1_dropShadow_14_5183" result="shape"/>
</filter>
<filter id="filter14_d_14_5183" x="687" y="208" width="35" height="83" filterUnits="userSpaceOnUse" color-interpolation-filters="sRGB">
<feFlood flood-opacity="0" result="BackgroundImageFix"/>
<feColorMatrix in="SourceAlpha" type="matrix" values="0 0 0 0 0 0 0 0 0 0 0 0 0 0 0 0 0 0 127 0" result="hardAlpha"/>
<feOffset dy="-1"/>
<feGaussianBlur stdDeviation="1.5"/>
<feComposite in2="hardAlpha" operator="out"/>
<feColorMatrix type="matrix" values="0 0 0 0 0 0 0 0 0 0 0 0 0 0 0 0 0 0 0.160784 0"/>
<feBlend mode="normal" in2="BackgroundImageFix" result="effect1_dropShadow_14_5183"/>
<feBlend mode="normal" in="SourceGraphic" in2="effect1_dropShadow_14_5183" result="shape"/>
</filter>
<filter id="filter15_d_14_5183" x="806" y="60" width="36" height="231" filterUnits="userSpaceOnUse" color-interpolation-filters="sRGB">
<feFlood flood-opacity="0" result="BackgroundImageFix"/>
<feColorMatrix in="SourceAlpha" type="matrix" values="0 0 0 0 0 0 0 0 0 0 0 0 0 0 0 0 0 0 127 0" result="hardAlpha"/>
<feOffset dy="-1"/>
<feGaussianBlur stdDeviation="1.5"/>
<feComposite in2="hardAlpha" operator="out"/>
<feColorMatrix type="matrix" values="0 0 0 0 0 0 0 0 0 0 0 0 0 0 0 0 0 0 0.160784 0"/>
<feBlend mode="normal" in2="BackgroundImageFix" result="effect1_dropShadow_14_5183"/>
<feBlend mode="normal" in="SourceGraphic" in2="effect1_dropShadow_14_5183" result="shape"/>
</filter>
<filter id="filter16_d_14_5183" x="806" y="110" width="36" height="181" filterUnits="userSpaceOnUse" color-interpolation-filters="sRGB">
<feFlood flood-opacity="0" result="BackgroundImageFix"/>
<feColorMatrix in="SourceAlpha" type="matrix" values="0 0 0 0 0 0 0 0 0 0 0 0 0 0 0 0 0 0 127 0" result="hardAlpha"/>
<feOffset dy="-1"/>
<feGaussianBlur stdDeviation="1.5"/>
<feComposite in2="hardAlpha" operator="out"/>
<feColorMatrix type="matrix" values="0 0 0 0 0 0 0 0 0 0 0 0 0 0 0 0 0 0 0.160784 0"/>
<feBlend mode="normal" in2="BackgroundImageFix" result="effect1_dropShadow_14_5183"/>
<feBlend mode="normal" in="SourceGraphic" in2="effect1_dropShadow_14_5183" result="shape"/>
</filter>
<filter id="filter17_d_14_5183" x="806" y="188" width="36" height="103" filterUnits="userSpaceOnUse" color-interpolation-filters="sRGB">
<feFlood flood-opacity="0" result="BackgroundImageFix"/>
<feColorMatrix in="SourceAlpha" type="matrix" values="0 0 0 0 0 0 0 0 0 0 0 0 0 0 0 0 0 0 127 0" result="hardAlpha"/>
<feOffset dy="-1"/>
<feGaussianBlur stdDeviation="1.5"/>
<feComposite in2="hardAlpha" operator="out"/>
<feColorMatrix type="matrix" values="0 0 0 0 0 0 0 0 0 0 0 0 0 0 0 0 0 0 0.160784 0"/>
<feBlend mode="normal" in2="BackgroundImageFix" result="effect1_dropShadow_14_5183"/>
<feBlend mode="normal" in="SourceGraphic" in2="effect1_dropShadow_14_5183" result="shape"/>
</filter>
<filter id="filter18_d_14_5183" x="328" y="102" width="36" height="189" filterUnits="userSpaceOnUse" color-interpolation-filters="sRGB">
<feFlood flood-opacity="0" result="BackgroundImageFix"/>
<feColorMatrix in="SourceAlpha" type="matrix" values="0 0 0 0 0 0 0 0 0 0 0 0 0 0 0 0 0 0 127 0" result="hardAlpha"/>
<feOffset dy="-1"/>
<feGaussianBlur stdDeviation="1.5"/>
<feComposite in2="hardAlpha" operator="out"/>
<feColorMatrix type="matrix" values="0 0 0 0 0 0 0 0 0 0 0 0 0 0 0 0 0 0 0.160784 0"/>
<feBlend mode="normal" in2="BackgroundImageFix" result="effect1_dropShadow_14_5183"/>
<feBlend mode="normal" in="SourceGraphic" in2="effect1_dropShadow_14_5183" result="shape"/>
</filter>
<filter id="filter19_d_14_5183" x="328" y="165" width="36" height="126" filterUnits="userSpaceOnUse" color-interpolation-filters="sRGB">
<feFlood flood-opacity="0" result="BackgroundImageFix"/>
<feColorMatrix in="SourceAlpha" type="matrix" values="0 0 0 0 0 0 0 0 0 0 0 0 0 0 0 0 0 0 127 0" result="hardAlpha"/>
<feOffset dy="-1"/>
<feGaussianBlur stdDeviation="1.5"/>
<feComposite in2="hardAlpha" operator="out"/>
<feColorMatrix type="matrix" values="0 0 0 0 0 0 0 0 0 0 0 0 0 0 0 0 0 0 0.160784 0"/>
<feBlend mode="normal" in2="BackgroundImageFix" result="effect1_dropShadow_14_5183"/>
<feBlend mode="normal" in="SourceGraphic" in2="effect1_dropShadow_14_5183" result="shape"/>
</filter>
<filter id="filter20_d_14_5183" x="328" y="208" width="36" height="83" filterUnits="userSpaceOnUse" color-interpolation-filters="sRGB">
<feFlood flood-opacity="0" result="BackgroundImageFix"/>
<feColorMatrix in="SourceAlpha" type="matrix" values="0 0 0 0 0 0 0 0 0 0 0 0 0 0 0 0 0 0 127 0" result="hardAlpha"/>
<feOffset dy="-1"/>
<feGaussianBlur stdDeviation="1.5"/>
<feComposite in2="hardAlpha" operator="out"/>
<feColorMatrix type="matrix" values="0 0 0 0 0 0 0 0 0 0 0 0 0 0 0 0 0 0 0.160784 0"/>
<feBlend mode="normal" in2="BackgroundImageFix" result="effect1_dropShadow_14_5183"/>
<feBlend mode="normal" in="SourceGraphic" in2="effect1_dropShadow_14_5183" result="shape"/>
</filter>
<filter id="filter21_d_14_5183" x="567" y="171" width="36" height="120" filterUnits="userSpaceOnUse" color-interpolation-filters="sRGB">
<feFlood flood-opacity="0" result="BackgroundImageFix"/>
<feColorMatrix in="SourceAlpha" type="matrix" values="0 0 0 0 0 0 0 0 0 0 0 0 0 0 0 0 0 0 127 0" result="hardAlpha"/>
<feOffset dy="-1"/>
<feGaussianBlur stdDeviation="1.5"/>
<feComposite in2="hardAlpha" operator="out"/>
<feColorMatrix type="matrix" values="0 0 0 0 0 0 0 0 0 0 0 0 0 0 0 0 0 0 0.160784 0"/>
<feBlend mode="normal" in2="BackgroundImageFix" result="effect1_dropShadow_14_5183"/>
<feBlend mode="normal" in="SourceGraphic" in2="effect1_dropShadow_14_5183" result="shape"/>
</filter>
<filter id="filter22_d_14_5183" x="567" y="208" width="36" height="83" filterUnits="userSpaceOnUse" color-interpolation-filters="sRGB">
<feFlood flood-opacity="0" result="BackgroundImageFix"/>
<feColorMatrix in="SourceAlpha" type="matrix" values="0 0 0 0 0 0 0 0 0 0 0 0 0 0 0 0 0 0 127 0" result="hardAlpha"/>
<feOffset dy="-1"/>
<feGaussianBlur stdDeviation="1.5"/>
<feComposite in2="hardAlpha" operator="out"/>
<feColorMatrix type="matrix" values="0 0 0 0 0 0 0 0 0 0 0 0 0 0 0 0 0 0 0.160784 0"/>
<feBlend mode="normal" in2="BackgroundImageFix" result="effect1_dropShadow_14_5183"/>
<feBlend mode="normal" in="SourceGraphic" in2="effect1_dropShadow_14_5183" result="shape"/>
</filter>
<filter id="filter23_d_14_5183" x="567" y="208" width="36" height="83" filterUnits="userSpaceOnUse" color-interpolation-filters="sRGB">
<feFlood flood-opacity="0" result="BackgroundImageFix"/>
<feColorMatrix in="SourceAlpha" type="matrix" values="0 0 0 0 0 0 0 0 0 0 0 0 0 0 0 0 0 0 127 0" result="hardAlpha"/>
<feOffset dy="-1"/>
<feGaussianBlur stdDeviation="1.5"/>
<feComposite in2="hardAlpha" operator="out"/>
<feColorMatrix type="matrix" values="0 0 0 0 0 0 0 0 0 0 0 0 0 0 0 0 0 0 0.160784 0"/>
<feBlend mode="normal" in2="BackgroundImageFix" result="effect1_dropShadow_14_5183"/>
<feBlend mode="normal" in="SourceGraphic" in2="effect1_dropShadow_14_5183" result="shape"/>
</filter>
<filter id="filter24_d_14_5183" x="567" y="240" width="36" height="51" filterUnits="userSpaceOnUse" color-interpolation-filters="sRGB">
<feFlood flood-opacity="0" result="BackgroundImageFix"/>
<feColorMatrix in="SourceAlpha" type="matrix" values="0 0 0 0 0 0 0 0 0 0 0 0 0 0 0 0 0 0 127 0" result="hardAlpha"/>
<feOffset dy="-1"/>
<feGaussianBlur stdDeviation="1.5"/>
<feComposite in2="hardAlpha" operator="out"/>
<feColorMatrix type="matrix" values="0 0 0 0 0 0 0 0 0 0 0 0 0 0 0 0 0 0 0.160784 0"/>
<feBlend mode="normal" in2="BackgroundImageFix" result="effect1_dropShadow_14_5183"/>
<feBlend mode="normal" in="SourceGraphic" in2="effect1_dropShadow_14_5183" result="shape"/>
</filter>
<filter id="filter25_d_14_5183" x="448" y="117" width="35" height="174" filterUnits="userSpaceOnUse" color-interpolation-filters="sRGB">
<feFlood flood-opacity="0" result="BackgroundImageFix"/>
<feColorMatrix in="SourceAlpha" type="matrix" values="0 0 0 0 0 0 0 0 0 0 0 0 0 0 0 0 0 0 127 0" result="hardAlpha"/>
<feOffset dy="-1"/>
<feGaussianBlur stdDeviation="1.5"/>
<feComposite in2="hardAlpha" operator="out"/>
<feColorMatrix type="matrix" values="0 0 0 0 0 0 0 0 0 0 0 0 0 0 0 0 0 0 0.160784 0"/>
<feBlend mode="normal" in2="BackgroundImageFix" result="effect1_dropShadow_14_5183"/>
<feBlend mode="normal" in="SourceGraphic" in2="effect1_dropShadow_14_5183" result="shape"/>
</filter>
<filter id="filter26_d_14_5183" x="448" y="146" width="35" height="145" filterUnits="userSpaceOnUse" color-interpolation-filters="sRGB">
<feFlood flood-opacity="0" result="BackgroundImageFix"/>
<feColorMatrix in="SourceAlpha" type="matrix" values="0 0 0 0 0 0 0 0 0 0 0 0 0 0 0 0 0 0 127 0" result="hardAlpha"/>
<feOffset dy="-1"/>
<feGaussianBlur stdDeviation="1.5"/>
<feComposite in2="hardAlpha" operator="out"/>
<feColorMatrix type="matrix" values="0 0 0 0 0 0 0 0 0 0 0 0 0 0 0 0 0 0 0.160784 0"/>
<feBlend mode="normal" in2="BackgroundImageFix" result="effect1_dropShadow_14_5183"/>
<feBlend mode="normal" in="SourceGraphic" in2="effect1_dropShadow_14_5183" result="shape"/>
</filter>
<filter id="filter27_d_14_5183" x="448" y="199" width="35" height="92" filterUnits="userSpaceOnUse" color-interpolation-filters="sRGB">
<feFlood flood-opacity="0" result="BackgroundImageFix"/>
<feColorMatrix in="SourceAlpha" type="matrix" values="0 0 0 0 0 0 0 0 0 0 0 0 0 0 0 0 0 0 127 0" result="hardAlpha"/>
<feOffset dy="-1"/>
<feGaussianBlur stdDeviation="1.5"/>
<feComposite in2="hardAlpha" operator="out"/>
<feColorMatrix type="matrix" values="0 0 0 0 0 0 0 0 0 0 0 0 0 0 0 0 0 0 0.160784 0"/>
<feBlend mode="normal" in2="BackgroundImageFix" result="effect1_dropShadow_14_5183"/>
<feBlend mode="normal" in="SourceGraphic" in2="effect1_dropShadow_14_5183" result="shape"/>
</filter>
<filter id="filter28_d_14_5183" x="926" y="165" width="35" height="126" filterUnits="userSpaceOnUse" color-interpolation-filters="sRGB">
<feFlood flood-opacity="0" result="BackgroundImageFix"/>
<feColorMatrix in="SourceAlpha" type="matrix" values="0 0 0 0 0 0 0 0 0 0 0 0 0 0 0 0 0 0 127 0" result="hardAlpha"/>
<feOffset dy="-1"/>
<feGaussianBlur stdDeviation="1.5"/>
<feComposite in2="hardAlpha" operator="out"/>
<feColorMatrix type="matrix" values="0 0 0 0 0 0 0 0 0 0 0 0 0 0 0 0 0 0 0.160784 0"/>
<feBlend mode="normal" in2="BackgroundImageFix" result="effect1_dropShadow_14_5183"/>
<feBlend mode="normal" in="SourceGraphic" in2="effect1_dropShadow_14_5183" result="shape"/>
</filter>
<filter id="filter29_d_14_5183" x="926" y="208" width="35" height="83" filterUnits="userSpaceOnUse" color-interpolation-filters="sRGB">
<feFlood flood-opacity="0" result="BackgroundImageFix"/>
<feColorMatrix in="SourceAlpha" type="matrix" values="0 0 0 0 0 0 0 0 0 0 0 0 0 0 0 0 0 0 127 0" result="hardAlpha"/>
<feOffset dy="-1"/>
<feGaussianBlur stdDeviation="1.5"/>
<feComposite in2="hardAlpha" operator="out"/>
<feColorMatrix type="matrix" values="0 0 0 0 0 0 0 0 0 0 0 0 0 0 0 0 0 0 0.160784 0"/>
<feBlend mode="normal" in2="BackgroundImageFix" result="effect1_dropShadow_14_5183"/>
<feBlend mode="normal" in="SourceGraphic" in2="effect1_dropShadow_14_5183" result="shape"/>
</filter>
<filter id="filter30_d_14_5183" x="926" y="240" width="35" height="51" filterUnits="userSpaceOnUse" color-interpolation-filters="sRGB">
<feFlood flood-opacity="0" result="BackgroundImageFix"/>
<feColorMatrix in="SourceAlpha" type="matrix" values="0 0 0 0 0 0 0 0 0 0 0 0 0 0 0 0 0 0 127 0" result="hardAlpha"/>
<feOffset dy="-1"/>
<feGaussianBlur stdDeviation="1.5"/>
<feComposite in2="hardAlpha" operator="out"/>
<feColorMatrix type="matrix" values="0 0 0 0 0 0 0 0 0 0 0 0 0 0 0 0 0 0 0.160784 0"/>
<feBlend mode="normal" in2="BackgroundImageFix" result="effect1_dropShadow_14_5183"/>
<feBlend mode="normal" in="SourceGraphic" in2="effect1_dropShadow_14_5183" result="shape"/>
</filter>
<filter id="filter31_d_14_5183" x="1045" y="168" width="36" height="123" filterUnits="userSpaceOnUse" color-interpolation-filters="sRGB">
<feFlood flood-opacity="0" result="BackgroundImageFix"/>
<feColorMatrix in="SourceAlpha" type="matrix" values="0 0 0 0 0 0 0 0 0 0 0 0 0 0 0 0 0 0 127 0" result="hardAlpha"/>
<feOffset dy="-1"/>
<feGaussianBlur stdDeviation="1.5"/>
<feComposite in2="hardAlpha" operator="out"/>
<feColorMatrix type="matrix" values="0 0 0 0 0 0 0 0 0 0 0 0 0 0 0 0 0 0 0.160784 0"/>
<feBlend mode="normal" in2="BackgroundImageFix" result="effect1_dropShadow_14_5183"/>
<feBlend mode="normal" in="SourceGraphic" in2="effect1_dropShadow_14_5183" result="shape"/>
</filter>
<filter id="filter32_d_14_5183" x="1045" y="195" width="36" height="96" filterUnits="userSpaceOnUse" color-interpolation-filters="sRGB">
<feFlood flood-opacity="0" result="BackgroundImageFix"/>
<feColorMatrix in="SourceAlpha" type="matrix" values="0 0 0 0 0 0 0 0 0 0 0 0 0 0 0 0 0 0 127 0" result="hardAlpha"/>
<feOffset dy="-1"/>
<feGaussianBlur stdDeviation="1.5"/>
<feComposite in2="hardAlpha" operator="out"/>
<feColorMatrix type="matrix" values="0 0 0 0 0 0 0 0 0 0 0 0 0 0 0 0 0 0 0.160784 0"/>
<feBlend mode="normal" in2="BackgroundImageFix" result="effect1_dropShadow_14_5183"/>
<feBlend mode="normal" in="SourceGraphic" in2="effect1_dropShadow_14_5183" result="shape"/>
</filter>
<filter id="filter33_d_14_5183" x="1045" y="229" width="36" height="62" filterUnits="userSpaceOnUse" color-interpolation-filters="sRGB">
<feFlood flood-opacity="0" result="BackgroundImageFix"/>
<feColorMatrix in="SourceAlpha" type="matrix" values="0 0 0 0 0 0 0 0 0 0 0 0 0 0 0 0 0 0 127 0" result="hardAlpha"/>
<feOffset dy="-1"/>
<feGaussianBlur stdDeviation="1.5"/>
<feComposite in2="hardAlpha" operator="out"/>
<feColorMatrix type="matrix" values="0 0 0 0 0 0 0 0 0 0 0 0 0 0 0 0 0 0 0.160784 0"/>
<feBlend mode="normal" in2="BackgroundImageFix" result="effect1_dropShadow_14_5183"/>
<feBlend mode="normal" in="SourceGraphic" in2="effect1_dropShadow_14_5183" result="shape"/>
</filter>
</defs>
</svg>
