<svg width="495" height="289" viewBox="0 0 495 289" fill="none" xmlns="http://www.w3.org/2000/svg">
<path opacity="0.652749" d="M167.544 285V284.49C169.444 282.63 170.544 281.45 170.544 280.42C170.544 279.69 170.144 279.18 169.334 279.18C168.804 279.18 168.344 279.52 167.984 279.94L167.514 279.49C168.044 278.89 168.614 278.5 169.434 278.5C170.614 278.5 171.354 279.25 171.354 280.37C171.354 281.61 170.234 282.76 168.684 284.34C169.034 284.31 169.424 284.29 169.754 284.29H171.664V285H167.544ZM174.605 285.12C173.325 285.12 172.555 283.93 172.555 281.79C172.555 279.65 173.325 278.5 174.605 278.5C175.875 278.5 176.645 279.65 176.645 281.79C176.645 283.93 175.875 285.12 174.605 285.12ZM174.605 284.45C175.345 284.45 175.845 283.66 175.845 281.79C175.845 279.92 175.345 279.17 174.605 279.17C173.865 279.17 173.365 279.92 173.365 281.79C173.365 283.66 173.865 284.45 174.605 284.45Z" fill="#373650"/>
<path opacity="0.652749" d="M266.184 282.58H268.184V280.73C268.184 280.557 268.191 280.35 268.204 280.11C268.217 279.87 268.227 279.667 268.234 279.5H268.194C268.114 279.653 268.031 279.803 267.944 279.95C267.857 280.097 267.767 280.247 267.674 280.4L266.184 282.58ZM268.184 285V283.24H265.314V282.7L268.044 278.62H268.964V282.58H269.834V283.24H268.964V285H268.184ZM272.605 285.12C271.965 285.12 271.461 284.833 271.095 284.26C270.735 283.68 270.555 282.857 270.555 281.79C270.555 280.717 270.735 279.9 271.095 279.34C271.461 278.78 271.965 278.5 272.605 278.5C273.238 278.5 273.735 278.78 274.095 279.34C274.461 279.9 274.645 280.717 274.645 281.79C274.645 282.857 274.461 283.68 274.095 284.26C273.735 284.833 273.238 285.12 272.605 285.12ZM272.605 284.46C272.978 284.46 273.278 284.25 273.505 283.83C273.731 283.403 273.845 282.723 273.845 281.79C273.845 280.857 273.731 280.187 273.505 279.78C273.278 279.367 272.978 279.16 272.605 279.16C272.231 279.16 271.928 279.367 271.695 279.78C271.468 280.187 271.355 280.857 271.355 281.79C271.355 282.723 271.468 283.403 271.695 283.83C271.928 284.25 272.231 284.46 272.605 284.46Z" fill="#373650"/>
<path opacity="0.652749" d="M365.754 281.72C365.344 281.72 364.824 281.97 364.424 282.57C364.534 283.81 365.024 284.47 365.824 284.47C366.454 284.47 366.934 283.91 366.934 283.07C366.934 282.24 366.544 281.72 365.754 281.72ZM365.824 285.12C364.574 285.12 363.624 284.1 363.624 282.05C363.624 279.49 364.784 278.5 366.054 278.5C366.744 278.5 367.244 278.79 367.594 279.18L367.134 279.7C366.884 279.39 366.484 279.19 366.084 279.19C365.194 279.19 364.434 279.89 364.404 281.92C364.804 281.42 365.374 281.1 365.894 281.1C367.004 281.1 367.714 281.76 367.714 283.07C367.714 284.29 366.854 285.12 365.824 285.12ZM370.605 285.12C369.325 285.12 368.555 283.93 368.555 281.79C368.555 279.65 369.325 278.5 370.605 278.5C371.875 278.5 372.645 279.65 372.645 281.79C372.645 283.93 371.875 285.12 370.605 285.12ZM370.605 284.45C371.345 284.45 371.845 283.66 371.845 281.79C371.845 279.92 371.345 279.17 370.605 279.17C369.865 279.17 369.365 279.92 369.365 281.79C369.365 283.66 369.865 284.45 370.605 284.45Z" fill="#373650"/>
<path opacity="0.652749" d="M463.644 285.12C462.444 285.12 461.554 284.38 461.554 283.37C461.554 282.54 462.154 281.97 462.754 281.65V281.61C462.284 281.28 461.864 280.81 461.864 280.14C461.864 279.16 462.644 278.5 463.674 278.5C464.784 278.5 465.474 279.21 465.474 280.2C465.474 280.87 464.994 281.44 464.594 281.74V281.78C465.164 282.11 465.704 282.56 465.704 283.42C465.704 284.37 464.884 285.12 463.644 285.12ZM464.094 281.52C464.524 281.14 464.764 280.71 464.764 280.24C464.764 279.62 464.354 279.12 463.654 279.12C463.064 279.12 462.624 279.52 462.624 280.14C462.624 280.9 463.324 281.22 464.094 281.52ZM463.664 284.5C464.404 284.5 464.914 284.05 464.914 283.39C464.914 282.57 464.104 282.28 463.184 281.91C462.684 282.24 462.304 282.71 462.304 283.29C462.304 283.99 462.884 284.5 463.664 284.5ZM468.605 285.12C467.325 285.12 466.555 283.93 466.555 281.79C466.555 279.65 467.325 278.5 468.605 278.5C469.875 278.5 470.645 279.65 470.645 281.79C470.645 283.93 469.875 285.12 468.605 285.12ZM468.605 284.45C469.345 284.45 469.845 283.66 469.845 281.79C469.845 279.92 469.345 279.17 468.605 279.17C467.865 279.17 467.365 279.92 467.365 281.79C467.365 283.66 467.865 284.45 468.605 284.45Z" fill="#373650"/>
<path opacity="0.652749" d="M76.562 285.12C75.282 285.12 74.512 283.93 74.512 281.79C74.512 279.65 75.282 278.5 76.562 278.5C77.832 278.5 78.602 279.65 78.602 281.79C78.602 283.93 77.832 285.12 76.562 285.12ZM76.562 284.45C77.302 284.45 77.802 283.66 77.802 281.79C77.802 279.92 77.302 279.17 76.562 279.17C75.822 279.17 75.322 279.92 75.322 281.79C75.322 283.66 75.822 284.45 76.562 284.45Z" fill="#373650"/>
<line y1="-0.75" x2="267.003" y2="-0.75" transform="matrix(-0.00387468 0.999992 -0.999987 -0.00505479 74.0347 0)" stroke="#E5E8EA" stroke-width="1.5"/>
<line y1="-0.75" x2="421.996" y2="-0.75" transform="matrix(0.999997 -0.00228964 0.00259815 0.999997 73.0049 267.108)" stroke="#E5E8EA" stroke-width="1.5"/>
<g filter="url(#filter0_d_35_5377)">
<rect x="330.789" y="26" width="28" height="255" transform="rotate(90 330.789 26)" fill="#D5256F"/>
</g>
<g filter="url(#filter1_d_35_5377)">
<path d="M19.1172 37.7403H17.0957V44H16.2754V37.7403H14.2588V36.9981H19.1172V37.7403ZM24.2637 44H23.4629V41.1192C23.4629 40.0775 23.0755 39.5567 22.3008 39.5567C21.9102 39.5567 21.5814 39.708 21.3145 40.0108C21.0475 40.3102 20.9141 40.696 20.9141 41.168V44H20.1133V36.5977H20.9141V39.8301H20.9336C21.3177 39.1986 21.8646 38.8828 22.5742 38.8828C23.7005 38.8828 24.2637 39.5615 24.2637 40.919V44ZM26.1875 37.7305C26.0443 37.7305 25.9222 37.6817 25.8213 37.584C25.7204 37.4864 25.6699 37.3627 25.6699 37.2129C25.6699 37.0632 25.7204 36.9395 25.8213 36.8418C25.9222 36.7409 26.0443 36.6905 26.1875 36.6905C26.334 36.6905 26.4577 36.7409 26.5586 36.8418C26.6628 36.9395 26.7148 37.0632 26.7148 37.2129C26.7148 37.3561 26.6628 37.4782 26.5586 37.5791C26.4577 37.68 26.334 37.7305 26.1875 37.7305ZM26.5781 44H25.7773V39H26.5781V44ZM27.8965 43.8194V42.96C28.3327 43.2822 28.8128 43.4434 29.3369 43.4434C30.04 43.4434 30.3916 43.209 30.3916 42.7403C30.3916 42.6068 30.3607 42.4945 30.2988 42.4033C30.2402 42.3089 30.1589 42.2259 30.0547 42.1543C29.9538 42.0827 29.8333 42.0192 29.6934 41.9639C29.5566 41.9053 29.4085 41.8451 29.249 41.7832C29.0277 41.6953 28.8324 41.6074 28.6631 41.5196C28.4971 41.4284 28.3571 41.3275 28.2432 41.2168C28.1325 41.1029 28.0479 40.9743 27.9893 40.8311C27.9339 40.6878 27.9062 40.5202 27.9062 40.3281C27.9062 40.0938 27.96 39.8871 28.0674 39.708C28.1748 39.5257 28.318 39.3744 28.4971 39.2539C28.6761 39.1302 28.8796 39.0375 29.1074 38.9756C29.3385 38.9138 29.5762 38.8828 29.8203 38.8828C30.2533 38.8828 30.6406 38.9577 30.9824 39.1074V39.918C30.6146 39.6771 30.1914 39.5567 29.7129 39.5567C29.5632 39.5567 29.4281 39.5746 29.3076 39.6104C29.1872 39.6429 29.083 39.6901 28.9951 39.752C28.9105 39.8138 28.8437 39.8887 28.7949 39.9766C28.7493 40.0612 28.7266 40.1556 28.7266 40.2598C28.7266 40.39 28.7493 40.499 28.7949 40.5869C28.8437 40.6748 28.9137 40.753 29.0049 40.8213C29.096 40.8897 29.2067 40.9515 29.3369 41.0069C29.4671 41.0622 29.6152 41.1224 29.7812 41.1875C30.0026 41.2722 30.2012 41.36 30.377 41.4512C30.5527 41.5391 30.7025 41.64 30.8262 41.7539C30.9499 41.8646 31.0443 41.9932 31.1094 42.1397C31.1777 42.2862 31.2119 42.4603 31.2119 42.6621C31.2119 42.9095 31.1566 43.1244 31.0459 43.3067C30.9385 43.489 30.7936 43.6403 30.6113 43.7608C30.429 43.8812 30.2191 43.9707 29.9814 44.0293C29.7438 44.0879 29.4948 44.1172 29.2344 44.1172C28.7201 44.1172 28.2741 44.0179 27.8965 43.8194ZM42.4375 44H41.6221V39.3028C41.6221 38.9317 41.6449 38.4776 41.6904 37.9405H41.6709C41.5928 38.2562 41.5228 38.4824 41.4609 38.6192L39.0684 44H38.668L36.2803 38.6582C36.2119 38.502 36.1419 38.2627 36.0703 37.9405H36.0508C36.0768 38.2204 36.0898 38.6778 36.0898 39.3125V44H35.2988V36.9981H36.3828L38.5312 41.8809C38.6973 42.2552 38.8047 42.5352 38.8535 42.7207H38.8828C39.0228 42.3366 39.1351 42.0502 39.2197 41.8614L41.4121 36.9981H42.4375V44ZM46.2656 44.1172C45.5267 44.1172 44.9359 43.8845 44.4932 43.419C44.0537 42.9502 43.834 42.3301 43.834 41.5586C43.834 40.7188 44.0635 40.0628 44.5225 39.5908C44.9814 39.1188 45.6016 38.8828 46.3828 38.8828C47.1283 38.8828 47.7093 39.1123 48.126 39.5713C48.5459 40.0303 48.7559 40.6667 48.7559 41.4805C48.7559 42.278 48.5296 42.9177 48.0771 43.3994C47.6279 43.878 47.0241 44.1172 46.2656 44.1172ZM46.3242 39.5567C45.8099 39.5567 45.403 39.7324 45.1035 40.084C44.804 40.4323 44.6543 40.9141 44.6543 41.5293C44.6543 42.1218 44.8057 42.5889 45.1084 42.9307C45.4111 43.2725 45.8164 43.4434 46.3242 43.4434C46.8418 43.4434 47.2389 43.2757 47.5156 42.9405C47.7956 42.6052 47.9355 42.1283 47.9355 41.5098C47.9355 40.8848 47.7956 40.403 47.5156 40.0645C47.2389 39.7259 46.8418 39.5567 46.3242 39.5567ZM54.1855 44H53.3848V41.1485C53.3848 40.0873 52.9974 39.5567 52.2227 39.5567C51.8223 39.5567 51.4902 39.708 51.2266 40.0108C50.9661 40.3102 50.8359 40.6895 50.8359 41.1485V44H50.0352V39H50.8359V39.8301H50.8555C51.2331 39.1986 51.7799 38.8828 52.4961 38.8828C53.043 38.8828 53.4613 39.0602 53.751 39.4151C54.0407 39.7666 54.1855 40.2761 54.1855 40.9434V44ZM58.0186 43.9512C57.8297 44.0554 57.5807 44.1074 57.2715 44.1074C56.3958 44.1074 55.958 43.6192 55.958 42.6426V39.6836H55.0986V39H55.958V37.7793L56.7588 37.5205V39H58.0186V39.6836H56.7588V42.501C56.7588 42.8363 56.8158 43.0755 56.9297 43.2188C57.0436 43.362 57.2324 43.4336 57.4961 43.4336C57.6979 43.4336 57.8721 43.3783 58.0186 43.2676V43.9512ZM63.2383 44H62.4375V41.1192C62.4375 40.0775 62.0501 39.5567 61.2754 39.5567C60.8848 39.5567 60.556 39.708 60.2891 40.0108C60.0221 40.3102 59.8887 40.696 59.8887 41.168V44H59.0879V36.5977H59.8887V39.8301H59.9082C60.2923 39.1986 60.8392 38.8828 61.5488 38.8828C62.6751 38.8828 63.2383 39.5615 63.2383 40.919V44Z" fill="#31313B"/>
</g>
<g filter="url(#filter2_d_35_5377)">
<rect x="303" y="122" width="28" height="227" transform="rotate(90 303 122)" fill="#D5256F"/>
</g>
<g filter="url(#filter3_d_35_5377)">
<path d="M28.0615 140H27.2412V132.998H28.0615V140ZM33.9502 140H33.1494V137.148C33.1494 136.087 32.762 135.557 31.9873 135.557C31.5869 135.557 31.2549 135.708 30.9912 136.011C30.7308 136.31 30.6006 136.689 30.6006 137.148V140H29.7998V135H30.6006V135.83H30.6201C30.9977 135.199 31.5446 134.883 32.2607 134.883C32.8076 134.883 33.2259 135.06 33.5156 135.415C33.8053 135.767 33.9502 136.276 33.9502 136.943V140ZM41.7871 140H40.9863V139.219H40.9668C40.6185 139.818 40.1058 140.117 39.4287 140.117C38.9307 140.117 38.54 139.985 38.2568 139.722C37.9769 139.458 37.8369 139.108 37.8369 138.672C37.8369 137.738 38.387 137.194 39.4873 137.041L40.9863 136.831C40.9863 135.981 40.6429 135.557 39.9561 135.557C39.3538 135.557 38.8102 135.762 38.3252 136.172V135.352C38.8167 135.039 39.3831 134.883 40.0244 134.883C41.1995 134.883 41.7871 135.505 41.7871 136.748V140ZM40.9863 137.471L39.7803 137.637C39.4092 137.689 39.1292 137.782 38.9404 137.915C38.7516 138.045 38.6572 138.278 38.6572 138.613C38.6572 138.857 38.7435 139.058 38.916 139.214C39.0918 139.367 39.3245 139.443 39.6143 139.443C40.0114 139.443 40.3385 139.305 40.5957 139.028C40.8561 138.748 40.9863 138.395 40.9863 137.969V137.471ZM50.6982 132.998L48.3887 137.412V140H47.5684V137.432L45.3174 132.998H46.25L47.8174 136.162C47.8369 136.201 47.8939 136.344 47.9883 136.592H48.0029C48.0355 136.481 48.0973 136.338 48.1885 136.162L49.8291 132.998H50.6982ZM54.707 137.7H51.1768C51.1898 138.257 51.3395 138.687 51.626 138.989C51.9124 139.292 52.3063 139.443 52.8076 139.443C53.3708 139.443 53.8883 139.258 54.3603 138.887V139.639C53.9209 139.958 53.3398 140.117 52.6172 140.117C51.9108 140.117 51.3558 139.891 50.9521 139.439C50.5485 138.983 50.3467 138.343 50.3467 137.52C50.3467 136.742 50.5664 136.108 51.0059 135.62C51.4486 135.129 51.9971 134.883 52.6514 134.883C53.3057 134.883 53.8118 135.094 54.1699 135.518C54.528 135.941 54.707 136.528 54.707 137.28V137.7ZM53.8867 137.022C53.8835 136.559 53.7712 136.2 53.5498 135.942C53.3317 135.685 53.0273 135.557 52.6367 135.557C52.2591 135.557 51.9385 135.692 51.6748 135.962C51.4111 136.232 51.2484 136.585 51.1865 137.022H53.8867ZM59.502 140H58.7012V139.219H58.6816C58.3333 139.818 57.8206 140.117 57.1436 140.117C56.6455 140.117 56.2549 139.985 55.9717 139.722C55.6917 139.458 55.5518 139.108 55.5518 138.672C55.5518 137.738 56.1019 137.194 57.2021 137.041L58.7012 136.831C58.7012 135.981 58.3577 135.557 57.6709 135.557C57.0687 135.557 56.5251 135.762 56.04 136.172V135.352C56.5316 135.039 57.098 134.883 57.7393 134.883C58.9144 134.883 59.502 135.505 59.502 136.748V140ZM58.7012 137.471L57.4951 137.637C57.124 137.689 56.8441 137.782 56.6553 137.915C56.4665 138.045 56.3721 138.278 56.3721 138.613C56.3721 138.857 56.4583 139.058 56.6309 139.214C56.8066 139.367 57.0394 139.443 57.3291 139.443C57.7262 139.443 58.0534 139.305 58.3105 139.028C58.571 138.748 58.7012 138.395 58.7012 137.969V137.471ZM63.6182 135.811C63.4782 135.703 63.2764 135.649 63.0127 135.649C62.6709 135.649 62.3844 135.811 62.1533 136.133C61.9255 136.455 61.8115 136.895 61.8115 137.451V140H61.0107V135H61.8115V136.03H61.8311C61.945 135.679 62.1191 135.405 62.3535 135.21C62.5879 135.011 62.8499 134.912 63.1396 134.912C63.348 134.912 63.5075 134.935 63.6182 134.98V135.811Z" fill="#31313B"/>
</g>
<g filter="url(#filter4_d_35_5377)">
<rect x="275" y="218" width="28" height="199" transform="rotate(90 275 218)" fill="#D5256F"/>
</g>
<g filter="url(#filter5_d_35_5377)">
<path d="M3.89844 236H3.07812V228.998H3.89844V236ZM9.78711 236H8.98633V233.148C8.98633 232.087 8.59896 231.557 7.82422 231.557C7.42383 231.557 7.0918 231.708 6.82812 232.011C6.56771 232.31 6.4375 232.689 6.4375 233.148V236H5.63672V231H6.4375V231.83H6.45703C6.83464 231.199 7.38151 230.883 8.09766 230.883C8.64453 230.883 9.06283 231.06 9.35254 231.415C9.64225 231.767 9.78711 232.276 9.78711 232.943V236ZM17.624 236H16.8232V235.219H16.8037C16.4554 235.818 15.9427 236.117 15.2656 236.117C14.7676 236.117 14.377 235.985 14.0937 235.722C13.8138 235.458 13.6738 235.108 13.6738 234.672C13.6738 233.738 14.224 233.194 15.3242 233.041L16.8232 232.831C16.8232 231.981 16.4798 231.557 15.793 231.557C15.1908 231.557 14.6471 231.762 14.1621 232.172V231.352C14.6536 231.039 15.2201 230.883 15.8613 230.883C17.0365 230.883 17.624 231.505 17.624 232.748V236ZM16.8232 233.471L15.6172 233.637C15.2461 233.689 14.9661 233.782 14.7773 233.915C14.5885 234.045 14.4941 234.278 14.4941 234.613C14.4941 234.857 14.5804 235.058 14.7529 235.214C14.9287 235.367 15.1615 235.443 15.4512 235.443C15.8483 235.443 16.1755 235.305 16.4326 235.028C16.693 234.748 16.8232 234.395 16.8232 233.969V233.471ZM25.5391 229.74H22.8047V232.162H25.334V232.899H22.8047V236H21.9844V228.998H25.5391V229.74ZM27.1699 229.73C27.0267 229.73 26.9046 229.682 26.8037 229.584C26.7028 229.486 26.6523 229.363 26.6523 229.213C26.6523 229.063 26.7028 228.939 26.8037 228.842C26.9046 228.741 27.0267 228.69 27.1699 228.69C27.3164 228.69 27.4401 228.741 27.541 228.842C27.6452 228.939 27.6973 229.063 27.6973 229.213C27.6973 229.356 27.6452 229.478 27.541 229.579C27.4401 229.68 27.3164 229.73 27.1699 229.73ZM27.5605 236H26.7598V231H27.5605V236ZM33.1123 231L31.1201 236H30.334L28.4395 231H29.3184L30.5879 234.633C30.6823 234.9 30.7409 235.133 30.7637 235.331H30.7832C30.8158 235.08 30.8678 234.854 30.9395 234.652L32.2676 231H33.1123ZM37.9951 233.7H34.4648C34.4779 234.257 34.6276 234.687 34.9141 234.989C35.2005 235.292 35.5944 235.443 36.0957 235.443C36.6589 235.443 37.1764 235.258 37.6484 234.887V235.639C37.209 235.958 36.6279 236.117 35.9053 236.117C35.1989 236.117 34.6439 235.891 34.2402 235.439C33.8366 234.983 33.6348 234.343 33.6348 233.52C33.6348 232.742 33.8545 232.108 34.2939 231.62C34.7367 231.129 35.2852 230.883 35.9395 230.883C36.5937 230.883 37.0999 231.094 37.458 231.518C37.8161 231.941 37.9951 232.528 37.9951 233.28V233.7ZM37.1748 233.022C37.1715 232.559 37.0592 232.2 36.8379 231.942C36.6198 231.685 36.3154 231.557 35.9248 231.557C35.5472 231.557 35.2266 231.692 34.9629 231.962C34.6992 232.232 34.5365 232.585 34.4746 233.022H37.1748ZM46.6133 228.998L44.3037 233.412V236H43.4834V233.432L41.2324 228.998H42.165L43.7324 232.162C43.752 232.201 43.8089 232.344 43.9033 232.592H43.918C43.9505 232.481 44.0124 232.338 44.1035 232.162L45.7441 228.998H46.6133ZM50.6221 233.7H47.0918C47.1048 234.257 47.2546 234.687 47.541 234.989C47.8275 235.292 48.2214 235.443 48.7227 235.443C49.2858 235.443 49.8034 235.258 50.2754 234.887V235.639C49.8359 235.958 49.2549 236.117 48.5322 236.117C47.8258 236.117 47.2708 235.891 46.8672 235.439C46.4635 234.983 46.2617 234.343 46.2617 233.52C46.2617 232.742 46.4814 232.108 46.9209 231.62C47.3636 231.129 47.9121 230.883 48.5664 230.883C49.2207 230.883 49.7269 231.094 50.085 231.518C50.443 231.941 50.6221 232.528 50.6221 233.28V233.7ZM49.8018 233.022C49.7985 232.559 49.6862 232.2 49.4648 231.942C49.2467 231.685 48.9424 231.557 48.5518 231.557C48.1742 231.557 47.8535 231.692 47.5898 231.962C47.3262 232.232 47.1634 232.585 47.1016 233.022H49.8018ZM55.417 236H54.6162V235.219H54.5967C54.2484 235.818 53.7357 236.117 53.0586 236.117C52.5605 236.117 52.1699 235.985 51.8867 235.722C51.6068 235.458 51.4668 235.108 51.4668 234.672C51.4668 233.738 52.0169 233.194 53.1172 233.041L54.6162 232.831C54.6162 231.981 54.2728 231.557 53.5859 231.557C52.9837 231.557 52.4401 231.762 51.9551 232.172V231.352C52.4466 231.039 53.013 230.883 53.6543 230.883C54.8294 230.883 55.417 231.505 55.417 232.748V236ZM54.6162 233.471L53.4102 233.637C53.0391 233.689 52.7591 233.782 52.5703 233.915C52.3815 234.045 52.2871 234.278 52.2871 234.613C52.2871 234.857 52.3734 235.058 52.5459 235.214C52.7217 235.367 52.9544 235.443 53.2441 235.443C53.6413 235.443 53.9684 235.305 54.2256 235.028C54.486 234.748 54.6162 234.395 54.6162 233.969V233.471ZM59.5332 231.811C59.3932 231.703 59.1914 231.649 58.9277 231.649C58.5859 231.649 58.2995 231.811 58.0684 232.133C57.8405 232.455 57.7266 232.895 57.7266 233.451V236H56.9258V231H57.7266V232.03H57.7461C57.86 231.679 58.0342 231.405 58.2686 231.21C58.5029 231.011 58.765 230.912 59.0547 230.912C59.263 230.912 59.4225 230.935 59.5332 230.98V231.811ZM60.0996 235.819V234.96C60.5358 235.282 61.0159 235.443 61.54 235.443C62.2432 235.443 62.5947 235.209 62.5947 234.74C62.5947 234.607 62.5638 234.494 62.5019 234.403C62.4434 234.309 62.362 234.226 62.2578 234.154C62.1569 234.083 62.0365 234.019 61.8965 233.964C61.7598 233.905 61.6117 233.845 61.4521 233.783C61.2308 233.695 61.0355 233.607 60.8662 233.52C60.7002 233.428 60.5602 233.328 60.4463 233.217C60.3356 233.103 60.251 232.974 60.1924 232.831C60.137 232.688 60.1094 232.52 60.1094 232.328C60.1094 232.094 60.1631 231.887 60.2705 231.708C60.3779 231.526 60.5212 231.374 60.7002 231.254C60.8792 231.13 61.0827 231.037 61.3105 230.976C61.5417 230.914 61.7793 230.883 62.0234 230.883C62.4564 230.883 62.8437 230.958 63.1855 231.107V231.918C62.8177 231.677 62.3945 231.557 61.916 231.557C61.7663 231.557 61.6312 231.575 61.5107 231.61C61.3903 231.643 61.2861 231.69 61.1982 231.752C61.1136 231.814 61.0469 231.889 60.998 231.977C60.9525 232.061 60.9297 232.156 60.9297 232.26C60.9297 232.39 60.9525 232.499 60.998 232.587C61.0469 232.675 61.1169 232.753 61.208 232.821C61.2992 232.89 61.4098 232.952 61.54 233.007C61.6702 233.062 61.8184 233.122 61.9844 233.188C62.2057 233.272 62.4043 233.36 62.5801 233.451C62.7559 233.539 62.9056 233.64 63.0293 233.754C63.153 233.865 63.2474 233.993 63.3125 234.14C63.3809 234.286 63.415 234.46 63.415 234.662C63.415 234.91 63.3597 235.124 63.249 235.307C63.1416 235.489 62.9967 235.64 62.8144 235.761C62.6322 235.881 62.4222 235.971 62.1846 236.029C61.9469 236.088 61.6979 236.117 61.4375 236.117C60.9232 236.117 60.4772 236.018 60.0996 235.819Z" fill="#31313B"/>
</g>
<defs>
<filter id="filter0_d_35_5377" x="72.7891" y="22" width="261" height="34" filterUnits="userSpaceOnUse" color-interpolation-filters="sRGB">
<feFlood flood-opacity="0" result="BackgroundImageFix"/>
<feColorMatrix in="SourceAlpha" type="matrix" values="0 0 0 0 0 0 0 0 0 0 0 0 0 0 0 0 0 0 127 0" result="hardAlpha"/>
<feOffset dy="-1"/>
<feGaussianBlur stdDeviation="1.5"/>
<feComposite in2="hardAlpha" operator="out"/>
<feColorMatrix type="matrix" values="0 0 0 0 0 0 0 0 0 0 0 0 0 0 0 0 0 0 0.160784 0"/>
<feBlend mode="normal" in2="BackgroundImageFix" result="effect1_dropShadow_35_5377"/>
<feBlend mode="normal" in="SourceGraphic" in2="effect1_dropShadow_35_5377" result="shape"/>
</filter>
<filter id="filter1_d_35_5377" x="11.2588" y="32.5977" width="54.9795" height="13.5195" filterUnits="userSpaceOnUse" color-interpolation-filters="sRGB">
<feFlood flood-opacity="0" result="BackgroundImageFix"/>
<feColorMatrix in="SourceAlpha" type="matrix" values="0 0 0 0 0 0 0 0 0 0 0 0 0 0 0 0 0 0 127 0" result="hardAlpha"/>
<feOffset dy="-1"/>
<feGaussianBlur stdDeviation="1.5"/>
<feComposite in2="hardAlpha" operator="out"/>
<feColorMatrix type="matrix" values="0 0 0 0 0 0 0 0 0 0 0 0 0 0 0 0 0 0 0.160784 0"/>
<feBlend mode="normal" in2="BackgroundImageFix" result="effect1_dropShadow_35_5377"/>
<feBlend mode="normal" in="SourceGraphic" in2="effect1_dropShadow_35_5377" result="shape"/>
</filter>
<filter id="filter2_d_35_5377" x="73" y="118" width="233" height="34" filterUnits="userSpaceOnUse" color-interpolation-filters="sRGB">
<feFlood flood-opacity="0" result="BackgroundImageFix"/>
<feColorMatrix in="SourceAlpha" type="matrix" values="0 0 0 0 0 0 0 0 0 0 0 0 0 0 0 0 0 0 127 0" result="hardAlpha"/>
<feOffset dy="-1"/>
<feGaussianBlur stdDeviation="1.5"/>
<feComposite in2="hardAlpha" operator="out"/>
<feColorMatrix type="matrix" values="0 0 0 0 0 0 0 0 0 0 0 0 0 0 0 0 0 0 0.160784 0"/>
<feBlend mode="normal" in2="BackgroundImageFix" result="effect1_dropShadow_35_5377"/>
<feBlend mode="normal" in="SourceGraphic" in2="effect1_dropShadow_35_5377" result="shape"/>
</filter>
<filter id="filter3_d_35_5377" x="24.2412" y="128.998" width="42.377" height="13.1191" filterUnits="userSpaceOnUse" color-interpolation-filters="sRGB">
<feFlood flood-opacity="0" result="BackgroundImageFix"/>
<feColorMatrix in="SourceAlpha" type="matrix" values="0 0 0 0 0 0 0 0 0 0 0 0 0 0 0 0 0 0 127 0" result="hardAlpha"/>
<feOffset dy="-1"/>
<feGaussianBlur stdDeviation="1.5"/>
<feComposite in2="hardAlpha" operator="out"/>
<feColorMatrix type="matrix" values="0 0 0 0 0 0 0 0 0 0 0 0 0 0 0 0 0 0 0.160784 0"/>
<feBlend mode="normal" in2="BackgroundImageFix" result="effect1_dropShadow_35_5377"/>
<feBlend mode="normal" in="SourceGraphic" in2="effect1_dropShadow_35_5377" result="shape"/>
</filter>
<filter id="filter4_d_35_5377" x="73" y="214" width="205" height="34" filterUnits="userSpaceOnUse" color-interpolation-filters="sRGB">
<feFlood flood-opacity="0" result="BackgroundImageFix"/>
<feColorMatrix in="SourceAlpha" type="matrix" values="0 0 0 0 0 0 0 0 0 0 0 0 0 0 0 0 0 0 127 0" result="hardAlpha"/>
<feOffset dy="-1"/>
<feGaussianBlur stdDeviation="1.5"/>
<feComposite in2="hardAlpha" operator="out"/>
<feColorMatrix type="matrix" values="0 0 0 0 0 0 0 0 0 0 0 0 0 0 0 0 0 0 0.160784 0"/>
<feBlend mode="normal" in2="BackgroundImageFix" result="effect1_dropShadow_35_5377"/>
<feBlend mode="normal" in="SourceGraphic" in2="effect1_dropShadow_35_5377" result="shape"/>
</filter>
<filter id="filter5_d_35_5377" x="0.078125" y="224.69" width="66.3369" height="13.4268" filterUnits="userSpaceOnUse" color-interpolation-filters="sRGB">
<feFlood flood-opacity="0" result="BackgroundImageFix"/>
<feColorMatrix in="SourceAlpha" type="matrix" values="0 0 0 0 0 0 0 0 0 0 0 0 0 0 0 0 0 0 127 0" result="hardAlpha"/>
<feOffset dy="-1"/>
<feGaussianBlur stdDeviation="1.5"/>
<feComposite in2="hardAlpha" operator="out"/>
<feColorMatrix type="matrix" values="0 0 0 0 0 0 0 0 0 0 0 0 0 0 0 0 0 0 0.160784 0"/>
<feBlend mode="normal" in2="BackgroundImageFix" result="effect1_dropShadow_35_5377"/>
<feBlend mode="normal" in="SourceGraphic" in2="effect1_dropShadow_35_5377" result="shape"/>
</filter>
</defs>
</svg>
