<svg width="290" height="318" viewBox="0 0 290 318" fill="none" xmlns="http://www.w3.org/2000/svg">
<path d="M28 309C28 311.485 25.9853 313.5 23.5 313.5C21.0147 313.5 19 311.485 19 309C19 306.515 21.0147 304.5 23.5 304.5C25.9853 304.5 28 306.515 28 309Z" fill="#2537D3"/>
<path d="M35.1934 314V304.897H37.7071C40.9147 304.897 42.5186 306.376 42.5186 309.334C42.5186 310.739 42.0721 311.869 41.1792 312.724C40.2906 313.575 39.0993 314 37.6055 314H35.1934ZM36.2598 305.862V313.035H37.6182C38.8116 313.035 39.7404 312.716 40.4048 312.077C41.0692 311.438 41.4014 310.532 41.4014 309.36C41.4014 307.028 40.1615 305.862 37.6817 305.862H36.2598Z" fill="black"/>
<path d="M44.7022 305.85C44.516 305.85 44.3573 305.786 44.2261 305.659C44.0949 305.532 44.0293 305.371 44.0293 305.177C44.0293 304.982 44.0949 304.821 44.2261 304.694C44.3573 304.563 44.516 304.497 44.7022 304.497C44.8926 304.497 45.0534 304.563 45.1846 304.694C45.32 304.821 45.3877 304.982 45.3877 305.177C45.3877 305.363 45.32 305.522 45.1846 305.653C45.0534 305.784 44.8926 305.85 44.7022 305.85ZM45.21 314H44.169V307.5H45.21V314Z" fill="black"/>
<path d="M51.9702 314H50.9292V312.984H50.9038C50.451 313.763 49.7845 314.152 48.9043 314.152C48.2569 314.152 47.7491 313.981 47.3809 313.638C47.017 313.295 46.835 312.84 46.835 312.273C46.835 311.059 47.5502 310.352 48.9805 310.153L50.9292 309.88C50.9292 308.776 50.4828 308.224 49.5899 308.224C48.807 308.224 48.1003 308.49 47.4698 309.023V307.957C48.1088 307.551 48.8451 307.348 49.6787 307.348C51.2064 307.348 51.9702 308.156 51.9702 309.772V314ZM50.9292 310.712L49.3614 310.928C48.8789 310.995 48.515 311.116 48.2696 311.289C48.0241 311.459 47.9014 311.761 47.9014 312.197C47.9014 312.515 48.0135 312.775 48.2378 312.978C48.4663 313.177 48.7689 313.276 49.1455 313.276C49.6618 313.276 50.0871 313.096 50.4214 312.737C50.76 312.373 50.9292 311.914 50.9292 311.359V310.712Z" fill="black"/>
<path d="M59.4795 313.479C59.4795 315.866 58.3369 317.059 56.0518 317.059C55.2477 317.059 54.5453 316.907 53.9444 316.602V315.561C54.6765 315.968 55.3747 316.171 56.0391 316.171C57.6387 316.171 58.4385 315.32 58.4385 313.619V312.908H58.4131C57.918 313.738 57.1732 314.152 56.1787 314.152C55.3705 314.152 54.7188 313.864 54.2237 313.289C53.7328 312.709 53.4873 311.933 53.4873 310.959C53.4873 309.855 53.7518 308.977 54.2808 308.325C54.814 307.673 55.5419 307.348 56.4644 307.348C57.3404 307.348 57.9899 307.699 58.4131 308.401H58.4385V307.5H59.4795V313.479ZM58.4385 311.061V310.102C58.4385 309.586 58.2629 309.144 57.9116 308.776C57.5646 308.408 57.1309 308.224 56.6104 308.224C55.9671 308.224 55.4636 308.458 55.0996 308.928C54.7357 309.394 54.5537 310.047 54.5537 310.89C54.5537 311.613 54.7272 312.193 55.0742 312.629C55.4255 313.06 55.8889 313.276 56.4644 313.276C57.0484 313.276 57.5223 313.069 57.8863 312.654C58.2544 312.239 58.4385 311.708 58.4385 311.061Z" fill="black"/>
<path d="M66.9824 314H65.9414V310.293C65.9414 308.913 65.4378 308.224 64.4307 308.224C63.9102 308.224 63.4785 308.42 63.1358 308.814C62.7972 309.203 62.628 309.696 62.628 310.293V314H61.5869V307.5H62.628V308.579H62.6533C63.1442 307.758 63.8552 307.348 64.7862 307.348C65.4971 307.348 66.0409 307.578 66.4175 308.039C66.7941 308.496 66.9824 309.159 66.9824 310.026V314Z" fill="black"/>
<path d="M71.667 314.152C70.7064 314.152 69.9383 313.85 69.3628 313.245C68.7915 312.635 68.5059 311.829 68.5059 310.826C68.5059 309.734 68.8042 308.882 69.4009 308.268C69.9976 307.654 70.8037 307.348 71.8194 307.348C72.7884 307.348 73.5438 307.646 74.0855 308.243C74.6314 308.839 74.9043 309.667 74.9043 310.725C74.9043 311.761 74.6102 312.593 74.022 313.219C73.438 313.841 72.653 314.152 71.667 314.152ZM71.7432 308.224C71.0746 308.224 70.5456 308.452 70.1563 308.909C69.7669 309.362 69.5723 309.988 69.5723 310.788C69.5723 311.558 69.7691 312.165 70.1626 312.61C70.5562 313.054 71.083 313.276 71.7432 313.276C72.416 313.276 72.9323 313.058 73.292 312.622C73.6559 312.187 73.8379 311.567 73.8379 310.763C73.8379 309.95 73.6559 309.324 73.292 308.884C72.9323 308.444 72.416 308.224 71.7432 308.224Z" fill="black"/>
<path d="M76.1739 313.765V312.648C76.7409 313.067 77.3651 313.276 78.0464 313.276C78.9605 313.276 79.4175 312.972 79.4175 312.362C79.4175 312.189 79.3773 312.043 79.2969 311.924C79.2207 311.802 79.1149 311.694 78.9795 311.6C78.8483 311.507 78.6918 311.425 78.5098 311.353C78.3321 311.277 78.1395 311.198 77.9322 311.118C77.6444 311.004 77.3905 310.89 77.1704 310.775C76.9546 310.657 76.7726 310.526 76.6245 310.382C76.4807 310.234 76.3706 310.066 76.2945 309.88C76.2225 309.694 76.1865 309.476 76.1865 309.226C76.1865 308.922 76.2564 308.653 76.396 308.42C76.5357 308.183 76.7219 307.987 76.9546 307.83C77.1874 307.669 77.4518 307.549 77.7481 307.468C78.0485 307.388 78.3574 307.348 78.6748 307.348C79.2377 307.348 79.7412 307.445 80.1856 307.64V308.693C79.7074 308.38 79.1572 308.224 78.5352 308.224C78.3405 308.224 78.1649 308.247 78.0083 308.293C77.8517 308.336 77.7163 308.397 77.6021 308.477C77.492 308.558 77.4053 308.655 77.3418 308.769C77.2826 308.879 77.253 309.002 77.253 309.138C77.253 309.307 77.2826 309.449 77.3418 309.563C77.4053 309.677 77.4963 309.779 77.6148 309.868C77.7333 309.956 77.8771 310.037 78.0464 310.109C78.2157 310.181 78.4082 310.259 78.624 310.344C78.9118 310.454 79.1699 310.568 79.3985 310.686C79.627 310.801 79.8216 310.932 79.9824 311.08C80.1433 311.224 80.266 311.391 80.3506 311.581C80.4395 311.772 80.4839 311.998 80.4839 312.261C80.4839 312.582 80.412 312.862 80.2681 313.099C80.1284 313.336 79.9401 313.532 79.7031 313.689C79.4662 313.845 79.1932 313.962 78.8843 314.038C78.5754 314.114 78.2517 314.152 77.9131 314.152C77.2445 314.152 76.6647 314.023 76.1739 313.765Z" fill="black"/>
<path d="M85.105 313.936C84.8596 314.072 84.5358 314.14 84.1338 314.14C82.9955 314.14 82.4263 313.505 82.4263 312.235V308.389H81.3091V307.5H82.4263V305.913L83.4673 305.577V307.5H85.105V308.389H83.4673V312.051C83.4673 312.487 83.5414 312.798 83.6895 312.984C83.8376 313.17 84.083 313.264 84.4258 313.264C84.6882 313.264 84.9146 313.192 85.105 313.048V313.936Z" fill="black"/>
<path d="M87.0283 305.85C86.8421 305.85 86.6835 305.786 86.5523 305.659C86.4211 305.532 86.3555 305.371 86.3555 305.177C86.3555 304.982 86.4211 304.821 86.5523 304.694C86.6835 304.563 86.8421 304.497 87.0283 304.497C87.2188 304.497 87.3796 304.563 87.5108 304.694C87.6462 304.821 87.7139 304.982 87.7139 305.177C87.7139 305.363 87.6462 305.522 87.5108 305.653C87.3796 305.784 87.2188 305.85 87.0283 305.85ZM87.5362 314H86.4951V307.5H87.5362V314Z" fill="black"/>
<path d="M94.0742 313.702C93.5749 314.002 92.9824 314.152 92.2969 314.152C91.3701 314.152 90.6211 313.852 90.0498 313.251C89.4828 312.646 89.1992 311.863 89.1992 310.902C89.1992 309.832 89.506 308.973 90.1197 308.325C90.7333 307.673 91.5521 307.348 92.5762 307.348C93.1475 307.348 93.6511 307.453 94.0869 307.665V308.731C93.6045 308.393 93.0882 308.224 92.5381 308.224C91.8737 308.224 91.3278 308.463 90.9004 308.941C90.4772 309.415 90.2656 310.039 90.2656 310.813C90.2656 311.575 90.4645 312.176 90.8623 312.616C91.2643 313.056 91.8018 313.276 92.4746 313.276C93.0417 313.276 93.5749 313.088 94.0742 312.711V313.702Z" fill="black"/>
<path d="M116 309C116 311.485 113.985 313.5 111.5 313.5C109.015 313.5 107 311.485 107 309C107 306.515 109.015 304.5 111.5 304.5C113.985 304.5 116 306.515 116 309Z" fill="#2C0857"/>
<path d="M122.768 313.632V312.375C122.912 312.502 123.083 312.616 123.282 312.718C123.485 312.819 123.697 312.906 123.917 312.978C124.141 313.046 124.366 313.099 124.59 313.137C124.814 313.175 125.022 313.194 125.212 313.194C125.868 313.194 126.357 313.073 126.678 312.832C127.004 312.586 127.167 312.235 127.167 311.778C127.167 311.533 127.112 311.319 127.002 311.137C126.896 310.955 126.748 310.79 126.558 310.642C126.367 310.49 126.141 310.346 125.878 310.21C125.62 310.071 125.341 309.925 125.041 309.772C124.723 309.612 124.427 309.449 124.152 309.284C123.877 309.119 123.638 308.937 123.435 308.738C123.231 308.539 123.071 308.315 122.952 308.065C122.838 307.811 122.781 307.515 122.781 307.176C122.781 306.761 122.872 306.402 123.054 306.097C123.236 305.788 123.475 305.534 123.771 305.335C124.067 305.136 124.404 304.988 124.78 304.891C125.161 304.794 125.548 304.745 125.942 304.745C126.839 304.745 127.493 304.853 127.903 305.069V306.268C127.366 305.896 126.676 305.71 125.834 305.71C125.601 305.71 125.369 305.735 125.136 305.786C124.903 305.833 124.696 305.911 124.514 306.021C124.332 306.131 124.184 306.273 124.069 306.446C123.955 306.62 123.898 306.831 123.898 307.081C123.898 307.314 123.94 307.515 124.025 307.684C124.114 307.853 124.243 308.008 124.412 308.147C124.581 308.287 124.787 308.422 125.028 308.554C125.273 308.685 125.555 308.829 125.872 308.985C126.198 309.146 126.507 309.315 126.799 309.493C127.091 309.671 127.347 309.868 127.567 310.083C127.787 310.299 127.96 310.538 128.087 310.801C128.219 311.063 128.284 311.364 128.284 311.702C128.284 312.151 128.195 312.531 128.018 312.845C127.844 313.154 127.607 313.405 127.307 313.6C127.01 313.795 126.668 313.934 126.278 314.019C125.889 314.108 125.479 314.152 125.047 314.152C124.903 314.152 124.725 314.14 124.514 314.114C124.302 314.093 124.086 314.059 123.866 314.013C123.646 313.97 123.437 313.917 123.238 313.854C123.043 313.786 122.887 313.712 122.768 313.632Z" fill="black"/>
<path d="M135.216 314H134.175V312.972H134.149C133.718 313.759 133.049 314.152 132.144 314.152C130.595 314.152 129.82 313.23 129.82 311.385V307.5H130.855V311.22C130.855 312.591 131.38 313.276 132.429 313.276C132.937 313.276 133.354 313.09 133.68 312.718C134.01 312.341 134.175 311.85 134.175 311.245V307.5H135.216V314Z" fill="black"/>
<path d="M140.713 308.554C140.531 308.414 140.269 308.344 139.926 308.344C139.481 308.344 139.109 308.554 138.809 308.973C138.512 309.392 138.364 309.963 138.364 310.686V314H137.323V307.5H138.364V308.839H138.39C138.538 308.382 138.764 308.027 139.069 307.773C139.374 307.515 139.714 307.386 140.091 307.386C140.362 307.386 140.569 307.415 140.713 307.475V308.554Z" fill="black"/>
<path d="M147.391 313.479C147.391 315.866 146.248 317.059 143.963 317.059C143.159 317.059 142.456 316.907 141.855 316.602V315.561C142.588 315.968 143.286 316.171 143.95 316.171C145.55 316.171 146.35 315.32 146.35 313.619V312.908H146.324C145.829 313.738 145.084 314.152 144.09 314.152C143.282 314.152 142.63 313.864 142.135 313.289C141.644 312.709 141.398 311.933 141.398 310.959C141.398 309.855 141.663 308.977 142.192 308.325C142.725 307.673 143.453 307.348 144.376 307.348C145.251 307.348 145.901 307.699 146.324 308.401H146.35V307.5H147.391V313.479ZM146.35 311.061V310.102C146.35 309.586 146.174 309.144 145.823 308.776C145.476 308.408 145.042 308.224 144.522 308.224C143.878 308.224 143.375 308.458 143.011 308.928C142.647 309.394 142.465 310.047 142.465 310.89C142.465 311.613 142.638 312.193 142.985 312.629C143.337 313.06 143.8 313.276 144.376 313.276C144.96 313.276 145.433 313.069 145.797 312.654C146.166 312.239 146.35 311.708 146.35 311.061Z" fill="black"/>
<path d="M150.031 305.85C149.845 305.85 149.686 305.786 149.555 305.659C149.424 305.532 149.358 305.371 149.358 305.177C149.358 304.982 149.424 304.821 149.555 304.694C149.686 304.563 149.845 304.497 150.031 304.497C150.222 304.497 150.383 304.563 150.514 304.694C150.649 304.821 150.717 304.982 150.717 305.177C150.717 305.363 150.649 305.522 150.514 305.653C150.383 305.784 150.222 305.85 150.031 305.85ZM150.539 314H149.498V307.5H150.539V314Z" fill="black"/>
<path d="M157.077 313.702C156.578 314.002 155.985 314.152 155.3 314.152C154.373 314.152 153.624 313.852 153.053 313.251C152.486 312.646 152.202 311.863 152.202 310.902C152.202 309.832 152.509 308.973 153.123 308.325C153.736 307.673 154.555 307.348 155.579 307.348C156.15 307.348 156.654 307.453 157.09 307.665V308.731C156.607 308.393 156.091 308.224 155.541 308.224C154.877 308.224 154.331 308.463 153.903 308.941C153.48 309.415 153.269 310.039 153.269 310.813C153.269 311.575 153.467 312.176 153.865 312.616C154.267 313.056 154.805 313.276 155.478 313.276C156.045 313.276 156.578 313.088 157.077 312.711V313.702Z" fill="black"/>
<path d="M163.304 314H162.263V312.984H162.238C161.785 313.763 161.119 314.152 160.238 314.152C159.591 314.152 159.083 313.981 158.715 313.638C158.351 313.295 158.169 312.84 158.169 312.273C158.169 311.059 158.884 310.352 160.314 310.153L162.263 309.88C162.263 308.776 161.817 308.224 160.924 308.224C160.141 308.224 159.434 308.49 158.804 309.023V307.957C159.443 307.551 160.179 307.348 161.013 307.348C162.54 307.348 163.304 308.156 163.304 309.772V314ZM162.263 310.712L160.695 310.928C160.213 310.995 159.849 311.116 159.604 311.289C159.358 311.459 159.235 311.761 159.235 312.197C159.235 312.515 159.348 312.775 159.572 312.978C159.8 313.177 160.103 313.276 160.48 313.276C160.996 313.276 161.421 313.096 161.755 312.737C162.094 312.373 162.263 311.914 162.263 311.359V310.712Z" fill="black"/>
<path d="M166.307 314H165.266V304.377H166.307V314Z" fill="black"/>
<path d="M189 309C189 311.485 186.985 313.5 184.5 313.5C182.015 313.5 180 311.485 180 309C180 306.515 182.015 304.5 184.5 304.5C186.985 304.5 189 306.515 189 309Z" fill="#ADA004"/>
<path d="M201.576 305.862H198.948V314H197.882V305.862H195.26V304.897H201.576V305.862Z" fill="black"/>
<path d="M208.267 314H207.226V310.255C207.226 308.901 206.722 308.224 205.715 308.224C205.207 308.224 204.78 308.42 204.433 308.814C204.086 309.203 203.912 309.705 203.912 310.318V314H202.871V304.377H203.912V308.579H203.938C204.437 307.758 205.148 307.348 206.07 307.348C207.535 307.348 208.267 308.23 208.267 309.995V314Z" fill="black"/>
<path d="M215.459 311.01H210.869C210.886 311.734 211.081 312.292 211.453 312.686C211.826 313.079 212.338 313.276 212.989 313.276C213.721 313.276 214.394 313.035 215.008 312.553V313.53C214.437 313.945 213.681 314.152 212.742 314.152C211.823 314.152 211.102 313.858 210.577 313.27C210.052 312.677 209.79 311.846 209.79 310.775C209.79 309.764 210.076 308.941 210.647 308.306C211.223 307.667 211.936 307.348 212.786 307.348C213.637 307.348 214.295 307.623 214.76 308.173C215.226 308.723 215.459 309.487 215.459 310.464V311.01ZM214.392 310.128C214.388 309.527 214.242 309.059 213.954 308.725C213.671 308.391 213.275 308.224 212.767 308.224C212.276 308.224 211.859 308.399 211.517 308.75C211.174 309.102 210.962 309.561 210.882 310.128H214.392Z" fill="black"/>
<path d="M220.429 308.554C220.247 308.414 219.984 308.344 219.642 308.344C219.197 308.344 218.825 308.554 218.524 308.973C218.228 309.392 218.08 309.963 218.08 310.686V314H217.039V307.5H218.08V308.839H218.105C218.254 308.382 218.48 308.027 218.785 307.773C219.089 307.515 219.43 307.386 219.807 307.386C220.078 307.386 220.285 307.415 220.429 307.475V308.554Z" fill="black"/>
<path d="M226.211 314H225.17V312.984H225.145C224.692 313.763 224.026 314.152 223.146 314.152C222.498 314.152 221.99 313.981 221.622 313.638C221.258 313.295 221.076 312.84 221.076 312.273C221.076 311.059 221.791 310.352 223.222 310.153L225.17 309.88C225.17 308.776 224.724 308.224 223.831 308.224C223.048 308.224 222.342 308.49 221.711 309.023V307.957C222.35 307.551 223.086 307.348 223.92 307.348C225.448 307.348 226.211 308.156 226.211 309.772V314ZM225.17 310.712L223.603 310.928C223.12 310.995 222.756 311.116 222.511 311.289C222.265 311.459 222.143 311.761 222.143 312.197C222.143 312.515 222.255 312.775 222.479 312.978C222.708 313.177 223.01 313.276 223.387 313.276C223.903 313.276 224.328 313.096 224.663 312.737C225.001 312.373 225.17 311.914 225.17 311.359V310.712Z" fill="black"/>
<path d="M229.239 313.06H229.214V316.99H228.173V307.5H229.214V308.642H229.239C229.751 307.779 230.5 307.348 231.486 307.348C232.324 307.348 232.978 307.64 233.448 308.224C233.918 308.803 234.152 309.582 234.152 310.559C234.152 311.647 233.888 312.519 233.359 313.175C232.83 313.826 232.106 314.152 231.188 314.152C230.346 314.152 229.696 313.788 229.239 313.06ZM229.214 310.439V311.347C229.214 311.884 229.387 312.341 229.734 312.718C230.086 313.09 230.53 313.276 231.067 313.276C231.698 313.276 232.191 313.035 232.546 312.553C232.906 312.07 233.086 311.399 233.086 310.54C233.086 309.817 232.919 309.25 232.585 308.839C232.25 308.429 231.797 308.224 231.226 308.224C230.621 308.224 230.134 308.435 229.766 308.858C229.398 309.277 229.214 309.804 229.214 310.439Z" fill="black"/>
<path d="M241.04 311.01H236.45C236.467 311.734 236.662 312.292 237.034 312.686C237.407 313.079 237.919 313.276 238.57 313.276C239.302 313.276 239.975 313.035 240.589 312.553V313.53C240.018 313.945 239.262 314.152 238.323 314.152C237.404 314.152 236.683 313.858 236.158 313.27C235.633 312.677 235.371 311.846 235.371 310.775C235.371 309.764 235.657 308.941 236.228 308.306C236.804 307.667 237.517 307.348 238.367 307.348C239.218 307.348 239.876 307.623 240.341 308.173C240.807 308.723 241.04 309.487 241.04 310.464V311.01ZM239.973 310.128C239.969 309.527 239.823 309.059 239.535 308.725C239.252 308.391 238.856 308.224 238.348 308.224C237.857 308.224 237.44 308.399 237.098 308.75C236.755 309.102 236.543 309.561 236.463 310.128H239.973Z" fill="black"/>
<path d="M247.876 314H246.835V312.972H246.81C246.378 313.759 245.709 314.152 244.804 314.152C243.255 314.152 242.48 313.23 242.48 311.385V307.5H243.515V311.22C243.515 312.591 244.04 313.276 245.089 313.276C245.597 313.276 246.014 313.09 246.34 312.718C246.67 312.341 246.835 311.85 246.835 311.245V307.5H247.876V314Z" fill="black"/>
<path d="M252.999 313.936C252.753 314.072 252.429 314.14 252.027 314.14C250.889 314.14 250.32 313.505 250.32 312.235V308.389H249.203V307.5H250.32V305.913L251.361 305.577V307.5H252.999V308.389H251.361V312.051C251.361 312.487 251.435 312.798 251.583 312.984C251.731 313.17 251.977 313.264 252.319 313.264C252.582 313.264 252.808 313.192 252.999 313.048V313.936Z" fill="black"/>
<path d="M254.922 305.85C254.736 305.85 254.577 305.786 254.446 305.659C254.315 305.532 254.249 305.371 254.249 305.177C254.249 304.982 254.315 304.821 254.446 304.694C254.577 304.563 254.736 304.497 254.922 304.497C255.112 304.497 255.273 304.563 255.404 304.694C255.54 304.821 255.607 304.982 255.607 305.177C255.607 305.363 255.54 305.522 255.404 305.653C255.273 305.784 255.112 305.85 254.922 305.85ZM255.43 314H254.389V307.5H255.43V314Z" fill="black"/>
<path d="M261.968 313.702C261.468 314.002 260.876 314.152 260.19 314.152C259.264 314.152 258.515 313.852 257.943 313.251C257.376 312.646 257.093 311.863 257.093 310.902C257.093 309.832 257.4 308.973 258.013 308.325C258.627 307.673 259.446 307.348 260.47 307.348C261.041 307.348 261.545 307.453 261.98 307.665V308.731C261.498 308.393 260.982 308.224 260.432 308.224C259.767 308.224 259.221 308.463 258.794 308.941C258.371 309.415 258.159 310.039 258.159 310.813C258.159 311.575 258.358 312.176 258.756 312.616C259.158 313.056 259.695 313.276 260.368 313.276C260.935 313.276 261.468 313.088 261.968 312.711V313.702Z" fill="black"/>
<path d="M72.1741 270.385C102.672 288.099 138.58 294.089 173.177 287.236C207.773 280.382 238.686 261.154 260.127 233.152L216.379 199.654C203.085 217.016 183.919 228.937 162.47 233.186C141.02 237.435 118.757 233.721 99.848 222.739L72.1741 270.385Z" fill="#2C0857"/>
<path d="M262.858 229.466C278.213 208.041 287.437 182.836 289.538 156.56C291.64 130.285 286.539 103.934 274.785 80.341C263.031 56.7477 245.068 36.8048 222.828 22.6567C200.587 8.50865 174.911 0.69072 148.56 0.0435987L147.207 55.127C163.545 55.5282 179.464 60.3753 193.253 69.1471C207.042 77.9189 218.179 90.2835 225.467 104.911C232.754 119.539 235.917 135.877 234.614 152.167C233.311 168.458 227.592 184.085 218.072 197.369L262.858 229.466Z" fill="#2537D3"/>
<path d="M68.1617 267.967C41.5331 251.327 21.0254 226.494 9.72162 197.199C-1.58216 167.904 -3.0711 135.732 5.47863 105.518C14.0284 75.305 32.1547 48.6833 57.1327 29.6555C82.1106 10.6278 112.59 0.222286 143.989 0.00341797L144.373 55.1021C124.906 55.2378 106.009 61.6892 90.5223 73.4864C75.0359 85.2836 63.7976 101.789 58.4968 120.521C53.1959 139.254 54.1191 159.201 61.1274 177.363C68.1358 195.526 80.8505 210.923 97.3603 221.239L68.1617 267.967Z" fill="#ADA004"/>
<path d="M128.817 174.308V170.17C130.561 171.345 132.33 171.933 134.123 171.933C135.929 171.933 137.383 171.475 138.484 170.559C139.584 169.632 140.135 168.401 140.135 166.867C140.135 165.358 139.572 164.183 138.446 163.342C137.333 162.501 135.731 162.08 133.641 162.08C132.923 162.08 131.47 162.154 129.28 162.303L130.227 148.312H143.326V151.986H133.808L133.362 158.647C134.216 158.598 134.989 158.573 135.682 158.573C138.502 158.573 140.679 159.297 142.213 160.744C143.759 162.191 144.532 164.17 144.532 166.682C144.532 169.316 143.648 171.432 141.879 173.027C140.123 174.611 137.704 175.402 134.624 175.402C132.027 175.402 130.091 175.037 128.817 174.308Z" fill="black"/>
<path d="M157.317 175.365C154.546 175.365 152.381 174.233 150.822 171.97C149.276 169.706 148.503 166.434 148.503 162.154C148.503 157.454 149.313 153.897 150.934 151.485C152.554 149.073 154.892 147.867 157.947 147.867C163.798 147.867 166.724 152.413 166.724 161.505C166.724 166.007 165.895 169.446 164.237 171.821C162.592 174.184 160.285 175.365 157.317 175.365ZM157.743 151.3C154.515 151.3 152.901 154.856 152.901 161.969C152.901 168.624 154.484 171.951 157.651 171.951C160.768 171.951 162.326 168.568 162.326 161.802C162.326 154.8 160.799 151.3 157.743 151.3Z" fill="black"/>
<path d="M134.977 123.308H130.529V137.08H128.725V123.308H124.288V121.676H134.977V123.308Z" fill="#555555"/>
<path d="M139.617 137.338C137.992 137.338 136.692 136.826 135.718 135.802C134.751 134.77 134.268 133.406 134.268 131.709C134.268 129.861 134.772 128.418 135.782 127.38C136.792 126.341 138.156 125.822 139.875 125.822C141.515 125.822 142.793 126.327 143.71 127.337C144.634 128.347 145.096 129.747 145.096 131.537C145.096 133.292 144.598 134.699 143.603 135.759C142.614 136.811 141.286 137.338 139.617 137.338ZM139.746 127.305C138.615 127.305 137.719 127.691 137.061 128.465C136.402 129.231 136.072 130.291 136.072 131.644C136.072 132.948 136.405 133.975 137.071 134.727C137.737 135.479 138.629 135.855 139.746 135.855C140.885 135.855 141.758 135.487 142.367 134.749C142.983 134.011 143.291 132.962 143.291 131.601C143.291 130.226 142.983 129.167 142.367 128.422C141.758 127.677 140.885 127.305 139.746 127.305Z" fill="#555555"/>
<path d="M153.013 136.973C152.597 137.202 152.05 137.316 151.369 137.316C149.443 137.316 148.48 136.242 148.48 134.094V127.584H146.589V126.08H148.48V123.394L150.241 122.825V126.08H153.013V127.584H150.241V133.782C150.241 134.52 150.367 135.046 150.617 135.361C150.868 135.676 151.283 135.834 151.863 135.834C152.307 135.834 152.69 135.712 153.013 135.469V136.973Z" fill="#555555"/>
<path d="M163.239 137.08H161.478V135.361H161.435C160.668 136.679 159.54 137.338 158.051 137.338C156.955 137.338 156.096 137.048 155.473 136.468C154.857 135.888 154.549 135.118 154.549 134.158C154.549 132.103 155.759 130.907 158.18 130.57L161.478 130.108C161.478 128.239 160.722 127.305 159.211 127.305C157.886 127.305 156.69 127.756 155.623 128.658V126.853C156.704 126.166 157.951 125.822 159.361 125.822C161.947 125.822 163.239 127.19 163.239 129.926V137.08ZM161.478 131.516L158.824 131.881C158.008 131.995 157.392 132.199 156.977 132.493C156.561 132.78 156.354 133.292 156.354 134.029C156.354 134.566 156.543 135.007 156.923 135.35C157.31 135.687 157.822 135.855 158.459 135.855C159.333 135.855 160.052 135.551 160.618 134.942C161.191 134.326 161.478 133.549 161.478 132.611V131.516Z" fill="#555555"/>
<path d="M168.32 137.08H166.559V120.795H168.32V137.08Z" fill="#555555"/>
</svg>
