<svg width="1118" height="327" viewBox="0 0 1118 327" fill="none" xmlns="http://www.w3.org/2000/svg">
<g filter="url(#filter0_d_13_5)">
<path d="M1046.94 9C1046.94 11.4853 1044.93 13.5 1042.44 13.5C1039.95 13.5 1037.94 11.4853 1037.94 9C1037.94 6.51472 1039.95 4.5 1042.44 4.5C1044.93 4.5 1046.94 6.51472 1046.94 9Z" fill="#D7B218"/>
<path d="M987.94 9C987.94 11.4853 985.925 13.5 983.44 13.5C980.955 13.5 978.94 11.4853 978.94 9C978.94 6.51472 980.955 4.5 983.44 4.5C985.925 4.5 987.94 6.51472 987.94 9Z" fill="#2C0857"/>
<path d="M1001.19 10.6016C1001.19 12.9609 1000.12 14.1406 997.995 14.1406C995.956 14.1406 994.936 13.0059 994.936 10.7363V5.59766H995.92V10.6719C995.92 12.3945 996.647 13.2559 998.1 13.2559C999.502 13.2559 1000.2 12.4238 1000.2 10.7598V5.59766H1001.19V10.6016Z" fill="#1B1B1D"/>
<path d="M1002.8 13.7832V12.752C1003.32 13.1387 1003.9 13.332 1004.53 13.332C1005.37 13.332 1005.79 13.0508 1005.79 12.4883C1005.79 12.3281 1005.76 12.1934 1005.68 12.084C1005.61 11.9707 1005.51 11.8711 1005.39 11.7852C1005.27 11.6992 1005.12 11.623 1004.96 11.5566C1004.79 11.4863 1004.61 11.4141 1004.42 11.3398C1004.16 11.2344 1003.92 11.1289 1003.72 11.0234C1003.52 10.9141 1003.35 10.793 1003.22 10.6602C1003.08 10.5234 1002.98 10.3691 1002.91 10.1973C1002.84 10.0254 1002.81 9.82422 1002.81 9.59375C1002.81 9.3125 1002.88 9.06445 1003 8.84961C1003.13 8.63086 1003.31 8.44922 1003.52 8.30469C1003.73 8.15625 1003.98 8.04492 1004.25 7.9707C1004.53 7.89648 1004.81 7.85938 1005.11 7.85938C1005.63 7.85938 1006.09 7.94922 1006.5 8.12891V9.10156C1006.06 8.8125 1005.55 8.66797 1004.98 8.66797C1004.8 8.66797 1004.64 8.68945 1004.49 8.73242C1004.35 8.77148 1004.22 8.82812 1004.12 8.90234C1004.02 8.97656 1003.94 9.06641 1003.88 9.17188C1003.82 9.27344 1003.8 9.38672 1003.8 9.51172C1003.8 9.66797 1003.82 9.79883 1003.88 9.9043C1003.94 10.0098 1004.02 10.1035 1004.13 10.1855C1004.24 10.2676 1004.37 10.3418 1004.53 10.4082C1004.68 10.4746 1004.86 10.5469 1005.06 10.625C1005.33 10.7266 1005.56 10.832 1005.78 10.9414C1005.99 11.0469 1006.17 11.168 1006.31 11.3047C1006.46 11.4375 1006.58 11.5918 1006.65 11.7676C1006.74 11.9434 1006.78 12.1523 1006.78 12.3945C1006.78 12.6914 1006.71 12.9492 1006.58 13.168C1006.45 13.3867 1006.28 13.5684 1006.06 13.7129C1005.84 13.8574 1005.59 13.9648 1005.3 14.0352C1005.02 14.1055 1004.72 14.1406 1004.4 14.1406C1003.79 14.1406 1003.25 14.0215 1002.8 13.7832Z" fill="#1B1B1D"/>
<path d="M1008.75 6.47656C1008.58 6.47656 1008.43 6.41797 1008.31 6.30078C1008.19 6.18359 1008.13 6.03516 1008.13 5.85547C1008.13 5.67578 1008.19 5.52734 1008.31 5.41016C1008.43 5.28906 1008.58 5.22852 1008.75 5.22852C1008.93 5.22852 1009.08 5.28906 1009.2 5.41016C1009.32 5.52734 1009.39 5.67578 1009.39 5.85547C1009.39 6.02734 1009.32 6.17383 1009.2 6.29492C1009.08 6.41602 1008.93 6.47656 1008.75 6.47656ZM1009.22 14H1008.26V8H1009.22V14Z" fill="#1B1B1D"/>
<path d="M1016.15 14H1015.19V10.5781C1015.19 9.30469 1014.72 8.66797 1013.79 8.66797C1013.31 8.66797 1012.91 8.84961 1012.6 9.21289C1012.28 9.57227 1012.13 10.0273 1012.13 10.5781V14H1011.17V8H1012.13V8.99609H1012.15C1012.6 8.23828 1013.26 7.85938 1014.12 7.85938C1014.78 7.85938 1015.28 8.07227 1015.63 8.49805C1015.97 8.91992 1016.15 9.53125 1016.15 10.332V14Z" fill="#1B1B1D"/>
<path d="M1023.08 13.5195C1023.08 15.7227 1022.03 16.8242 1019.92 16.8242C1019.18 16.8242 1018.53 16.6836 1017.98 16.4023V15.4414C1018.65 15.8164 1019.3 16.0039 1019.91 16.0039C1021.39 16.0039 1022.12 15.2188 1022.12 13.6484V12.9922H1022.1C1021.64 13.7578 1020.96 14.1406 1020.04 14.1406C1019.29 14.1406 1018.69 13.875 1018.23 13.3438C1017.78 12.8086 1017.55 12.0918 1017.55 11.1934C1017.55 10.1738 1017.8 9.36328 1018.29 8.76172C1018.78 8.16016 1019.45 7.85938 1020.3 7.85938C1021.11 7.85938 1021.71 8.18359 1022.1 8.83203H1022.12V8H1023.08V13.5195ZM1022.12 11.2871V10.4023C1022.12 9.92578 1021.96 9.51758 1021.64 9.17773C1021.32 8.83789 1020.92 8.66797 1020.44 8.66797C1019.84 8.66797 1019.38 8.88477 1019.04 9.31836C1018.71 9.74805 1018.54 10.3516 1018.54 11.1289C1018.54 11.7969 1018.7 12.332 1019.02 12.7344C1019.34 13.1328 1019.77 13.332 1020.3 13.332C1020.84 13.332 1021.28 13.1406 1021.61 12.7578C1021.95 12.375 1022.12 11.8848 1022.12 11.2871Z" fill="#1B1B1D"/>
<path d="M1060.81 14H1059.61L1055.28 7.30273C1055.17 7.13477 1055.08 6.95898 1055.01 6.77539H1054.98C1055.01 6.95508 1055.03 7.33984 1055.03 7.92969V14H1054.04V5.59766H1055.32L1059.53 12.1895C1059.7 12.4629 1059.81 12.6504 1059.87 12.752H1059.89C1059.85 12.5098 1059.83 12.0977 1059.83 11.5156V5.59766H1060.81V14Z" fill="#1B1B1D"/>
<path d="M1065.4 14.1406C1064.51 14.1406 1063.8 13.8613 1063.27 13.3027C1062.74 12.7402 1062.48 11.9961 1062.48 11.0703C1062.48 10.0625 1062.75 9.27539 1063.31 8.70898C1063.86 8.14258 1064.6 7.85938 1065.54 7.85938C1066.43 7.85938 1067.13 8.13477 1067.63 8.68555C1068.13 9.23633 1068.39 10 1068.39 10.9766C1068.39 11.9336 1068.11 12.7012 1067.57 13.2793C1067.03 13.8535 1066.31 14.1406 1065.4 14.1406ZM1065.47 8.66797C1064.85 8.66797 1064.36 8.87891 1064 9.30078C1063.64 9.71875 1063.46 10.2969 1063.46 11.0352C1063.46 11.7461 1063.64 12.3066 1064.01 12.7168C1064.37 13.127 1064.86 13.332 1065.47 13.332C1066.09 13.332 1066.56 13.1309 1066.9 12.7285C1067.23 12.3262 1067.4 11.7539 1067.4 11.0117C1067.4 10.2617 1067.23 9.68359 1066.9 9.27734C1066.56 8.87109 1066.09 8.66797 1065.47 8.66797Z" fill="#1B1B1D"/>
<path d="M1072.7 13.9414C1072.48 14.0664 1072.18 14.1289 1071.81 14.1289C1070.76 14.1289 1070.23 13.543 1070.23 12.3711V8.82031H1069.2V8H1070.23V6.53516L1071.19 6.22461V8H1072.7V8.82031H1071.19V12.2012C1071.19 12.6035 1071.26 12.8906 1071.4 13.0625C1071.53 13.2344 1071.76 13.3203 1072.08 13.3203C1072.32 13.3203 1072.53 13.2539 1072.7 13.1211V13.9414Z" fill="#1B1B1D"/>
<path d="M1083.56 10.6016C1083.56 12.9609 1082.49 14.1406 1080.36 14.1406C1078.32 14.1406 1077.3 13.0059 1077.3 10.7363V5.59766H1078.29V10.6719C1078.29 12.3945 1079.01 13.2559 1080.47 13.2559C1081.87 13.2559 1082.57 12.4238 1082.57 10.7598V5.59766H1083.56V10.6016Z" fill="#1B1B1D"/>
<path d="M1085.17 13.7832V12.752C1085.69 13.1387 1086.27 13.332 1086.89 13.332C1087.74 13.332 1088.16 13.0508 1088.16 12.4883C1088.16 12.3281 1088.12 12.1934 1088.05 12.084C1087.98 11.9707 1087.88 11.8711 1087.76 11.7852C1087.64 11.6992 1087.49 11.623 1087.32 11.5566C1087.16 11.4863 1086.98 11.4141 1086.79 11.3398C1086.52 11.2344 1086.29 11.1289 1086.09 11.0234C1085.89 10.9141 1085.72 10.793 1085.58 10.6602C1085.45 10.5234 1085.35 10.3691 1085.28 10.1973C1085.21 10.0254 1085.18 9.82422 1085.18 9.59375C1085.18 9.3125 1085.24 9.06445 1085.37 8.84961C1085.5 8.63086 1085.67 8.44922 1085.89 8.30469C1086.1 8.15625 1086.35 8.04492 1086.62 7.9707C1086.9 7.89648 1087.18 7.85938 1087.47 7.85938C1087.99 7.85938 1088.46 7.94922 1088.87 8.12891V9.10156C1088.43 8.8125 1087.92 8.66797 1087.35 8.66797C1087.17 8.66797 1087 8.68945 1086.86 8.73242C1086.72 8.77148 1086.59 8.82812 1086.48 8.90234C1086.38 8.97656 1086.3 9.06641 1086.24 9.17188C1086.19 9.27344 1086.16 9.38672 1086.16 9.51172C1086.16 9.66797 1086.19 9.79883 1086.24 9.9043C1086.3 10.0098 1086.39 10.1035 1086.5 10.1855C1086.61 10.2676 1086.74 10.3418 1086.89 10.4082C1087.05 10.4746 1087.23 10.5469 1087.43 10.625C1087.69 10.7266 1087.93 10.832 1088.14 10.9414C1088.35 11.0469 1088.53 11.168 1088.68 11.3047C1088.83 11.4375 1088.94 11.5918 1089.02 11.7676C1089.1 11.9434 1089.14 12.1523 1089.14 12.3945C1089.14 12.6914 1089.08 12.9492 1088.95 13.168C1088.82 13.3867 1088.64 13.5684 1088.42 13.7129C1088.21 13.8574 1087.95 13.9648 1087.67 14.0352C1087.38 14.1055 1087.08 14.1406 1086.77 14.1406C1086.15 14.1406 1085.62 14.0215 1085.17 13.7832Z" fill="#1B1B1D"/>
<path d="M1095.45 11.2402H1091.21C1091.23 11.9082 1091.41 12.4238 1091.75 12.7871C1092.1 13.1504 1092.57 13.332 1093.17 13.332C1093.85 13.332 1094.47 13.1094 1095.03 12.6641V13.5664C1094.51 13.9492 1093.81 14.1406 1092.94 14.1406C1092.09 14.1406 1091.43 13.8691 1090.94 13.3262C1090.46 12.7793 1090.22 12.0117 1090.22 11.0234C1090.22 10.0898 1090.48 9.33008 1091.01 8.74414C1091.54 8.1543 1092.2 7.85938 1092.98 7.85938C1093.77 7.85938 1094.38 8.11328 1094.81 8.62109C1095.23 9.12891 1095.45 9.83398 1095.45 10.7363V11.2402ZM1094.47 10.4258C1094.46 9.87109 1094.33 9.43945 1094.06 9.13086C1093.8 8.82227 1093.43 8.66797 1092.97 8.66797C1092.51 8.66797 1092.13 8.83008 1091.81 9.1543C1091.49 9.47852 1091.3 9.90234 1091.22 10.4258H1094.47Z" fill="#1B1B1D"/>
<path d="M1097.4 6.47656C1097.23 6.47656 1097.08 6.41797 1096.96 6.30078C1096.84 6.18359 1096.78 6.03516 1096.78 5.85547C1096.78 5.67578 1096.84 5.52734 1096.96 5.41016C1097.08 5.28906 1097.23 5.22852 1097.4 5.22852C1097.58 5.22852 1097.72 5.28906 1097.85 5.41016C1097.97 5.52734 1098.03 5.67578 1098.03 5.85547C1098.03 6.02734 1097.97 6.17383 1097.85 6.29492C1097.72 6.41602 1097.58 6.47656 1097.4 6.47656ZM1097.87 14H1096.91V8H1097.87V14Z" fill="#1B1B1D"/>
<path d="M1104.8 14H1103.83V10.5781C1103.83 9.30469 1103.37 8.66797 1102.44 8.66797C1101.96 8.66797 1101.56 8.84961 1101.24 9.21289C1100.93 9.57227 1100.78 10.0273 1100.78 10.5781V14H1099.81V8H1100.78V8.99609H1100.8C1101.25 8.23828 1101.91 7.85938 1102.77 7.85938C1103.42 7.85938 1103.93 8.07227 1104.27 8.49805C1104.62 8.91992 1104.8 9.53125 1104.8 10.332V14Z" fill="#1B1B1D"/>
<path d="M1111.73 13.5195C1111.73 15.7227 1110.68 16.8242 1108.57 16.8242C1107.83 16.8242 1107.18 16.6836 1106.62 16.4023V15.4414C1107.3 15.8164 1107.94 16.0039 1108.56 16.0039C1110.03 16.0039 1110.77 15.2188 1110.77 13.6484V12.9922H1110.75C1110.29 13.7578 1109.6 14.1406 1108.69 14.1406C1107.94 14.1406 1107.34 13.875 1106.88 13.3438C1106.43 12.8086 1106.2 12.0918 1106.2 11.1934C1106.2 10.1738 1106.45 9.36328 1106.93 8.76172C1107.43 8.16016 1108.1 7.85938 1108.95 7.85938C1109.76 7.85938 1110.36 8.18359 1110.75 8.83203H1110.77V8H1111.73V13.5195ZM1110.77 11.2871V10.4023C1110.77 9.92578 1110.61 9.51758 1110.29 9.17773C1109.97 8.83789 1109.56 8.66797 1109.08 8.66797C1108.49 8.66797 1108.03 8.88477 1107.69 9.31836C1107.35 9.74805 1107.19 10.3516 1107.19 11.1289C1107.19 11.7969 1107.35 12.332 1107.67 12.7344C1107.99 13.1328 1108.42 13.332 1108.95 13.332C1109.49 13.332 1109.93 13.1406 1110.26 12.7578C1110.6 12.375 1110.77 11.8848 1110.77 11.2871Z" fill="#1B1B1D"/>
<path d="M19.9722 299.932V17.7026H22.4092V32.1041H1113.26V33.1971H22.4092V98.7887H1113.26V99.8817H22.4092V165.472H1113.26V166.565H22.4092V232.156H1113.26V233.249H22.4092V298.839H1114.57V299.932H19.9722Z" fill="#E5E8EA"/>
<path d="M10.0788 298.681C8.79879 298.681 8.02879 297.491 8.02879 295.351C8.02879 293.211 8.79879 292.061 10.0788 292.061C11.3488 292.061 12.1188 293.211 12.1188 295.351C12.1188 297.491 11.3488 298.681 10.0788 298.681ZM10.0788 298.011C10.8188 298.011 11.3188 297.221 11.3188 295.351C11.3188 293.481 10.8188 292.731 10.0788 292.731C9.33879 292.731 8.83879 293.481 8.83879 295.351C8.83879 297.221 9.33879 298.011 10.0788 298.011Z" fill="#373650"/>
<path d="M3.45852 233.926V233.416C5.35852 231.556 6.45852 230.376 6.45852 229.346C6.45852 228.616 6.05852 228.106 5.24852 228.106C4.71852 228.106 4.25852 228.446 3.89852 228.866L3.42852 228.416C3.95852 227.816 4.52852 227.426 5.34852 227.426C6.52852 227.426 7.26852 228.176 7.26852 229.296C7.26852 230.536 6.14852 231.686 4.59852 233.266C4.94852 233.236 5.33852 233.216 5.66852 233.216H7.57852V233.926H3.45852Z" fill="#373650"/>
<path d="M10.5192 234.046C9.23922 234.046 8.46922 232.856 8.46922 230.716C8.46922 228.576 9.23922 227.426 10.5192 227.426C11.7892 227.426 12.5592 228.576 12.5592 230.716C12.5592 232.856 11.7892 234.046 10.5192 234.046ZM10.5192 233.376C11.2592 233.376 11.7592 232.586 11.7592 230.716C11.7592 228.846 11.2592 228.096 10.5192 228.096C9.77922 228.096 9.27922 228.846 9.27922 230.716C9.27922 232.586 9.77922 233.376 10.5192 233.376Z" fill="#373650"/>
<path d="M4.09852 164.139H6.09852V162.289C6.09852 161.959 6.12852 161.409 6.14852 161.069H6.10852C5.94852 161.369 5.76852 161.649 5.58852 161.969L4.09852 164.139ZM6.09852 166.559V164.799H3.22852V164.249L5.95852 160.179H6.87852V164.139H7.74852V164.799H6.87852V166.559H6.09852Z" fill="#373650"/>
<path d="M10.5192 166.679C9.23922 166.679 8.46922 165.489 8.46922 163.349C8.46922 161.209 9.23922 160.059 10.5192 160.059C11.7892 160.059 12.5592 161.209 12.5592 163.349C12.5592 165.489 11.7892 166.679 10.5192 166.679ZM10.5192 166.009C11.2592 166.009 11.7592 165.219 11.7592 163.349C11.7592 161.479 11.2592 160.729 10.5192 160.729C9.77922 160.729 9.27922 161.479 9.27922 163.349C9.27922 165.219 9.77922 166.009 10.5192 166.009Z" fill="#373650"/>
<path d="M5.66852 95.9148C5.25852 95.9148 4.73852 96.1648 4.33852 96.7648C4.44852 98.0048 4.93852 98.6648 5.73852 98.6648C6.36852 98.6648 6.84852 98.1048 6.84852 97.2648C6.84852 96.4348 6.45852 95.9148 5.66852 95.9148ZM5.73852 99.3148C4.48852 99.3148 3.53852 98.2948 3.53852 96.2448C3.53852 93.6848 4.69852 92.6948 5.96852 92.6948C6.65852 92.6948 7.15852 92.9848 7.50852 93.3748L7.04852 93.8948C6.79852 93.5848 6.39852 93.3848 5.99852 93.3848C5.10852 93.3848 4.34852 94.0848 4.31852 96.1148C4.71852 95.6148 5.28852 95.2948 5.80852 95.2948C6.91852 95.2948 7.62852 95.9548 7.62852 97.2648C7.62852 98.4848 6.76852 99.3148 5.73852 99.3148Z" fill="#373650"/>
<path d="M10.5192 99.3148C9.23922 99.3148 8.46922 98.1248 8.46922 95.9848C8.46922 93.8448 9.23922 92.6948 10.5192 92.6948C11.7892 92.6948 12.5592 93.8448 12.5592 95.9848C12.5592 98.1248 11.7892 99.3148 10.5192 99.3148ZM10.5192 98.6448C11.2592 98.6448 11.7592 97.8548 11.7592 95.9848C11.7592 94.1148 11.2592 93.3648 10.5192 93.3648C9.77922 93.3648 9.27922 94.1148 9.27922 95.9848C9.27922 97.8548 9.77922 98.6448 10.5192 98.6448Z" fill="#373650"/>
<path d="M5.55852 31.9506C4.35852 31.9506 3.46852 31.2106 3.46852 30.2006C3.46852 29.3706 4.06852 28.8006 4.66852 28.4806V28.4406C4.19852 28.1106 3.77852 27.6406 3.77852 26.9706C3.77852 25.9906 4.55852 25.3306 5.58852 25.3306C6.69852 25.3306 7.38852 26.0406 7.38852 27.0306C7.38852 27.7006 6.90852 28.2706 6.50852 28.5706V28.6106C7.07852 28.9406 7.61852 29.3906 7.61852 30.2506C7.61852 31.2006 6.79852 31.9506 5.55852 31.9506ZM6.00852 28.3506C6.43852 27.9706 6.67852 27.5406 6.67852 27.0706C6.67852 26.4506 6.26852 25.9506 5.56852 25.9506C4.97852 25.9506 4.53852 26.3506 4.53852 26.9706C4.53852 27.7306 5.23852 28.0506 6.00852 28.3506ZM5.57852 31.3306C6.31852 31.3306 6.82852 30.8806 6.82852 30.2206C6.82852 29.4006 6.01852 29.1106 5.09852 28.7406C4.59852 29.0706 4.21852 29.5406 4.21852 30.1206C4.21852 30.8206 4.79852 31.3306 5.57852 31.3306Z" fill="#373650"/>
<path d="M10.5192 31.9506C9.23922 31.9506 8.46922 30.7606 8.46922 28.6206C8.46922 26.4806 9.23922 25.3306 10.5192 25.3306C11.7892 25.3306 12.5592 26.4806 12.5592 28.6206C12.5592 30.7606 11.7892 31.9506 10.5192 31.9506ZM10.5192 31.2806C11.2592 31.2806 11.7592 30.4906 11.7592 28.6206C11.7592 26.7506 11.2592 26.0006 10.5192 26.0006C9.77922 26.0006 9.27922 26.7506 9.27922 28.6206C9.27922 30.4906 9.77922 31.2806 10.5192 31.2806Z" fill="#373650"/>
<path d="M50.9399 221H74.9399V299H50.9399V221Z" fill="#2C0857"/>
<path d="M80.9399 127H104.94V299H80.9399V127Z" fill="#D7B218"/>
<path d="M62.4858 304.998L59.893 312H58.9897L56.4506 304.998H57.3637L59.3022 310.55C59.364 310.729 59.4112 310.936 59.4438 311.17H59.4633C59.4893 310.975 59.5431 310.765 59.6244 310.54L61.602 304.998H62.4858Z" fill="#31313B"/>
<path d="M67.4028 309.7H63.8725C63.8855 310.257 64.0352 310.687 64.3217 310.989C64.6082 311.292 65.002 311.443 65.5033 311.443C66.0665 311.443 66.5841 311.258 67.0561 310.887V311.639C66.6166 311.958 66.0356 312.117 65.3129 312.117C64.6065 312.117 64.0515 311.891 63.6479 311.438C63.2442 310.983 63.0424 310.343 63.0424 309.52C63.0424 308.742 63.2621 308.108 63.7016 307.62C64.1443 307.129 64.6928 306.883 65.3471 306.883C66.0014 306.883 66.5076 307.094 66.8656 307.518C67.2237 307.941 67.4028 308.528 67.4028 309.28V309.7ZM66.5824 309.021C66.5792 308.559 66.4669 308.2 66.2455 307.942C66.0274 307.685 65.7231 307.557 65.3324 307.557C64.9548 307.557 64.6342 307.692 64.3705 307.962C64.1069 308.232 63.9441 308.585 63.8822 309.021H66.5824Z" fill="#31313B"/>
<path d="M72.769 312H71.9682V309.148C71.9682 308.087 71.5808 307.557 70.8061 307.557C70.4057 307.557 70.0737 307.708 69.81 308.011C69.5496 308.31 69.4194 308.689 69.4194 309.148V312H68.6186V307H69.4194V307.83H69.4389C69.8165 307.199 70.3634 306.883 71.0795 306.883C71.6264 306.883 72.0447 307.06 72.3344 307.415C72.6241 307.767 72.769 308.276 72.769 308.943V312Z" fill="#31313B"/>
<path d="M76.602 311.951C76.4132 312.055 76.1641 312.107 75.8549 312.107C74.9793 312.107 74.5414 311.619 74.5414 310.643V307.684H73.6821V307H74.5414V305.779L75.3422 305.521V307H76.602V307.684H75.3422V310.501C75.3422 310.836 75.3992 311.076 75.5131 311.219C75.627 311.362 75.8158 311.434 76.0795 311.434C76.2813 311.434 76.4555 311.378 76.602 311.268V311.951Z" fill="#31313B"/>
<path d="M78.0815 305.73C77.9382 305.73 77.8162 305.682 77.7153 305.584C77.6143 305.486 77.5639 305.363 77.5639 305.213C77.5639 305.063 77.6143 304.939 77.7153 304.842C77.8162 304.741 77.9382 304.69 78.0815 304.69C78.228 304.69 78.3516 304.741 78.4526 304.842C78.5567 304.939 78.6088 305.063 78.6088 305.213C78.6088 305.356 78.5567 305.478 78.4526 305.579C78.3516 305.68 78.228 305.73 78.0815 305.73ZM78.4721 312H77.6713V307H78.4721V312Z" fill="#31313B"/>
<path d="M80.894 312H80.0932V304.598H80.894V312Z" fill="#31313B"/>
<path d="M86.0942 312H85.2934V311.219H85.2738C84.9255 311.818 84.4128 312.117 83.7358 312.117C83.2377 312.117 82.8471 311.985 82.5639 311.722C82.2839 311.458 82.144 311.108 82.144 310.672C82.144 309.738 82.6941 309.194 83.7944 309.041L85.2934 308.831C85.2934 307.981 84.95 307.557 84.2631 307.557C83.6609 307.557 83.1173 307.762 82.6322 308.172V307.352C83.1238 307.039 83.6902 306.883 84.3315 306.883C85.5066 306.883 86.0942 307.505 86.0942 308.748V312ZM85.2934 309.471L84.0873 309.637C83.7162 309.689 83.4363 309.782 83.2475 309.915C83.0587 310.045 82.9643 310.278 82.9643 310.613C82.9643 310.857 83.0505 311.058 83.2231 311.214C83.3988 311.367 83.6316 311.443 83.9213 311.443C84.3184 311.443 84.6456 311.305 84.9028 311.028C85.1632 310.748 85.2934 310.395 85.2934 309.969V309.471Z" fill="#31313B"/>
<path d="M89.9223 311.951C89.7335 312.055 89.4845 312.107 89.1752 312.107C88.2996 312.107 87.8617 311.619 87.8617 310.643V307.684H87.0024V307H87.8617V305.779L88.6625 305.521V307H89.9223V307.684H88.6625V310.501C88.6625 310.836 88.7195 311.076 88.8334 311.219C88.9474 311.362 89.1362 311.434 89.3998 311.434C89.6016 311.434 89.7758 311.378 89.9223 311.268V311.951Z" fill="#31313B"/>
<path d="M93.0815 312.117C92.3425 312.117 91.7517 311.884 91.309 311.419C90.8696 310.95 90.6498 310.33 90.6498 309.559C90.6498 308.719 90.8793 308.063 91.3383 307.591C91.7973 307.119 92.4174 306.883 93.1987 306.883C93.9441 306.883 94.5252 307.112 94.9418 307.571C95.3617 308.03 95.5717 308.667 95.5717 309.48C95.5717 310.278 95.3455 310.918 94.893 311.399C94.4438 311.878 93.8399 312.117 93.0815 312.117ZM93.1401 307.557C92.6257 307.557 92.2188 307.732 91.9194 308.084C91.6199 308.432 91.4701 308.914 91.4701 309.529C91.4701 310.122 91.6215 310.589 91.9242 310.931C92.227 311.272 92.6322 311.443 93.1401 311.443C93.6576 311.443 94.0548 311.276 94.3315 310.94C94.6114 310.605 94.7514 310.128 94.7514 309.51C94.7514 308.885 94.6114 308.403 94.3315 308.064C94.0548 307.726 93.6576 307.557 93.1401 307.557Z" fill="#31313B"/>
<path d="M99.4584 307.811C99.3184 307.703 99.1166 307.649 98.853 307.649C98.5112 307.649 98.2247 307.811 97.9936 308.133C97.7657 308.455 97.6518 308.895 97.6518 309.451V312H96.851V307H97.6518V308.03H97.6713C97.7852 307.679 97.9594 307.405 98.1938 307.21C98.4281 307.011 98.6902 306.912 98.9799 306.912C99.1882 306.912 99.3477 306.935 99.4584 306.98V307.811Z" fill="#31313B"/>
<path d="M132.94 195H156.94V299H132.94V195Z" fill="#2C0857"/>
<path d="M162.94 167H186.94V299H162.94V167Z" fill="#D7B218"/>
<path d="M153.695 311.707C153.177 311.98 152.533 312.117 151.761 312.117C150.765 312.117 149.968 311.797 149.369 311.155C148.77 310.514 148.47 309.673 148.47 308.631C148.47 307.511 148.807 306.606 149.481 305.916C150.155 305.226 151.009 304.881 152.044 304.881C152.708 304.881 153.259 304.977 153.695 305.169V306.043C153.193 305.763 152.64 305.623 152.035 305.623C151.231 305.623 150.578 305.892 150.077 306.429C149.579 306.966 149.33 307.684 149.33 308.582C149.33 309.435 149.562 310.115 150.028 310.623C150.497 311.128 151.11 311.38 151.869 311.38C152.572 311.38 153.18 311.224 153.695 310.911V311.707Z" fill="#31313B"/>
<path d="M155.941 309.354V312H155.121V304.998H157.044C157.793 304.998 158.372 305.18 158.783 305.545C159.196 305.91 159.403 306.424 159.403 307.088C159.403 307.752 159.173 308.296 158.714 308.719C158.259 309.142 157.642 309.354 156.864 309.354H155.941ZM155.941 305.74V308.611H156.8C157.367 308.611 157.798 308.483 158.094 308.226C158.394 307.965 158.543 307.599 158.543 307.127C158.543 306.202 157.997 305.74 156.903 305.74H155.941Z" fill="#31313B"/>
<path d="M166.146 312H165.238L164.496 310.037H161.527L160.829 312H159.915L162.601 304.998H163.451L166.146 312ZM164.227 309.3L163.128 306.316C163.093 306.219 163.057 306.062 163.021 305.848H163.001C162.969 306.046 162.931 306.202 162.889 306.316L161.8 309.3H164.227Z" fill="#31313B"/>
<path d="M168.001 309.354V312H167.181V304.998H169.105C169.854 304.998 170.433 305.18 170.843 305.545C171.257 305.91 171.463 306.424 171.463 307.088C171.463 307.752 171.234 308.296 170.775 308.719C170.319 309.142 169.702 309.354 168.924 309.354H168.001ZM168.001 305.74V308.611H168.861C169.427 308.611 169.858 308.483 170.155 308.226C170.454 307.965 170.604 307.599 170.604 307.127C170.604 306.202 170.057 305.74 168.963 305.74H168.001Z" fill="#31313B"/>
<path d="M214.94 198H238.94V299H214.94V198Z" fill="#2C0857"/>
<path d="M244.94 139H268.94V299H244.94V139Z" fill="#D7B218"/>
<path d="M238.751 312H237.843L237.101 310.037H234.132L233.434 312H232.521L235.206 304.998H236.056L238.751 312ZM236.832 309.3L235.734 306.316C235.698 306.219 235.662 306.062 235.626 305.848H235.607C235.574 306.046 235.537 306.202 235.495 306.316L234.406 309.3H236.832Z" fill="#31313B"/>
<path d="M239.787 312V304.998H241.779C242.384 304.998 242.864 305.146 243.219 305.442C243.574 305.739 243.751 306.124 243.751 306.6C243.751 306.997 243.644 307.342 243.429 307.635C243.214 307.928 242.918 308.136 242.54 308.26V308.279C243.012 308.335 243.39 308.514 243.673 308.816C243.956 309.116 244.098 309.507 244.098 309.988C244.098 310.587 243.883 311.072 243.454 311.443C243.024 311.814 242.482 312 241.828 312H239.787ZM240.607 305.74V308.001H241.447C241.896 308.001 242.249 307.894 242.506 307.679C242.763 307.461 242.892 307.155 242.892 306.761C242.892 306.08 242.444 305.74 241.549 305.74H240.607ZM240.607 308.738V311.258H241.72C242.202 311.258 242.575 311.144 242.838 310.916C243.105 310.688 243.239 310.376 243.239 309.979C243.239 309.152 242.676 308.738 241.549 308.738H240.607Z" fill="#31313B"/>
<path d="M250.753 311.521C250.05 311.919 249.269 312.117 248.41 312.117C247.41 312.117 246.601 311.795 245.983 311.15C245.368 310.506 245.06 309.653 245.06 308.592C245.06 307.508 245.402 306.619 246.085 305.926C246.772 305.229 247.641 304.881 248.693 304.881C249.455 304.881 250.094 305.005 250.612 305.252V306.16C250.045 305.802 249.375 305.623 248.6 305.623C247.816 305.623 247.173 305.893 246.671 306.434C246.17 306.974 245.919 307.674 245.919 308.533C245.919 309.419 246.152 310.115 246.618 310.623C247.083 311.128 247.715 311.38 248.512 311.38C249.059 311.38 249.533 311.271 249.933 311.053V309.09H248.4V308.348H250.753V311.521Z" fill="#31313B"/>
<path d="M231.159 322H230.343V317.303C230.343 316.932 230.366 316.478 230.412 315.94H230.392C230.314 316.256 230.244 316.482 230.182 316.619L227.789 322H227.389L225.001 316.658C224.933 316.502 224.863 316.263 224.791 315.94H224.772C224.798 316.22 224.811 316.678 224.811 317.312V322H224.02V314.998H225.104L227.252 319.881C227.418 320.255 227.526 320.535 227.575 320.721H227.604C227.744 320.337 227.856 320.05 227.941 319.861L230.133 314.998H231.159V322Z" fill="#31313B"/>
<path d="M236.476 322H235.675V321.219H235.656C235.307 321.818 234.795 322.117 234.118 322.117C233.62 322.117 233.229 321.985 232.946 321.722C232.666 321.458 232.526 321.108 232.526 320.672C232.526 319.738 233.076 319.194 234.176 319.041L235.675 318.831C235.675 317.981 235.332 317.557 234.645 317.557C234.043 317.557 233.499 317.762 233.014 318.172V317.352C233.506 317.039 234.072 316.883 234.713 316.883C235.888 316.883 236.476 317.505 236.476 318.748V322ZM235.675 319.471L234.469 319.637C234.098 319.689 233.818 319.782 233.629 319.915C233.441 320.045 233.346 320.278 233.346 320.613C233.346 320.857 233.432 321.058 233.605 321.214C233.781 321.367 234.013 321.443 234.303 321.443C234.7 321.443 235.027 321.305 235.285 321.028C235.545 320.748 235.675 320.395 235.675 319.969V319.471Z" fill="#31313B"/>
<path d="M241.393 321.771C241.009 322.002 240.553 322.117 240.026 322.117C239.313 322.117 238.737 321.886 238.297 321.424C237.861 320.958 237.643 320.356 237.643 319.617C237.643 318.794 237.879 318.133 238.351 317.635C238.823 317.133 239.453 316.883 240.241 316.883C240.68 316.883 241.067 316.964 241.403 317.127V317.947C241.032 317.687 240.635 317.557 240.211 317.557C239.7 317.557 239.28 317.741 238.952 318.108C238.626 318.473 238.463 318.953 238.463 319.549C238.463 320.135 238.616 320.597 238.922 320.936C239.232 321.274 239.645 321.443 240.163 321.443C240.599 321.443 241.009 321.299 241.393 321.009V321.771Z" fill="#31313B"/>
<path d="M246.754 322H245.954V319.119C245.954 318.077 245.566 317.557 244.791 317.557C244.401 317.557 244.072 317.708 243.805 318.011C243.538 318.31 243.405 318.696 243.405 319.168V322H242.604V314.598H243.405V317.83H243.424C243.808 317.199 244.355 316.883 245.065 316.883C246.191 316.883 246.754 317.562 246.754 318.919V322Z" fill="#31313B"/>
<path d="M248.678 315.73C248.535 315.73 248.413 315.682 248.312 315.584C248.211 315.486 248.161 315.363 248.161 315.213C248.161 315.063 248.211 314.939 248.312 314.842C248.413 314.741 248.535 314.69 248.678 314.69C248.825 314.69 248.948 314.741 249.049 314.842C249.153 314.939 249.205 315.063 249.205 315.213C249.205 315.356 249.153 315.478 249.049 315.579C248.948 315.68 248.825 315.73 248.678 315.73ZM249.069 322H248.268V317H249.069V322Z" fill="#31313B"/>
<path d="M254.84 322H254.039V319.148C254.039 318.087 253.652 317.557 252.877 317.557C252.477 317.557 252.145 317.708 251.881 318.011C251.621 318.31 251.491 318.689 251.491 319.148V322H250.69V317H251.491V317.83H251.51C251.888 317.199 252.435 316.883 253.151 316.883C253.698 316.883 254.116 317.06 254.406 317.415C254.695 317.767 254.84 318.276 254.84 318.943V322Z" fill="#31313B"/>
<path d="M260.372 319.7H256.842C256.855 320.257 257.005 320.687 257.291 320.989C257.578 321.292 257.972 321.443 258.473 321.443C259.036 321.443 259.554 321.258 260.026 320.887V321.639C259.586 321.958 259.005 322.117 258.283 322.117C257.576 322.117 257.021 321.891 256.618 321.438C256.214 320.983 256.012 320.343 256.012 319.52C256.012 318.742 256.232 318.108 256.671 317.62C257.114 317.129 257.663 316.883 258.317 316.883C258.971 316.883 259.477 317.094 259.835 317.518C260.193 317.941 260.372 318.528 260.372 319.28V319.7ZM259.552 319.021C259.549 318.559 259.437 318.2 259.215 317.942C258.997 317.685 258.693 317.557 258.302 317.557C257.925 317.557 257.604 317.692 257.34 317.962C257.077 318.232 256.914 318.585 256.852 319.021H259.552Z" fill="#31313B"/>
<path d="M296.94 120H320.94V299H296.94V120Z" fill="#2C0857"/>
<path d="M326.94 183H350.94V299H326.94V183Z" fill="#D7B218"/>
<path d="M305.771 305.74H303.037V308.162H305.566V308.899H303.037V312H302.216V304.998H305.771V305.74Z" fill="#31313B"/>
<path d="M311.035 312H310.234V311.209H310.214C309.882 311.814 309.368 312.117 308.671 312.117C307.48 312.117 306.884 311.408 306.884 309.988V307H307.68V309.861C307.68 310.916 308.084 311.443 308.891 311.443C309.282 311.443 309.602 311.3 309.853 311.014C310.107 310.724 310.234 310.346 310.234 309.881V307H311.035V312Z" fill="#31313B"/>
<path d="M319.755 312H318.954V309.129C318.954 308.576 318.868 308.175 318.696 307.928C318.526 307.68 318.24 307.557 317.836 307.557C317.495 307.557 317.203 307.713 316.962 308.025C316.725 308.338 316.606 308.712 316.606 309.148V312H315.805V309.031C315.805 308.048 315.426 307.557 314.667 307.557C314.316 307.557 314.026 307.705 313.798 308.001C313.57 308.294 313.456 308.676 313.456 309.148V312H312.656V307H313.456V307.791H313.476C313.831 307.186 314.348 306.883 315.029 306.883C315.371 306.883 315.668 306.979 315.922 307.171C316.176 307.36 316.35 307.609 316.445 307.918C316.816 307.228 317.369 306.883 318.105 306.883C319.205 306.883 319.755 307.562 319.755 308.919V312Z" fill="#31313B"/>
<path d="M321.679 305.73C321.536 305.73 321.414 305.682 321.313 305.584C321.212 305.486 321.162 305.363 321.162 305.213C321.162 305.063 321.212 304.939 321.313 304.842C321.414 304.741 321.536 304.69 321.679 304.69C321.826 304.69 321.949 304.741 322.05 304.842C322.154 304.939 322.206 305.063 322.206 305.213C322.206 305.356 322.154 305.478 322.05 305.579C321.949 305.68 321.826 305.73 321.679 305.73ZM322.07 312H321.269V307H322.07V312Z" fill="#31313B"/>
<path d="M327.958 311.6C327.958 313.436 327.079 314.354 325.322 314.354C324.703 314.354 324.163 314.236 323.701 314.002V313.201C324.264 313.514 324.801 313.67 325.312 313.67C326.542 313.67 327.158 313.016 327.158 311.707V311.16H327.138C326.757 311.798 326.184 312.117 325.419 312.117C324.798 312.117 324.296 311.896 323.915 311.453C323.538 311.007 323.349 310.41 323.349 309.661C323.349 308.812 323.552 308.136 323.959 307.635C324.37 307.133 324.929 306.883 325.639 306.883C326.313 306.883 326.813 307.153 327.138 307.693H327.158V307H327.958V311.6ZM327.158 309.739V309.002C327.158 308.605 327.023 308.265 326.752 307.981C326.485 307.698 326.152 307.557 325.751 307.557C325.257 307.557 324.869 307.737 324.589 308.099C324.309 308.457 324.169 308.96 324.169 309.607C324.169 310.164 324.303 310.61 324.57 310.945C324.84 311.277 325.196 311.443 325.639 311.443C326.088 311.443 326.453 311.284 326.733 310.965C327.016 310.646 327.158 310.237 327.158 309.739Z" fill="#31313B"/>
<path d="M333.159 312H332.358V311.219H332.338C331.99 311.818 331.477 312.117 330.8 312.117C330.302 312.117 329.912 311.985 329.628 311.722C329.348 311.458 329.208 311.108 329.208 310.672C329.208 309.738 329.759 309.194 330.859 309.041L332.358 308.831C332.358 307.981 332.014 307.557 331.328 307.557C330.725 307.557 330.182 307.762 329.697 308.172V307.352C330.188 307.039 330.755 306.883 331.396 306.883C332.571 306.883 333.159 307.505 333.159 308.748V312ZM332.358 309.471L331.152 309.637C330.781 309.689 330.501 309.782 330.312 309.915C330.123 310.045 330.029 310.278 330.029 310.613C330.029 310.857 330.115 311.058 330.288 311.214C330.463 311.367 330.696 311.443 330.986 311.443C331.383 311.443 331.71 311.305 331.967 311.028C332.228 310.748 332.358 310.395 332.358 309.969V309.471Z" fill="#31313B"/>
<path d="M336.987 311.951C336.798 312.055 336.549 312.107 336.24 312.107C335.364 312.107 334.926 311.619 334.926 310.643V307.684H334.067V307H334.926V305.779L335.727 305.521V307H336.987V307.684H335.727V310.501C335.727 310.836 335.784 311.076 335.898 311.219C336.012 311.362 336.201 311.434 336.464 311.434C336.666 311.434 336.84 311.378 336.987 311.268V311.951Z" fill="#31313B"/>
<path d="M340.146 312.117C339.407 312.117 338.816 311.884 338.373 311.419C337.934 310.95 337.714 310.33 337.714 309.559C337.714 308.719 337.944 308.063 338.403 307.591C338.862 307.119 339.482 306.883 340.263 306.883C341.009 306.883 341.59 307.112 342.006 307.571C342.426 308.03 342.636 308.667 342.636 309.48C342.636 310.278 342.41 310.918 341.957 311.399C341.508 311.878 340.904 312.117 340.146 312.117ZM340.204 307.557C339.69 307.557 339.283 307.732 338.984 308.084C338.684 308.432 338.535 308.914 338.535 309.529C338.535 310.122 338.686 310.589 338.989 310.931C339.291 311.272 339.697 311.443 340.204 311.443C340.722 311.443 341.119 311.276 341.396 310.94C341.676 310.605 341.816 310.128 341.816 309.51C341.816 308.885 341.676 308.403 341.396 308.064C341.119 307.726 340.722 307.557 340.204 307.557Z" fill="#31313B"/>
<path d="M346.523 307.811C346.383 307.703 346.181 307.649 345.917 307.649C345.576 307.649 345.289 307.811 345.058 308.133C344.83 308.455 344.716 308.895 344.716 309.451V312H343.915V307H344.716V308.03H344.736C344.85 307.679 345.024 307.405 345.258 307.21C345.493 307.011 345.755 306.912 346.044 306.912C346.253 306.912 346.412 306.935 346.523 306.98V307.811Z" fill="#31313B"/>
<path d="M378.94 210H402.94V299H378.94V210Z" fill="#2C0857"/>
<path d="M408.94 139H432.94V299H408.94V139Z" fill="#D7B218"/>
<path d="M396.716 312.117C395.723 312.117 394.927 311.79 394.329 311.136C393.733 310.481 393.435 309.63 393.435 308.582C393.435 307.456 393.739 306.557 394.348 305.887C394.957 305.216 395.785 304.881 396.833 304.881C397.8 304.881 398.578 305.206 399.167 305.857C399.76 306.508 400.056 307.36 400.056 308.411C400.056 309.554 399.753 310.457 399.148 311.121C398.542 311.785 397.732 312.117 396.716 312.117ZM396.775 305.623C396.039 305.623 395.442 305.888 394.983 306.419C394.524 306.95 394.294 307.646 394.294 308.509C394.294 309.371 394.517 310.066 394.963 310.594C395.413 311.118 395.997 311.38 396.716 311.38C397.484 311.38 398.09 311.129 398.533 310.628C398.975 310.127 399.197 309.425 399.197 308.523C399.197 307.599 398.982 306.884 398.552 306.38C398.122 305.875 397.53 305.623 396.775 305.623Z" fill="#31313B"/>
<path d="M403.933 307.811C403.793 307.703 403.591 307.649 403.328 307.649C402.986 307.649 402.699 307.811 402.468 308.133C402.24 308.455 402.126 308.895 402.126 309.451V312H401.326V307H402.126V308.03H402.146C402.26 307.679 402.434 307.405 402.668 307.21C402.903 307.011 403.165 306.912 403.454 306.912C403.663 306.912 403.822 306.935 403.933 306.98V307.811Z" fill="#31313B"/>
<path d="M407.121 311.951C406.933 312.055 406.684 312.107 406.374 312.107C405.499 312.107 405.061 311.619 405.061 310.643V307.684H404.202V307H405.061V305.779L405.862 305.521V307H407.121V307.684H405.862V310.501C405.862 310.836 405.919 311.076 406.033 311.219C406.147 311.362 406.335 311.434 406.599 311.434C406.801 311.434 406.975 311.378 407.121 311.268V311.951Z" fill="#31313B"/>
<path d="M412.341 312H411.54V309.119C411.54 308.077 411.153 307.557 410.378 307.557C409.988 307.557 409.659 307.708 409.392 308.011C409.125 308.31 408.992 308.696 408.992 309.168V312H408.191V304.598H408.992V307.83H409.011C409.395 307.199 409.942 306.883 410.652 306.883C411.778 306.883 412.341 307.562 412.341 308.919V312Z" fill="#31313B"/>
<path d="M415.945 312.117C415.206 312.117 414.615 311.884 414.172 311.419C413.733 310.95 413.513 310.33 413.513 309.559C413.513 308.719 413.743 308.063 414.202 307.591C414.661 307.119 415.281 306.883 416.062 306.883C416.807 306.883 417.388 307.112 417.805 307.571C418.225 308.03 418.435 308.667 418.435 309.48C418.435 310.278 418.209 310.918 417.756 311.399C417.307 311.878 416.703 312.117 415.945 312.117ZM416.003 307.557C415.489 307.557 415.082 307.732 414.783 308.084C414.483 308.432 414.333 308.914 414.333 309.529C414.333 310.122 414.485 310.589 414.788 310.931C415.09 311.272 415.496 311.443 416.003 311.443C416.521 311.443 416.918 311.276 417.195 310.94C417.475 310.605 417.615 310.128 417.615 309.51C417.615 308.885 417.475 308.403 417.195 308.064C416.918 307.726 416.521 307.557 416.003 307.557Z" fill="#31313B"/>
<path d="M397.952 321.707C397.434 321.98 396.789 322.117 396.018 322.117C395.022 322.117 394.224 321.797 393.625 321.155C393.026 320.514 392.727 319.673 392.727 318.631C392.727 317.511 393.064 316.606 393.738 315.916C394.412 315.226 395.266 314.881 396.301 314.881C396.965 314.881 397.515 314.977 397.952 315.169V316.043C397.45 315.763 396.897 315.623 396.291 315.623C395.487 315.623 394.835 315.892 394.333 316.429C393.835 316.966 393.586 317.684 393.586 318.582C393.586 319.435 393.819 320.115 394.285 320.623C394.753 321.128 395.367 321.38 396.125 321.38C396.829 321.38 397.437 321.224 397.952 320.911V321.707Z" fill="#31313B"/>
<path d="M403.313 322H402.512V321.209H402.493C402.161 321.814 401.646 322.117 400.95 322.117C399.758 322.117 399.163 321.408 399.163 319.988V317H399.958V319.861C399.958 320.916 400.362 321.443 401.169 321.443C401.56 321.443 401.881 321.3 402.131 321.014C402.385 320.724 402.512 320.346 402.512 319.881V317H403.313V322Z" fill="#31313B"/>
<path d="M407.253 321.951C407.065 322.055 406.816 322.107 406.506 322.107C405.631 322.107 405.193 321.619 405.193 320.643V317.684H404.333V317H405.193V315.779L405.994 315.521V317H407.253V317.684H405.994V320.501C405.994 320.836 406.051 321.076 406.164 321.219C406.278 321.362 406.467 321.434 406.731 321.434C406.933 321.434 407.107 321.378 407.253 321.268V321.951Z" fill="#31313B"/>
<path d="M410.642 321.951C410.453 322.055 410.204 322.107 409.895 322.107C409.019 322.107 408.581 321.619 408.581 320.643V317.684H407.722V317H408.581V315.779L409.382 315.521V317H410.642V317.684H409.382V320.501C409.382 320.836 409.439 321.076 409.553 321.219C409.667 321.362 409.856 321.434 410.12 321.434C410.321 321.434 410.496 321.378 410.642 321.268V321.951Z" fill="#31313B"/>
<path d="M415.73 319.7H412.2C412.213 320.257 412.362 320.687 412.649 320.989C412.935 321.292 413.329 321.443 413.83 321.443C414.394 321.443 414.911 321.258 415.383 320.887V321.639C414.944 321.958 414.363 322.117 413.64 322.117C412.934 322.117 412.379 321.891 411.975 321.438C411.571 320.983 411.37 320.343 411.37 319.52C411.37 318.742 411.589 318.108 412.029 317.62C412.471 317.129 413.02 316.883 413.674 316.883C414.329 316.883 414.835 317.094 415.193 317.518C415.551 317.941 415.73 318.528 415.73 319.28V319.7ZM414.91 319.021C414.906 318.559 414.794 318.2 414.573 317.942C414.355 317.685 414.05 317.557 413.66 317.557C413.282 317.557 412.961 317.692 412.698 317.962C412.434 318.232 412.271 318.585 412.209 319.021H414.91Z" fill="#31313B"/>
<path d="M419.553 317.811C419.413 317.703 419.211 317.649 418.948 317.649C418.606 317.649 418.319 317.811 418.088 318.133C417.86 318.455 417.746 318.895 417.746 319.451V322H416.946V317H417.746V318.03H417.766C417.88 317.679 418.054 317.405 418.288 317.21C418.523 317.011 418.785 316.912 419.075 316.912C419.283 316.912 419.442 316.935 419.553 316.98V317.811Z" fill="#31313B"/>
<path d="M460.94 189H484.94V299H460.94V189Z" fill="#2C0857"/>
<path d="M490.94 159H514.94V299H490.94V159Z" fill="#D7B218"/>
<path d="M473.335 312H472.329L468.726 306.419C468.635 306.279 468.56 306.132 468.501 305.979H468.472C468.498 306.129 468.511 306.45 468.511 306.941V312H467.691V304.998H468.755L472.261 310.491C472.408 310.719 472.502 310.875 472.544 310.96H472.564C472.531 310.758 472.515 310.415 472.515 309.93V304.998H473.335V312Z" fill="#31313B"/>
<path d="M479.082 309.7H475.552C475.565 310.257 475.715 310.687 476.001 310.989C476.288 311.292 476.682 311.443 477.183 311.443C477.746 311.443 478.264 311.258 478.736 310.887V311.639C478.296 311.958 477.715 312.117 476.993 312.117C476.286 312.117 475.731 311.891 475.328 311.438C474.924 310.983 474.722 310.343 474.722 309.52C474.722 308.742 474.942 308.108 475.381 307.62C475.824 307.129 476.372 306.883 477.027 306.883C477.681 306.883 478.187 307.094 478.545 307.518C478.903 307.941 479.082 308.528 479.082 309.28V309.7ZM478.262 309.021C478.259 308.559 478.147 308.2 477.925 307.942C477.707 307.685 477.403 307.557 477.012 307.557C476.635 307.557 476.314 307.692 476.05 307.962C475.787 308.232 475.624 308.585 475.562 309.021H478.262Z" fill="#31313B"/>
<path d="M481.119 311.277H481.099V312H480.298V304.598H481.099V307.879H481.119C481.512 307.215 482.089 306.883 482.847 306.883C483.488 306.883 483.99 307.107 484.351 307.557C484.716 308.003 484.898 308.602 484.898 309.354C484.898 310.19 484.694 310.861 484.288 311.365C483.881 311.867 483.324 312.117 482.618 312.117C481.957 312.117 481.457 311.837 481.119 311.277ZM481.099 309.261V309.959C481.099 310.372 481.232 310.724 481.499 311.014C481.77 311.3 482.111 311.443 482.525 311.443C483.01 311.443 483.389 311.258 483.663 310.887C483.939 310.516 484.078 310 484.078 309.339C484.078 308.782 483.949 308.346 483.692 308.03C483.435 307.715 483.086 307.557 482.647 307.557C482.181 307.557 481.807 307.719 481.524 308.045C481.241 308.367 481.099 308.772 481.099 309.261Z" fill="#31313B"/>
<path d="M490.22 312H489.419V311.209H489.4C489.068 311.814 488.553 312.117 487.857 312.117C486.665 312.117 486.07 311.408 486.07 309.988V307H486.866V309.861C486.866 310.916 487.269 311.443 488.077 311.443C488.467 311.443 488.788 311.3 489.038 311.014C489.292 310.724 489.419 310.346 489.419 309.881V307H490.22V312Z" fill="#31313B"/>
<path d="M492.642 312H491.841V304.598H492.642V312Z" fill="#31313B"/>
<path d="M494.673 305.73C494.53 305.73 494.408 305.682 494.307 305.584C494.206 305.486 494.156 305.363 494.156 305.213C494.156 305.063 494.206 304.939 494.307 304.842C494.408 304.741 494.53 304.69 494.673 304.69C494.82 304.69 494.943 304.741 495.044 304.842C495.149 304.939 495.201 305.063 495.201 305.213C495.201 305.356 495.149 305.478 495.044 305.579C494.943 305.68 494.82 305.73 494.673 305.73ZM495.064 312H494.263V307H495.064V312Z" fill="#31313B"/>
<path d="M500.171 307.229L497.212 311.316H500.142V312H496.036V311.751L498.995 307.684H496.314V307H500.171V307.229Z" fill="#31313B"/>
<path d="M505.225 309.7H501.695C501.708 310.257 501.857 310.687 502.144 310.989C502.43 311.292 502.824 311.443 503.326 311.443C503.889 311.443 504.406 311.258 504.878 310.887V311.639C504.439 311.958 503.858 312.117 503.135 312.117C502.429 312.117 501.874 311.891 501.47 311.438C501.066 310.983 500.865 310.343 500.865 309.52C500.865 308.742 501.084 308.108 501.524 307.62C501.967 307.129 502.515 306.883 503.169 306.883C503.824 306.883 504.33 307.094 504.688 307.518C505.046 307.941 505.225 308.528 505.225 309.28V309.7ZM504.405 309.021C504.401 308.559 504.289 308.2 504.068 307.942C503.85 307.685 503.545 307.557 503.155 307.557C502.777 307.557 502.456 307.692 502.193 307.962C501.929 308.232 501.766 308.585 501.704 309.021H504.405Z" fill="#31313B"/>
<path d="M509.048 307.811C508.908 307.703 508.706 307.649 508.443 307.649C508.101 307.649 507.815 307.811 507.583 308.133C507.356 308.455 507.242 308.895 507.242 309.451V312H506.441V307H507.242V308.03H507.261C507.375 307.679 507.549 307.405 507.784 307.21C508.018 307.011 508.28 306.912 508.57 306.912C508.778 306.912 508.938 306.935 509.048 306.98V307.811Z" fill="#31313B"/>
<path d="M542.94 177H566.94V299H542.94V177Z" fill="#2C0857"/>
<path d="M572.94 152H596.94V299H572.94V152Z" fill="#D7B218"/>
<path d="M560.882 312H560.067V307.303C560.067 306.932 560.09 306.478 560.135 305.94H560.116C560.038 306.256 559.968 306.482 559.906 306.619L557.513 312H557.113L554.725 306.658C554.657 306.502 554.587 306.263 554.515 305.94H554.496C554.522 306.22 554.535 306.678 554.535 307.312V312H553.744V304.998H554.828L556.976 309.881C557.142 310.255 557.249 310.535 557.298 310.721H557.328C557.468 310.337 557.58 310.05 557.664 309.861L559.857 304.998H560.882V312Z" fill="#31313B"/>
<path d="M563.031 305.73C562.887 305.73 562.765 305.682 562.664 305.584C562.564 305.486 562.513 305.363 562.513 305.213C562.513 305.063 562.564 304.939 562.664 304.842C562.765 304.741 562.887 304.69 563.031 304.69C563.177 304.69 563.301 304.741 563.402 304.842C563.506 304.939 563.558 305.063 563.558 305.213C563.558 305.356 563.506 305.478 563.402 305.579C563.301 305.68 563.177 305.73 563.031 305.73ZM563.421 312H562.621V307H563.421V312Z" fill="#31313B"/>
<path d="M568.451 311.771C568.067 312.002 567.611 312.117 567.083 312.117C566.371 312.117 565.794 311.886 565.355 311.424C564.919 310.958 564.701 310.356 564.701 309.617C564.701 308.794 564.937 308.133 565.409 307.635C565.881 307.133 566.511 306.883 567.298 306.883C567.738 306.883 568.125 306.964 568.46 307.127V307.947C568.089 307.687 567.692 307.557 567.269 307.557C566.758 307.557 566.338 307.741 566.009 308.108C565.684 308.473 565.521 308.953 565.521 309.549C565.521 310.135 565.674 310.597 565.98 310.936C566.289 311.274 566.703 311.443 567.22 311.443C567.656 311.443 568.067 311.299 568.451 311.009V311.771Z" fill="#31313B"/>
<path d="M572.269 307.811C572.129 307.703 571.927 307.649 571.664 307.649C571.322 307.649 571.035 307.811 570.804 308.133C570.576 308.455 570.462 308.895 570.462 309.451V312H569.662V307H570.462V308.03H570.482C570.596 307.679 570.77 307.405 571.004 307.21C571.239 307.011 571.501 306.912 571.79 306.912C571.999 306.912 572.158 306.935 572.269 306.98V307.811Z" fill="#31313B"/>
<path d="M575.228 312.117C574.489 312.117 573.898 311.884 573.456 311.419C573.016 310.95 572.796 310.33 572.796 309.559C572.796 308.719 573.026 308.063 573.485 307.591C573.944 307.119 574.564 306.883 575.345 306.883C576.091 306.883 576.672 307.112 577.088 307.571C577.508 308.03 577.718 308.667 577.718 309.48C577.718 310.278 577.492 310.918 577.039 311.399C576.59 311.878 575.986 312.117 575.228 312.117ZM575.287 307.557C574.772 307.557 574.365 307.732 574.066 308.084C573.766 308.432 573.617 308.914 573.617 309.529C573.617 310.122 573.768 310.589 574.071 310.931C574.373 311.272 574.779 311.443 575.287 311.443C575.804 311.443 576.201 311.276 576.478 310.94C576.758 310.605 576.898 310.128 576.898 309.51C576.898 308.885 576.758 308.403 576.478 308.064C576.201 307.726 575.804 307.557 575.287 307.557Z" fill="#31313B"/>
<path d="M578.695 311.819V310.96C579.131 311.282 579.611 311.443 580.135 311.443C580.838 311.443 581.19 311.209 581.19 310.74C581.19 310.607 581.159 310.494 581.097 310.403C581.039 310.309 580.957 310.226 580.853 310.154C580.752 310.083 580.632 310.019 580.492 309.964C580.355 309.905 580.207 309.845 580.047 309.783C579.826 309.695 579.631 309.607 579.461 309.52C579.295 309.428 579.155 309.327 579.041 309.217C578.931 309.103 578.846 308.974 578.788 308.831C578.732 308.688 578.705 308.52 578.705 308.328C578.705 308.094 578.758 307.887 578.866 307.708C578.973 307.526 579.116 307.374 579.295 307.254C579.474 307.13 579.678 307.037 579.906 306.976C580.137 306.914 580.374 306.883 580.619 306.883C581.052 306.883 581.439 306.958 581.781 307.107V307.918C581.413 307.677 580.99 307.557 580.511 307.557C580.361 307.557 580.226 307.575 580.106 307.61C579.985 307.643 579.881 307.69 579.793 307.752C579.709 307.814 579.642 307.889 579.593 307.977C579.548 308.061 579.525 308.156 579.525 308.26C579.525 308.39 579.548 308.499 579.593 308.587C579.642 308.675 579.712 308.753 579.803 308.821C579.894 308.89 580.005 308.951 580.135 309.007C580.265 309.062 580.414 309.122 580.58 309.188C580.801 309.272 580.999 309.36 581.175 309.451C581.351 309.539 581.501 309.64 581.624 309.754C581.748 309.865 581.843 309.993 581.908 310.14C581.976 310.286 582.01 310.46 582.01 310.662C582.01 310.91 581.955 311.124 581.844 311.307C581.737 311.489 581.592 311.64 581.41 311.761C581.227 311.881 581.017 311.971 580.78 312.029C580.542 312.088 580.293 312.117 580.033 312.117C579.518 312.117 579.072 312.018 578.695 311.819Z" fill="#31313B"/>
<path d="M586.654 311.771C586.27 312.002 585.814 312.117 585.287 312.117C584.574 312.117 583.997 311.886 583.558 311.424C583.122 310.958 582.904 310.356 582.904 309.617C582.904 308.794 583.14 308.133 583.612 307.635C584.084 307.133 584.714 306.883 585.501 306.883C585.941 306.883 586.328 306.964 586.664 307.127V307.947C586.292 307.687 585.895 307.557 585.472 307.557C584.961 307.557 584.541 307.741 584.212 308.108C583.887 308.473 583.724 308.953 583.724 309.549C583.724 310.135 583.877 310.597 584.183 310.936C584.492 311.274 584.906 311.443 585.423 311.443C585.859 311.443 586.27 311.299 586.654 311.009V311.771Z" fill="#31313B"/>
<path d="M564.354 322.117C563.615 322.117 563.024 321.884 562.581 321.419C562.142 320.95 561.922 320.33 561.922 319.559C561.922 318.719 562.152 318.063 562.611 317.591C563.07 317.119 563.69 316.883 564.471 316.883C565.217 316.883 565.798 317.112 566.214 317.571C566.634 318.03 566.844 318.667 566.844 319.48C566.844 320.278 566.618 320.918 566.165 321.399C565.716 321.878 565.112 322.117 564.354 322.117ZM564.413 317.557C563.898 317.557 563.491 317.732 563.192 318.084C562.892 318.432 562.743 318.914 562.743 319.529C562.743 320.122 562.894 320.589 563.197 320.931C563.499 321.272 563.905 321.443 564.413 321.443C564.93 321.443 565.327 321.276 565.604 320.94C565.884 320.605 566.024 320.128 566.024 319.51C566.024 318.885 565.884 318.403 565.604 318.064C565.327 317.726 564.93 317.557 564.413 317.557Z" fill="#31313B"/>
<path d="M568.944 321.277H568.924V324.3H568.123V317H568.924V317.879H568.944C569.338 317.215 569.914 316.883 570.672 316.883C571.317 316.883 571.82 317.107 572.181 317.557C572.542 318.003 572.723 318.602 572.723 319.354C572.723 320.19 572.52 320.861 572.113 321.365C571.706 321.867 571.149 322.117 570.443 322.117C569.795 322.117 569.295 321.837 568.944 321.277ZM568.924 319.261V319.959C568.924 320.372 569.058 320.724 569.325 321.014C569.595 321.3 569.937 321.443 570.35 321.443C570.835 321.443 571.214 321.258 571.488 320.887C571.764 320.516 571.903 320 571.903 319.339C571.903 318.782 571.774 318.346 571.517 318.03C571.26 317.715 570.912 317.557 570.472 317.557C570.007 317.557 569.632 317.719 569.349 318.045C569.066 318.367 568.924 318.772 568.924 319.261Z" fill="#31313B"/>
<path d="M578.021 319.7H574.491C574.504 320.257 574.653 320.687 574.94 320.989C575.226 321.292 575.62 321.443 576.122 321.443C576.685 321.443 577.202 321.258 577.674 320.887V321.639C577.235 321.958 576.654 322.117 575.931 322.117C575.225 322.117 574.67 321.891 574.266 321.438C573.862 320.983 573.661 320.343 573.661 319.52C573.661 318.742 573.88 318.108 574.32 317.62C574.762 317.129 575.311 316.883 575.965 316.883C576.62 316.883 577.126 317.094 577.484 317.518C577.842 317.941 578.021 318.528 578.021 319.28V319.7ZM577.201 319.021C577.197 318.559 577.085 318.2 576.864 317.942C576.646 317.685 576.341 317.557 575.951 317.557C575.573 317.557 575.252 317.692 574.989 317.962C574.725 318.232 574.562 318.585 574.5 319.021H577.201Z" fill="#31313B"/>
<path d="M624.94 106H648.94V299H624.94V106Z" fill="#2C0857"/>
<path d="M654.94 177H678.94V299H654.94V177Z" fill="#D7B218"/>
<path d="M646.144 309.168C646.144 311.134 645.257 312.117 643.483 312.117C641.784 312.117 640.934 311.172 640.934 309.28V304.998H641.754V309.227C641.754 310.662 642.36 311.38 643.571 311.38C644.739 311.38 645.324 310.687 645.324 309.3V304.998H646.144V309.168Z" fill="#31313B"/>
<path d="M650.397 307.811C650.257 307.703 650.055 307.649 649.791 307.649C649.45 307.649 649.163 307.811 648.932 308.133C648.704 308.455 648.59 308.895 648.59 309.451V312H647.789V307H648.59V308.03H648.61C648.724 307.679 648.898 307.405 649.132 307.21C649.367 307.011 649.629 306.912 649.918 306.912C650.127 306.912 650.286 306.935 650.397 306.98V307.811Z" fill="#31313B"/>
<path d="M651.676 305.73C651.533 305.73 651.411 305.682 651.31 305.584C651.209 305.486 651.159 305.363 651.159 305.213C651.159 305.063 651.209 304.939 651.31 304.842C651.411 304.741 651.533 304.69 651.676 304.69C651.823 304.69 651.946 304.741 652.047 304.842C652.151 304.939 652.204 305.063 652.204 305.213C652.204 305.356 652.151 305.478 652.047 305.579C651.946 305.68 651.823 305.73 651.676 305.73ZM652.067 312H651.266V307H652.067V312Z" fill="#31313B"/>
<path d="M657.838 312H657.038V309.148C657.038 308.087 656.65 307.557 655.875 307.557C655.475 307.557 655.143 307.708 654.879 308.011C654.619 308.31 654.489 308.689 654.489 309.148V312H653.688V307H654.489V307.83H654.508C654.886 307.199 655.433 306.883 656.149 306.883C656.696 306.883 657.114 307.06 657.404 307.415C657.693 307.767 657.838 308.276 657.838 308.943V312Z" fill="#31313B"/>
<path d="M663.371 309.7H659.84C659.853 310.257 660.003 310.687 660.289 310.989C660.576 311.292 660.97 311.443 661.471 311.443C662.034 311.443 662.552 311.258 663.024 310.887V311.639C662.584 311.958 662.003 312.117 661.281 312.117C660.574 312.117 660.019 311.891 659.616 311.438C659.212 310.983 659.01 310.343 659.01 309.52C659.01 308.742 659.23 308.108 659.669 307.62C660.112 307.129 660.661 306.883 661.315 306.883C661.969 306.883 662.475 307.094 662.833 307.518C663.192 307.941 663.371 308.528 663.371 309.28V309.7ZM662.55 309.021C662.547 308.559 662.435 308.2 662.213 307.942C661.995 307.685 661.691 307.557 661.3 307.557C660.923 307.557 660.602 307.692 660.338 307.962C660.075 308.232 659.912 308.585 659.85 309.021H662.55Z" fill="#31313B"/>
<path d="M639.425 322H638.517L637.775 320.037H634.806L634.108 322H633.195L635.88 314.998H636.73L639.425 322ZM637.506 319.3L636.408 316.316C636.372 316.219 636.336 316.062 636.3 315.848H636.281C636.248 316.046 636.211 316.202 636.168 316.316L635.08 319.3H637.506Z" fill="#31313B"/>
<path d="M644.503 322H643.703V319.148C643.703 318.087 643.315 317.557 642.54 317.557C642.14 317.557 641.808 317.708 641.544 318.011C641.284 318.31 641.154 318.689 641.154 319.148V322H640.353V317H641.154V317.83H641.173C641.551 317.199 642.098 316.883 642.814 316.883C643.361 316.883 643.779 317.06 644.069 317.415C644.359 317.767 644.503 318.276 644.503 318.943V322Z" fill="#31313B"/>
<path d="M649.596 322H648.795V321.219H648.776C648.428 321.818 647.915 322.117 647.238 322.117C646.74 322.117 646.349 321.985 646.066 321.722C645.786 321.458 645.646 321.108 645.646 320.672C645.646 319.738 646.196 319.194 647.296 319.041L648.795 318.831C648.795 317.981 648.452 317.557 647.765 317.557C647.163 317.557 646.619 317.762 646.134 318.172V317.352C646.626 317.039 647.192 316.883 647.833 316.883C649.009 316.883 649.596 317.505 649.596 318.748V322ZM648.795 319.471L647.589 319.637C647.218 319.689 646.938 319.782 646.749 319.915C646.561 320.045 646.466 320.278 646.466 320.613C646.466 320.857 646.553 321.058 646.725 321.214C646.901 321.367 647.134 321.443 647.423 321.443C647.82 321.443 648.148 321.305 648.405 321.028C648.665 320.748 648.795 320.395 648.795 319.969V319.471Z" fill="#31313B"/>
<path d="M651.906 322H651.105V314.598H651.906V322Z" fill="#31313B"/>
<path d="M657.506 317L655.206 322.801C654.796 323.836 654.22 324.354 653.478 324.354C653.27 324.354 653.095 324.332 652.956 324.29V323.572C653.128 323.631 653.286 323.66 653.429 323.66C653.833 323.66 654.136 323.419 654.337 322.938L654.738 321.99L652.785 317H653.673L655.026 320.848C655.042 320.896 655.076 321.023 655.128 321.229H655.158C655.174 321.15 655.206 321.027 655.255 320.857L656.676 317H657.506Z" fill="#31313B"/>
<path d="M661.857 317.229L658.898 321.316H661.828V322H657.721V321.751L660.68 317.684H657.999V317H661.857V317.229Z" fill="#31313B"/>
<path d="M666.911 319.7H663.38C663.393 320.257 663.543 320.687 663.83 320.989C664.116 321.292 664.51 321.443 665.011 321.443C665.574 321.443 666.092 321.258 666.564 320.887V321.639C666.124 321.958 665.543 322.117 664.821 322.117C664.114 322.117 663.559 321.891 663.156 321.438C662.752 320.983 662.55 320.343 662.55 319.52C662.55 318.742 662.77 318.108 663.209 317.62C663.652 317.129 664.201 316.883 664.855 316.883C665.509 316.883 666.015 317.094 666.373 317.518C666.732 317.941 666.911 318.528 666.911 319.28V319.7ZM666.09 319.021C666.087 318.559 665.975 318.2 665.753 317.942C665.535 317.685 665.231 317.557 664.84 317.557C664.463 317.557 664.142 317.692 663.878 317.962C663.615 318.232 663.452 318.585 663.39 319.021H666.09Z" fill="#31313B"/>
<path d="M670.734 317.811C670.594 317.703 670.392 317.649 670.128 317.649C669.787 317.649 669.5 317.811 669.269 318.133C669.041 318.455 668.927 318.895 668.927 319.451V322H668.126V317H668.927V318.03H668.947C669.061 317.679 669.235 317.405 669.469 317.21C669.704 317.011 669.966 316.912 670.255 316.912C670.464 316.912 670.623 316.935 670.734 316.98V317.811Z" fill="#31313B"/>
<path d="M706.94 201H730.94V299H706.94V201Z" fill="#2C0857"/>
<path d="M736.94 147H760.94V299H736.94V147Z" fill="#D7B218"/>
<path d="M733.535 311.707C733.017 311.98 732.372 312.117 731.601 312.117C730.605 312.117 729.807 311.797 729.208 311.155C728.609 310.514 728.31 309.673 728.31 308.631C728.31 307.511 728.647 306.606 729.321 305.916C729.995 305.226 730.849 304.881 731.884 304.881C732.548 304.881 733.098 304.977 733.535 305.169V306.043C733.033 305.763 732.48 305.623 731.874 305.623C731.07 305.623 730.418 305.892 729.916 306.429C729.418 306.966 729.169 307.684 729.169 308.582C729.169 309.435 729.402 310.115 729.868 310.623C730.336 311.128 730.95 311.38 731.708 311.38C732.412 311.38 733.02 311.224 733.535 310.911V311.707Z" fill="#31313B"/>
<path d="M739.98 312H739.003L737.831 310.037C737.724 309.855 737.62 309.7 737.519 309.573C737.418 309.443 737.314 309.337 737.206 309.256C737.102 309.174 736.988 309.116 736.865 309.08C736.744 309.041 736.608 309.021 736.455 309.021H735.781V312H734.96V304.998H737.05C737.356 304.998 737.638 305.037 737.895 305.115C738.155 305.19 738.38 305.306 738.569 305.462C738.761 305.618 738.911 305.813 739.018 306.048C739.125 306.279 739.179 306.551 739.179 306.863C739.179 307.107 739.142 307.332 739.067 307.537C738.995 307.739 738.891 307.92 738.754 308.079C738.621 308.239 738.458 308.375 738.266 308.489C738.077 308.6 737.864 308.686 737.626 308.748V308.768C737.744 308.82 737.845 308.88 737.929 308.948C738.017 309.013 738.1 309.091 738.178 309.183C738.256 309.274 738.333 309.378 738.408 309.495C738.486 309.609 738.572 309.743 738.666 309.896L739.98 312ZM735.781 305.74V308.279H736.894C737.099 308.279 737.288 308.248 737.46 308.187C737.636 308.125 737.788 308.037 737.914 307.923C738.041 307.806 738.141 307.664 738.212 307.498C738.284 307.329 738.32 307.14 738.32 306.932C738.32 306.557 738.198 306.266 737.954 306.058C737.713 305.846 737.363 305.74 736.904 305.74H735.781Z" fill="#31313B"/>
<path d="M718.71 321.717V320.75C718.821 320.848 718.953 320.936 719.106 321.014C719.262 321.092 719.425 321.159 719.594 321.214C719.767 321.266 719.939 321.307 720.112 321.336C720.284 321.365 720.444 321.38 720.59 321.38C721.095 321.38 721.471 321.287 721.718 321.102C721.969 320.913 722.094 320.643 722.094 320.291C722.094 320.102 722.052 319.938 721.967 319.798C721.886 319.658 721.772 319.531 721.625 319.417C721.479 319.3 721.305 319.189 721.103 319.085C720.904 318.978 720.69 318.865 720.458 318.748C720.214 318.624 719.986 318.499 719.775 318.372C719.563 318.245 719.379 318.105 719.223 317.952C719.067 317.799 718.943 317.627 718.852 317.435C718.764 317.239 718.72 317.011 718.72 316.751C718.72 316.432 718.79 316.155 718.93 315.921C719.07 315.683 719.254 315.488 719.482 315.335C719.71 315.182 719.969 315.068 720.258 314.993C720.551 314.918 720.849 314.881 721.152 314.881C721.842 314.881 722.345 314.964 722.661 315.13V316.053C722.247 315.766 721.717 315.623 721.069 315.623C720.89 315.623 720.711 315.643 720.532 315.682C720.353 315.717 720.193 315.778 720.053 315.862C719.913 315.947 719.799 316.056 719.711 316.189C719.623 316.323 719.58 316.486 719.58 316.678C719.58 316.857 719.612 317.011 719.677 317.142C719.746 317.272 719.845 317.391 719.975 317.498C720.105 317.605 720.263 317.71 720.449 317.811C720.637 317.911 720.854 318.022 721.098 318.143C721.349 318.266 721.586 318.396 721.811 318.533C722.036 318.67 722.233 318.821 722.402 318.987C722.571 319.153 722.705 319.337 722.802 319.539C722.903 319.741 722.954 319.972 722.954 320.232C722.954 320.577 722.885 320.87 722.748 321.111C722.615 321.349 722.433 321.543 722.202 321.692C721.974 321.842 721.71 321.95 721.411 322.015C721.111 322.083 720.795 322.117 720.463 322.117C720.353 322.117 720.216 322.107 720.053 322.088C719.89 322.072 719.724 322.046 719.555 322.01C719.386 321.977 719.225 321.937 719.072 321.888C718.922 321.836 718.802 321.779 718.71 321.717Z" fill="#31313B"/>
<path d="M728.222 317L725.922 322.801C725.512 323.836 724.936 324.354 724.194 324.354C723.985 324.354 723.811 324.332 723.671 324.29V323.572C723.844 323.631 724.002 323.66 724.145 323.66C724.549 323.66 724.851 323.419 725.053 322.938L725.454 321.99L723.5 317H724.389L725.742 320.848C725.758 320.896 725.792 321.023 725.844 321.229H725.873C725.89 321.15 725.922 321.027 725.971 320.857L727.392 317H728.222Z" fill="#31313B"/>
<path d="M728.784 321.819V320.96C729.22 321.282 729.7 321.443 730.224 321.443C730.927 321.443 731.279 321.209 731.279 320.74C731.279 320.607 731.248 320.494 731.186 320.403C731.127 320.309 731.046 320.226 730.942 320.154C730.841 320.083 730.72 320.019 730.581 319.964C730.444 319.905 730.296 319.845 730.136 319.783C729.915 319.695 729.72 319.607 729.55 319.52C729.384 319.428 729.244 319.327 729.13 319.217C729.02 319.103 728.935 318.974 728.876 318.831C728.821 318.688 728.793 318.52 728.793 318.328C728.793 318.094 728.847 317.887 728.955 317.708C729.062 317.526 729.205 317.374 729.384 317.254C729.563 317.13 729.767 317.037 729.995 316.976C730.226 316.914 730.463 316.883 730.707 316.883C731.14 316.883 731.528 316.958 731.87 317.107V317.918C731.502 317.677 731.079 317.557 730.6 317.557C730.45 317.557 730.315 317.575 730.195 317.61C730.074 317.643 729.97 317.69 729.882 317.752C729.798 317.814 729.731 317.889 729.682 317.977C729.636 318.061 729.614 318.156 729.614 318.26C729.614 318.39 729.636 318.499 729.682 318.587C729.731 318.675 729.801 318.753 729.892 318.821C729.983 318.89 730.094 318.951 730.224 319.007C730.354 319.062 730.502 319.122 730.668 319.188C730.89 319.272 731.088 319.36 731.264 319.451C731.44 319.539 731.59 319.64 731.713 319.754C731.837 319.865 731.931 319.993 731.997 320.14C732.065 320.286 732.099 320.46 732.099 320.662C732.099 320.91 732.044 321.124 731.933 321.307C731.826 321.489 731.681 321.64 731.498 321.761C731.316 321.881 731.106 321.971 730.869 322.029C730.631 322.088 730.382 322.117 730.122 322.117C729.607 322.117 729.161 322.018 728.784 321.819Z" fill="#31313B"/>
<path d="M735.654 321.951C735.465 322.055 735.216 322.107 734.907 322.107C734.031 322.107 733.593 321.619 733.593 320.643V317.684H732.734V317H733.593V315.779L734.394 315.521V317H735.654V317.684H734.394V320.501C734.394 320.836 734.451 321.076 734.565 321.219C734.679 321.362 734.868 321.434 735.131 321.434C735.333 321.434 735.507 321.378 735.654 321.268V321.951Z" fill="#31313B"/>
<path d="M740.742 319.7H737.211C737.224 320.257 737.374 320.687 737.661 320.989C737.947 321.292 738.341 321.443 738.842 321.443C739.405 321.443 739.923 321.258 740.395 320.887V321.639C739.956 321.958 739.374 322.117 738.652 322.117C737.945 322.117 737.39 321.891 736.987 321.438C736.583 320.983 736.381 320.343 736.381 319.52C736.381 318.742 736.601 318.108 737.04 317.62C737.483 317.129 738.032 316.883 738.686 316.883C739.34 316.883 739.846 317.094 740.205 317.518C740.563 317.941 740.742 318.528 740.742 319.28V319.7ZM739.921 319.021C739.918 318.559 739.806 318.2 739.584 317.942C739.366 317.685 739.062 317.557 738.671 317.557C738.294 317.557 737.973 317.692 737.709 317.962C737.446 318.232 737.283 318.585 737.221 319.021H739.921Z" fill="#31313B"/>
<path d="M749.057 322H748.256V319.129C748.256 318.576 748.17 318.175 747.997 317.928C747.828 317.68 747.542 317.557 747.138 317.557C746.796 317.557 746.505 317.713 746.264 318.025C746.026 318.338 745.908 318.712 745.908 319.148V322H745.107V319.031C745.107 318.048 744.728 317.557 743.969 317.557C743.618 317.557 743.328 317.705 743.1 318.001C742.872 318.294 742.758 318.676 742.758 319.148V322H741.957V317H742.758V317.791H742.778C743.133 317.186 743.65 316.883 744.331 316.883C744.672 316.883 744.97 316.979 745.224 317.171C745.478 317.36 745.652 317.609 745.747 317.918C746.118 317.228 746.671 316.883 747.407 316.883C748.507 316.883 749.057 317.562 749.057 318.919V322Z" fill="#31313B"/>
<path d="M788.94 221H812.94V299H788.94V221Z" fill="#2C0857"/>
<path d="M818.94 127H842.94V299H818.94V127Z" fill="#D7B218"/>
<path d="M808.782 312H807.781L806.169 309.319C806.121 309.238 806.067 309.122 806.008 308.973H805.989C805.956 309.048 805.901 309.163 805.823 309.319L804.163 312H803.157L805.5 308.479L803.342 304.998H804.348L805.779 307.459C805.873 307.622 805.956 307.785 806.028 307.947H806.047C806.151 307.732 806.243 307.563 806.321 307.439L807.81 304.998H808.752L806.55 308.47L808.782 312Z" fill="#31313B"/>
<path d="M812.297 309.529H809.631V308.899H812.297V309.529Z" fill="#31313B"/>
<path d="M818.87 312H817.893L816.721 310.037C816.614 309.855 816.51 309.7 816.409 309.573C816.308 309.443 816.204 309.337 816.096 309.256C815.992 309.174 815.878 309.116 815.754 309.08C815.634 309.041 815.497 309.021 815.344 309.021H814.67V312H813.85V304.998H815.94C816.246 304.998 816.527 305.037 816.785 305.115C817.045 305.19 817.27 305.306 817.458 305.462C817.65 305.618 817.8 305.813 817.908 306.048C818.015 306.279 818.069 306.551 818.069 306.863C818.069 307.107 818.031 307.332 817.956 307.537C817.885 307.739 817.781 307.92 817.644 308.079C817.511 308.239 817.348 308.375 817.156 308.489C816.967 308.6 816.754 308.686 816.516 308.748V308.768C816.633 308.82 816.734 308.88 816.819 308.948C816.907 309.013 816.99 309.091 817.068 309.183C817.146 309.274 817.222 309.378 817.297 309.495C817.375 309.609 817.462 309.743 817.556 309.896L818.87 312ZM814.67 305.74V308.279H815.784C815.989 308.279 816.178 308.248 816.35 308.187C816.526 308.125 816.677 308.037 816.804 307.923C816.931 307.806 817.03 307.664 817.102 307.498C817.174 307.329 817.209 307.14 817.209 306.932C817.209 306.557 817.087 306.266 816.843 306.058C816.602 305.846 816.252 305.74 815.793 305.74H814.67Z" fill="#31313B"/>
<path d="M823.308 312H822.507V311.219H822.488C822.139 311.818 821.627 312.117 820.95 312.117C820.452 312.117 820.061 311.985 819.778 311.722C819.498 311.458 819.358 311.108 819.358 310.672C819.358 309.738 819.908 309.194 821.008 309.041L822.507 308.831C822.507 307.981 822.164 307.557 821.477 307.557C820.875 307.557 820.331 307.762 819.846 308.172V307.352C820.338 307.039 820.904 306.883 821.545 306.883C822.72 306.883 823.308 307.505 823.308 308.748V312ZM822.507 309.471L821.301 309.637C820.93 309.689 820.65 309.782 820.461 309.915C820.273 310.045 820.178 310.278 820.178 310.613C820.178 310.857 820.264 311.058 820.437 311.214C820.613 311.367 820.845 311.443 821.135 311.443C821.532 311.443 821.859 311.305 822.117 311.028C822.377 310.748 822.507 310.395 822.507 309.969V309.471Z" fill="#31313B"/>
<path d="M828.796 307L826.497 312.801C826.086 313.836 825.51 314.354 824.768 314.354C824.56 314.354 824.386 314.332 824.246 314.29V313.572C824.418 313.631 824.576 313.66 824.719 313.66C825.123 313.66 825.426 313.419 825.627 312.938L826.028 311.99L824.075 307H824.963L826.316 310.848C826.332 310.896 826.366 311.023 826.418 311.229H826.448C826.464 311.15 826.497 311.027 826.545 310.857L827.966 307H828.796Z" fill="#31313B"/>
<path d="M805.159 322H804.343V317.303C804.343 316.932 804.366 316.478 804.412 315.94H804.392C804.314 316.256 804.244 316.482 804.182 316.619L801.789 322H801.389L799.001 316.658C798.933 316.502 798.863 316.263 798.791 315.94H798.772C798.798 316.22 798.811 316.678 798.811 317.312V322H798.02V314.998H799.104L801.252 319.881C801.418 320.255 801.526 320.535 801.575 320.721H801.604C801.744 320.337 801.856 320.05 801.941 319.861L804.133 314.998H805.159V322Z" fill="#31313B"/>
<path d="M810.476 322H809.675V321.219H809.656C809.307 321.818 808.795 322.117 808.118 322.117C807.62 322.117 807.229 321.985 806.946 321.722C806.666 321.458 806.526 321.108 806.526 320.672C806.526 319.738 807.076 319.194 808.176 319.041L809.675 318.831C809.675 317.981 809.332 317.557 808.645 317.557C808.043 317.557 807.499 317.762 807.014 318.172V317.352C807.506 317.039 808.072 316.883 808.713 316.883C809.888 316.883 810.476 317.505 810.476 318.748V322ZM809.675 319.471L808.469 319.637C808.098 319.689 807.818 319.782 807.629 319.915C807.441 320.045 807.346 320.278 807.346 320.613C807.346 320.857 807.432 321.058 807.605 321.214C807.781 321.367 808.013 321.443 808.303 321.443C808.7 321.443 809.027 321.305 809.285 321.028C809.545 320.748 809.675 320.395 809.675 319.969V319.471Z" fill="#31313B"/>
<path d="M815.393 321.771C815.009 322.002 814.553 322.117 814.026 322.117C813.313 322.117 812.737 321.886 812.297 321.424C811.861 320.958 811.643 320.356 811.643 319.617C811.643 318.794 811.879 318.133 812.351 317.635C812.823 317.133 813.453 316.883 814.241 316.883C814.68 316.883 815.067 316.964 815.403 317.127V317.947C815.032 317.687 814.635 317.557 814.211 317.557C813.7 317.557 813.28 317.741 812.952 318.108C812.626 318.473 812.463 318.953 812.463 319.549C812.463 320.135 812.616 320.597 812.922 320.936C813.232 321.274 813.645 321.443 814.163 321.443C814.599 321.443 815.009 321.299 815.393 321.009V321.771Z" fill="#31313B"/>
<path d="M820.754 322H819.954V319.119C819.954 318.077 819.566 317.557 818.791 317.557C818.401 317.557 818.072 317.708 817.805 318.011C817.538 318.31 817.405 318.696 817.405 319.168V322H816.604V314.598H817.405V317.83H817.424C817.808 317.199 818.355 316.883 819.065 316.883C820.191 316.883 820.754 317.562 820.754 318.919V322Z" fill="#31313B"/>
<path d="M822.678 315.73C822.535 315.73 822.413 315.682 822.312 315.584C822.211 315.486 822.161 315.363 822.161 315.213C822.161 315.063 822.211 314.939 822.312 314.842C822.413 314.741 822.535 314.69 822.678 314.69C822.825 314.69 822.948 314.741 823.049 314.842C823.153 314.939 823.206 315.063 823.206 315.213C823.206 315.356 823.153 315.478 823.049 315.579C822.948 315.68 822.825 315.73 822.678 315.73ZM823.069 322H822.268V317H823.069V322Z" fill="#31313B"/>
<path d="M828.84 322H828.039V319.148C828.039 318.087 827.652 317.557 826.877 317.557C826.477 317.557 826.145 317.708 825.881 318.011C825.621 318.31 825.491 318.689 825.491 319.148V322H824.69V317H825.491V317.83H825.51C825.888 317.199 826.435 316.883 827.151 316.883C827.698 316.883 828.116 317.06 828.406 317.415C828.695 317.767 828.84 318.276 828.84 318.943V322Z" fill="#31313B"/>
<path d="M834.372 319.7H830.842C830.855 320.257 831.005 320.687 831.291 320.989C831.578 321.292 831.972 321.443 832.473 321.443C833.036 321.443 833.554 321.258 834.026 320.887V321.639C833.586 321.958 833.005 322.117 832.283 322.117C831.576 322.117 831.021 321.891 830.618 321.438C830.214 320.983 830.012 320.343 830.012 319.52C830.012 318.742 830.232 318.108 830.671 317.62C831.114 317.129 831.663 316.883 832.317 316.883C832.971 316.883 833.477 317.094 833.835 317.518C834.193 317.941 834.372 318.528 834.372 319.28V319.7ZM833.552 319.021C833.549 318.559 833.437 318.2 833.215 317.942C832.997 317.685 832.693 317.557 832.302 317.557C831.925 317.557 831.604 317.692 831.34 317.962C831.077 318.232 830.914 318.585 830.852 319.021H833.552Z" fill="#31313B"/>
<path d="M872.94 189H896.94V299H872.94V189Z" fill="#2C0857"/>
<path d="M902.94 155H926.94V299H902.94V155Z" fill="#D7B218"/>
<path d="M875.801 312H872.09V304.998H875.645V305.74H872.911V308.069H875.44V308.807H872.911V311.258H875.801V312Z" fill="#31313B"/>
<path d="M881.914 311.707C881.397 311.98 880.752 312.117 879.981 312.117C878.985 312.117 878.187 311.797 877.588 311.155C876.989 310.514 876.69 309.673 876.69 308.631C876.69 307.511 877.027 306.606 877.701 305.916C878.374 305.226 879.229 304.881 880.264 304.881C880.928 304.881 881.478 304.977 881.914 305.169V306.043C881.413 305.763 880.86 305.623 880.254 305.623C879.45 305.623 878.798 305.892 878.296 306.429C877.798 306.966 877.549 307.684 877.549 308.582C877.549 309.435 877.782 310.115 878.247 310.623C878.716 311.128 879.33 311.38 880.088 311.38C880.791 311.38 881.4 311.224 881.914 310.911V311.707Z" fill="#31313B"/>
<path d="M888.575 311.521C887.872 311.919 887.09 312.117 886.231 312.117C885.232 312.117 884.423 311.795 883.804 311.15C883.189 310.506 882.881 309.653 882.881 308.592C882.881 307.508 883.223 306.619 883.907 305.926C884.594 305.229 885.463 304.881 886.514 304.881C887.276 304.881 887.915 305.005 888.433 305.252V306.16C887.867 305.802 887.196 305.623 886.421 305.623C885.637 305.623 884.994 305.893 884.493 306.434C883.991 306.974 883.741 307.674 883.741 308.533C883.741 309.419 883.973 310.115 884.439 310.623C884.904 311.128 885.536 311.38 886.333 311.38C886.88 311.38 887.354 311.271 887.754 311.053V309.09H886.221V308.348H888.575V311.521Z" fill="#31313B"/>
<path d="M900.088 312H899.273V307.303C899.273 306.932 899.296 306.478 899.341 305.94H899.322C899.244 306.256 899.174 306.482 899.112 306.619L896.719 312H896.319L893.931 306.658C893.863 306.502 893.793 306.263 893.721 305.94H893.702C893.728 306.22 893.741 306.678 893.741 307.312V312H892.95V304.998H894.034L896.182 309.881C896.348 310.255 896.456 310.535 896.504 310.721H896.534C896.674 310.337 896.786 310.05 896.871 309.861L899.063 304.998H900.088V312Z" fill="#31313B"/>
<path d="M905.406 312H904.605V311.219H904.585C904.237 311.818 903.724 312.117 903.047 312.117C902.549 312.117 902.159 311.985 901.875 311.722C901.595 311.458 901.456 311.108 901.456 310.672C901.456 309.738 902.006 309.194 903.106 309.041L904.605 308.831C904.605 307.981 904.261 307.557 903.575 307.557C902.972 307.557 902.429 307.762 901.944 308.172V307.352C902.435 307.039 903.002 306.883 903.643 306.883C904.818 306.883 905.406 307.505 905.406 308.748V312ZM904.605 309.471L903.399 309.637C903.028 309.689 902.748 309.782 902.559 309.915C902.37 310.045 902.276 310.278 902.276 310.613C902.276 310.857 902.362 311.058 902.535 311.214C902.71 311.367 902.943 311.443 903.233 311.443C903.63 311.443 903.957 311.305 904.214 311.028C904.475 310.748 904.605 310.395 904.605 309.969V309.471Z" fill="#31313B"/>
<path d="M910.323 311.771C909.939 312.002 909.483 312.117 908.956 312.117C908.243 312.117 907.666 311.886 907.227 311.424C906.791 310.958 906.573 310.356 906.573 309.617C906.573 308.794 906.809 308.133 907.281 307.635C907.753 307.133 908.383 306.883 909.17 306.883C909.61 306.883 909.997 306.964 910.332 307.127V307.947C909.961 307.687 909.564 307.557 909.141 307.557C908.63 307.557 908.21 307.741 907.881 308.108C907.556 308.473 907.393 308.953 907.393 309.549C907.393 310.135 907.546 310.597 907.852 310.936C908.161 311.274 908.575 311.443 909.092 311.443C909.528 311.443 909.939 311.299 910.323 311.009V311.771Z" fill="#31313B"/>
<path d="M915.684 312H914.883V309.119C914.883 308.077 914.496 307.557 913.721 307.557C913.331 307.557 913.002 307.708 912.735 308.011C912.468 308.31 912.334 308.696 912.334 309.168V312H911.534V304.598H912.334V307.83H912.354C912.738 307.199 913.285 306.883 913.995 306.883C915.121 306.883 915.684 307.562 915.684 308.919V312Z" fill="#31313B"/>
<path d="M917.608 305.73C917.465 305.73 917.343 305.682 917.242 305.584C917.141 305.486 917.09 305.363 917.09 305.213C917.09 305.063 917.141 304.939 917.242 304.842C917.343 304.741 917.465 304.69 917.608 304.69C917.754 304.69 917.878 304.741 917.979 304.842C918.083 304.939 918.135 305.063 918.135 305.213C918.135 305.356 918.083 305.478 917.979 305.579C917.878 305.68 917.754 305.73 917.608 305.73ZM917.998 312H917.198V307H917.998V312Z" fill="#31313B"/>
<path d="M923.77 312H922.969V309.148C922.969 308.087 922.582 307.557 921.807 307.557C921.407 307.557 921.075 307.708 920.811 308.011C920.551 308.31 920.42 308.689 920.42 309.148V312H919.62V307H920.42V307.83H920.44C920.817 307.199 921.364 306.883 922.081 306.883C922.627 306.883 923.046 307.06 923.335 307.415C923.625 307.767 923.77 308.276 923.77 308.943V312Z" fill="#31313B"/>
<path d="M929.302 309.7H925.772C925.785 310.257 925.935 310.687 926.221 310.989C926.508 311.292 926.901 311.443 927.403 311.443C927.966 311.443 928.484 311.258 928.956 310.887V311.639C928.516 311.958 927.935 312.117 927.212 312.117C926.506 312.117 925.951 311.891 925.547 311.438C925.144 310.983 924.942 310.343 924.942 309.52C924.942 308.742 925.162 308.108 925.601 307.62C926.044 307.129 926.592 306.883 927.247 306.883C927.901 306.883 928.407 307.094 928.765 307.518C929.123 307.941 929.302 308.528 929.302 309.28V309.7ZM928.482 309.021C928.479 308.559 928.366 308.2 928.145 307.942C927.927 307.685 927.622 307.557 927.232 307.557C926.854 307.557 926.534 307.692 926.27 307.962C926.006 308.232 925.844 308.585 925.782 309.021H928.482Z" fill="#31313B"/>
<path d="M957.94 155H981.94V299H957.94V155Z" fill="#2C0857"/>
<path d="M987.94 233H1011.94V299H987.94V233Z" fill="#D7B218"/>
<path d="M972.948 312V304.998H974.94C975.545 304.998 976.025 305.146 976.38 305.442C976.735 305.739 976.913 306.124 976.913 306.6C976.913 306.997 976.805 307.342 976.59 307.635C976.375 307.928 976.079 308.136 975.702 308.26V308.279C976.174 308.335 976.551 308.514 976.834 308.816C977.118 309.116 977.259 309.507 977.259 309.988C977.259 310.587 977.044 311.072 976.615 311.443C976.185 311.814 975.643 312 974.989 312H972.948ZM973.768 305.74V308.001H974.608C975.057 308.001 975.41 307.894 975.667 307.679C975.925 307.461 976.053 307.155 976.053 306.761C976.053 306.08 975.606 305.74 974.71 305.74H973.768ZM973.768 308.738V311.258H974.881C975.363 311.258 975.736 311.144 975.999 310.916C976.266 310.688 976.4 310.376 976.4 309.979C976.4 309.152 975.837 308.738 974.71 308.738H973.768Z" fill="#31313B"/>
<path d="M978.983 305.73C978.84 305.73 978.718 305.682 978.617 305.584C978.516 305.486 978.465 305.363 978.465 305.213C978.465 305.063 978.516 304.939 978.617 304.842C978.718 304.741 978.84 304.69 978.983 304.69C979.129 304.69 979.253 304.741 979.354 304.842C979.458 304.939 979.51 305.063 979.51 305.213C979.51 305.356 979.458 305.478 979.354 305.579C979.253 305.68 979.129 305.73 978.983 305.73ZM979.373 312H978.573V307H979.373V312Z" fill="#31313B"/>
<path d="M981.922 309.354V312H981.102V304.998H983.026C983.775 304.998 984.354 305.18 984.764 305.545C985.178 305.91 985.384 306.424 985.384 307.088C985.384 307.752 985.155 308.296 984.696 308.719C984.24 309.142 983.623 309.354 982.845 309.354H981.922ZM981.922 305.74V308.611H982.782C983.348 308.611 983.779 308.483 984.076 308.226C984.375 307.965 984.525 307.599 984.525 307.127C984.525 306.202 983.978 305.74 982.884 305.74H981.922Z" fill="#31313B"/>
<path d="M992.127 312H991.219L990.477 310.037H987.508L986.81 312H985.897L988.582 304.998H989.432L992.127 312ZM990.208 309.3L989.11 306.316C989.074 306.219 989.038 306.062 989.002 305.848H988.983C988.95 306.046 988.913 306.202 988.871 306.316L987.782 309.3H990.208Z" fill="#31313B"/>
<path d="M993.983 309.354V312H993.163V304.998H995.086C995.835 304.998 996.414 305.18 996.825 305.545C997.238 305.91 997.445 306.424 997.445 307.088C997.445 307.752 997.215 308.296 996.756 308.719C996.301 309.142 995.684 309.354 994.906 309.354H993.983ZM993.983 305.74V308.611H994.842C995.409 308.611 995.84 308.483 996.136 308.226C996.436 307.965 996.585 307.599 996.585 307.127C996.585 306.202 996.039 305.74 994.945 305.74H993.983Z" fill="#31313B"/>
<path d="M1039.94 221H1063.94V299H1039.94V221Z" fill="#2C0857"/>
<path d="M1069.94 127H1093.94V299H1069.94V127Z" fill="#D7B218"/>
<path d="M1042.24 312V304.998H1044.17C1046.64 304.998 1047.87 306.136 1047.87 308.411C1047.87 309.492 1047.53 310.361 1046.84 311.019C1046.16 311.673 1045.24 312 1044.1 312H1042.24ZM1043.06 305.74V311.258H1044.1C1045.02 311.258 1045.74 311.012 1046.25 310.521C1046.76 310.029 1047.02 309.332 1047.02 308.431C1047.02 306.637 1046.06 305.74 1044.15 305.74H1043.06Z" fill="#31313B"/>
<path d="M1053.16 309.7H1049.63C1049.65 310.257 1049.79 310.687 1050.08 310.989C1050.37 311.292 1050.76 311.443 1051.26 311.443C1051.83 311.443 1052.34 311.258 1052.82 310.887V311.639C1052.38 311.958 1051.8 312.117 1051.07 312.117C1050.37 312.117 1049.81 311.891 1049.41 311.438C1049 310.983 1048.8 310.343 1048.8 309.52C1048.8 308.742 1049.02 308.108 1049.46 307.62C1049.9 307.129 1050.45 306.883 1051.11 306.883C1051.76 306.883 1052.27 307.094 1052.63 307.518C1052.98 307.941 1053.16 308.528 1053.16 309.28V309.7ZM1052.34 309.021C1052.34 308.559 1052.23 308.2 1052.01 307.942C1051.79 307.685 1051.48 307.557 1051.09 307.557C1050.71 307.557 1050.39 307.692 1050.13 307.962C1049.87 308.232 1049.7 308.585 1049.64 309.021H1052.34Z" fill="#31313B"/>
<path d="M1056.85 305.301C1056.69 305.213 1056.52 305.169 1056.32 305.169C1055.76 305.169 1055.48 305.522 1055.48 306.229V307H1056.65V307.684H1055.48V312H1054.68V307.684H1053.83V307H1054.68V306.189C1054.68 305.665 1054.83 305.252 1055.14 304.949C1055.44 304.643 1055.82 304.49 1056.27 304.49C1056.51 304.49 1056.71 304.52 1056.85 304.578V305.301Z" fill="#31313B"/>
<path d="M1057.92 305.73C1057.78 305.73 1057.66 305.682 1057.56 305.584C1057.46 305.486 1057.41 305.363 1057.41 305.213C1057.41 305.063 1057.46 304.939 1057.56 304.842C1057.66 304.741 1057.78 304.69 1057.92 304.69C1058.07 304.69 1058.19 304.741 1058.29 304.842C1058.4 304.939 1058.45 305.063 1058.45 305.213C1058.45 305.356 1058.4 305.478 1058.29 305.579C1058.19 305.68 1058.07 305.73 1057.92 305.73ZM1058.31 312H1057.51V307H1058.31V312Z" fill="#31313B"/>
<path d="M1060.76 311.277H1060.74V312H1059.93V304.598H1060.74V307.879H1060.76C1061.15 307.215 1061.73 306.883 1062.48 306.883C1063.13 306.883 1063.63 307.107 1063.99 307.557C1064.35 308.003 1064.53 308.602 1064.53 309.354C1064.53 310.19 1064.33 310.861 1063.92 311.365C1063.52 311.867 1062.96 312.117 1062.25 312.117C1061.59 312.117 1061.09 311.837 1060.76 311.277ZM1060.74 309.261V309.959C1060.74 310.372 1060.87 310.724 1061.14 311.014C1061.41 311.3 1061.75 311.443 1062.16 311.443C1062.65 311.443 1063.03 311.258 1063.3 310.887C1063.58 310.516 1063.71 310 1063.71 309.339C1063.71 308.782 1063.59 308.346 1063.33 308.03C1063.07 307.715 1062.72 307.557 1062.28 307.557C1061.82 307.557 1061.44 307.719 1061.16 308.045C1060.88 308.367 1060.74 308.772 1060.74 309.261Z" fill="#31313B"/>
<path d="M1068.42 307.811C1068.28 307.703 1068.08 307.649 1067.82 307.649C1067.47 307.649 1067.19 307.811 1066.96 308.133C1066.73 308.455 1066.61 308.895 1066.61 309.451V312H1065.81V307H1066.61V308.03H1066.63C1066.75 307.679 1066.92 307.405 1067.16 307.21C1067.39 307.011 1067.65 306.912 1067.94 306.912C1068.15 306.912 1068.31 306.935 1068.42 306.98V307.811Z" fill="#31313B"/>
<path d="M1069.7 305.73C1069.56 305.73 1069.44 305.682 1069.33 305.584C1069.23 305.486 1069.18 305.363 1069.18 305.213C1069.18 305.063 1069.23 304.939 1069.33 304.842C1069.44 304.741 1069.56 304.69 1069.7 304.69C1069.85 304.69 1069.97 304.741 1070.07 304.842C1070.18 304.939 1070.23 305.063 1070.23 305.213C1070.23 305.356 1070.18 305.478 1070.07 305.579C1069.97 305.68 1069.85 305.73 1069.7 305.73ZM1070.09 312H1069.29V307H1070.09V312Z" fill="#31313B"/>
<path d="M1072.51 312H1071.71V304.598H1072.51V312Z" fill="#31313B"/>
<path d="M1074.93 312H1074.13V304.598H1074.93V312Z" fill="#31313B"/>
<path d="M1080.14 312H1079.33V311.219H1079.31C1078.97 311.818 1078.45 312.117 1077.78 312.117C1077.28 312.117 1076.89 311.985 1076.6 311.722C1076.32 311.458 1076.18 311.108 1076.18 310.672C1076.18 309.738 1076.74 309.194 1077.84 309.041L1079.33 308.831C1079.33 307.981 1078.99 307.557 1078.3 307.557C1077.7 307.557 1077.16 307.762 1076.67 308.172V307.352C1077.16 307.039 1077.73 306.883 1078.37 306.883C1079.55 306.883 1080.14 307.505 1080.14 308.748V312ZM1079.33 309.471L1078.13 309.637C1077.76 309.689 1077.48 309.782 1077.29 309.915C1077.1 310.045 1077.01 310.278 1077.01 310.613C1077.01 310.857 1077.09 311.058 1077.26 311.214C1077.44 311.367 1077.67 311.443 1077.96 311.443C1078.36 311.443 1078.69 311.305 1078.94 311.028C1079.2 310.748 1079.33 310.395 1079.33 309.969V309.471Z" fill="#31313B"/>
<path d="M1083.96 311.951C1083.77 312.055 1083.53 312.107 1083.22 312.107C1082.34 312.107 1081.9 311.619 1081.9 310.643V307.684H1081.04V307H1081.9V305.779L1082.7 305.521V307H1083.96V307.684H1082.7V310.501C1082.7 310.836 1082.76 311.076 1082.87 311.219C1082.99 311.362 1083.18 311.434 1083.44 311.434C1083.64 311.434 1083.82 311.378 1083.96 311.268V311.951Z" fill="#31313B"/>
<path d="M1087.12 312.117C1086.38 312.117 1085.79 311.884 1085.35 311.419C1084.91 310.95 1084.69 310.33 1084.69 309.559C1084.69 308.719 1084.92 308.063 1085.38 307.591C1085.84 307.119 1086.46 306.883 1087.24 306.883C1087.99 306.883 1088.57 307.112 1088.98 307.571C1089.4 308.03 1089.61 308.667 1089.61 309.48C1089.61 310.278 1089.39 310.918 1088.93 311.399C1088.48 311.878 1087.88 312.117 1087.12 312.117ZM1087.18 307.557C1086.67 307.557 1086.26 307.732 1085.96 308.084C1085.66 308.432 1085.51 308.914 1085.51 309.529C1085.51 310.122 1085.66 310.589 1085.97 310.931C1086.27 311.272 1086.67 311.443 1087.18 311.443C1087.7 311.443 1088.1 311.276 1088.37 310.94C1088.65 310.605 1088.79 310.128 1088.79 309.51C1088.79 308.885 1088.65 308.403 1088.37 308.064C1088.1 307.726 1087.7 307.557 1087.18 307.557Z" fill="#31313B"/>
<path d="M1093.5 307.811C1093.36 307.703 1093.16 307.649 1092.89 307.649C1092.55 307.649 1092.27 307.811 1092.03 308.133C1091.81 308.455 1091.69 308.895 1091.69 309.451V312H1090.89V307H1091.69V308.03H1091.71C1091.83 307.679 1092 307.405 1092.23 307.21C1092.47 307.011 1092.73 306.912 1093.02 306.912C1093.23 306.912 1093.39 306.935 1093.5 306.98V307.811Z" fill="#31313B"/>
</g>
<defs>
<filter id="filter0_d_13_5" x="0.228516" y="0.5" width="1117.34" height="325.854" filterUnits="userSpaceOnUse" color-interpolation-filters="sRGB">
<feFlood flood-opacity="0" result="BackgroundImageFix"/>
<feColorMatrix in="SourceAlpha" type="matrix" values="0 0 0 0 0 0 0 0 0 0 0 0 0 0 0 0 0 0 127 0" result="hardAlpha"/>
<feOffset dy="-1"/>
<feGaussianBlur stdDeviation="1.5"/>
<feComposite in2="hardAlpha" operator="out"/>
<feColorMatrix type="matrix" values="0 0 0 0 0 0 0 0 0 0 0 0 0 0 0 0 0 0 0.160784 0"/>
<feBlend mode="normal" in2="BackgroundImageFix" result="effect1_dropShadow_13_5"/>
<feBlend mode="normal" in="SourceGraphic" in2="effect1_dropShadow_13_5" result="shape"/>
</filter>
</defs>
</svg>
