<svg width="563" height="299" viewBox="0 0 563 299" fill="none" xmlns="http://www.w3.org/2000/svg">
<path d="M18.5835 282.23V281.137V0H19.7934V14.4014H561.353V15.4945H19.7934V81.086H561.353V82.1791H19.7934V147.77H561.353V148.863H19.7934V214.453H561.353V215.546H19.7934V281.137H562V282.23H18.5835Z" fill="#E5E8EA"/>
<path opacity="0.652749" d="M7.986 280.978C6.706 280.978 5.936 279.788 5.936 277.648C5.936 275.508 6.706 274.358 7.986 274.358C9.256 274.358 10.026 275.508 10.026 277.648C10.026 279.788 9.256 280.978 7.986 280.978ZM7.986 280.308C8.726 280.308 9.226 279.518 9.226 277.648C9.226 275.778 8.726 275.028 7.986 275.028C7.246 275.028 6.746 275.778 6.746 277.648C6.746 279.518 7.246 280.308 7.986 280.308Z" fill="#373650"/>
<path opacity="0.652749" d="M1.40763 216.224V215.714C3.30763 213.854 4.40763 212.674 4.40763 211.644C4.40763 210.914 4.00763 210.404 3.19763 210.404C2.66763 210.404 2.20763 210.744 1.84763 211.164L1.37763 210.714C1.90763 210.114 2.47763 209.724 3.29763 209.724C4.47763 209.724 5.21763 210.474 5.21763 211.594C5.21763 212.834 4.09763 213.984 2.54763 215.564C2.89763 215.534 3.28763 215.514 3.61763 215.514H5.52763V216.224H1.40763ZM8.46833 216.344C7.18833 216.344 6.41833 215.154 6.41833 213.014C6.41833 210.874 7.18833 209.724 8.46833 209.724C9.73833 209.724 10.5083 210.874 10.5083 213.014C10.5083 215.154 9.73833 216.344 8.46833 216.344ZM8.46833 215.674C9.20833 215.674 9.70833 214.884 9.70833 213.014C9.70833 211.144 9.20833 210.394 8.46833 210.394C7.72833 210.394 7.22833 211.144 7.22833 213.014C7.22833 214.884 7.72833 215.674 8.46833 215.674Z" fill="#373650"/>
<path opacity="0.652749" d="M2.04763 146.436H4.04763V144.586C4.04763 144.256 4.07763 143.706 4.09763 143.366H4.05763C3.89763 143.666 3.71763 143.946 3.53763 144.266L2.04763 146.436ZM4.04763 148.856V147.096H1.17763V146.546L3.90763 142.476H4.82763V146.436H5.69763V147.096H4.82763V148.856H4.04763ZM8.46833 148.976C7.18833 148.976 6.41833 147.786 6.41833 145.646C6.41833 143.506 7.18833 142.356 8.46833 142.356C9.73833 142.356 10.5083 143.506 10.5083 145.646C10.5083 147.786 9.73833 148.976 8.46833 148.976ZM8.46833 148.306C9.20833 148.306 9.70833 147.516 9.70833 145.646C9.70833 143.776 9.20833 143.026 8.46833 143.026C7.72833 143.026 7.22833 143.776 7.22833 145.646C7.22833 147.516 7.72833 148.306 8.46833 148.306Z" fill="#373650"/>
<path opacity="0.652749" d="M3.61763 78.2122C3.20763 78.2122 2.68763 78.4622 2.28763 79.0622C2.39763 80.3022 2.88763 80.9622 3.68763 80.9622C4.31763 80.9622 4.79763 80.4022 4.79763 79.5622C4.79763 78.7322 4.40763 78.2122 3.61763 78.2122ZM3.68763 81.6122C2.43763 81.6122 1.48763 80.5922 1.48763 78.5422C1.48763 75.9822 2.64763 74.9922 3.91763 74.9922C4.60763 74.9922 5.10763 75.2822 5.45763 75.6722L4.99763 76.1922C4.74763 75.8822 4.34763 75.6822 3.94763 75.6822C3.05763 75.6822 2.29763 76.3822 2.26763 78.4122C2.66763 77.9122 3.23763 77.5922 3.75763 77.5922C4.86763 77.5922 5.57763 78.2522 5.57763 79.5622C5.57763 80.7822 4.71763 81.6122 3.68763 81.6122ZM8.46833 81.6122C7.18833 81.6122 6.41833 80.4222 6.41833 78.2822C6.41833 76.1422 7.18833 74.9922 8.46833 74.9922C9.73833 74.9922 10.5083 76.1422 10.5083 78.2822C10.5083 80.4222 9.73833 81.6122 8.46833 81.6122ZM8.46833 80.9422C9.20833 80.9422 9.70833 80.1522 9.70833 78.2822C9.70833 76.4122 9.20833 75.6622 8.46833 75.6622C7.72833 75.6622 7.22833 76.4122 7.22833 78.2822C7.22833 80.1522 7.72833 80.9422 8.46833 80.9422Z" fill="#373650"/>
<path opacity="0.652749" d="M3.50763 14.2479C2.30763 14.2479 1.41763 13.5079 1.41763 12.4979C1.41763 11.6679 2.01763 11.0979 2.61763 10.7779V10.7379C2.14763 10.4079 1.72763 9.93793 1.72763 9.26793C1.72763 8.28793 2.50763 7.62793 3.53763 7.62793C4.64763 7.62793 5.33763 8.33793 5.33763 9.32793C5.33763 9.99793 4.85763 10.5679 4.45763 10.8679V10.9079C5.02763 11.2379 5.56763 11.6879 5.56763 12.5479C5.56763 13.4979 4.74763 14.2479 3.50763 14.2479ZM3.95763 10.6479C4.38763 10.2679 4.62763 9.83793 4.62763 9.36793C4.62763 8.74793 4.21763 8.24793 3.51763 8.24793C2.92763 8.24793 2.48763 8.64793 2.48763 9.26793C2.48763 10.0279 3.18763 10.3479 3.95763 10.6479ZM3.52763 13.6279C4.26763 13.6279 4.77763 13.1779 4.77763 12.5179C4.77763 11.6979 3.96763 11.4079 3.04763 11.0379C2.54763 11.3679 2.16763 11.8379 2.16763 12.4179C2.16763 13.1179 2.74763 13.6279 3.52763 13.6279ZM8.46833 14.2479C7.18833 14.2479 6.41833 13.0579 6.41833 10.9179C6.41833 8.77793 7.18833 7.62793 8.46833 7.62793C9.73833 7.62793 10.5083 8.77793 10.5083 10.9179C10.5083 13.0579 9.73833 14.2479 8.46833 14.2479ZM8.46833 13.5779C9.20833 13.5779 9.70833 12.7879 9.70833 10.9179C9.70833 9.04793 9.20833 8.29793 8.46833 8.29793C7.72833 8.29793 7.22833 9.04793 7.22833 10.9179C7.22833 12.7879 7.72833 13.5779 8.46833 13.5779Z" fill="#373650"/>
<g filter="url(#filter0_d_14_5188)">
<path d="M39.9448 294.039C38.9519 294.039 38.156 293.712 37.5571 293.058C36.9614 292.403 36.6635 291.552 36.6635 290.504C36.6635 289.378 36.9679 288.479 37.5766 287.809C38.1853 287.138 39.0138 286.803 40.062 286.803C41.0288 286.803 41.8068 287.128 42.3959 287.779C42.9884 288.43 43.2846 289.282 43.2846 290.333C43.2846 291.476 42.9819 292.379 42.3764 293.043C41.7709 293.707 40.9604 294.039 39.9448 294.039ZM40.0034 287.545C39.2677 287.545 38.6704 287.81 38.2114 288.341C37.7524 288.871 37.5229 289.568 37.5229 290.431C37.5229 291.293 37.7459 291.988 38.1918 292.516C38.6411 293.04 39.2254 293.302 39.9448 293.302C40.713 293.302 41.3185 293.051 41.7612 292.55C42.2039 292.049 42.4252 291.347 42.4252 290.445C42.4252 289.521 42.2104 288.806 41.7807 288.302C41.351 287.797 40.7586 287.545 40.0034 287.545ZM47.9624 293.692C47.5782 293.924 47.1225 294.039 46.5952 294.039C45.8823 294.039 45.3061 293.808 44.8667 293.346C44.4305 292.88 44.2124 292.278 44.2124 291.539C44.2124 290.715 44.4484 290.055 44.9204 289.557C45.3924 289.055 46.0223 288.805 46.81 288.805C47.2495 288.805 47.6368 288.886 47.9721 289.049V289.869C47.601 289.609 47.2039 289.479 46.7807 289.479C46.2696 289.479 45.8497 289.662 45.5209 290.03C45.1954 290.395 45.0327 290.875 45.0327 291.471C45.0327 292.057 45.1857 292.519 45.4917 292.857C45.8009 293.196 46.2143 293.365 46.7319 293.365C47.1681 293.365 47.5782 293.22 47.9624 292.931V293.692ZM51.4926 293.873C51.3038 293.977 51.0548 294.029 50.7456 294.029C49.8699 294.029 49.4321 293.541 49.4321 292.564V289.605H48.5727V288.922H49.4321V287.701L50.2329 287.442V288.922H51.4926V289.605H50.2329V292.423C50.2329 292.758 50.2898 292.997 50.4038 293.141C50.5177 293.284 50.7065 293.355 50.9702 293.355C51.172 293.355 51.3461 293.3 51.4926 293.189V293.873Z" fill="#31313B"/>
</g>
<g filter="url(#filter1_d_14_5188)">
<rect x="27.3062" y="169.532" width="30.6573" height="111.698" fill="#66C4E0"/>
</g>
<g filter="url(#filter2_d_14_5188)">
<path d="M315.996 293.922H315.087L314.345 291.959H311.376L310.678 293.922H309.765L312.451 286.92H313.3L315.996 293.922ZM314.077 291.222L312.978 288.238C312.942 288.141 312.906 287.984 312.871 287.77H312.851C312.818 287.968 312.781 288.124 312.739 288.238L311.65 291.222H314.077ZM317.744 293.199H317.724V296.222H316.923V288.922H317.724V289.801H317.744C318.137 289.137 318.714 288.805 319.472 288.805C320.117 288.805 320.62 289.029 320.981 289.479C321.342 289.924 321.523 290.523 321.523 291.275C321.523 292.112 321.319 292.783 320.913 293.287C320.506 293.788 319.949 294.039 319.243 294.039C318.595 294.039 318.095 293.759 317.744 293.199ZM317.724 291.183V291.881C317.724 292.294 317.858 292.646 318.124 292.936C318.395 293.222 318.736 293.365 319.15 293.365C319.635 293.365 320.014 293.18 320.288 292.809C320.564 292.438 320.703 291.922 320.703 291.261C320.703 290.704 320.574 290.268 320.317 289.952C320.06 289.636 319.711 289.479 319.272 289.479C318.806 289.479 318.432 289.641 318.149 289.967C317.866 290.289 317.724 290.694 317.724 291.183ZM325.41 289.732C325.27 289.625 325.068 289.571 324.804 289.571C324.462 289.571 324.176 289.732 323.945 290.055C323.717 290.377 323.603 290.816 323.603 291.373V293.922H322.802V288.922H323.603V289.952H323.623C323.736 289.601 323.911 289.327 324.145 289.132C324.379 288.933 324.641 288.834 324.931 288.834C325.139 288.834 325.299 288.857 325.41 288.902V289.732Z" fill="#31313B"/>
</g>
<g filter="url(#filter3_d_14_5188)">
<rect x="301.032" y="97.5317" width="30.6573" height="183.698" fill="#66C4E0"/>
</g>
<g filter="url(#filter4_d_14_5188)">
<path d="M176.514 291.412C176.514 292.242 176.338 292.888 175.987 293.351C175.635 293.81 175.165 294.039 174.576 294.039C174.302 294.039 174.078 294 173.902 293.922V293.111C174.078 293.238 174.305 293.302 174.585 293.302C175.324 293.302 175.694 292.675 175.694 291.422V286.92H176.514V291.412ZM181.768 293.922H180.967V293.141H180.948C180.599 293.74 180.087 294.039 179.41 294.039C178.911 294.039 178.521 293.907 178.238 293.644C177.958 293.38 177.818 293.03 177.818 292.594C177.818 291.66 178.368 291.116 179.468 290.963L180.967 290.753C180.967 289.903 180.624 289.479 179.937 289.479C179.335 289.479 178.791 289.684 178.306 290.094V289.273C178.798 288.961 179.364 288.805 180.005 288.805C181.18 288.805 181.768 289.426 181.768 290.67V293.922ZM180.967 291.393L179.761 291.559C179.39 291.611 179.11 291.703 178.921 291.837C178.732 291.967 178.638 292.2 178.638 292.535C178.638 292.779 178.724 292.979 178.897 293.136C179.073 293.289 179.305 293.365 179.595 293.365C179.992 293.365 180.319 293.227 180.577 292.95C180.837 292.67 180.967 292.317 180.967 291.891V291.393ZM187.427 293.922H186.626V291.07C186.626 290.009 186.239 289.479 185.464 289.479C185.064 289.479 184.732 289.63 184.468 289.933C184.208 290.232 184.078 290.611 184.078 291.07V293.922H183.277V288.922H184.078V289.752H184.097C184.475 289.12 185.022 288.805 185.738 288.805C186.285 288.805 186.703 288.982 186.993 289.337C187.282 289.688 187.427 290.198 187.427 290.865V293.922Z" fill="#31313B"/>
</g>
<g filter="url(#filter5_d_14_5188)">
<rect x="164.169" y="97.5317" width="30.6573" height="183.698" fill="#66C4E0"/>
</g>
<g filter="url(#filter6_d_14_5188)">
<path d="M451.39 291.412C451.39 292.242 451.214 292.888 450.863 293.351C450.511 293.81 450.041 294.039 449.452 294.039C449.178 294.039 448.954 294 448.778 293.922V293.111C448.954 293.238 449.182 293.302 449.462 293.302C450.2 293.302 450.57 292.675 450.57 291.422V286.92H451.39V291.412ZM457.108 293.922H456.307V293.131H456.288C455.956 293.736 455.441 294.039 454.745 294.039C453.553 294.039 452.958 293.329 452.958 291.91V288.922H453.754V291.783C453.754 292.838 454.157 293.365 454.964 293.365C455.355 293.365 455.676 293.222 455.926 292.936C456.18 292.646 456.307 292.268 456.307 291.803V288.922H457.108V293.922ZM459.53 293.922H458.729V286.52H459.53V293.922Z" fill="#31313B"/>
</g>
<g filter="url(#filter7_d_14_5188)">
<rect x="437.895" y="97.5317" width="30.6573" height="183.698" fill="#66C4E0"/>
</g>
<path d="M223.06 287.663H220.326V290.084H222.855V290.822H220.326V293.922H219.505V286.92H223.06V287.663ZM228.299 291.623H224.769C224.782 292.179 224.932 292.609 225.218 292.912C225.505 293.214 225.899 293.366 226.4 293.366C226.963 293.366 227.481 293.18 227.953 292.809V293.561C227.513 293.88 226.932 294.04 226.209 294.04C225.503 294.04 224.948 293.813 224.544 293.361C224.141 292.905 223.939 292.265 223.939 291.442C223.939 290.664 224.159 290.031 224.598 289.542C225.041 289.051 225.589 288.805 226.244 288.805C226.898 288.805 227.404 289.017 227.762 289.44C228.12 289.863 228.299 290.451 228.299 291.203V291.623ZM227.479 290.944C227.476 290.482 227.363 290.122 227.142 289.865C226.924 289.608 226.62 289.479 226.229 289.479C225.851 289.479 225.531 289.614 225.267 289.884C225.003 290.154 224.841 290.508 224.779 290.944H227.479ZM230.335 293.2H230.316V293.922H229.515V286.52H230.316V289.801H230.335C230.729 289.137 231.305 288.805 232.064 288.805C232.705 288.805 233.206 289.03 233.568 289.479C233.932 289.925 234.115 290.524 234.115 291.276C234.115 292.112 233.911 292.783 233.504 293.288C233.097 293.789 232.541 294.04 231.834 294.04C231.174 294.04 230.674 293.76 230.335 293.2ZM230.316 291.183V291.881C230.316 292.295 230.449 292.646 230.716 292.936C230.986 293.222 231.328 293.366 231.742 293.366C232.227 293.366 232.606 293.18 232.879 292.809C233.156 292.438 233.294 291.922 233.294 291.261C233.294 290.705 233.166 290.268 232.909 289.953C232.651 289.637 232.303 289.479 231.864 289.479C231.398 289.479 231.024 289.642 230.741 289.967C230.457 290.29 230.316 290.695 230.316 291.183Z" fill="#31313B"/>
<g filter="url(#filter8_d_14_5188)">
<rect x="210.156" y="121.504" width="30.6573" height="159.726" fill="#66C4E0"/>
</g>
<path d="M497.093 293.922H496.185L495.443 291.959H492.474L491.776 293.922H490.863L493.549 286.92H494.398L497.093 293.922ZM495.175 291.222L494.076 288.239C494.04 288.141 494.004 287.985 493.968 287.77H493.949C493.916 287.969 493.879 288.125 493.837 288.239L492.748 291.222H495.175ZM502.064 293.922H501.263V293.131H501.244C500.912 293.737 500.398 294.04 499.701 294.04C498.509 294.04 497.914 293.33 497.914 291.911V288.922H498.71V291.784C498.71 292.838 499.113 293.366 499.921 293.366C500.311 293.366 500.632 293.222 500.883 292.936C501.136 292.646 501.263 292.269 501.263 291.803V288.922H502.064V293.922ZM507.953 293.522C507.953 295.358 507.074 296.276 505.316 296.276C504.698 296.276 504.157 296.159 503.695 295.924V295.124C504.258 295.436 504.795 295.592 505.306 295.592C506.537 295.592 507.152 294.938 507.152 293.629V293.083H507.133C506.752 293.721 506.179 294.04 505.414 294.04C504.792 294.04 504.291 293.818 503.91 293.375C503.532 292.93 503.343 292.332 503.343 291.583C503.343 290.734 503.547 290.058 503.954 289.557C504.364 289.056 504.924 288.805 505.634 288.805C506.307 288.805 506.807 289.075 507.133 289.616H507.152V288.922H507.953V293.522ZM507.152 291.662V290.924C507.152 290.527 507.017 290.187 506.747 289.904C506.48 289.621 506.146 289.479 505.746 289.479C505.251 289.479 504.864 289.66 504.584 290.021C504.304 290.379 504.164 290.882 504.164 291.53C504.164 292.086 504.297 292.532 504.564 292.868C504.834 293.2 505.191 293.366 505.634 293.366C506.083 293.366 506.447 293.206 506.727 292.887C507.01 292.568 507.152 292.16 507.152 291.662Z" fill="#31313B"/>
<g filter="url(#filter9_d_14_5188)">
<rect x="482.787" y="121.504" width="30.6573" height="159.726" fill="#66C4E0"/>
</g>
<path d="M87.6877 293.922H86.6819L83.0783 288.341C82.9872 288.201 82.9123 288.054 82.8537 287.901H82.8244C82.8505 288.051 82.8635 288.372 82.8635 288.863V293.922H82.0432V286.92H83.1076L86.6135 292.413C86.76 292.641 86.8544 292.797 86.8967 292.882H86.9162C86.8837 292.68 86.8674 292.337 86.8674 291.852V286.92H87.6877V293.922ZM91.5061 294.039C90.7671 294.039 90.1763 293.806 89.7336 293.341C89.2942 292.872 89.0744 292.252 89.0744 291.48C89.0744 290.641 89.3039 289.985 89.7629 289.513C90.2219 289.041 90.842 288.805 91.6233 288.805C92.3687 288.805 92.9498 289.034 93.3664 289.493C93.7864 289.952 93.9963 290.589 93.9963 291.402C93.9963 292.2 93.7701 292.84 93.3176 293.321C92.8684 293.8 92.2645 294.039 91.5061 294.039ZM91.5647 289.479C91.0503 289.479 90.6434 289.654 90.344 290.006C90.0445 290.354 89.8947 290.836 89.8947 291.451C89.8947 292.044 90.0461 292.511 90.3489 292.853C90.6516 293.194 91.0569 293.365 91.5647 293.365C92.0822 293.365 92.4794 293.198 92.7561 292.862C93.036 292.527 93.176 292.05 93.176 291.432C93.176 290.807 93.036 290.325 92.7561 289.986C92.4794 289.648 92.0822 289.479 91.5647 289.479ZM99.2063 288.922L97.2141 293.922H96.428L94.5334 288.922H95.4123L96.6819 292.555C96.7763 292.822 96.8349 293.054 96.8576 293.253H96.8772C96.9097 293.002 96.9618 292.776 97.0334 292.574L98.3615 288.922H99.2063Z" fill="#31313B"/>
<g filter="url(#filter10_d_14_5188)">
<rect x="73.2925" y="207.667" width="30.6573" height="73.5628" fill="#66C4E0"/>
</g>
<path d="M360.997 293.922H360.181V289.225C360.181 288.854 360.204 288.399 360.25 287.862H360.23C360.152 288.178 360.082 288.404 360.02 288.541L357.628 293.922H357.227L354.84 288.58C354.771 288.424 354.701 288.185 354.63 287.862H354.61C354.636 288.142 354.649 288.6 354.649 289.234V293.922H353.858V286.92H354.942L357.091 291.803C357.257 292.177 357.364 292.457 357.413 292.643H357.442C357.582 292.258 357.694 291.972 357.779 291.783L359.971 286.92H360.997V293.922ZM366.314 293.922H365.513V293.141H365.494C365.146 293.74 364.633 294.039 363.956 294.039C363.458 294.039 363.067 293.907 362.784 293.644C362.504 293.38 362.364 293.03 362.364 292.594C362.364 291.66 362.914 291.116 364.014 290.963L365.513 290.753C365.513 289.903 365.17 289.479 364.483 289.479C363.881 289.479 363.337 289.684 362.852 290.094V289.273C363.344 288.961 363.91 288.805 364.551 288.805C365.727 288.805 366.314 289.426 366.314 290.67V293.922ZM365.513 291.393L364.307 291.559C363.936 291.611 363.656 291.703 363.468 291.837C363.279 291.967 363.184 292.2 363.184 292.535C363.184 292.779 363.271 292.979 363.443 293.136C363.619 293.289 363.852 293.365 364.141 293.365C364.538 293.365 364.866 293.227 365.123 292.95C365.383 292.67 365.513 292.317 365.513 291.891V291.393ZM371.802 288.922L369.503 294.723C369.093 295.758 368.516 296.275 367.774 296.275C367.566 296.275 367.392 296.254 367.252 296.212V295.494C367.424 295.553 367.582 295.582 367.725 295.582C368.129 295.582 368.432 295.341 368.634 294.859L369.034 293.912L367.081 288.922H367.969L369.322 292.77C369.338 292.818 369.372 292.945 369.425 293.15H369.454C369.47 293.072 369.503 292.949 369.551 292.779L370.972 288.922H371.802Z" fill="#31313B"/>
<g filter="url(#filter11_d_14_5188)">
<rect x="345.923" y="207.667" width="30.6573" height="73.5628" fill="#66C4E0"/>
</g>
<path d="M127.169 293.922V286.92H129.103C131.57 286.92 132.804 288.058 132.804 290.333C132.804 291.414 132.46 292.283 131.773 292.941C131.09 293.595 130.174 293.922 129.024 293.922H127.169ZM127.989 287.663V293.18H129.034C129.952 293.18 130.667 292.934 131.178 292.443C131.689 291.951 131.944 291.255 131.944 290.353C131.944 288.559 130.991 287.663 129.083 287.663H127.989ZM138.092 291.623H134.562C134.575 292.179 134.724 292.609 135.011 292.912C135.297 293.214 135.691 293.366 136.192 293.366C136.756 293.366 137.273 293.18 137.745 292.809V293.561C137.306 293.88 136.725 294.04 136.002 294.04C135.296 294.04 134.741 293.813 134.337 293.361C133.933 292.905 133.731 292.265 133.731 291.442C133.731 290.664 133.951 290.031 134.391 289.542C134.833 289.051 135.382 288.805 136.036 288.805C136.69 288.805 137.197 289.017 137.555 289.44C137.913 289.863 138.092 290.451 138.092 291.203V291.623ZM137.272 290.944C137.268 290.482 137.156 290.122 136.935 289.865C136.717 289.608 136.412 289.479 136.022 289.479C135.644 289.479 135.323 289.614 135.06 289.884C134.796 290.154 134.633 290.508 134.571 290.944H137.272ZM142.716 293.693C142.332 293.924 141.876 294.04 141.349 294.04C140.636 294.04 140.06 293.808 139.62 293.346C139.184 292.881 138.966 292.278 138.966 291.54C138.966 290.716 139.202 290.055 139.674 289.557C140.146 289.056 140.776 288.805 141.564 288.805C142.003 288.805 142.39 288.887 142.726 289.049V289.87C142.355 289.609 141.957 289.479 141.534 289.479C141.023 289.479 140.603 289.663 140.274 290.031C139.949 290.395 139.786 290.875 139.786 291.471C139.786 292.057 139.939 292.519 140.245 292.858C140.554 293.196 140.968 293.366 141.485 293.366C141.922 293.366 142.332 293.221 142.716 292.931V293.693Z" fill="#31313B"/>
<g filter="url(#filter12_d_14_5188)">
<rect x="118.185" y="167.857" width="30.6573" height="113.373" fill="#66C4E0"/>
</g>
<path d="M403.654 291.413C403.654 292.243 403.478 292.889 403.126 293.351C402.775 293.81 402.304 294.04 401.715 294.04C401.442 294.04 401.217 294 401.041 293.922V293.112C401.217 293.239 401.445 293.302 401.725 293.302C402.464 293.302 402.833 292.676 402.833 291.422V286.92H403.654V291.413ZM409.371 293.922H408.571V293.131H408.551C408.219 293.737 407.705 294.04 407.008 294.04C405.817 294.04 405.221 293.33 405.221 291.911V288.922H406.017V291.784C406.017 292.838 406.421 293.366 407.228 293.366C407.619 293.366 407.939 293.222 408.19 292.936C408.444 292.646 408.571 292.269 408.571 291.803V288.922H409.371V293.922ZM415.143 293.922H414.342V291.071C414.342 290.01 413.955 289.479 413.18 289.479C412.78 289.479 412.448 289.63 412.184 289.933C411.924 290.233 411.793 290.612 411.793 291.071V293.922H410.993V288.922H411.793V289.752H411.813C412.19 289.121 412.737 288.805 413.453 288.805C414 288.805 414.419 288.983 414.708 289.337C414.998 289.689 415.143 290.198 415.143 290.866V293.922Z" fill="#31313B"/>
<g filter="url(#filter13_d_14_5188)">
<rect x="391.91" y="167.857" width="30.6573" height="113.373" fill="#66C4E0"/>
</g>
<path d="M271.002 293.922H270.187V289.225C270.187 288.854 270.209 288.4 270.255 287.863H270.235C270.157 288.179 270.087 288.405 270.026 288.542L267.633 293.922H267.233L264.845 288.581C264.776 288.424 264.707 288.185 264.635 287.863H264.615C264.641 288.143 264.654 288.6 264.654 289.235V293.922H263.863V286.92H264.947L267.096 291.803C267.262 292.178 267.369 292.458 267.418 292.643H267.447C267.587 292.259 267.7 291.972 267.784 291.784L269.977 286.92H271.002V293.922ZM276.319 293.922H275.519V293.141H275.499C275.151 293.74 274.638 294.04 273.961 294.04C273.463 294.04 273.072 293.908 272.789 293.644C272.509 293.38 272.369 293.03 272.369 292.594C272.369 291.66 272.919 291.116 274.02 290.963L275.519 290.753C275.519 289.904 275.175 289.479 274.488 289.479C273.886 289.479 273.343 289.684 272.858 290.094V289.274C273.349 288.961 273.915 288.805 274.557 288.805C275.732 288.805 276.319 289.427 276.319 290.67V293.922ZM275.519 291.393L274.313 291.559C273.942 291.611 273.662 291.704 273.473 291.837C273.284 291.968 273.19 292.2 273.19 292.536C273.19 292.78 273.276 292.98 273.448 293.136C273.624 293.289 273.857 293.366 274.147 293.366C274.544 293.366 274.871 293.227 275.128 292.951C275.388 292.671 275.519 292.318 275.519 291.891V291.393ZM280.436 289.733C280.296 289.625 280.094 289.572 279.83 289.572C279.488 289.572 279.202 289.733 278.971 290.055C278.743 290.377 278.629 290.817 278.629 291.374V293.922H277.828V288.922H278.629V289.953H278.649C278.763 289.601 278.937 289.328 279.171 289.132C279.405 288.934 279.667 288.834 279.957 288.834C280.165 288.834 280.325 288.857 280.436 288.903V289.733Z" fill="#31313B"/>
<g filter="url(#filter14_d_14_5188)">
<rect x="255.047" y="91.8574" width="30.6573" height="189.373" fill="#66C4E0"/>
</g>
<g filter="url(#filter15_d_14_5188)">
<rect x="528.773" y="91.8574" width="30.6573" height="189.373" fill="#66C4E0"/>
</g>
<path d="M537.891 293.639V292.672C538.002 292.77 538.134 292.858 538.287 292.936C538.443 293.014 538.606 293.081 538.775 293.136C538.947 293.188 539.12 293.229 539.293 293.258C539.465 293.288 539.625 293.302 539.771 293.302C540.276 293.302 540.652 293.209 540.899 293.024C541.15 292.835 541.275 292.565 541.275 292.213C541.275 292.025 541.233 291.86 541.148 291.72C541.067 291.58 540.953 291.453 540.806 291.339C540.66 291.222 540.486 291.111 540.284 291.007C540.085 290.9 539.87 290.788 539.639 290.67C539.395 290.547 539.167 290.421 538.956 290.294C538.744 290.167 538.56 290.028 538.404 289.875C538.248 289.722 538.124 289.549 538.033 289.357C537.945 289.162 537.901 288.934 537.901 288.673C537.901 288.354 537.971 288.078 538.111 287.843C538.251 287.606 538.435 287.41 538.663 287.257C538.891 287.104 539.149 286.99 539.439 286.916C539.732 286.841 540.03 286.803 540.333 286.803C541.023 286.803 541.526 286.886 541.841 287.052V287.975C541.428 287.689 540.897 287.545 540.25 287.545C540.071 287.545 539.891 287.565 539.712 287.604C539.533 287.64 539.374 287.7 539.234 287.785C539.094 287.869 538.98 287.978 538.892 288.112C538.804 288.245 538.76 288.408 538.76 288.6C538.76 288.779 538.793 288.934 538.858 289.064C538.926 289.194 539.026 289.313 539.156 289.42C539.286 289.528 539.444 289.632 539.629 289.733C539.818 289.834 540.035 289.944 540.279 290.065C540.53 290.189 540.767 290.319 540.992 290.456C541.216 290.592 541.413 290.744 541.583 290.91C541.752 291.076 541.885 291.26 541.983 291.461C542.084 291.663 542.134 291.894 542.134 292.155C542.134 292.5 542.066 292.793 541.929 293.034C541.796 293.271 541.613 293.465 541.382 293.615C541.155 293.764 540.891 293.872 540.591 293.937C540.292 294.005 539.976 294.04 539.644 294.04C539.533 294.04 539.397 294.03 539.234 294.01C539.071 293.994 538.905 293.968 538.736 293.932C538.567 293.9 538.405 293.859 538.252 293.81C538.103 293.758 537.982 293.701 537.891 293.639ZM547.442 291.623H543.912C543.925 292.179 544.074 292.609 544.361 292.912C544.647 293.214 545.041 293.366 545.543 293.366C546.106 293.366 546.623 293.18 547.095 292.809V293.561C546.656 293.88 546.075 294.04 545.352 294.04C544.646 294.04 544.091 293.813 543.687 293.361C543.283 292.905 543.082 292.265 543.082 291.442C543.082 290.664 543.301 290.031 543.741 289.542C544.183 289.051 544.732 288.805 545.386 288.805C546.041 288.805 546.547 289.017 546.905 289.44C547.263 289.863 547.442 290.451 547.442 291.203V291.623ZM546.622 290.944C546.618 290.482 546.506 290.122 546.285 289.865C546.067 289.608 545.762 289.479 545.372 289.479C544.994 289.479 544.673 289.614 544.41 289.884C544.146 290.154 543.983 290.508 543.921 290.944H546.622ZM549.478 293.2H549.459V296.222H548.658V288.922H549.459V289.801H549.478C549.872 289.137 550.448 288.805 551.207 288.805C551.851 288.805 552.354 289.03 552.715 289.479C553.077 289.925 553.257 290.524 553.257 291.276C553.257 292.112 553.054 292.783 552.647 293.288C552.24 293.789 551.683 294.04 550.977 294.04C550.329 294.04 549.83 293.76 549.478 293.2ZM549.459 291.183V291.881C549.459 292.295 549.592 292.646 549.859 292.936C550.129 293.222 550.471 293.366 550.884 293.366C551.369 293.366 551.749 293.18 552.022 292.809C552.299 292.438 552.437 291.922 552.437 291.261C552.437 290.705 552.308 290.268 552.051 289.953C551.794 289.637 551.446 289.479 551.006 289.479C550.541 289.479 550.167 289.642 549.883 289.967C549.6 290.29 549.459 290.695 549.459 291.183Z" fill="#31313B"/>
<path d="M32 170.013L99.0922 196.356L141.217 189.345L180.773 134.699L221.175 149.008L265.002 127.124L306.079 130.059L344.541 201.133L389.563 179.059L428.82 116.897L472.256 153.876L517.939 92" stroke="#AC25D5" stroke-width="3"/>
<path d="M52.0918 263.356L100.235 255.547L141.217 214.201L177.592 263.356L221.175 236.356L265.002 259.356H306.079L344.54 225.989L389.092 250.856L428.592 263.356L469.092 254.856L510.092 263.356" stroke="#2538D5" stroke-width="3"/>
<path d="M52.0918 208.48L100.235 200.671L139.592 204.48L177.592 208.48L221.092 229.856L265.092 231.856L306.079 204.48L344.092 216.356L389.092 195.98L428.592 208.48L466.592 243.356L510.092 208.48" stroke="#249609" stroke-width="3"/>
<defs>
<filter id="filter0_d_14_5188" x="33.6636" y="282.803" width="20.8291" height="13.2363" filterUnits="userSpaceOnUse" color-interpolation-filters="sRGB">
<feFlood flood-opacity="0" result="BackgroundImageFix"/>
<feColorMatrix in="SourceAlpha" type="matrix" values="0 0 0 0 0 0 0 0 0 0 0 0 0 0 0 0 0 0 127 0" result="hardAlpha"/>
<feOffset dy="-1"/>
<feGaussianBlur stdDeviation="1.5"/>
<feComposite in2="hardAlpha" operator="out"/>
<feColorMatrix type="matrix" values="0 0 0 0 0 0 0 0 0 0 0 0 0 0 0 0 0 0 0.160784 0"/>
<feBlend mode="normal" in2="BackgroundImageFix" result="effect1_dropShadow_14_5188"/>
<feBlend mode="normal" in="SourceGraphic" in2="effect1_dropShadow_14_5188" result="shape"/>
</filter>
<filter id="filter1_d_14_5188" x="24.3062" y="165.532" width="36.6572" height="117.698" filterUnits="userSpaceOnUse" color-interpolation-filters="sRGB">
<feFlood flood-opacity="0" result="BackgroundImageFix"/>
<feColorMatrix in="SourceAlpha" type="matrix" values="0 0 0 0 0 0 0 0 0 0 0 0 0 0 0 0 0 0 127 0" result="hardAlpha"/>
<feOffset dy="-1"/>
<feGaussianBlur stdDeviation="1.5"/>
<feComposite in2="hardAlpha" operator="out"/>
<feColorMatrix type="matrix" values="0 0 0 0 0 0 0 0 0 0 0 0 0 0 0 0 0 0 0.160784 0"/>
<feBlend mode="normal" in2="BackgroundImageFix" result="effect1_dropShadow_14_5188"/>
<feBlend mode="normal" in="SourceGraphic" in2="effect1_dropShadow_14_5188" result="shape"/>
</filter>
<filter id="filter2_d_14_5188" x="306.765" y="282.92" width="21.6445" height="15.3018" filterUnits="userSpaceOnUse" color-interpolation-filters="sRGB">
<feFlood flood-opacity="0" result="BackgroundImageFix"/>
<feColorMatrix in="SourceAlpha" type="matrix" values="0 0 0 0 0 0 0 0 0 0 0 0 0 0 0 0 0 0 127 0" result="hardAlpha"/>
<feOffset dy="-1"/>
<feGaussianBlur stdDeviation="1.5"/>
<feComposite in2="hardAlpha" operator="out"/>
<feColorMatrix type="matrix" values="0 0 0 0 0 0 0 0 0 0 0 0 0 0 0 0 0 0 0.160784 0"/>
<feBlend mode="normal" in2="BackgroundImageFix" result="effect1_dropShadow_14_5188"/>
<feBlend mode="normal" in="SourceGraphic" in2="effect1_dropShadow_14_5188" result="shape"/>
</filter>
<filter id="filter3_d_14_5188" x="298.032" y="93.5317" width="36.6572" height="189.698" filterUnits="userSpaceOnUse" color-interpolation-filters="sRGB">
<feFlood flood-opacity="0" result="BackgroundImageFix"/>
<feColorMatrix in="SourceAlpha" type="matrix" values="0 0 0 0 0 0 0 0 0 0 0 0 0 0 0 0 0 0 127 0" result="hardAlpha"/>
<feOffset dy="-1"/>
<feGaussianBlur stdDeviation="1.5"/>
<feComposite in2="hardAlpha" operator="out"/>
<feColorMatrix type="matrix" values="0 0 0 0 0 0 0 0 0 0 0 0 0 0 0 0 0 0 0.160784 0"/>
<feBlend mode="normal" in2="BackgroundImageFix" result="effect1_dropShadow_14_5188"/>
<feBlend mode="normal" in="SourceGraphic" in2="effect1_dropShadow_14_5188" result="shape"/>
</filter>
<filter id="filter4_d_14_5188" x="170.902" y="282.92" width="19.5254" height="13.1191" filterUnits="userSpaceOnUse" color-interpolation-filters="sRGB">
<feFlood flood-opacity="0" result="BackgroundImageFix"/>
<feColorMatrix in="SourceAlpha" type="matrix" values="0 0 0 0 0 0 0 0 0 0 0 0 0 0 0 0 0 0 127 0" result="hardAlpha"/>
<feOffset dy="-1"/>
<feGaussianBlur stdDeviation="1.5"/>
<feComposite in2="hardAlpha" operator="out"/>
<feColorMatrix type="matrix" values="0 0 0 0 0 0 0 0 0 0 0 0 0 0 0 0 0 0 0.160784 0"/>
<feBlend mode="normal" in2="BackgroundImageFix" result="effect1_dropShadow_14_5188"/>
<feBlend mode="normal" in="SourceGraphic" in2="effect1_dropShadow_14_5188" result="shape"/>
</filter>
<filter id="filter5_d_14_5188" x="161.169" y="93.5317" width="36.6572" height="189.698" filterUnits="userSpaceOnUse" color-interpolation-filters="sRGB">
<feFlood flood-opacity="0" result="BackgroundImageFix"/>
<feColorMatrix in="SourceAlpha" type="matrix" values="0 0 0 0 0 0 0 0 0 0 0 0 0 0 0 0 0 0 127 0" result="hardAlpha"/>
<feOffset dy="-1"/>
<feGaussianBlur stdDeviation="1.5"/>
<feComposite in2="hardAlpha" operator="out"/>
<feColorMatrix type="matrix" values="0 0 0 0 0 0 0 0 0 0 0 0 0 0 0 0 0 0 0.160784 0"/>
<feBlend mode="normal" in2="BackgroundImageFix" result="effect1_dropShadow_14_5188"/>
<feBlend mode="normal" in="SourceGraphic" in2="effect1_dropShadow_14_5188" result="shape"/>
</filter>
<filter id="filter6_d_14_5188" x="445.778" y="282.52" width="16.752" height="13.5195" filterUnits="userSpaceOnUse" color-interpolation-filters="sRGB">
<feFlood flood-opacity="0" result="BackgroundImageFix"/>
<feColorMatrix in="SourceAlpha" type="matrix" values="0 0 0 0 0 0 0 0 0 0 0 0 0 0 0 0 0 0 127 0" result="hardAlpha"/>
<feOffset dy="-1"/>
<feGaussianBlur stdDeviation="1.5"/>
<feComposite in2="hardAlpha" operator="out"/>
<feColorMatrix type="matrix" values="0 0 0 0 0 0 0 0 0 0 0 0 0 0 0 0 0 0 0.160784 0"/>
<feBlend mode="normal" in2="BackgroundImageFix" result="effect1_dropShadow_14_5188"/>
<feBlend mode="normal" in="SourceGraphic" in2="effect1_dropShadow_14_5188" result="shape"/>
</filter>
<filter id="filter7_d_14_5188" x="434.895" y="93.5317" width="36.6572" height="189.698" filterUnits="userSpaceOnUse" color-interpolation-filters="sRGB">
<feFlood flood-opacity="0" result="BackgroundImageFix"/>
<feColorMatrix in="SourceAlpha" type="matrix" values="0 0 0 0 0 0 0 0 0 0 0 0 0 0 0 0 0 0 127 0" result="hardAlpha"/>
<feOffset dy="-1"/>
<feGaussianBlur stdDeviation="1.5"/>
<feComposite in2="hardAlpha" operator="out"/>
<feColorMatrix type="matrix" values="0 0 0 0 0 0 0 0 0 0 0 0 0 0 0 0 0 0 0.160784 0"/>
<feBlend mode="normal" in2="BackgroundImageFix" result="effect1_dropShadow_14_5188"/>
<feBlend mode="normal" in="SourceGraphic" in2="effect1_dropShadow_14_5188" result="shape"/>
</filter>
<filter id="filter8_d_14_5188" x="207.156" y="117.504" width="36.6572" height="165.726" filterUnits="userSpaceOnUse" color-interpolation-filters="sRGB">
<feFlood flood-opacity="0" result="BackgroundImageFix"/>
<feColorMatrix in="SourceAlpha" type="matrix" values="0 0 0 0 0 0 0 0 0 0 0 0 0 0 0 0 0 0 127 0" result="hardAlpha"/>
<feOffset dy="-1"/>
<feGaussianBlur stdDeviation="1.5"/>
<feComposite in2="hardAlpha" operator="out"/>
<feColorMatrix type="matrix" values="0 0 0 0 0 0 0 0 0 0 0 0 0 0 0 0 0 0 0.160784 0"/>
<feBlend mode="normal" in2="BackgroundImageFix" result="effect1_dropShadow_14_5188"/>
<feBlend mode="normal" in="SourceGraphic" in2="effect1_dropShadow_14_5188" result="shape"/>
</filter>
<filter id="filter9_d_14_5188" x="479.787" y="117.504" width="36.6572" height="165.726" filterUnits="userSpaceOnUse" color-interpolation-filters="sRGB">
<feFlood flood-opacity="0" result="BackgroundImageFix"/>
<feColorMatrix in="SourceAlpha" type="matrix" values="0 0 0 0 0 0 0 0 0 0 0 0 0 0 0 0 0 0 127 0" result="hardAlpha"/>
<feOffset dy="-1"/>
<feGaussianBlur stdDeviation="1.5"/>
<feComposite in2="hardAlpha" operator="out"/>
<feColorMatrix type="matrix" values="0 0 0 0 0 0 0 0 0 0 0 0 0 0 0 0 0 0 0.160784 0"/>
<feBlend mode="normal" in2="BackgroundImageFix" result="effect1_dropShadow_14_5188"/>
<feBlend mode="normal" in="SourceGraphic" in2="effect1_dropShadow_14_5188" result="shape"/>
</filter>
<filter id="filter10_d_14_5188" x="70.2925" y="203.667" width="36.6572" height="79.5629" filterUnits="userSpaceOnUse" color-interpolation-filters="sRGB">
<feFlood flood-opacity="0" result="BackgroundImageFix"/>
<feColorMatrix in="SourceAlpha" type="matrix" values="0 0 0 0 0 0 0 0 0 0 0 0 0 0 0 0 0 0 127 0" result="hardAlpha"/>
<feOffset dy="-1"/>
<feGaussianBlur stdDeviation="1.5"/>
<feComposite in2="hardAlpha" operator="out"/>
<feColorMatrix type="matrix" values="0 0 0 0 0 0 0 0 0 0 0 0 0 0 0 0 0 0 0.160784 0"/>
<feBlend mode="normal" in2="BackgroundImageFix" result="effect1_dropShadow_14_5188"/>
<feBlend mode="normal" in="SourceGraphic" in2="effect1_dropShadow_14_5188" result="shape"/>
</filter>
<filter id="filter11_d_14_5188" x="342.923" y="203.667" width="36.6572" height="79.5629" filterUnits="userSpaceOnUse" color-interpolation-filters="sRGB">
<feFlood flood-opacity="0" result="BackgroundImageFix"/>
<feColorMatrix in="SourceAlpha" type="matrix" values="0 0 0 0 0 0 0 0 0 0 0 0 0 0 0 0 0 0 127 0" result="hardAlpha"/>
<feOffset dy="-1"/>
<feGaussianBlur stdDeviation="1.5"/>
<feComposite in2="hardAlpha" operator="out"/>
<feColorMatrix type="matrix" values="0 0 0 0 0 0 0 0 0 0 0 0 0 0 0 0 0 0 0.160784 0"/>
<feBlend mode="normal" in2="BackgroundImageFix" result="effect1_dropShadow_14_5188"/>
<feBlend mode="normal" in="SourceGraphic" in2="effect1_dropShadow_14_5188" result="shape"/>
</filter>
<filter id="filter12_d_14_5188" x="115.185" y="163.857" width="36.6572" height="119.373" filterUnits="userSpaceOnUse" color-interpolation-filters="sRGB">
<feFlood flood-opacity="0" result="BackgroundImageFix"/>
<feColorMatrix in="SourceAlpha" type="matrix" values="0 0 0 0 0 0 0 0 0 0 0 0 0 0 0 0 0 0 127 0" result="hardAlpha"/>
<feOffset dy="-1"/>
<feGaussianBlur stdDeviation="1.5"/>
<feComposite in2="hardAlpha" operator="out"/>
<feColorMatrix type="matrix" values="0 0 0 0 0 0 0 0 0 0 0 0 0 0 0 0 0 0 0.160784 0"/>
<feBlend mode="normal" in2="BackgroundImageFix" result="effect1_dropShadow_14_5188"/>
<feBlend mode="normal" in="SourceGraphic" in2="effect1_dropShadow_14_5188" result="shape"/>
</filter>
<filter id="filter13_d_14_5188" x="388.91" y="163.857" width="36.6572" height="119.373" filterUnits="userSpaceOnUse" color-interpolation-filters="sRGB">
<feFlood flood-opacity="0" result="BackgroundImageFix"/>
<feColorMatrix in="SourceAlpha" type="matrix" values="0 0 0 0 0 0 0 0 0 0 0 0 0 0 0 0 0 0 127 0" result="hardAlpha"/>
<feOffset dy="-1"/>
<feGaussianBlur stdDeviation="1.5"/>
<feComposite in2="hardAlpha" operator="out"/>
<feColorMatrix type="matrix" values="0 0 0 0 0 0 0 0 0 0 0 0 0 0 0 0 0 0 0.160784 0"/>
<feBlend mode="normal" in2="BackgroundImageFix" result="effect1_dropShadow_14_5188"/>
<feBlend mode="normal" in="SourceGraphic" in2="effect1_dropShadow_14_5188" result="shape"/>
</filter>
<filter id="filter14_d_14_5188" x="252.047" y="87.8574" width="36.6572" height="195.373" filterUnits="userSpaceOnUse" color-interpolation-filters="sRGB">
<feFlood flood-opacity="0" result="BackgroundImageFix"/>
<feColorMatrix in="SourceAlpha" type="matrix" values="0 0 0 0 0 0 0 0 0 0 0 0 0 0 0 0 0 0 127 0" result="hardAlpha"/>
<feOffset dy="-1"/>
<feGaussianBlur stdDeviation="1.5"/>
<feComposite in2="hardAlpha" operator="out"/>
<feColorMatrix type="matrix" values="0 0 0 0 0 0 0 0 0 0 0 0 0 0 0 0 0 0 0.160784 0"/>
<feBlend mode="normal" in2="BackgroundImageFix" result="effect1_dropShadow_14_5188"/>
<feBlend mode="normal" in="SourceGraphic" in2="effect1_dropShadow_14_5188" result="shape"/>
</filter>
<filter id="filter15_d_14_5188" x="525.773" y="87.8574" width="36.6572" height="195.373" filterUnits="userSpaceOnUse" color-interpolation-filters="sRGB">
<feFlood flood-opacity="0" result="BackgroundImageFix"/>
<feColorMatrix in="SourceAlpha" type="matrix" values="0 0 0 0 0 0 0 0 0 0 0 0 0 0 0 0 0 0 127 0" result="hardAlpha"/>
<feOffset dy="-1"/>
<feGaussianBlur stdDeviation="1.5"/>
<feComposite in2="hardAlpha" operator="out"/>
<feColorMatrix type="matrix" values="0 0 0 0 0 0 0 0 0 0 0 0 0 0 0 0 0 0 0.160784 0"/>
<feBlend mode="normal" in2="BackgroundImageFix" result="effect1_dropShadow_14_5188"/>
<feBlend mode="normal" in="SourceGraphic" in2="effect1_dropShadow_14_5188" result="shape"/>
</filter>
</defs>
</svg>
