<svg width="366" height="317" viewBox="0 0 366 317" fill="none" xmlns="http://www.w3.org/2000/svg">
<g filter="url(#filter0_d_330_8)">
<circle cx="7.5" cy="306.5" r="4.5" fill="#1F8507"/>
</g>
<path d="M22.2422 311H21.2812V303.74C21.207 303.814 21.0977 303.9 20.9531 303.998C20.8125 304.092 20.6523 304.186 20.4727 304.279C20.2969 304.373 20.1094 304.461 19.9102 304.543C19.7148 304.625 19.5234 304.689 19.3359 304.736V303.764C19.5469 303.705 19.7695 303.627 20.0039 303.529C20.2422 303.428 20.4746 303.316 20.7012 303.195C20.9316 303.07 21.1484 302.941 21.3516 302.809C21.5547 302.672 21.7305 302.539 21.8789 302.41H22.2422V311ZM30.4453 306.764C30.4453 307.467 30.3809 308.09 30.252 308.633C30.127 309.176 29.9434 309.635 29.7012 310.01C29.4629 310.381 29.168 310.664 28.8164 310.859C28.4688 311.051 28.0723 311.146 27.627 311.146C27.2051 311.146 26.8281 311.055 26.4961 310.871C26.168 310.684 25.8906 310.412 25.6641 310.057C25.4375 309.701 25.2656 309.266 25.1484 308.75C25.0312 308.23 24.9727 307.637 24.9727 306.969C24.9727 306.234 25.0332 305.586 25.1543 305.023C25.2793 304.461 25.4609 303.99 25.6992 303.611C25.9375 303.229 26.2324 302.941 26.584 302.75C26.9395 302.555 27.3457 302.457 27.8027 302.457C29.5645 302.457 30.4453 303.893 30.4453 306.764ZM29.4609 306.857C29.4609 304.467 28.8926 303.271 27.7559 303.271C26.5566 303.271 25.957 304.488 25.957 306.922C25.957 309.191 26.5449 310.326 27.7207 310.326C28.8809 310.326 29.4609 309.17 29.4609 306.857ZM40.3242 311H39.3633V309.98H39.3398C38.8945 310.754 38.207 311.141 37.2773 311.141C36.5234 311.141 35.9199 310.873 35.4668 310.338C35.0176 309.799 34.793 309.066 34.793 308.141C34.793 307.148 35.043 306.354 35.543 305.756C36.043 305.158 36.709 304.859 37.541 304.859C38.3652 304.859 38.9648 305.184 39.3398 305.832H39.3633V302.117H40.3242V311ZM39.3633 308.287V307.402C39.3633 306.918 39.2031 306.508 38.8828 306.172C38.5625 305.836 38.1562 305.668 37.6641 305.668C37.0781 305.668 36.6172 305.883 36.2812 306.312C35.9453 306.742 35.7773 307.336 35.7773 308.094C35.7773 308.785 35.9375 309.332 36.2578 309.734C36.582 310.133 37.0156 310.332 37.5586 310.332C38.0938 310.332 38.5273 310.139 38.8594 309.752C39.1953 309.365 39.3633 308.877 39.3633 308.287ZM46.5645 311H45.6035V310.062H45.5801C45.1621 310.781 44.5469 311.141 43.7344 311.141C43.1367 311.141 42.668 310.982 42.3281 310.666C41.9922 310.35 41.8242 309.93 41.8242 309.406C41.8242 308.285 42.4844 307.633 43.8047 307.449L45.6035 307.197C45.6035 306.178 45.1914 305.668 44.3672 305.668C43.6445 305.668 42.9922 305.914 42.4102 306.406V305.422C43 305.047 43.6797 304.859 44.4492 304.859C45.8594 304.859 46.5645 305.605 46.5645 307.098V311ZM45.6035 307.965L44.1562 308.164C43.7109 308.227 43.375 308.338 43.1484 308.498C42.9219 308.654 42.8086 308.934 42.8086 309.336C42.8086 309.629 42.9121 309.869 43.1191 310.057C43.3301 310.24 43.6094 310.332 43.957 310.332C44.4336 310.332 44.8262 310.166 45.1348 309.834C45.4473 309.498 45.6035 309.074 45.6035 308.562V307.965ZM53.1504 305L50.3906 311.961C49.8984 313.203 49.207 313.824 48.3164 313.824C48.0664 313.824 47.8574 313.799 47.6895 313.748V312.887C47.8965 312.957 48.0859 312.992 48.2578 312.992C48.7422 312.992 49.1055 312.703 49.3477 312.125L49.8281 310.988L47.4844 305H48.5508L50.1738 309.617C50.1934 309.676 50.2344 309.828 50.2969 310.074H50.332C50.3516 309.98 50.3906 309.832 50.4492 309.629L52.1543 305H53.1504ZM53.8242 310.783V309.752C54.3477 310.139 54.9238 310.332 55.5527 310.332C56.3965 310.332 56.8184 310.051 56.8184 309.488C56.8184 309.328 56.7812 309.193 56.707 309.084C56.6367 308.971 56.5391 308.871 56.4141 308.785C56.293 308.699 56.1484 308.623 55.9805 308.557C55.8164 308.486 55.6387 308.414 55.4473 308.34C55.1816 308.234 54.9473 308.129 54.7441 308.023C54.5449 307.914 54.377 307.793 54.2402 307.66C54.1074 307.523 54.0059 307.369 53.9355 307.197C53.8691 307.025 53.8359 306.824 53.8359 306.594C53.8359 306.312 53.9004 306.064 54.0293 305.85C54.1582 305.631 54.3301 305.449 54.5449 305.305C54.7598 305.156 55.0039 305.045 55.2773 304.971C55.5547 304.896 55.8398 304.859 56.1328 304.859C56.6523 304.859 57.1172 304.949 57.5273 305.129V306.102C57.0859 305.812 56.5781 305.668 56.0039 305.668C55.8242 305.668 55.6621 305.689 55.5176 305.732C55.373 305.771 55.248 305.828 55.1426 305.902C55.041 305.977 54.9609 306.066 54.9023 306.172C54.8477 306.273 54.8203 306.387 54.8203 306.512C54.8203 306.668 54.8477 306.799 54.9023 306.904C54.9609 307.01 55.0449 307.104 55.1543 307.186C55.2637 307.268 55.3965 307.342 55.5527 307.408C55.709 307.475 55.8867 307.547 56.0859 307.625C56.3516 307.727 56.5898 307.832 56.8008 307.941C57.0117 308.047 57.1914 308.168 57.3398 308.305C57.4883 308.438 57.6016 308.592 57.6797 308.768C57.7617 308.943 57.8027 309.152 57.8027 309.395C57.8027 309.691 57.7363 309.949 57.6035 310.168C57.4746 310.387 57.3008 310.568 57.082 310.713C56.8633 310.857 56.6113 310.965 56.3262 311.035C56.041 311.105 55.7422 311.141 55.4297 311.141C54.8125 311.141 54.2773 311.021 53.8242 310.783Z" fill="#1B1B1D"/>
<g filter="url(#filter1_d_330_8)">
<circle cx="87.5" cy="306" r="4.5" fill="#2538D5"/>
</g>
<path d="M102.242 311H101.281V303.74C101.207 303.814 101.098 303.9 100.953 303.998C100.812 304.092 100.652 304.186 100.473 304.279C100.297 304.373 100.109 304.461 99.9102 304.543C99.7148 304.625 99.5234 304.689 99.3359 304.736V303.764C99.5469 303.705 99.7695 303.627 100.004 303.529C100.242 303.428 100.475 303.316 100.701 303.195C100.932 303.07 101.148 302.941 101.352 302.809C101.555 302.672 101.73 302.539 101.879 302.41H102.242V311ZM110.146 308.434C110.146 308.844 110.076 309.215 109.936 309.547C109.795 309.879 109.594 310.164 109.332 310.402C109.074 310.641 108.762 310.824 108.395 310.953C108.027 311.082 107.619 311.146 107.17 311.146C106.389 311.146 105.809 311.029 105.43 310.795V309.775C106 310.143 106.584 310.326 107.182 310.326C107.486 310.326 107.76 310.281 108.002 310.191C108.248 310.102 108.457 309.977 108.629 309.816C108.801 309.656 108.932 309.463 109.021 309.236C109.115 309.01 109.162 308.762 109.162 308.492C109.162 307.945 108.979 307.518 108.611 307.209C108.244 306.896 107.711 306.74 107.012 306.74C106.898 306.74 106.779 306.742 106.654 306.746C106.529 306.75 106.404 306.756 106.279 306.764C106.154 306.768 106.031 306.773 105.91 306.781C105.793 306.789 105.686 306.799 105.588 306.811L105.875 302.598H109.76V303.465H106.707L106.537 305.932C106.662 305.924 106.795 305.918 106.936 305.914C107.076 305.906 107.201 305.902 107.311 305.902C107.756 305.902 108.154 305.961 108.506 306.078C108.857 306.195 109.154 306.363 109.396 306.582C109.643 306.797 109.828 307.062 109.953 307.379C110.082 307.691 110.146 308.043 110.146 308.434ZM120.324 311H119.363V309.98H119.34C118.895 310.754 118.207 311.141 117.277 311.141C116.523 311.141 115.92 310.873 115.467 310.338C115.018 309.799 114.793 309.066 114.793 308.141C114.793 307.148 115.043 306.354 115.543 305.756C116.043 305.158 116.709 304.859 117.541 304.859C118.365 304.859 118.965 305.184 119.34 305.832H119.363V302.117H120.324V311ZM119.363 308.287V307.402C119.363 306.918 119.203 306.508 118.883 306.172C118.562 305.836 118.156 305.668 117.664 305.668C117.078 305.668 116.617 305.883 116.281 306.312C115.945 306.742 115.777 307.336 115.777 308.094C115.777 308.785 115.938 309.332 116.258 309.734C116.582 310.133 117.016 310.332 117.559 310.332C118.094 310.332 118.527 310.139 118.859 309.752C119.195 309.365 119.363 308.877 119.363 308.287ZM126.564 311H125.604V310.062H125.58C125.162 310.781 124.547 311.141 123.734 311.141C123.137 311.141 122.668 310.982 122.328 310.666C121.992 310.35 121.824 309.93 121.824 309.406C121.824 308.285 122.484 307.633 123.805 307.449L125.604 307.197C125.604 306.178 125.191 305.668 124.367 305.668C123.645 305.668 122.992 305.914 122.41 306.406V305.422C123 305.047 123.68 304.859 124.449 304.859C125.859 304.859 126.564 305.605 126.564 307.098V311ZM125.604 307.965L124.156 308.164C123.711 308.227 123.375 308.338 123.148 308.498C122.922 308.654 122.809 308.934 122.809 309.336C122.809 309.629 122.912 309.869 123.119 310.057C123.33 310.24 123.609 310.332 123.957 310.332C124.434 310.332 124.826 310.166 125.135 309.834C125.447 309.498 125.604 309.074 125.604 308.562V307.965ZM133.15 305L130.391 311.961C129.898 313.203 129.207 313.824 128.316 313.824C128.066 313.824 127.857 313.799 127.689 313.748V312.887C127.896 312.957 128.086 312.992 128.258 312.992C128.742 312.992 129.105 312.703 129.348 312.125L129.828 310.988L127.484 305H128.551L130.174 309.617C130.193 309.676 130.234 309.828 130.297 310.074H130.332C130.352 309.98 130.391 309.832 130.449 309.629L132.154 305H133.15ZM133.824 310.783V309.752C134.348 310.139 134.924 310.332 135.553 310.332C136.396 310.332 136.818 310.051 136.818 309.488C136.818 309.328 136.781 309.193 136.707 309.084C136.637 308.971 136.539 308.871 136.414 308.785C136.293 308.699 136.148 308.623 135.98 308.557C135.816 308.486 135.639 308.414 135.447 308.34C135.182 308.234 134.947 308.129 134.744 308.023C134.545 307.914 134.377 307.793 134.24 307.66C134.107 307.523 134.006 307.369 133.936 307.197C133.869 307.025 133.836 306.824 133.836 306.594C133.836 306.312 133.9 306.064 134.029 305.85C134.158 305.631 134.33 305.449 134.545 305.305C134.76 305.156 135.004 305.045 135.277 304.971C135.555 304.896 135.84 304.859 136.133 304.859C136.652 304.859 137.117 304.949 137.527 305.129V306.102C137.086 305.812 136.578 305.668 136.004 305.668C135.824 305.668 135.662 305.689 135.518 305.732C135.373 305.771 135.248 305.828 135.143 305.902C135.041 305.977 134.961 306.066 134.902 306.172C134.848 306.273 134.82 306.387 134.82 306.512C134.82 306.668 134.848 306.799 134.902 306.904C134.961 307.01 135.045 307.104 135.154 307.186C135.264 307.268 135.396 307.342 135.553 307.408C135.709 307.475 135.887 307.547 136.086 307.625C136.352 307.727 136.59 307.832 136.801 307.941C137.012 308.047 137.191 308.168 137.34 308.305C137.488 308.438 137.602 308.592 137.68 308.768C137.762 308.943 137.803 309.152 137.803 309.395C137.803 309.691 137.736 309.949 137.604 310.168C137.475 310.387 137.301 310.568 137.082 310.713C136.863 310.857 136.611 310.965 136.326 311.035C136.041 311.105 135.742 311.141 135.43 311.141C134.812 311.141 134.277 311.021 133.824 310.783Z" fill="#1B1B1D"/>
<g filter="url(#filter2_d_330_8)">
<circle cx="167.5" cy="306" r="4.5" fill="#AC25D5"/>
</g>
<path d="M183.584 308.621C183.584 309 183.512 309.346 183.367 309.658C183.227 309.967 183.025 310.232 182.764 310.455C182.506 310.674 182.195 310.844 181.832 310.965C181.469 311.086 181.068 311.146 180.631 311.146C179.83 311.146 179.193 310.994 178.721 310.689V309.658C179.287 310.104 179.936 310.326 180.666 310.326C180.959 310.326 181.223 310.289 181.457 310.215C181.695 310.141 181.898 310.033 182.066 309.893C182.238 309.752 182.369 309.582 182.459 309.383C182.553 309.184 182.6 308.959 182.6 308.709C182.6 307.611 181.818 307.062 180.256 307.062H179.559V306.248H180.221C181.604 306.248 182.295 305.732 182.295 304.701C182.295 303.748 181.768 303.271 180.713 303.271C180.119 303.271 179.562 303.471 179.043 303.869V302.938C179.578 302.617 180.215 302.457 180.953 302.457C181.305 302.457 181.623 302.506 181.908 302.604C182.193 302.701 182.438 302.838 182.641 303.014C182.844 303.189 183 303.4 183.109 303.646C183.223 303.893 183.279 304.164 183.279 304.461C183.279 305.566 182.721 306.277 181.604 306.594V306.617C181.889 306.648 182.152 306.719 182.395 306.828C182.637 306.934 182.846 307.072 183.021 307.244C183.197 307.416 183.334 307.619 183.432 307.854C183.533 308.084 183.584 308.34 183.584 308.621ZM190.445 306.764C190.445 307.467 190.381 308.09 190.252 308.633C190.127 309.176 189.943 309.635 189.701 310.01C189.463 310.381 189.168 310.664 188.816 310.859C188.469 311.051 188.072 311.146 187.627 311.146C187.205 311.146 186.828 311.055 186.496 310.871C186.168 310.684 185.891 310.412 185.664 310.057C185.438 309.701 185.266 309.266 185.148 308.75C185.031 308.23 184.973 307.637 184.973 306.969C184.973 306.234 185.033 305.586 185.154 305.023C185.279 304.461 185.461 303.99 185.699 303.611C185.938 303.229 186.232 302.941 186.584 302.75C186.939 302.555 187.346 302.457 187.803 302.457C189.564 302.457 190.445 303.893 190.445 306.764ZM189.461 306.857C189.461 304.467 188.893 303.271 187.756 303.271C186.557 303.271 185.957 304.488 185.957 306.922C185.957 309.191 186.545 310.326 187.721 310.326C188.881 310.326 189.461 309.17 189.461 306.857ZM200.324 311H199.363V309.98H199.34C198.895 310.754 198.207 311.141 197.277 311.141C196.523 311.141 195.92 310.873 195.467 310.338C195.018 309.799 194.793 309.066 194.793 308.141C194.793 307.148 195.043 306.354 195.543 305.756C196.043 305.158 196.709 304.859 197.541 304.859C198.365 304.859 198.965 305.184 199.34 305.832H199.363V302.117H200.324V311ZM199.363 308.287V307.402C199.363 306.918 199.203 306.508 198.883 306.172C198.562 305.836 198.156 305.668 197.664 305.668C197.078 305.668 196.617 305.883 196.281 306.312C195.945 306.742 195.777 307.336 195.777 308.094C195.777 308.785 195.938 309.332 196.258 309.734C196.582 310.133 197.016 310.332 197.559 310.332C198.094 310.332 198.527 310.139 198.859 309.752C199.195 309.365 199.363 308.877 199.363 308.287ZM206.564 311H205.604V310.062H205.58C205.162 310.781 204.547 311.141 203.734 311.141C203.137 311.141 202.668 310.982 202.328 310.666C201.992 310.35 201.824 309.93 201.824 309.406C201.824 308.285 202.484 307.633 203.805 307.449L205.604 307.197C205.604 306.178 205.191 305.668 204.367 305.668C203.645 305.668 202.992 305.914 202.41 306.406V305.422C203 305.047 203.68 304.859 204.449 304.859C205.859 304.859 206.564 305.605 206.564 307.098V311ZM205.604 307.965L204.156 308.164C203.711 308.227 203.375 308.338 203.148 308.498C202.922 308.654 202.809 308.934 202.809 309.336C202.809 309.629 202.912 309.869 203.119 310.057C203.33 310.24 203.609 310.332 203.957 310.332C204.434 310.332 204.826 310.166 205.135 309.834C205.447 309.498 205.604 309.074 205.604 308.562V307.965ZM213.15 305L210.391 311.961C209.898 313.203 209.207 313.824 208.316 313.824C208.066 313.824 207.857 313.799 207.689 313.748V312.887C207.896 312.957 208.086 312.992 208.258 312.992C208.742 312.992 209.105 312.703 209.348 312.125L209.828 310.988L207.484 305H208.551L210.174 309.617C210.193 309.676 210.234 309.828 210.297 310.074H210.332C210.352 309.98 210.391 309.832 210.449 309.629L212.154 305H213.15ZM213.824 310.783V309.752C214.348 310.139 214.924 310.332 215.553 310.332C216.396 310.332 216.818 310.051 216.818 309.488C216.818 309.328 216.781 309.193 216.707 309.084C216.637 308.971 216.539 308.871 216.414 308.785C216.293 308.699 216.148 308.623 215.98 308.557C215.816 308.486 215.639 308.414 215.447 308.34C215.182 308.234 214.947 308.129 214.744 308.023C214.545 307.914 214.377 307.793 214.24 307.66C214.107 307.523 214.006 307.369 213.936 307.197C213.869 307.025 213.836 306.824 213.836 306.594C213.836 306.312 213.9 306.064 214.029 305.85C214.158 305.631 214.33 305.449 214.545 305.305C214.76 305.156 215.004 305.045 215.277 304.971C215.555 304.896 215.84 304.859 216.133 304.859C216.652 304.859 217.117 304.949 217.527 305.129V306.102C217.086 305.812 216.578 305.668 216.004 305.668C215.824 305.668 215.662 305.689 215.518 305.732C215.373 305.771 215.248 305.828 215.143 305.902C215.041 305.977 214.961 306.066 214.902 306.172C214.848 306.273 214.82 306.387 214.82 306.512C214.82 306.668 214.848 306.799 214.902 306.904C214.961 307.01 215.045 307.104 215.154 307.186C215.264 307.268 215.396 307.342 215.553 307.408C215.709 307.475 215.887 307.547 216.086 307.625C216.352 307.727 216.59 307.832 216.801 307.941C217.012 308.047 217.191 308.168 217.34 308.305C217.488 308.438 217.602 308.592 217.68 308.768C217.762 308.943 217.803 309.152 217.803 309.395C217.803 309.691 217.736 309.949 217.604 310.168C217.475 310.387 217.301 310.568 217.082 310.713C216.863 310.857 216.611 310.965 216.326 311.035C216.041 311.105 215.742 311.141 215.43 311.141C214.812 311.141 214.277 311.021 213.824 310.783Z" fill="#1B1B1D"/>
<g filter="url(#filter3_d_330_8)">
<circle cx="247.5" cy="306" r="4.5" fill="#6C8190"/>
</g>
<path d="M267.668 311H266.689V305.363C266.689 304.918 266.717 304.373 266.771 303.729H266.748C266.654 304.107 266.57 304.379 266.496 304.543L263.625 311H263.145L260.279 304.59C260.197 304.402 260.113 304.115 260.027 303.729H260.004C260.035 304.064 260.051 304.613 260.051 305.375V311H259.102V302.598H260.402L262.98 308.457C263.18 308.906 263.309 309.242 263.367 309.465H263.402C263.57 309.004 263.705 308.66 263.807 308.434L266.438 302.598H267.668V311ZM272.262 311.141C271.375 311.141 270.666 310.861 270.135 310.303C269.607 309.74 269.344 308.996 269.344 308.07C269.344 307.062 269.619 306.275 270.17 305.709C270.721 305.143 271.465 304.859 272.402 304.859C273.297 304.859 273.994 305.135 274.494 305.686C274.998 306.236 275.25 307 275.25 307.977C275.25 308.934 274.979 309.701 274.436 310.279C273.896 310.854 273.172 311.141 272.262 311.141ZM272.332 305.668C271.715 305.668 271.227 305.879 270.867 306.301C270.508 306.719 270.328 307.297 270.328 308.035C270.328 308.746 270.51 309.307 270.873 309.717C271.236 310.127 271.723 310.332 272.332 310.332C272.953 310.332 273.43 310.131 273.762 309.729C274.098 309.326 274.266 308.754 274.266 308.012C274.266 307.262 274.098 306.684 273.762 306.277C273.43 305.871 272.953 305.668 272.332 305.668ZM279.914 305.973C279.746 305.844 279.504 305.779 279.188 305.779C278.777 305.779 278.434 305.973 278.156 306.359C277.883 306.746 277.746 307.273 277.746 307.941V311H276.785V305H277.746V306.236H277.77C277.906 305.814 278.115 305.486 278.396 305.252C278.678 305.014 278.992 304.895 279.34 304.895C279.59 304.895 279.781 304.922 279.914 304.977V305.973ZM285.779 308.24H281.543C281.559 308.908 281.738 309.424 282.082 309.787C282.426 310.15 282.898 310.332 283.5 310.332C284.176 310.332 284.797 310.109 285.363 309.664V310.566C284.836 310.949 284.139 311.141 283.271 311.141C282.424 311.141 281.758 310.869 281.273 310.326C280.789 309.779 280.547 309.012 280.547 308.023C280.547 307.09 280.811 306.33 281.338 305.744C281.869 305.154 282.527 304.859 283.312 304.859C284.098 304.859 284.705 305.113 285.135 305.621C285.564 306.129 285.779 306.834 285.779 307.736V308.24ZM284.795 307.426C284.791 306.871 284.656 306.439 284.391 306.131C284.129 305.822 283.764 305.668 283.295 305.668C282.842 305.668 282.457 305.83 282.141 306.154C281.824 306.479 281.629 306.902 281.555 307.426H284.795ZM293.314 310.941C293.088 311.066 292.789 311.129 292.418 311.129C291.367 311.129 290.842 310.543 290.842 309.371V305.82H289.811V305H290.842V303.535L291.803 303.225V305H293.314V305.82H291.803V309.201C291.803 309.604 291.871 309.891 292.008 310.062C292.145 310.234 292.371 310.32 292.688 310.32C292.93 310.32 293.139 310.254 293.314 310.121V310.941ZM299.578 311H298.617V307.543C298.617 306.293 298.152 305.668 297.223 305.668C296.754 305.668 296.359 305.85 296.039 306.213C295.719 306.572 295.559 307.035 295.559 307.602V311H294.598V302.117H295.559V305.996H295.582C296.043 305.238 296.699 304.859 297.551 304.859C298.902 304.859 299.578 305.674 299.578 307.303V311ZM305.689 311H304.729V310.062H304.705C304.287 310.781 303.672 311.141 302.859 311.141C302.262 311.141 301.793 310.982 301.453 310.666C301.117 310.35 300.949 309.93 300.949 309.406C300.949 308.285 301.609 307.633 302.93 307.449L304.729 307.197C304.729 306.178 304.316 305.668 303.492 305.668C302.77 305.668 302.117 305.914 301.535 306.406V305.422C302.125 305.047 302.805 304.859 303.574 304.859C304.984 304.859 305.689 305.605 305.689 307.098V311ZM304.729 307.965L303.281 308.164C302.836 308.227 302.5 308.338 302.273 308.498C302.047 308.654 301.934 308.934 301.934 309.336C301.934 309.629 302.037 309.869 302.244 310.057C302.455 310.24 302.734 310.332 303.082 310.332C303.559 310.332 303.951 310.166 304.26 309.834C304.572 309.498 304.729 309.074 304.729 308.562V307.965ZM312.48 311H311.52V307.578C311.52 306.305 311.055 305.668 310.125 305.668C309.645 305.668 309.246 305.85 308.93 306.213C308.617 306.572 308.461 307.027 308.461 307.578V311H307.5V305H308.461V305.996H308.484C308.938 305.238 309.594 304.859 310.453 304.859C311.109 304.859 311.611 305.072 311.959 305.498C312.307 305.92 312.48 306.531 312.48 307.332V311ZM323.25 307.725L318.211 310.256V309.383L321.984 307.555V307.52L318.211 305.434V304.555L323.25 307.379V307.725ZM333.709 308.621C333.709 309 333.637 309.346 333.492 309.658C333.352 309.967 333.15 310.232 332.889 310.455C332.631 310.674 332.32 310.844 331.957 310.965C331.594 311.086 331.193 311.146 330.756 311.146C329.955 311.146 329.318 310.994 328.846 310.689V309.658C329.412 310.104 330.061 310.326 330.791 310.326C331.084 310.326 331.348 310.289 331.582 310.215C331.82 310.141 332.023 310.033 332.191 309.893C332.363 309.752 332.494 309.582 332.584 309.383C332.678 309.184 332.725 308.959 332.725 308.709C332.725 307.611 331.943 307.062 330.381 307.062H329.684V306.248H330.346C331.729 306.248 332.42 305.732 332.42 304.701C332.42 303.748 331.893 303.271 330.838 303.271C330.244 303.271 329.688 303.471 329.168 303.869V302.938C329.703 302.617 330.34 302.457 331.078 302.457C331.43 302.457 331.748 302.506 332.033 302.604C332.318 302.701 332.562 302.838 332.766 303.014C332.969 303.189 333.125 303.4 333.234 303.646C333.348 303.893 333.404 304.164 333.404 304.461C333.404 305.566 332.846 306.277 331.729 306.594V306.617C332.014 306.648 332.277 306.719 332.52 306.828C332.762 306.934 332.971 307.072 333.146 307.244C333.322 307.416 333.459 307.619 333.557 307.854C333.658 308.084 333.709 308.34 333.709 308.621ZM340.57 306.764C340.57 307.467 340.506 308.09 340.377 308.633C340.252 309.176 340.068 309.635 339.826 310.01C339.588 310.381 339.293 310.664 338.941 310.859C338.594 311.051 338.197 311.146 337.752 311.146C337.33 311.146 336.953 311.055 336.621 310.871C336.293 310.684 336.016 310.412 335.789 310.057C335.562 309.701 335.391 309.266 335.273 308.75C335.156 308.23 335.098 307.637 335.098 306.969C335.098 306.234 335.158 305.586 335.279 305.023C335.404 304.461 335.586 303.99 335.824 303.611C336.062 303.229 336.357 302.941 336.709 302.75C337.064 302.555 337.471 302.457 337.928 302.457C339.689 302.457 340.57 303.893 340.57 306.764ZM339.586 306.857C339.586 304.467 339.018 303.271 337.881 303.271C336.682 303.271 336.082 304.488 336.082 306.922C336.082 309.191 336.67 310.326 337.846 310.326C339.006 310.326 339.586 309.17 339.586 306.857ZM347.156 311H346.195V309.98H346.172C345.727 310.754 345.039 311.141 344.109 311.141C343.355 311.141 342.752 310.873 342.299 310.338C341.85 309.799 341.625 309.066 341.625 308.141C341.625 307.148 341.875 306.354 342.375 305.756C342.875 305.158 343.541 304.859 344.373 304.859C345.197 304.859 345.797 305.184 346.172 305.832H346.195V302.117H347.156V311ZM346.195 308.287V307.402C346.195 306.918 346.035 306.508 345.715 306.172C345.395 305.836 344.988 305.668 344.496 305.668C343.91 305.668 343.449 305.883 343.113 306.312C342.777 306.742 342.609 307.336 342.609 308.094C342.609 308.785 342.77 309.332 343.09 309.734C343.414 310.133 343.848 310.332 344.391 310.332C344.926 310.332 345.359 310.139 345.691 309.752C346.027 309.365 346.195 308.877 346.195 308.287ZM353.396 311H352.436V310.062H352.412C351.994 310.781 351.379 311.141 350.566 311.141C349.969 311.141 349.5 310.982 349.16 310.666C348.824 310.35 348.656 309.93 348.656 309.406C348.656 308.285 349.316 307.633 350.637 307.449L352.436 307.197C352.436 306.178 352.023 305.668 351.199 305.668C350.477 305.668 349.824 305.914 349.242 306.406V305.422C349.832 305.047 350.512 304.859 351.281 304.859C352.691 304.859 353.396 305.605 353.396 307.098V311ZM352.436 307.965L350.988 308.164C350.543 308.227 350.207 308.338 349.98 308.498C349.754 308.654 349.641 308.934 349.641 309.336C349.641 309.629 349.744 309.869 349.951 310.057C350.162 310.24 350.441 310.332 350.789 310.332C351.266 310.332 351.658 310.166 351.967 309.834C352.279 309.498 352.436 309.074 352.436 308.562V307.965ZM359.982 305L357.223 311.961C356.73 313.203 356.039 313.824 355.148 313.824C354.898 313.824 354.689 313.799 354.521 313.748V312.887C354.729 312.957 354.918 312.992 355.09 312.992C355.574 312.992 355.938 312.703 356.18 312.125L356.66 310.988L354.316 305H355.383L357.006 309.617C357.025 309.676 357.066 309.828 357.129 310.074H357.164C357.184 309.98 357.223 309.832 357.281 309.629L358.986 305H359.982ZM360.656 310.783V309.752C361.18 310.139 361.756 310.332 362.385 310.332C363.229 310.332 363.65 310.051 363.65 309.488C363.65 309.328 363.613 309.193 363.539 309.084C363.469 308.971 363.371 308.871 363.246 308.785C363.125 308.699 362.98 308.623 362.812 308.557C362.648 308.486 362.471 308.414 362.279 308.34C362.014 308.234 361.779 308.129 361.576 308.023C361.377 307.914 361.209 307.793 361.072 307.66C360.939 307.523 360.838 307.369 360.768 307.197C360.701 307.025 360.668 306.824 360.668 306.594C360.668 306.312 360.732 306.064 360.861 305.85C360.99 305.631 361.162 305.449 361.377 305.305C361.592 305.156 361.836 305.045 362.109 304.971C362.387 304.896 362.672 304.859 362.965 304.859C363.484 304.859 363.949 304.949 364.359 305.129V306.102C363.918 305.812 363.41 305.668 362.836 305.668C362.656 305.668 362.494 305.689 362.35 305.732C362.205 305.771 362.08 305.828 361.975 305.902C361.873 305.977 361.793 306.066 361.734 306.172C361.68 306.273 361.652 306.387 361.652 306.512C361.652 306.668 361.68 306.799 361.734 306.904C361.793 307.01 361.877 307.104 361.986 307.186C362.096 307.268 362.229 307.342 362.385 307.408C362.541 307.475 362.719 307.547 362.918 307.625C363.184 307.727 363.422 307.832 363.633 307.941C363.844 308.047 364.023 308.168 364.172 308.305C364.32 308.438 364.434 308.592 364.512 308.768C364.594 308.943 364.635 309.152 364.635 309.395C364.635 309.691 364.568 309.949 364.436 310.168C364.307 310.387 364.133 310.568 363.914 310.713C363.695 310.857 363.443 310.965 363.158 311.035C362.873 311.105 362.574 311.141 362.262 311.141C361.645 311.141 361.109 311.021 360.656 310.783Z" fill="#1B1B1D"/>
<path d="M111.838 270.768C136.771 285.074 165.394 291.646 194.07 289.65C222.747 287.654 250.183 277.179 272.893 259.556L239.114 216.025C225.033 226.951 208.023 233.445 190.243 234.683C172.464 235.921 154.718 231.846 139.259 222.976L111.838 270.768Z" fill="#2538D5"/>
<path d="M276.394 256.751C299.224 237.876 315.725 212.461 323.677 183.926C331.63 155.391 330.651 125.105 320.875 97.1425C311.098 69.1801 292.991 44.883 268.991 27.5201C244.991 10.1571 216.249 0.561388 186.631 0.0238735L185.631 55.1148C203.994 55.4481 221.814 61.3974 236.694 72.1624C251.575 82.9275 262.801 97.9917 268.862 115.328C274.924 132.665 275.53 151.442 270.6 169.134C265.67 186.826 255.439 202.583 241.285 214.286L276.394 256.751Z" fill="#249609"/>
<path d="M107.162 267.967C90.5451 257.584 76.2053 243.94 65.0082 227.861C53.8111 211.782 45.9891 193.6 42.0145 174.413C38.0399 155.226 37.9952 135.433 41.8831 116.229C45.7709 97.0245 53.5107 78.8074 64.635 62.6775L109.994 93.96C103.097 103.961 98.298 115.255 95.8875 127.162C93.477 139.069 93.5047 151.34 95.969 163.236C98.4333 175.132 103.283 186.405 110.225 196.374C117.167 206.343 126.058 214.802 136.36 221.24L107.162 267.967Z" fill="#AC25D5"/>
<path d="M67.248 59.0118C80.5429 40.9604 97.8424 26.2377 117.787 16.0004C137.732 5.76311 159.78 0.290038 182.197 0.0112147L182.882 55.107C168.983 55.2798 155.314 58.6731 142.948 65.0203C130.582 71.3674 119.857 80.4955 111.614 91.6873L67.248 59.0118Z" fill="#6C8190"/>
<path d="M165.816 174.308V170.17C167.561 171.345 169.329 171.933 171.123 171.933C172.929 171.933 174.382 171.475 175.483 170.56C176.584 169.632 177.135 168.401 177.135 166.867C177.135 165.358 176.572 164.183 175.446 163.342C174.333 162.501 172.731 162.08 170.641 162.08C169.923 162.08 168.47 162.154 166.28 162.303L167.227 148.312H180.326V151.986H170.808L170.362 158.647C171.216 158.598 171.989 158.573 172.682 158.573C175.502 158.573 177.679 159.297 179.213 160.744C180.759 162.191 181.532 164.171 181.532 166.682C181.532 169.316 180.648 171.432 178.879 173.027C177.122 174.611 174.704 175.402 171.624 175.402C169.026 175.402 167.09 175.037 165.816 174.308ZM194.316 175.365C191.546 175.365 189.381 174.233 187.822 171.97C186.276 169.706 185.503 166.434 185.503 162.154C185.503 157.454 186.313 153.897 187.934 151.485C189.554 149.073 191.892 147.867 194.947 147.867C200.798 147.867 203.724 152.413 203.724 161.505C203.724 166.007 202.895 169.446 201.237 171.821C199.592 174.184 197.285 175.365 194.316 175.365ZM194.743 151.3C191.515 151.3 189.9 154.856 189.9 161.969C189.9 168.624 191.484 171.951 194.65 171.951C197.768 171.951 199.326 168.568 199.326 161.802C199.326 154.8 197.799 151.3 194.743 151.3Z" fill="black"/>
<path d="M171.977 123.309H167.529V137.08H165.725V123.309H161.288V121.676H171.977V123.309ZM176.617 137.338C174.992 137.338 173.692 136.826 172.718 135.802C171.751 134.771 171.268 133.406 171.268 131.709C171.268 129.861 171.772 128.418 172.782 127.38C173.792 126.341 175.156 125.822 176.875 125.822C178.515 125.822 179.793 126.327 180.71 127.337C181.634 128.347 182.096 129.747 182.096 131.537C182.096 133.292 181.598 134.699 180.603 135.759C179.614 136.812 178.286 137.338 176.617 137.338ZM176.746 127.305C175.615 127.305 174.719 127.691 174.061 128.465C173.402 129.231 173.072 130.291 173.072 131.645C173.072 132.948 173.405 133.976 174.071 134.728C174.737 135.479 175.629 135.855 176.746 135.855C177.885 135.855 178.758 135.487 179.367 134.749C179.983 134.011 180.291 132.962 180.291 131.602C180.291 130.227 179.983 129.167 179.367 128.422C178.758 127.677 177.885 127.305 176.746 127.305ZM190.013 136.973C189.597 137.202 189.049 137.316 188.369 137.316C186.443 137.316 185.479 136.242 185.479 134.094V127.584H183.589V126.08H185.479V123.395L187.241 122.825V126.08H190.013V127.584H187.241V133.782C187.241 134.52 187.367 135.046 187.617 135.361C187.868 135.676 188.283 135.834 188.863 135.834C189.307 135.834 189.69 135.712 190.013 135.469V136.973ZM200.239 137.08H198.478V135.361H198.435C197.668 136.679 196.54 137.338 195.051 137.338C193.955 137.338 193.096 137.048 192.473 136.468C191.857 135.888 191.549 135.118 191.549 134.158C191.549 132.103 192.759 130.907 195.18 130.57L198.478 130.108C198.478 128.239 197.722 127.305 196.211 127.305C194.886 127.305 193.69 127.756 192.623 128.658V126.854C193.704 126.166 194.951 125.822 196.361 125.822C198.947 125.822 200.239 127.19 200.239 129.926V137.08ZM198.478 131.516L195.824 131.881C195.008 131.995 194.392 132.2 193.977 132.493C193.561 132.78 193.354 133.292 193.354 134.029C193.354 134.566 193.543 135.007 193.923 135.351C194.31 135.687 194.822 135.855 195.459 135.855C196.333 135.855 197.052 135.551 197.618 134.942C198.191 134.326 198.478 133.549 198.478 132.611V131.516ZM205.32 137.08H203.559V120.795H205.32V137.08Z" fill="#555555"/>
<defs>
<filter id="filter0_d_330_8" x="0" y="302" width="15" height="15" filterUnits="userSpaceOnUse" color-interpolation-filters="sRGB">
<feFlood flood-opacity="0" result="BackgroundImageFix"/>
<feColorMatrix in="SourceAlpha" type="matrix" values="0 0 0 0 0 0 0 0 0 0 0 0 0 0 0 0 0 0 127 0" result="hardAlpha"/>
<feOffset dy="3"/>
<feGaussianBlur stdDeviation="1.5"/>
<feComposite in2="hardAlpha" operator="out"/>
<feColorMatrix type="matrix" values="0 0 0 0 0 0 0 0 0 0 0 0 0 0 0 0 0 0 0.160784 0"/>
<feBlend mode="normal" in2="BackgroundImageFix" result="effect1_dropShadow_330_8"/>
<feBlend mode="normal" in="SourceGraphic" in2="effect1_dropShadow_330_8" result="shape"/>
</filter>
<filter id="filter1_d_330_8" x="80" y="301.5" width="15" height="15" filterUnits="userSpaceOnUse" color-interpolation-filters="sRGB">
<feFlood flood-opacity="0" result="BackgroundImageFix"/>
<feColorMatrix in="SourceAlpha" type="matrix" values="0 0 0 0 0 0 0 0 0 0 0 0 0 0 0 0 0 0 127 0" result="hardAlpha"/>
<feOffset dy="3"/>
<feGaussianBlur stdDeviation="1.5"/>
<feComposite in2="hardAlpha" operator="out"/>
<feColorMatrix type="matrix" values="0 0 0 0 0 0 0 0 0 0 0 0 0 0 0 0 0 0 0.160784 0"/>
<feBlend mode="normal" in2="BackgroundImageFix" result="effect1_dropShadow_330_8"/>
<feBlend mode="normal" in="SourceGraphic" in2="effect1_dropShadow_330_8" result="shape"/>
</filter>
<filter id="filter2_d_330_8" x="160" y="301.5" width="15" height="15" filterUnits="userSpaceOnUse" color-interpolation-filters="sRGB">
<feFlood flood-opacity="0" result="BackgroundImageFix"/>
<feColorMatrix in="SourceAlpha" type="matrix" values="0 0 0 0 0 0 0 0 0 0 0 0 0 0 0 0 0 0 127 0" result="hardAlpha"/>
<feOffset dy="3"/>
<feGaussianBlur stdDeviation="1.5"/>
<feComposite in2="hardAlpha" operator="out"/>
<feColorMatrix type="matrix" values="0 0 0 0 0 0 0 0 0 0 0 0 0 0 0 0 0 0 0.160784 0"/>
<feBlend mode="normal" in2="BackgroundImageFix" result="effect1_dropShadow_330_8"/>
<feBlend mode="normal" in="SourceGraphic" in2="effect1_dropShadow_330_8" result="shape"/>
</filter>
<filter id="filter3_d_330_8" x="240" y="301.5" width="15" height="15" filterUnits="userSpaceOnUse" color-interpolation-filters="sRGB">
<feFlood flood-opacity="0" result="BackgroundImageFix"/>
<feColorMatrix in="SourceAlpha" type="matrix" values="0 0 0 0 0 0 0 0 0 0 0 0 0 0 0 0 0 0 127 0" result="hardAlpha"/>
<feOffset dy="3"/>
<feGaussianBlur stdDeviation="1.5"/>
<feComposite in2="hardAlpha" operator="out"/>
<feColorMatrix type="matrix" values="0 0 0 0 0 0 0 0 0 0 0 0 0 0 0 0 0 0 0.160784 0"/>
<feBlend mode="normal" in2="BackgroundImageFix" result="effect1_dropShadow_330_8"/>
<feBlend mode="normal" in="SourceGraphic" in2="effect1_dropShadow_330_8" result="shape"/>
</filter>
</defs>
</svg>
