<svg width="362" height="314" viewBox="0 0 362 314" fill="none" xmlns="http://www.w3.org/2000/svg">
<path d="M9 306.5C9 308.985 6.98528 311 4.5 311C2.01472 311 0 308.985 0 306.5C0 304.015 2.01472 302 4.5 302C6.98528 302 9 304.015 9 306.5Z" fill="#1F8507"/>
<path d="M19.2422 311H18.2812V303.74C18.207 303.814 18.0977 303.9 17.9531 303.998C17.8125 304.092 17.6523 304.186 17.4727 304.279C17.2969 304.373 17.1094 304.461 16.9102 304.543C16.7148 304.625 16.5234 304.689 16.3359 304.736V303.764C16.5469 303.705 16.7695 303.627 17.0039 303.529C17.2422 303.428 17.4746 303.316 17.7012 303.195C17.9316 303.07 18.1484 302.941 18.3516 302.809C18.5547 302.672 18.7305 302.539 18.8789 302.41H19.2422V311Z" fill="#1B1B1D"/>
<path d="M27.4453 306.764C27.4453 307.467 27.3809 308.09 27.252 308.633C27.127 309.176 26.9434 309.635 26.7012 310.01C26.4629 310.381 26.168 310.664 25.8164 310.859C25.4688 311.051 25.0723 311.147 24.627 311.147C24.2051 311.147 23.8281 311.055 23.4961 310.871C23.168 310.684 22.8906 310.412 22.6641 310.057C22.4375 309.701 22.2656 309.266 22.1484 308.75C22.0312 308.23 21.9727 307.637 21.9727 306.969C21.9727 306.234 22.0332 305.586 22.1543 305.023C22.2793 304.461 22.4609 303.99 22.6992 303.611C22.9375 303.229 23.2324 302.941 23.584 302.75C23.9395 302.555 24.3457 302.457 24.8027 302.457C26.5645 302.457 27.4453 303.893 27.4453 306.764ZM26.4609 306.857C26.4609 304.467 25.8926 303.272 24.7559 303.272C23.5566 303.272 22.957 304.488 22.957 306.922C22.957 309.191 23.5449 310.326 24.7207 310.326C25.8809 310.326 26.4609 309.17 26.4609 306.857Z" fill="#1B1B1D"/>
<path d="M37.3242 311H36.3633V309.98H36.3398C35.8945 310.754 35.207 311.141 34.2773 311.141C33.5234 311.141 32.9199 310.873 32.4668 310.338C32.0176 309.799 31.793 309.066 31.793 308.141C31.793 307.148 32.043 306.354 32.543 305.756C33.043 305.158 33.709 304.859 34.541 304.859C35.3652 304.859 35.9648 305.184 36.3398 305.832H36.3633V302.117H37.3242V311ZM36.3633 308.287V307.402C36.3633 306.918 36.2031 306.508 35.8828 306.172C35.5625 305.836 35.1562 305.668 34.6641 305.668C34.0781 305.668 33.6172 305.883 33.2812 306.313C32.9453 306.742 32.7773 307.336 32.7773 308.094C32.7773 308.785 32.9375 309.332 33.2578 309.734C33.582 310.133 34.0156 310.332 34.5586 310.332C35.0938 310.332 35.5273 310.139 35.8594 309.752C36.1953 309.365 36.3633 308.877 36.3633 308.287Z" fill="#1B1B1D"/>
<path d="M43.5645 311H42.6035V310.063H42.5801C42.1621 310.781 41.5469 311.141 40.7344 311.141C40.1367 311.141 39.668 310.982 39.3281 310.666C38.9922 310.35 38.8242 309.93 38.8242 309.406C38.8242 308.285 39.4844 307.633 40.8047 307.449L42.6035 307.197C42.6035 306.178 42.1914 305.668 41.3672 305.668C40.6445 305.668 39.9922 305.914 39.4102 306.406V305.422C40 305.047 40.6797 304.859 41.4492 304.859C42.8594 304.859 43.5645 305.605 43.5645 307.098V311ZM42.6035 307.965L41.1562 308.164C40.7109 308.227 40.375 308.338 40.1484 308.498C39.9219 308.654 39.8086 308.934 39.8086 309.336C39.8086 309.629 39.9121 309.869 40.1191 310.057C40.3301 310.24 40.6094 310.332 40.957 310.332C41.4336 310.332 41.8262 310.166 42.1348 309.834C42.4473 309.498 42.6035 309.074 42.6035 308.563V307.965Z" fill="#1B1B1D"/>
<path d="M50.1504 305L47.3906 311.961C46.8984 313.203 46.207 313.824 45.3164 313.824C45.0664 313.824 44.8574 313.799 44.6895 313.748V312.887C44.8965 312.957 45.0859 312.992 45.2578 312.992C45.7422 312.992 46.1055 312.703 46.3477 312.125L46.8281 310.988L44.4844 305H45.5508L47.1738 309.617C47.1934 309.676 47.2344 309.828 47.2969 310.074H47.332C47.3516 309.98 47.3906 309.832 47.4492 309.629L49.1543 305H50.1504Z" fill="#1B1B1D"/>
<path d="M50.8242 310.783V309.752C51.3477 310.139 51.9238 310.332 52.5527 310.332C53.3965 310.332 53.8184 310.051 53.8184 309.488C53.8184 309.328 53.7812 309.193 53.707 309.084C53.6367 308.971 53.5391 308.871 53.4141 308.785C53.293 308.699 53.1484 308.623 52.9805 308.557C52.8164 308.486 52.6387 308.414 52.4473 308.34C52.1816 308.234 51.9473 308.129 51.7441 308.023C51.5449 307.914 51.377 307.793 51.2402 307.66C51.1074 307.523 51.0059 307.369 50.9355 307.197C50.8691 307.025 50.8359 306.824 50.8359 306.594C50.8359 306.313 50.9004 306.064 51.0293 305.85C51.1582 305.631 51.3301 305.449 51.5449 305.305C51.7598 305.156 52.0039 305.045 52.2773 304.971C52.5547 304.897 52.8398 304.859 53.1328 304.859C53.6523 304.859 54.1172 304.949 54.5273 305.129V306.102C54.0859 305.813 53.5781 305.668 53.0039 305.668C52.8242 305.668 52.6621 305.689 52.5176 305.732C52.373 305.772 52.248 305.828 52.1426 305.902C52.041 305.977 51.9609 306.066 51.9023 306.172C51.8477 306.273 51.8203 306.387 51.8203 306.512C51.8203 306.668 51.8477 306.799 51.9023 306.904C51.9609 307.01 52.0449 307.104 52.1543 307.186C52.2637 307.268 52.3965 307.342 52.5527 307.408C52.709 307.475 52.8867 307.547 53.0859 307.625C53.3516 307.727 53.5898 307.832 53.8008 307.941C54.0117 308.047 54.1914 308.168 54.3398 308.305C54.4883 308.438 54.6016 308.592 54.6797 308.768C54.7617 308.943 54.8027 309.152 54.8027 309.395C54.8027 309.691 54.7363 309.949 54.6035 310.168C54.4746 310.387 54.3008 310.568 54.082 310.713C53.8633 310.857 53.6113 310.965 53.3262 311.035C53.041 311.105 52.7422 311.141 52.4297 311.141C51.8125 311.141 51.2773 311.022 50.8242 310.783Z" fill="#1B1B1D"/>
<path d="M89 306C89 308.485 86.9853 310.5 84.5 310.5C82.0147 310.5 80 308.485 80 306C80 303.515 82.0147 301.5 84.5 301.5C86.9853 301.5 89 303.515 89 306Z" fill="#2538D5"/>
<path d="M99.2422 311H98.2812V303.74C98.207 303.814 98.0977 303.9 97.9531 303.998C97.8125 304.092 97.6523 304.186 97.4727 304.279C97.2969 304.373 97.1094 304.461 96.9102 304.543C96.7148 304.625 96.5234 304.689 96.3359 304.736V303.764C96.5469 303.705 96.7695 303.627 97.0039 303.529C97.2422 303.428 97.4746 303.316 97.7012 303.195C97.9316 303.07 98.1484 302.941 98.3516 302.809C98.5547 302.672 98.7305 302.539 98.8789 302.41H99.2422V311Z" fill="#1B1B1D"/>
<path d="M107.146 308.434C107.146 308.844 107.076 309.215 106.936 309.547C106.795 309.879 106.594 310.164 106.332 310.402C106.074 310.641 105.762 310.824 105.395 310.953C105.027 311.082 104.619 311.147 104.17 311.147C103.389 311.147 102.809 311.029 102.43 310.795V309.775C103 310.143 103.584 310.326 104.182 310.326C104.486 310.326 104.76 310.281 105.002 310.191C105.248 310.102 105.457 309.977 105.629 309.816C105.801 309.656 105.932 309.463 106.021 309.236C106.115 309.01 106.162 308.762 106.162 308.492C106.162 307.945 105.979 307.518 105.611 307.209C105.244 306.897 104.711 306.74 104.012 306.74C103.898 306.74 103.779 306.742 103.654 306.746C103.529 306.75 103.404 306.756 103.279 306.764C103.154 306.768 103.031 306.773 102.91 306.781C102.793 306.789 102.686 306.799 102.588 306.811L102.875 302.598H106.76V303.465H103.707L103.537 305.932C103.662 305.924 103.795 305.918 103.936 305.914C104.076 305.906 104.201 305.902 104.311 305.902C104.756 305.902 105.154 305.961 105.506 306.078C105.857 306.195 106.154 306.363 106.396 306.582C106.643 306.797 106.828 307.063 106.953 307.379C107.082 307.691 107.146 308.043 107.146 308.434Z" fill="#1B1B1D"/>
<path d="M117.324 311H116.363V309.98H116.34C115.895 310.754 115.207 311.141 114.277 311.141C113.523 311.141 112.92 310.873 112.467 310.338C112.018 309.799 111.793 309.066 111.793 308.141C111.793 307.148 112.043 306.354 112.543 305.756C113.043 305.158 113.709 304.859 114.541 304.859C115.365 304.859 115.965 305.184 116.34 305.832H116.363V302.117H117.324V311ZM116.363 308.287V307.402C116.363 306.918 116.203 306.508 115.883 306.172C115.562 305.836 115.156 305.668 114.664 305.668C114.078 305.668 113.617 305.883 113.281 306.313C112.945 306.742 112.777 307.336 112.777 308.094C112.777 308.785 112.938 309.332 113.258 309.734C113.582 310.133 114.016 310.332 114.559 310.332C115.094 310.332 115.527 310.139 115.859 309.752C116.195 309.365 116.363 308.877 116.363 308.287Z" fill="#1B1B1D"/>
<path d="M123.564 311H122.604V310.063H122.58C122.162 310.781 121.547 311.141 120.734 311.141C120.137 311.141 119.668 310.982 119.328 310.666C118.992 310.35 118.824 309.93 118.824 309.406C118.824 308.285 119.484 307.633 120.805 307.449L122.604 307.197C122.604 306.178 122.191 305.668 121.367 305.668C120.645 305.668 119.992 305.914 119.41 306.406V305.422C120 305.047 120.68 304.859 121.449 304.859C122.859 304.859 123.564 305.605 123.564 307.098V311ZM122.604 307.965L121.156 308.164C120.711 308.227 120.375 308.338 120.148 308.498C119.922 308.654 119.809 308.934 119.809 309.336C119.809 309.629 119.912 309.869 120.119 310.057C120.33 310.24 120.609 310.332 120.957 310.332C121.434 310.332 121.826 310.166 122.135 309.834C122.447 309.498 122.604 309.074 122.604 308.563V307.965Z" fill="#1B1B1D"/>
<path d="M130.15 305L127.391 311.961C126.898 313.203 126.207 313.824 125.316 313.824C125.066 313.824 124.857 313.799 124.689 313.748V312.887C124.896 312.957 125.086 312.992 125.258 312.992C125.742 312.992 126.105 312.703 126.348 312.125L126.828 310.988L124.484 305H125.551L127.174 309.617C127.193 309.676 127.234 309.828 127.297 310.074H127.332C127.352 309.98 127.391 309.832 127.449 309.629L129.154 305H130.15Z" fill="#1B1B1D"/>
<path d="M130.824 310.783V309.752C131.348 310.139 131.924 310.332 132.553 310.332C133.396 310.332 133.818 310.051 133.818 309.488C133.818 309.328 133.781 309.193 133.707 309.084C133.637 308.971 133.539 308.871 133.414 308.785C133.293 308.699 133.148 308.623 132.98 308.557C132.816 308.486 132.639 308.414 132.447 308.34C132.182 308.234 131.947 308.129 131.744 308.023C131.545 307.914 131.377 307.793 131.24 307.66C131.107 307.523 131.006 307.369 130.936 307.197C130.869 307.025 130.836 306.824 130.836 306.594C130.836 306.313 130.9 306.064 131.029 305.85C131.158 305.631 131.33 305.449 131.545 305.305C131.76 305.156 132.004 305.045 132.277 304.971C132.555 304.897 132.84 304.859 133.133 304.859C133.652 304.859 134.117 304.949 134.527 305.129V306.102C134.086 305.813 133.578 305.668 133.004 305.668C132.824 305.668 132.662 305.689 132.518 305.732C132.373 305.772 132.248 305.828 132.143 305.902C132.041 305.977 131.961 306.066 131.902 306.172C131.848 306.273 131.82 306.387 131.82 306.512C131.82 306.668 131.848 306.799 131.902 306.904C131.961 307.01 132.045 307.104 132.154 307.186C132.264 307.268 132.396 307.342 132.553 307.408C132.709 307.475 132.887 307.547 133.086 307.625C133.352 307.727 133.59 307.832 133.801 307.941C134.012 308.047 134.191 308.168 134.34 308.305C134.488 308.438 134.602 308.592 134.68 308.768C134.762 308.943 134.803 309.152 134.803 309.395C134.803 309.691 134.736 309.949 134.604 310.168C134.475 310.387 134.301 310.568 134.082 310.713C133.863 310.857 133.611 310.965 133.326 311.035C133.041 311.105 132.742 311.141 132.43 311.141C131.812 311.141 131.277 311.022 130.824 310.783Z" fill="#1B1B1D"/>
<path d="M169 306C169 308.485 166.985 310.5 164.5 310.5C162.015 310.5 160 308.485 160 306C160 303.515 162.015 301.5 164.5 301.5C166.985 301.5 169 303.515 169 306Z" fill="#AC25D5"/>
<path d="M180.584 308.621C180.584 309 180.512 309.346 180.367 309.658C180.227 309.967 180.025 310.232 179.764 310.455C179.506 310.674 179.195 310.844 178.832 310.965C178.469 311.086 178.068 311.147 177.631 311.147C176.83 311.147 176.193 310.994 175.721 310.689V309.658C176.287 310.104 176.936 310.326 177.666 310.326C177.959 310.326 178.223 310.289 178.457 310.215C178.695 310.141 178.898 310.033 179.066 309.893C179.238 309.752 179.369 309.582 179.459 309.383C179.553 309.184 179.6 308.959 179.6 308.709C179.6 307.611 178.818 307.063 177.256 307.063H176.559V306.248H177.221C178.604 306.248 179.295 305.732 179.295 304.701C179.295 303.748 178.768 303.272 177.713 303.272C177.119 303.272 176.562 303.471 176.043 303.869V302.938C176.578 302.617 177.215 302.457 177.953 302.457C178.305 302.457 178.623 302.506 178.908 302.604C179.193 302.701 179.438 302.838 179.641 303.014C179.844 303.189 180 303.4 180.109 303.647C180.223 303.893 180.279 304.164 180.279 304.461C180.279 305.566 179.721 306.277 178.604 306.594V306.617C178.889 306.648 179.152 306.719 179.395 306.828C179.637 306.934 179.846 307.072 180.021 307.244C180.197 307.416 180.334 307.619 180.432 307.854C180.533 308.084 180.584 308.34 180.584 308.621Z" fill="#1B1B1D"/>
<path d="M187.445 306.764C187.445 307.467 187.381 308.09 187.252 308.633C187.127 309.176 186.943 309.635 186.701 310.01C186.463 310.381 186.168 310.664 185.816 310.859C185.469 311.051 185.072 311.147 184.627 311.147C184.205 311.147 183.828 311.055 183.496 310.871C183.168 310.684 182.891 310.412 182.664 310.057C182.438 309.701 182.266 309.266 182.148 308.75C182.031 308.23 181.973 307.637 181.973 306.969C181.973 306.234 182.033 305.586 182.154 305.023C182.279 304.461 182.461 303.99 182.699 303.611C182.938 303.229 183.232 302.941 183.584 302.75C183.939 302.555 184.346 302.457 184.803 302.457C186.564 302.457 187.445 303.893 187.445 306.764ZM186.461 306.857C186.461 304.467 185.893 303.272 184.756 303.272C183.557 303.272 182.957 304.488 182.957 306.922C182.957 309.191 183.545 310.326 184.721 310.326C185.881 310.326 186.461 309.17 186.461 306.857Z" fill="#1B1B1D"/>
<path d="M197.324 311H196.363V309.98H196.34C195.895 310.754 195.207 311.141 194.277 311.141C193.523 311.141 192.92 310.873 192.467 310.338C192.018 309.799 191.793 309.066 191.793 308.141C191.793 307.148 192.043 306.354 192.543 305.756C193.043 305.158 193.709 304.859 194.541 304.859C195.365 304.859 195.965 305.184 196.34 305.832H196.363V302.117H197.324V311ZM196.363 308.287V307.402C196.363 306.918 196.203 306.508 195.883 306.172C195.562 305.836 195.156 305.668 194.664 305.668C194.078 305.668 193.617 305.883 193.281 306.313C192.945 306.742 192.777 307.336 192.777 308.094C192.777 308.785 192.938 309.332 193.258 309.734C193.582 310.133 194.016 310.332 194.559 310.332C195.094 310.332 195.527 310.139 195.859 309.752C196.195 309.365 196.363 308.877 196.363 308.287Z" fill="#1B1B1D"/>
<path d="M203.564 311H202.604V310.063H202.58C202.162 310.781 201.547 311.141 200.734 311.141C200.137 311.141 199.668 310.982 199.328 310.666C198.992 310.35 198.824 309.93 198.824 309.406C198.824 308.285 199.484 307.633 200.805 307.449L202.604 307.197C202.604 306.178 202.191 305.668 201.367 305.668C200.645 305.668 199.992 305.914 199.41 306.406V305.422C200 305.047 200.68 304.859 201.449 304.859C202.859 304.859 203.564 305.605 203.564 307.098V311ZM202.604 307.965L201.156 308.164C200.711 308.227 200.375 308.338 200.148 308.498C199.922 308.654 199.809 308.934 199.809 309.336C199.809 309.629 199.912 309.869 200.119 310.057C200.33 310.24 200.609 310.332 200.957 310.332C201.434 310.332 201.826 310.166 202.135 309.834C202.447 309.498 202.604 309.074 202.604 308.563V307.965Z" fill="#1B1B1D"/>
<path d="M210.15 305L207.391 311.961C206.898 313.203 206.207 313.824 205.316 313.824C205.066 313.824 204.857 313.799 204.689 313.748V312.887C204.896 312.957 205.086 312.992 205.258 312.992C205.742 312.992 206.105 312.703 206.348 312.125L206.828 310.988L204.484 305H205.551L207.174 309.617C207.193 309.676 207.234 309.828 207.297 310.074H207.332C207.352 309.98 207.391 309.832 207.449 309.629L209.154 305H210.15Z" fill="#1B1B1D"/>
<path d="M210.824 310.783V309.752C211.348 310.139 211.924 310.332 212.553 310.332C213.396 310.332 213.818 310.051 213.818 309.488C213.818 309.328 213.781 309.193 213.707 309.084C213.637 308.971 213.539 308.871 213.414 308.785C213.293 308.699 213.148 308.623 212.98 308.557C212.816 308.486 212.639 308.414 212.447 308.34C212.182 308.234 211.947 308.129 211.744 308.023C211.545 307.914 211.377 307.793 211.24 307.66C211.107 307.523 211.006 307.369 210.936 307.197C210.869 307.025 210.836 306.824 210.836 306.594C210.836 306.313 210.9 306.064 211.029 305.85C211.158 305.631 211.33 305.449 211.545 305.305C211.76 305.156 212.004 305.045 212.277 304.971C212.555 304.897 212.84 304.859 213.133 304.859C213.652 304.859 214.117 304.949 214.527 305.129V306.102C214.086 305.813 213.578 305.668 213.004 305.668C212.824 305.668 212.662 305.689 212.518 305.732C212.373 305.772 212.248 305.828 212.143 305.902C212.041 305.977 211.961 306.066 211.902 306.172C211.848 306.273 211.82 306.387 211.82 306.512C211.82 306.668 211.848 306.799 211.902 306.904C211.961 307.01 212.045 307.104 212.154 307.186C212.264 307.268 212.396 307.342 212.553 307.408C212.709 307.475 212.887 307.547 213.086 307.625C213.352 307.727 213.59 307.832 213.801 307.941C214.012 308.047 214.191 308.168 214.34 308.305C214.488 308.438 214.602 308.592 214.68 308.768C214.762 308.943 214.803 309.152 214.803 309.395C214.803 309.691 214.736 309.949 214.604 310.168C214.475 310.387 214.301 310.568 214.082 310.713C213.863 310.857 213.611 310.965 213.326 311.035C213.041 311.105 212.742 311.141 212.43 311.141C211.812 311.141 211.277 311.022 210.824 310.783Z" fill="#1B1B1D"/>
<path d="M249 306C249 308.485 246.985 310.5 244.5 310.5C242.015 310.5 240 308.485 240 306C240 303.515 242.015 301.5 244.5 301.5C246.985 301.5 249 303.515 249 306Z" fill="#6C8190"/>
<path d="M264.668 311H263.689V305.363C263.689 304.918 263.717 304.373 263.771 303.729H263.748C263.654 304.107 263.57 304.379 263.496 304.543L260.625 311H260.145L257.279 304.59C257.197 304.402 257.113 304.115 257.027 303.729H257.004C257.035 304.064 257.051 304.613 257.051 305.375V311H256.102V302.598H257.402L259.98 308.457C260.18 308.906 260.309 309.242 260.367 309.465H260.402C260.57 309.004 260.705 308.66 260.807 308.434L263.438 302.598H264.668V311Z" fill="#1B1B1D"/>
<path d="M269.262 311.141C268.375 311.141 267.666 310.861 267.135 310.303C266.607 309.74 266.344 308.996 266.344 308.07C266.344 307.063 266.619 306.275 267.17 305.709C267.721 305.143 268.465 304.859 269.402 304.859C270.297 304.859 270.994 305.135 271.494 305.686C271.998 306.236 272.25 307 272.25 307.977C272.25 308.934 271.979 309.701 271.436 310.279C270.896 310.854 270.172 311.141 269.262 311.141ZM269.332 305.668C268.715 305.668 268.227 305.879 267.867 306.301C267.508 306.719 267.328 307.297 267.328 308.035C267.328 308.746 267.51 309.307 267.873 309.717C268.236 310.127 268.723 310.332 269.332 310.332C269.953 310.332 270.43 310.131 270.762 309.729C271.098 309.326 271.266 308.754 271.266 308.012C271.266 307.262 271.098 306.684 270.762 306.277C270.43 305.871 269.953 305.668 269.332 305.668Z" fill="#1B1B1D"/>
<path d="M276.914 305.973C276.746 305.844 276.504 305.779 276.188 305.779C275.777 305.779 275.434 305.973 275.156 306.359C274.883 306.746 274.746 307.273 274.746 307.941V311H273.785V305H274.746V306.236H274.77C274.906 305.814 275.115 305.486 275.396 305.252C275.678 305.014 275.992 304.895 276.34 304.895C276.59 304.895 276.781 304.922 276.914 304.977V305.973Z" fill="#1B1B1D"/>
<path d="M282.779 308.24H278.543C278.559 308.908 278.738 309.424 279.082 309.787C279.426 310.15 279.898 310.332 280.5 310.332C281.176 310.332 281.797 310.109 282.363 309.664V310.566C281.836 310.949 281.139 311.141 280.271 311.141C279.424 311.141 278.758 310.869 278.273 310.326C277.789 309.779 277.547 309.012 277.547 308.023C277.547 307.09 277.811 306.33 278.338 305.744C278.869 305.154 279.527 304.859 280.312 304.859C281.098 304.859 281.705 305.113 282.135 305.621C282.564 306.129 282.779 306.834 282.779 307.736V308.24ZM281.795 307.426C281.791 306.871 281.656 306.439 281.391 306.131C281.129 305.822 280.764 305.668 280.295 305.668C279.842 305.668 279.457 305.83 279.141 306.154C278.824 306.479 278.629 306.902 278.555 307.426H281.795Z" fill="#1B1B1D"/>
<path d="M290.314 310.941C290.088 311.066 289.789 311.129 289.418 311.129C288.367 311.129 287.842 310.543 287.842 309.371V305.82H286.811V305H287.842V303.535L288.803 303.225V305H290.314V305.82H288.803V309.201C288.803 309.604 288.871 309.891 289.008 310.063C289.145 310.234 289.371 310.32 289.688 310.32C289.93 310.32 290.139 310.254 290.314 310.121V310.941Z" fill="#1B1B1D"/>
<path d="M296.578 311H295.617V307.543C295.617 306.293 295.152 305.668 294.223 305.668C293.754 305.668 293.359 305.85 293.039 306.213C292.719 306.572 292.559 307.035 292.559 307.602V311H291.598V302.117H292.559V305.996H292.582C293.043 305.238 293.699 304.859 294.551 304.859C295.902 304.859 296.578 305.674 296.578 307.303V311Z" fill="#1B1B1D"/>
<path d="M302.689 311H301.729V310.063H301.705C301.287 310.781 300.672 311.141 299.859 311.141C299.262 311.141 298.793 310.982 298.453 310.666C298.117 310.35 297.949 309.93 297.949 309.406C297.949 308.285 298.609 307.633 299.93 307.449L301.729 307.197C301.729 306.178 301.316 305.668 300.492 305.668C299.77 305.668 299.117 305.914 298.535 306.406V305.422C299.125 305.047 299.805 304.859 300.574 304.859C301.984 304.859 302.689 305.605 302.689 307.098V311ZM301.729 307.965L300.281 308.164C299.836 308.227 299.5 308.338 299.273 308.498C299.047 308.654 298.934 308.934 298.934 309.336C298.934 309.629 299.037 309.869 299.244 310.057C299.455 310.24 299.734 310.332 300.082 310.332C300.559 310.332 300.951 310.166 301.26 309.834C301.572 309.498 301.729 309.074 301.729 308.563V307.965Z" fill="#1B1B1D"/>
<path d="M309.48 311H308.52V307.578C308.52 306.305 308.055 305.668 307.125 305.668C306.645 305.668 306.246 305.85 305.93 306.213C305.617 306.572 305.461 307.027 305.461 307.578V311H304.5V305H305.461V305.996H305.484C305.938 305.238 306.594 304.859 307.453 304.859C308.109 304.859 308.611 305.072 308.959 305.498C309.307 305.92 309.48 306.531 309.48 307.332V311Z" fill="#1B1B1D"/>
<path d="M320.25 307.725L315.211 310.256V309.383L318.984 307.555V307.52L315.211 305.434V304.555L320.25 307.379V307.725Z" fill="#1B1B1D"/>
<path d="M330.709 308.621C330.709 309 330.637 309.346 330.492 309.658C330.352 309.967 330.15 310.232 329.889 310.455C329.631 310.674 329.32 310.844 328.957 310.965C328.594 311.086 328.193 311.147 327.756 311.147C326.955 311.147 326.318 310.994 325.846 310.689V309.658C326.412 310.104 327.061 310.326 327.791 310.326C328.084 310.326 328.348 310.289 328.582 310.215C328.82 310.141 329.023 310.033 329.191 309.893C329.363 309.752 329.494 309.582 329.584 309.383C329.678 309.184 329.725 308.959 329.725 308.709C329.725 307.611 328.943 307.063 327.381 307.063H326.684V306.248H327.346C328.729 306.248 329.42 305.732 329.42 304.701C329.42 303.748 328.893 303.272 327.838 303.272C327.244 303.272 326.688 303.471 326.168 303.869V302.938C326.703 302.617 327.34 302.457 328.078 302.457C328.43 302.457 328.748 302.506 329.033 302.604C329.318 302.701 329.562 302.838 329.766 303.014C329.969 303.189 330.125 303.4 330.234 303.647C330.348 303.893 330.404 304.164 330.404 304.461C330.404 305.566 329.846 306.277 328.729 306.594V306.617C329.014 306.648 329.277 306.719 329.52 306.828C329.762 306.934 329.971 307.072 330.146 307.244C330.322 307.416 330.459 307.619 330.557 307.854C330.658 308.084 330.709 308.34 330.709 308.621Z" fill="#1B1B1D"/>
<path d="M337.57 306.764C337.57 307.467 337.506 308.09 337.377 308.633C337.252 309.176 337.068 309.635 336.826 310.01C336.588 310.381 336.293 310.664 335.941 310.859C335.594 311.051 335.197 311.147 334.752 311.147C334.33 311.147 333.953 311.055 333.621 310.871C333.293 310.684 333.016 310.412 332.789 310.057C332.562 309.701 332.391 309.266 332.273 308.75C332.156 308.23 332.098 307.637 332.098 306.969C332.098 306.234 332.158 305.586 332.279 305.023C332.404 304.461 332.586 303.99 332.824 303.611C333.062 303.229 333.357 302.941 333.709 302.75C334.064 302.555 334.471 302.457 334.928 302.457C336.689 302.457 337.57 303.893 337.57 306.764ZM336.586 306.857C336.586 304.467 336.018 303.272 334.881 303.272C333.682 303.272 333.082 304.488 333.082 306.922C333.082 309.191 333.67 310.326 334.846 310.326C336.006 310.326 336.586 309.17 336.586 306.857Z" fill="#1B1B1D"/>
<path d="M344.156 311H343.195V309.98H343.172C342.727 310.754 342.039 311.141 341.109 311.141C340.355 311.141 339.752 310.873 339.299 310.338C338.85 309.799 338.625 309.066 338.625 308.141C338.625 307.148 338.875 306.354 339.375 305.756C339.875 305.158 340.541 304.859 341.373 304.859C342.197 304.859 342.797 305.184 343.172 305.832H343.195V302.117H344.156V311ZM343.195 308.287V307.402C343.195 306.918 343.035 306.508 342.715 306.172C342.395 305.836 341.988 305.668 341.496 305.668C340.91 305.668 340.449 305.883 340.113 306.313C339.777 306.742 339.609 307.336 339.609 308.094C339.609 308.785 339.77 309.332 340.09 309.734C340.414 310.133 340.848 310.332 341.391 310.332C341.926 310.332 342.359 310.139 342.691 309.752C343.027 309.365 343.195 308.877 343.195 308.287Z" fill="#1B1B1D"/>
<path d="M350.396 311H349.436V310.063H349.412C348.994 310.781 348.379 311.141 347.566 311.141C346.969 311.141 346.5 310.982 346.16 310.666C345.824 310.35 345.656 309.93 345.656 309.406C345.656 308.285 346.316 307.633 347.637 307.449L349.436 307.197C349.436 306.178 349.023 305.668 348.199 305.668C347.477 305.668 346.824 305.914 346.242 306.406V305.422C346.832 305.047 347.512 304.859 348.281 304.859C349.691 304.859 350.396 305.605 350.396 307.098V311ZM349.436 307.965L347.988 308.164C347.543 308.227 347.207 308.338 346.98 308.498C346.754 308.654 346.641 308.934 346.641 309.336C346.641 309.629 346.744 309.869 346.951 310.057C347.162 310.24 347.441 310.332 347.789 310.332C348.266 310.332 348.658 310.166 348.967 309.834C349.279 309.498 349.436 309.074 349.436 308.563V307.965Z" fill="#1B1B1D"/>
<path d="M356.982 305L354.223 311.961C353.73 313.203 353.039 313.824 352.148 313.824C351.898 313.824 351.689 313.799 351.521 313.748V312.887C351.729 312.957 351.918 312.992 352.09 312.992C352.574 312.992 352.938 312.703 353.18 312.125L353.66 310.988L351.316 305H352.383L354.006 309.617C354.025 309.676 354.066 309.828 354.129 310.074H354.164C354.184 309.98 354.223 309.832 354.281 309.629L355.986 305H356.982Z" fill="#1B1B1D"/>
<path d="M357.656 310.783V309.752C358.18 310.139 358.756 310.332 359.385 310.332C360.229 310.332 360.65 310.051 360.65 309.488C360.65 309.328 360.613 309.193 360.539 309.084C360.469 308.971 360.371 308.871 360.246 308.785C360.125 308.699 359.98 308.623 359.812 308.557C359.648 308.486 359.471 308.414 359.279 308.34C359.014 308.234 358.779 308.129 358.576 308.023C358.377 307.914 358.209 307.793 358.072 307.66C357.939 307.523 357.838 307.369 357.768 307.197C357.701 307.025 357.668 306.824 357.668 306.594C357.668 306.313 357.732 306.064 357.861 305.85C357.99 305.631 358.162 305.449 358.377 305.305C358.592 305.156 358.836 305.045 359.109 304.971C359.387 304.897 359.672 304.859 359.965 304.859C360.484 304.859 360.949 304.949 361.359 305.129V306.102C360.918 305.813 360.41 305.668 359.836 305.668C359.656 305.668 359.494 305.689 359.35 305.732C359.205 305.772 359.08 305.828 358.975 305.902C358.873 305.977 358.793 306.066 358.734 306.172C358.68 306.273 358.652 306.387 358.652 306.512C358.652 306.668 358.68 306.799 358.734 306.904C358.793 307.01 358.877 307.104 358.986 307.186C359.096 307.268 359.229 307.342 359.385 307.408C359.541 307.475 359.719 307.547 359.918 307.625C360.184 307.727 360.422 307.832 360.633 307.941C360.844 308.047 361.023 308.168 361.172 308.305C361.32 308.438 361.434 308.592 361.512 308.768C361.594 308.943 361.635 309.152 361.635 309.395C361.635 309.691 361.568 309.949 361.436 310.168C361.307 310.387 361.133 310.568 360.914 310.713C360.695 310.857 360.443 310.965 360.158 311.035C359.873 311.105 359.574 311.141 359.262 311.141C358.645 311.141 358.109 311.022 357.656 310.783Z" fill="#1B1B1D"/>
<path d="M108.838 270.768C133.771 285.074 162.394 291.646 191.07 289.65C219.747 287.654 247.183 277.179 269.893 259.556L236.114 216.025C222.033 226.951 205.023 233.445 187.243 234.683C169.464 235.921 151.718 231.846 136.259 222.976L108.838 270.768Z" fill="#2538D5"/>
<path d="M273.394 256.751C296.224 237.876 312.725 212.461 320.677 183.926C328.63 155.391 327.651 125.105 317.875 97.1425C308.098 69.1802 289.991 44.883 265.991 27.5201C241.991 10.1571 213.249 0.561404 183.631 0.0238893L182.631 55.1148C200.994 55.4481 218.814 61.3974 233.694 72.1625C248.575 82.9275 259.801 97.9917 265.862 115.328C271.924 132.665 272.53 151.442 267.6 169.134C262.67 186.826 252.439 202.583 238.285 214.286L273.394 256.751Z" fill="#249609"/>
<path d="M104.162 267.967C87.5451 257.584 73.2053 243.941 62.0082 227.861C50.8111 211.782 42.9891 193.6 39.0145 174.413C35.0399 155.226 34.9952 135.433 38.8831 116.229C42.7709 97.0246 50.5107 78.8074 61.635 62.6775L106.994 93.9601C100.097 103.961 95.298 115.255 92.8875 127.162C90.477 139.069 90.5048 151.34 92.969 163.236C95.4333 175.132 100.283 186.405 107.225 196.374C114.167 206.343 123.058 214.802 133.36 221.24L104.162 267.967Z" fill="#AC25D5"/>
<path d="M64.248 59.0118C77.5429 40.9604 94.8424 26.2378 114.787 16.0004C134.732 5.76312 156.78 0.290054 179.197 0.0112305L179.882 55.107C165.983 55.2798 152.314 58.6731 139.948 65.0203C127.582 71.3674 116.857 80.4955 108.614 91.6873L64.248 59.0118Z" fill="#6C8190"/>
<path d="M162.817 174.308V170.17C164.561 171.345 166.33 171.933 168.123 171.933C169.929 171.933 171.383 171.475 172.484 170.56C173.584 169.632 174.135 168.401 174.135 166.867C174.135 165.358 173.572 164.183 172.446 163.342C171.333 162.501 169.731 162.08 167.641 162.08C166.923 162.08 165.47 162.154 163.28 162.303L164.227 148.313H177.326V151.986H167.808L167.362 158.647C168.216 158.598 168.989 158.573 169.682 158.573C172.502 158.573 174.679 159.297 176.213 160.744C177.759 162.191 178.532 164.171 178.532 166.682C178.532 169.316 177.648 171.432 175.879 173.027C174.123 174.611 171.704 175.402 168.624 175.402C166.026 175.402 164.091 175.037 162.817 174.308Z" fill="black"/>
<path d="M191.317 175.365C188.546 175.365 186.381 174.233 184.822 171.97C183.276 169.706 182.503 166.434 182.503 162.154C182.503 157.454 183.313 153.897 184.934 151.485C186.554 149.073 188.892 147.867 191.947 147.867C197.798 147.867 200.724 152.413 200.724 161.505C200.724 166.008 199.895 169.446 198.237 171.821C196.592 174.184 194.285 175.365 191.317 175.365ZM191.743 151.3C188.515 151.3 186.901 154.856 186.901 161.969C186.901 168.624 188.484 171.951 191.651 171.951C194.768 171.951 196.326 168.568 196.326 161.802C196.326 154.8 194.799 151.3 191.743 151.3Z" fill="black"/>
<path d="M168.977 123.309H164.529V137.08H162.725V123.309H158.288V121.676H168.977V123.309Z" fill="#555555"/>
<path d="M173.617 137.338C171.992 137.338 170.692 136.826 169.718 135.802C168.751 134.771 168.268 133.406 168.268 131.709C168.268 129.861 168.772 128.418 169.782 127.38C170.792 126.341 172.156 125.822 173.875 125.822C175.515 125.822 176.793 126.327 177.71 127.337C178.634 128.347 179.096 129.747 179.096 131.537C179.096 133.292 178.598 134.699 177.603 135.759C176.614 136.812 175.286 137.338 173.617 137.338ZM173.746 127.305C172.615 127.305 171.719 127.691 171.061 128.465C170.402 129.231 170.072 130.291 170.072 131.645C170.072 132.948 170.405 133.976 171.071 134.728C171.737 135.48 172.629 135.855 173.746 135.855C174.885 135.855 175.758 135.487 176.367 134.749C176.983 134.011 177.291 132.962 177.291 131.602C177.291 130.227 176.983 129.167 176.367 128.422C175.758 127.677 174.885 127.305 173.746 127.305Z" fill="#555555"/>
<path d="M187.013 136.973C186.597 137.202 186.049 137.316 185.369 137.316C183.443 137.316 182.479 136.242 182.479 134.094V127.584H180.589V126.08H182.479V123.395L184.241 122.825V126.08H187.013V127.584H184.241V133.782C184.241 134.52 184.367 135.046 184.617 135.361C184.868 135.676 185.283 135.834 185.863 135.834C186.307 135.834 186.69 135.712 187.013 135.469V136.973Z" fill="#555555"/>
<path d="M197.239 137.08H195.478V135.361H195.435C194.668 136.679 193.54 137.338 192.051 137.338C190.955 137.338 190.096 137.048 189.473 136.468C188.857 135.888 188.549 135.118 188.549 134.158C188.549 132.103 189.759 130.907 192.18 130.57L195.478 130.108C195.478 128.239 194.722 127.305 193.211 127.305C191.886 127.305 190.69 127.756 189.623 128.658V126.854C190.704 126.166 191.951 125.822 193.361 125.822C195.947 125.822 197.239 127.19 197.239 129.926V137.08ZM195.478 131.516L192.824 131.881C192.008 131.995 191.392 132.2 190.977 132.493C190.561 132.78 190.354 133.292 190.354 134.029C190.354 134.566 190.543 135.007 190.923 135.351C191.31 135.687 191.822 135.855 192.459 135.855C193.333 135.855 194.052 135.551 194.618 134.942C195.191 134.327 195.478 133.549 195.478 132.611V131.516Z" fill="#555555"/>
<path d="M202.32 137.08H200.559V120.795H202.32V137.08Z" fill="#555555"/>
</svg>
